<svg width="20" height="20" viewBox="0 0 20 20" fill="none" xmlns="http://www.w3.org/2000/svg">
<path d="M14.9993 10.8332C12.241 10.8332 9.99935 13.0748 9.99935 15.8332C12.7577 15.8332 14.9993 13.5915 14.9993 10.8332ZM4.99935 10.8332C4.99935 13.5915 7.24102 15.8332 9.99935 15.8332C9.99935 13.0748 7.75768 10.8332 4.99935 10.8332ZM6.66602 9.1915C6.66602 9.90817 7.24935 10.4915 7.96602 10.4915C8.24102 10.4915 8.49102 10.4082 8.70768 10.2582L8.69935 10.3582C8.69935 11.0748 9.28268 11.6582 9.99935 11.6582C10.716 11.6582 11.2993 11.0748 11.2993 10.3582L11.291 10.2582C11.4993 10.3998 11.7577 10.4915 12.0327 10.4915C12.7493 10.4915 13.3327 9.90817 13.3327 9.1915C13.3327 8.67484 13.0243 8.22484 12.591 8.0165C13.0243 7.8165 13.3327 7.3665 13.3327 6.84984C13.3327 6.13317 12.7493 5.54984 12.0327 5.54984C11.7577 5.54984 11.5077 5.63317 11.291 5.78317L11.2993 5.68317C11.2993 4.9665 10.716 4.38317 9.99935 4.38317C9.28268 4.38317 8.69935 4.9665 8.69935 5.68317L8.70768 5.78317C8.49935 5.63317 8.24102 5.54984 7.96602 5.54984C7.24935 5.54984 6.66602 6.13317 6.66602 6.84984C6.66602 7.3665 6.97435 7.8165 7.40768 8.02484C6.97435 8.22484 6.66602 8.67484 6.66602 9.1915ZM9.99935 6.7165C10.716 6.7165 11.2993 7.29984 11.2993 8.0165C11.2993 8.73317 10.716 9.3165 9.99935 9.3165C9.28268 9.3165 8.69935 8.73317 8.69935 8.0165C8.69935 7.29984 9.28268 6.7165 9.99935 6.7165ZM16.666 3.33317V16.6665H3.33268L3.33268 3.33317L16.666 3.33317ZM16.666 1.6665L3.33268 1.6665C2.41602 1.6665 1.66602 2.4165 1.66602 3.33317L1.66602 16.6665C1.66602 17.5832 2.41602 18.3332 3.33268 18.3332L16.666 18.3332C17.5827 18.3332 18.3327 17.5832 18.3327 16.6665L18.3327 3.33317C18.3327 2.4165 17.5827 1.6665 16.666 1.6665Z" fill="#424244" fill-opacity="0.72"/>
</svg>
