<svg width="29" height="28" viewBox="0 0 29 28" fill="none" xmlns="http://www.w3.org/2000/svg">
<path d="M10.7092 21H15.8099C16.8085 21 17.6733 20.8352 18.4043 20.5056C19.1353 20.176 19.6999 19.7126 20.098 19.1154C20.4962 18.5182 20.6952 17.8149 20.6952 17.0056C20.6952 16.366 20.5533 15.7981 20.2694 15.3021C19.9855 14.8061 19.5906 14.4079 19.0848 14.1077C18.5789 13.8075 17.9931 13.641 17.3274 13.6084V13.5301C17.8691 13.4517 18.3456 13.2739 18.7568 12.9965C19.168 12.7191 19.4878 12.3667 19.7162 11.9392C19.9447 11.5117 20.0589 11.0401 20.0589 10.5245C20.0589 9.8 19.881 9.17343 19.5253 8.64476C19.1696 8.11608 18.6654 7.70979 18.0127 7.42587C17.36 7.14196 16.5801 7 15.6729 7H10.7092C10.1871 7 9.78079 7.14685 9.49035 7.44056C9.19991 7.73427 9.05469 8.15198 9.05469 8.69371V19.3161C9.05469 19.8513 9.19991 20.2657 9.49035 20.5594C9.78079 20.8531 10.1871 21 10.7092 21ZM12.2855 18.7385V14.8517H14.7428C15.6043 14.8517 16.2652 15.0149 16.7253 15.3413C17.1855 15.6676 17.4155 16.1441 17.4155 16.7706C17.4155 17.4103 17.192 17.8981 16.7449 18.2343C16.2978 18.5704 15.6533 18.7385 14.8113 18.7385H12.2855ZM12.2855 12.8154V9.3007H14.6938C15.3792 9.3007 15.9144 9.45082 16.2994 9.75105C16.6845 10.0513 16.8771 10.469 16.8771 11.0042C16.8771 11.572 16.6633 12.0159 16.2358 12.3357C15.8083 12.6555 15.2127 12.8154 14.4491 12.8154H12.2855Z" fill="#99A2AD"/>
</svg>
