<svg width="6" height="20" viewBox="0 0 6 20" fill="none" xmlns="http://www.w3.org/2000/svg">
<path d="M5.25 3C5.25 4.24264 4.24264 5.25 3 5.25C1.75736 5.25 0.75 4.24264 0.75 3C0.75 1.75736 1.75736 0.75 3 0.75C4.24264 0.75 5.25 1.75736 5.25 3ZM5.25 10C5.25 11.2426 4.24264 12.25 3 12.25C1.75736 12.25 0.75 11.2426 0.75 10C0.75 8.75736 1.75736 7.75 3 7.75C4.24264 7.75 5.25 8.75736 5.25 10ZM5.25 17C5.25 18.2426 4.24264 19.25 3 19.25C1.75736 19.25 0.75 18.2426 0.75 17C0.75 15.7574 1.75736 14.75 3 14.75C4.24264 14.75 5.25 15.7574 5.25 17Z" fill="#99A2AD"/>
</svg>
