<svg width="24" height="24" viewBox="0 0 24 24" fill="none" xmlns="http://www.w3.org/2000/svg">
<path d="M12.1628 9.34075C12.4975 9.00602 13.0402 9.00602 13.3749 9.34075C13.7097 9.67549 13.7097 10.2182 13.3749 10.5529L9.799 14.1289C9.31302 14.6149 9.28481 15.433 9.799 15.9471C10.3132 16.4613 11.1313 16.4331 11.6173 15.9471L18.2843 9.28014C19.6571 7.90732 19.582 5.72912 18.2843 4.43141C16.9866 3.1337 14.8084 3.05859 13.4356 4.43141L6.76854 11.0984C4.5822 13.2848 4.62298 16.832 6.76854 18.9776C8.91411 21.1232 12.4614 21.1639 14.6477 18.9776L18.2237 15.4017C18.5584 15.0669 19.1011 15.0669 19.4359 15.4017C19.7706 15.7364 19.7706 16.2791 19.4359 16.6139L15.8599 20.1898C12.9978 23.0519 8.36524 22.9987 5.55636 20.1898C2.74748 17.3809 2.69423 12.7484 5.55636 9.88624L12.2234 3.21923C14.2851 1.15753 17.5473 1.27002 19.4965 3.21923C21.4457 5.16843 21.5582 8.43063 19.4965 10.4923L12.8295 17.1593C11.692 18.2968 9.78989 18.3624 8.58682 17.1593C7.38375 15.9563 7.44934 14.0542 8.58682 12.9167L12.1628 9.34075Z" fill="#007AFF"/>
<path d="M12.1628 9.34075C12.4975 9.00602 13.0402 9.00602 13.3749 9.34075C13.7097 9.67549 13.7097 10.2182 13.3749 10.5529L9.799 14.1289C9.31302 14.6149 9.28481 15.433 9.799 15.9471C10.3132 16.4613 11.1313 16.4331 11.6173 15.9471L18.2843 9.28014C19.6571 7.90732 19.582 5.72912 18.2843 4.43141C16.9866 3.1337 14.8084 3.05859 13.4356 4.43141L6.76854 11.0984C4.5822 13.2848 4.62298 16.832 6.76854 18.9776C8.91411 21.1232 12.4614 21.1639 14.6477 18.9776L18.2237 15.4017C18.5584 15.0669 19.1011 15.0669 19.4359 15.4017C19.7706 15.7364 19.7706 16.2791 19.4359 16.6139L15.8599 20.1898C12.9978 23.0519 8.36524 22.9987 5.55636 20.1898C2.74748 17.3809 2.69423 12.7484 5.55636 9.88624L12.2234 3.21923C14.2851 1.15753 17.5473 1.27002 19.4965 3.21923C21.4457 5.16843 21.5582 8.43063 19.4965 10.4923L12.8295 17.1593C11.692 18.2968 9.78989 18.3624 8.58682 17.1593C7.38375 15.9563 7.44934 14.0542 8.58682 12.9167L12.1628 9.34075Z" fill="black"/>
</svg>
