<svg width="24" height="24" viewBox="0 0 24 24" fill="none" xmlns="http://www.w3.org/2000/svg">
<path d="M13.9775 2.57227C16.197 2.57227 17.25 2.77561 18.3436 3.36048C19.331 3.88859 20.1111 4.66868 20.6392 5.65615C21.2241 6.74977 21.4275 7.80276 21.4275 10.0223V13.9794C21.4275 16.1989 21.2241 17.2519 20.6392 18.3455C20.1111 19.333 19.331 20.1131 18.3436 20.6412C17.25 21.2261 16.197 21.4294 13.9775 21.4294H10.0203C7.8008 21.4294 6.74782 21.2261 5.6542 20.6412C4.66673 20.1131 3.88663 19.333 3.35853 18.3455C2.77365 17.2519 2.57031 16.1989 2.57031 13.9794V10.0223C2.57031 7.80276 2.77365 6.74977 3.35853 5.65615C3.88663 4.66868 4.66673 3.88859 5.6542 3.36048C6.74782 2.77561 7.8008 2.57227 10.0203 2.57227H13.9775ZM15.4096 13.2367L11.8078 17.6832C11.5069 18.0547 10.9603 18.1082 10.593 17.8022L8.62291 16.1604L5.96737 18.8165C6.12241 18.9315 6.28757 19.0359 6.46265 19.1295C7.27397 19.5634 8.0596 19.7151 10.0203 19.7151H13.9775C15.9382 19.7151 16.7238 19.5634 17.5351 19.1295C18.2238 18.7612 18.7592 18.2258 19.1276 17.5371C19.2535 17.3016 19.3556 17.0683 19.4372 16.8079L15.4096 13.2367ZM13.9775 4.28655H10.0203C8.0596 4.28655 7.27397 4.43826 6.46265 4.87216C5.77393 5.24049 5.23854 5.77588 4.87021 6.4646C4.43631 7.27592 4.2846 8.06155 4.2846 10.0223V13.9794C4.2846 15.9139 4.43228 16.7045 4.85293 17.5045L7.96422 14.3947C8.27769 14.0813 8.77848 14.0586 9.11904 14.3424L11.0228 15.9288L14.6416 11.4613C14.9489 11.0818 15.5108 11.0355 15.8762 11.3595L19.7035 14.7524C19.7101 14.5165 19.7132 14.26 19.7132 13.9794V10.0223C19.7132 8.06155 19.5615 7.27592 19.1276 6.4646C18.7592 5.77588 18.2238 5.24049 17.5351 4.87216C16.7238 4.43826 15.9382 4.28655 13.9775 4.28655ZM8.99888 7.71512C9.70896 7.71512 10.2846 8.29076 10.2846 9.00084C10.2846 9.71092 9.70896 10.2866 8.99888 10.2866C8.2888 10.2866 7.71317 9.71092 7.71317 9.00084C7.71317 8.29076 8.2888 7.71512 8.99888 7.71512Z" fill="#007AFF"/>
<path d="M13.9775 2.57227C16.197 2.57227 17.25 2.77561 18.3436 3.36048C19.331 3.88859 20.1111 4.66868 20.6392 5.65615C21.2241 6.74977 21.4275 7.80276 21.4275 10.0223V13.9794C21.4275 16.1989 21.2241 17.2519 20.6392 18.3455C20.1111 19.333 19.331 20.1131 18.3436 20.6412C17.25 21.2261 16.197 21.4294 13.9775 21.4294H10.0203C7.8008 21.4294 6.74782 21.2261 5.6542 20.6412C4.66673 20.1131 3.88663 19.333 3.35853 18.3455C2.77365 17.2519 2.57031 16.1989 2.57031 13.9794V10.0223C2.57031 7.80276 2.77365 6.74977 3.35853 5.65615C3.88663 4.66868 4.66673 3.88859 5.6542 3.36048C6.74782 2.77561 7.8008 2.57227 10.0203 2.57227H13.9775ZM15.4096 13.2367L11.8078 17.6832C11.5069 18.0547 10.9603 18.1082 10.593 17.8022L8.62291 16.1604L5.96737 18.8165C6.12241 18.9315 6.28757 19.0359 6.46265 19.1295C7.27397 19.5634 8.0596 19.7151 10.0203 19.7151H13.9775C15.9382 19.7151 16.7238 19.5634 17.5351 19.1295C18.2238 18.7612 18.7592 18.2258 19.1276 17.5371C19.2535 17.3016 19.3556 17.0683 19.4372 16.8079L15.4096 13.2367ZM13.9775 4.28655H10.0203C8.0596 4.28655 7.27397 4.43826 6.46265 4.87216C5.77393 5.24049 5.23854 5.77588 4.87021 6.4646C4.43631 7.27592 4.2846 8.06155 4.2846 10.0223V13.9794C4.2846 15.9139 4.43228 16.7045 4.85293 17.5045L7.96422 14.3947C8.27769 14.0813 8.77848 14.0586 9.11904 14.3424L11.0228 15.9288L14.6416 11.4613C14.9489 11.0818 15.5108 11.0355 15.8762 11.3595L19.7035 14.7524C19.7101 14.5165 19.7132 14.26 19.7132 13.9794V10.0223C19.7132 8.06155 19.5615 7.27592 19.1276 6.4646C18.7592 5.77588 18.2238 5.24049 17.5351 4.87216C16.7238 4.43826 15.9382 4.28655 13.9775 4.28655ZM8.99888 7.71512C9.70896 7.71512 10.2846 8.29076 10.2846 9.00084C10.2846 9.71092 9.70896 10.2866 8.99888 10.2866C8.2888 10.2866 7.71317 9.71092 7.71317 9.00084C7.71317 8.29076 8.2888 7.71512 8.99888 7.71512Z" fill="black"/>
</svg>
