<svg width="28" height="28" viewBox="0 0 28 28" fill="none" xmlns="http://www.w3.org/2000/svg">
<path d="M23.3333 19.8334C23.9777 19.8334 24.5 20.3557 24.5 21C24.5 21.6444 23.9777 22.1667 23.3333 22.1667H4.66667C4.02233 22.1667 3.5 21.6444 3.5 21C3.5 20.3557 4.02233 19.8334 4.66667 19.8334H23.3333ZM23.3333 15.1667C23.9777 15.1667 24.5 15.689 24.5 16.3334C24.5 16.9777 23.9777 17.5 23.3333 17.5H4.66667C4.02233 17.5 3.5 16.9777 3.5 16.3334C3.5 15.689 4.02233 15.1667 4.66667 15.1667H23.3333ZM23.3333 10.5C23.9777 10.5 24.5 11.0224 24.5 11.6667C24.5 12.311 23.9777 12.8334 23.3333 12.8334H4.66667C4.02233 12.8334 3.5 12.311 3.5 11.6667C3.5 11.0224 4.02233 10.5 4.66667 10.5H23.3333ZM23.3333 5.83337C23.9777 5.83337 24.5 6.35571 24.5 7.00004C24.5 7.64437 23.9777 8.16671 23.3333 8.16671H4.66667C4.02233 8.16671 3.5 7.64437 3.5 7.00004C3.5 6.35571 4.02233 5.83337 4.66667 5.83337H23.3333Z" fill="#99A2AD"/>
</svg>
