<svg width="197" height="197" viewBox="0 0 197 197" fill="none" xmlns="http://www.w3.org/2000/svg">
<rect width="196.105" height="196.105" rx="64.7641" fill="white"/>
<rect width="196.105" height="196.105" rx="64.7641" fill="url(#paint0_linear_56880_7717)"/>
<g filter="url(#filter0_d_56880_7717)">
<path fill-rule="evenodd" clip-rule="evenodd" d="M98.0023 111.503C98.0023 110.971 97.9894 110.439 97.9635 109.908C97.9371 109.377 97.8982 108.846 97.8459 108.317C97.7936 107.788 97.7288 107.26 97.6506 106.734C97.5729 106.208 97.4817 105.684 97.378 105.162C97.2744 104.64 97.1577 104.122 97.0286 103.606C96.8994 103.089 96.7573 102.577 96.6031 102.068C96.4485 101.559 96.2818 101.054 96.1026 100.553C95.9234 100.053 95.7321 99.5563 95.5283 99.0651C95.325 98.5735 95.1096 98.0873 94.8821 97.6065C94.6547 97.1256 94.4156 96.651 94.1649 96.1818C93.9142 95.7125 93.6519 95.25 93.3784 94.7937C93.1049 94.3375 92.8206 93.8883 92.5252 93.4459C92.2294 93.0035 91.9233 92.5691 91.6064 92.1419C91.2896 91.7146 90.9624 91.2955 90.625 90.8843C90.2876 90.4727 89.9404 90.0701 89.5829 89.6764C89.2258 89.2822 88.8594 88.897 88.4831 88.5207C88.1068 88.1449 87.722 87.778 87.3279 87.4209C86.9337 87.0638 86.5311 86.7162 86.1199 86.3788C85.7088 86.0414 85.2896 85.7142 84.8624 85.3974C84.4351 85.0805 84.0003 84.7744 83.5579 84.479C83.1155 84.1832 82.6663 83.899 82.2101 83.6255C81.7538 83.352 81.2913 83.0901 80.822 82.8394C80.3532 82.5882 79.8782 82.3491 79.3973 82.1221C78.9165 81.8946 78.4303 81.6792 77.9391 81.4755C77.4475 81.2721 76.9515 81.0804 76.4505 80.9012C75.9496 80.722 75.445 80.5553 74.936 80.4011C74.427 80.2465 73.9144 80.1048 73.3983 79.9757C72.8825 79.8461 72.3637 79.7299 71.8417 79.6258C71.3202 79.5221 70.7964 79.4314 70.27 79.3532C69.744 79.2754 69.2162 79.2102 68.6871 79.1579C68.1575 79.106 67.6271 79.0667 67.0962 79.0408C66.5648 79.0144 66.033 79.0015 65.5012 79.0015C64.9694 79.0015 64.4377 79.0144 63.9065 79.0408C63.3752 79.0667 62.8449 79.106 62.3155 79.1579C61.7862 79.2102 61.2585 79.2754 60.7323 79.3532C60.2062 79.4314 59.6822 79.5221 59.1606 79.6258C58.6389 79.7299 58.12 79.8461 57.6041 79.9757C57.0881 80.1048 56.5756 80.2465 56.0667 80.4011C55.5576 80.5553 55.0527 80.722 54.5519 80.9012C54.0511 81.0804 53.5549 81.2721 53.0635 81.4755C52.5721 81.6792 52.086 81.8946 51.6051 82.1221C51.1243 82.3491 50.6494 82.5882 50.1803 82.8394C49.7112 83.0901 49.2485 83.352 48.7923 83.6255C48.336 83.899 47.8868 84.1832 47.4445 84.479C47.0022 84.7744 46.5675 85.0805 46.1402 85.3974C45.713 85.7142 45.2938 86.0414 44.8826 86.3788C44.4715 86.7162 44.0688 87.0638 43.6747 87.4209C43.2806 87.778 42.8955 88.1449 42.5194 88.5207C42.1433 88.897 41.7766 89.2822 41.4194 89.6764C41.0622 90.0701 40.7149 90.4727 40.3775 90.8843C40.04 91.2955 39.7129 91.7146 39.396 92.1419C39.0791 92.5691 38.773 93.0035 38.4775 93.4459C38.1819 93.8883 37.8974 94.3375 37.624 94.7937C37.3505 95.25 37.0884 95.7125 36.8377 96.1818C36.587 96.651 36.3479 97.1256 36.1205 97.6065C35.893 98.0873 35.6776 98.5735 35.474 99.0651C35.2704 99.5563 35.0791 100.053 34.8999 100.553C34.7207 101.054 34.5539 101.559 34.3995 102.068C34.2451 102.577 34.1033 103.089 33.974 103.606C33.8448 104.122 33.7283 104.64 33.6245 105.162C33.5207 105.684 33.4298 106.208 33.3518 106.734C33.2737 107.26 33.2087 107.788 33.1565 108.317C33.1043 108.846 33.0652 109.377 33.0391 109.908C33.013 110.439 33 110.971 33 111.503C33 112.034 33.013 112.566 33.0391 113.098C33.0652 113.629 33.1043 114.159 33.1565 114.688C33.2087 115.218 33.2737 115.745 33.3518 116.272C33.4298 116.798 33.5207 117.322 33.6245 117.844C33.7283 118.365 33.8448 118.884 33.974 119.4C34.1033 119.916 34.2451 120.428 34.3995 120.937C34.5539 121.446 34.7207 121.951 34.8999 122.452C35.0791 122.953 35.2704 123.449 35.474 123.94C35.6776 124.432 35.893 124.918 36.1205 125.399C36.3479 125.88 36.587 126.355 36.8377 126.824C37.0884 127.293 37.3505 127.756 37.624 128.211C37.8974 128.668 38.1819 129.117 38.4775 129.559C38.773 130.002 39.0791 130.437 39.396 130.864C39.7129 131.291 40.04 131.71 40.3775 132.121C40.7149 132.532 41.0622 132.935 41.4194 133.329C41.7766 133.723 42.1433 134.109 42.5194 134.484C42.8955 134.861 43.2806 135.227 43.6747 135.585C44.0688 135.942 44.4715 136.289 44.8826 136.626C45.2938 136.964 45.713 137.291 46.1402 137.608C46.5675 137.925 47.0022 138.231 47.4445 138.527C47.8868 138.822 48.336 139.107 48.7923 139.38C49.2485 139.653 49.7112 139.916 50.1803 140.166C50.6494 140.417 51.1243 140.656 51.6051 140.884C52.086 141.111 52.5721 141.326 53.0635 141.53C53.5549 141.733 54.0511 141.925 54.5519 142.104C55.0527 142.283 55.5576 142.45 56.0667 142.604C56.5756 142.759 57.0881 142.901 57.6041 143.03C58.12 143.159 58.6389 143.276 59.1606 143.379C59.6822 143.483 60.2062 143.574 60.7323 143.652C61.2585 143.73 61.7862 143.795 62.3155 143.847C62.8449 143.9 63.3752 143.939 63.9065 143.965C64.4377 143.991 64.9694 144.004 65.5012 144.004H117.503V111.503H98.0023Z" fill="white"/>
<path d="M117.498 144.003C142.628 144.003 163 123.632 163 98.5017C163 73.3716 142.628 53 117.498 53C92.3681 53 71.9961 73.3716 71.9961 98.5017C71.9961 123.632 92.3681 144.003 117.498 144.003Z" fill="white"/>
</g>
<defs>
<filter id="filter0_d_56880_7717" x="23" y="45" width="150" height="111.004" filterUnits="userSpaceOnUse" color-interpolation-filters="sRGB">
<feFlood flood-opacity="0" result="BackgroundImageFix"/>
<feColorMatrix in="SourceAlpha" type="matrix" values="0 0 0 0 0 0 0 0 0 0 0 0 0 0 0 0 0 0 127 0" result="hardAlpha"/>
<feOffset dy="2"/>
<feGaussianBlur stdDeviation="5"/>
<feComposite in2="hardAlpha" operator="out"/>
<feColorMatrix type="matrix" values="0 0 0 0 0 0 0 0 0 0 0 0 0 0 0 0 0 0 0.1 0"/>
<feBlend mode="normal" in2="BackgroundImageFix" result="effect1_dropShadow_56880_7717"/>
<feBlend mode="normal" in="SourceGraphic" in2="effect1_dropShadow_56880_7717" result="shape"/>
</filter>
<linearGradient id="paint0_linear_56880_7717" x1="21.5" y1="177.5" x2="235.5" y2="-37" gradientUnits="userSpaceOnUse">
<stop offset="0.248154" stop-color="#FF4759"/>
<stop offset="1" stop-color="#FFD600"/>
</linearGradient>
</defs>
</svg>
