<svg width="24" height="24" viewBox="0 0 24 24" fill="none" xmlns="http://www.w3.org/2000/svg">
    <circle cx="12" cy="12" r="12" fill="white" />
    <path
        d="M6.49316 16.5801L9.95752 13.1641L7.05176 10.3389C6.93896 10.2207 6.93896 10.0864 7.05176 10.0005L11.6494 6.44482C11.9287 6.22998 12.0791 6.12256 12.2993 6.12256C12.5195 6.12256 12.6646 6.22998 12.9492 6.44482L17.5469 10.0005C17.6597 10.0864 17.6597 10.2261 17.5469 10.3389L14.6572 13.1641L18.1055 16.5693C18.186 16.4189 18.229 16.1611 18.229 15.7959V10.3496C18.229 9.78027 18.1323 9.49561 17.7349 9.16797L13.4058 5.81104C13.0083 5.49951 12.6968 5.30078 12.2993 5.30078C11.9019 5.30078 11.5903 5.49951 11.1929 5.81104L6.8584 9.16797C6.47168 9.49023 6.36963 9.78027 6.36963 10.3496V15.7959C6.36963 16.1719 6.4126 16.4297 6.49316 16.5801ZM7.89502 17.4609H16.5425C17.0742 17.4609 17.4448 17.3643 17.6436 17.1709L12.9707 12.5518C12.7344 12.3154 12.5303 12.2134 12.3101 12.2134C12.0845 12.2134 11.8804 12.3154 11.6494 12.5518L6.94434 17.1978C7.12695 17.375 7.44385 17.4609 7.89502 17.4609Z"
        fill="#007AFF" />
</svg>
