<svg width="24" height="24" viewBox="0 0 24 24" fill="none" xmlns="http://www.w3.org/2000/svg">
    <path fill-rule="evenodd" clip-rule="evenodd" d="M10.7139 5.14284C8.11024 5.14284 5.99958 7.2535 5.99958 9.85713C5.99958 10.0769 6.01457 10.2928 6.04346 10.5038C6.09606 10.8879 5.88429 11.2595 5.527 11.41C4.2923 11.9301 3.42815 13.1508 3.42815 14.5714C3.42815 16.465 4.96318 18 6.85672 18H16.2853C18.6522 18 20.571 16.0812 20.571 13.7143C20.571 11.3473 18.6522 9.42856 16.2853 9.42856C16.2437 9.42856 16.2023 9.42915 16.161 9.43032C15.7545 9.44185 15.3958 9.1661 15.3024 8.77024C14.812 6.69024 12.9426 5.14284 10.7139 5.14284ZM4.2853 9.85713C4.2853 6.30673 7.16347 3.42856 10.7139 3.42856C13.5213 3.42856 15.9068 5.22744 16.7835 7.73467C19.8641 7.98791 22.2853 10.5683 22.2853 13.7143C22.2853 17.028 19.599 19.7143 16.2853 19.7143H6.85672C4.0164 19.7143 1.71387 17.4117 1.71387 14.5714C1.71387 12.6646 2.75142 11.0018 4.29034 10.1139C4.28699 10.0287 4.2853 9.94308 4.2853 9.85713Z" fill="#007AFF"/>
</svg>
