<svg width="29" height="28" viewBox="0 0 29 28" fill="none" xmlns="http://www.w3.org/2000/svg">
<path d="M11.1614 9.3288H23.4216C23.6874 9.3288 23.9139 9.23668 24.1012 9.05243C24.2885 8.86818 24.3821 8.64013 24.3821 8.36828C24.3821 8.10248 24.2885 7.87594 24.1012 7.68867C23.9139 7.5014 23.6874 7.40777 23.4216 7.40777H11.1614C10.8895 7.40777 10.6615 7.5014 10.4772 7.68867C10.293 7.87594 10.2009 8.10248 10.2009 8.36828C10.2009 8.64013 10.293 8.86818 10.4772 9.05243C10.6615 9.23668 10.8895 9.3288 11.1614 9.3288ZM11.1614 14.956H23.4216C23.6874 14.956 23.9139 14.8639 24.1012 14.6796C24.2885 14.4954 24.3821 14.2673 24.3821 13.9955C24.3821 13.7297 24.2885 13.5046 24.1012 13.3204C23.9139 13.1361 23.6874 13.044 23.4216 13.044H11.1614C10.8895 13.044 10.6615 13.1361 10.4772 13.3204C10.293 13.5046 10.2009 13.7297 10.2009 13.9955C10.2009 14.2613 10.293 14.4878 10.4772 14.6751C10.6615 14.8624 10.8895 14.956 11.1614 14.956ZM11.1614 20.5832H23.4216C23.6874 20.5832 23.9139 20.491 24.1012 20.3068C24.2885 20.1225 24.3821 19.8945 24.3821 19.6227C24.3821 19.3569 24.2885 19.1303 24.1012 18.943C23.9139 18.7558 23.6874 18.6621 23.4216 18.6621H11.1614C10.8895 18.6621 10.6615 18.7558 10.4772 18.943C10.293 19.1303 10.2009 19.3569 10.2009 19.6227C10.2009 19.8945 10.293 20.1225 10.4772 20.3068C10.6615 20.491 10.8895 20.5832 11.1614 20.5832ZM6.74844 9.73657C7.12298 9.73657 7.44617 9.60367 7.71802 9.33786C7.98986 9.07206 8.12579 8.74887 8.12579 8.36828C8.12579 7.9877 7.98986 7.66451 7.71802 7.39871C7.44617 7.1329 7.12298 7 6.74844 7C6.36786 7 6.04315 7.1329 5.77433 7.39871C5.50551 7.66451 5.37109 7.9877 5.37109 8.36828C5.37109 8.74887 5.50551 9.07206 5.77433 9.33786C6.04315 9.60367 6.36786 9.73657 6.74844 9.73657ZM6.74844 15.3728C7.12298 15.3728 7.44617 15.2369 7.71802 14.965C7.98986 14.6932 8.12579 14.37 8.12579 13.9955C8.12579 13.6209 7.98986 13.2977 7.71802 13.0259C7.44617 12.754 7.12298 12.6181 6.74844 12.6181C6.36786 12.6181 6.04315 12.754 5.77433 13.0259C5.50551 13.2977 5.37109 13.6209 5.37109 13.9955C5.37109 14.37 5.50551 14.6932 5.77433 14.965C6.04315 15.2369 6.36786 15.3728 6.74844 15.3728ZM6.74844 21C7.12298 21 7.44617 20.8656 7.71802 20.5968C7.98986 20.3279 8.12579 20.0032 8.12579 19.6227C8.12579 19.2421 7.98986 18.9189 7.71802 18.6531C7.44617 18.3873 7.12298 18.2544 6.74844 18.2544C6.36786 18.2544 6.04315 18.3873 5.77433 18.6531C5.50551 18.9189 5.37109 19.2421 5.37109 19.6227C5.37109 20.0032 5.50551 20.3279 5.77433 20.5968C6.04315 20.8656 6.36786 21 6.74844 21Z" fill="#99A2AD"/>
</svg>
