<svg width="20" height="20" viewBox="0 0 20 20" fill="none" xmlns="http://www.w3.org/2000/svg">
<path fill-rule="evenodd" clip-rule="evenodd" d="M11.593 10.2064C11.3622 10.4757 10.9536 10.4988 10.694 10.2572L10.3915 9.97571L9.98438 10.3758C9.7207 10.6346 9.45947 10.825 9.20068 10.9471C8.94189 11.0643 8.67578 11.1229 8.40234 11.1229C8.12891 11.1229 7.86035 11.0643 7.59668 10.9471C7.33301 10.825 7.07178 10.6346 6.81299 10.3758L6.40586 9.9757L2.19424 14.1478C2.30684 14.1771 2.43285 14.1917 2.57227 14.1917H13.6699C14.0461 14.1917 14.3511 14.4967 14.3511 14.8729C14.3511 15.249 14.0461 15.554 13.6699 15.554H2.57227C1.78125 15.554 1.18311 15.3514 0.777832 14.9461C0.372559 14.5457 0.169922 13.9549 0.169922 13.1736V5.07305C0.169922 4.29668 0.362793 3.7083 0.748535 3.30791C1.13916 2.90264 1.68604 2.7 2.38916 2.7H14.2031C14.9941 2.7 15.5923 2.90264 15.9976 3.30791C16.4028 3.7083 16.6055 4.29668 16.6055 5.07305V7.02617C16.6055 7.39832 16.3038 7.7 15.9316 7.7C15.5595 7.7 15.2578 7.39832 15.2578 7.02617V5.19406L11.2819 9.10087L11.5427 9.34186C11.7892 9.56963 11.8114 9.95158 11.593 10.2064ZM5.51557 9.10081L1.51758 13.0613V5.17201L5.51557 9.10081ZM2.57227 4.06231C2.4411 4.06231 2.3218 4.07561 2.21436 4.10221L7.56006 9.38701C7.71143 9.5335 7.85303 9.64336 7.98486 9.7166C8.12158 9.78496 8.26074 9.81914 8.40234 9.81914C8.53418 9.81914 8.66602 9.78496 8.79785 9.7166C8.93457 9.64824 9.08105 9.53838 9.2373 9.38701L14.583 4.1092C14.4699 4.07794 14.3433 4.06231 14.2031 4.06231H2.57227Z" fill="#007AFF"/>
<path fill-rule="evenodd" clip-rule="evenodd" d="M12.8838 10.8623C12.0858 10.0644 12.651 8.7 13.7795 8.7H18.5605C19.689 8.7 20.2541 10.0644 19.4562 10.8623L16.77 13.5485V16.7C16.77 17.0314 16.5014 17.3 16.17 17.3C15.8386 17.3 15.57 17.0314 15.57 16.7V13.5485L12.8838 10.8623ZM16.17 12.4515L18.6077 10.0138C18.6241 9.99734 18.6267 9.98654 18.6278 9.98066C18.6293 9.9715 18.6288 9.95728 18.6221 9.94116C18.6154 9.92503 18.6058 9.91458 18.5982 9.90922C18.5933 9.90578 18.5838 9.9 18.5605 9.9H13.7795C13.7562 9.9 13.7467 9.90578 13.7418 9.90922C13.7342 9.91458 13.7245 9.92503 13.7179 9.94116C13.7112 9.95728 13.7106 9.9715 13.7122 9.98065C13.7132 9.98654 13.7158 9.99734 13.7323 10.0138L16.17 12.4515Z" fill="#007AFF"/>
</svg>
