<svg width="29" height="28" viewBox="0 0 29 28" fill="none" xmlns="http://www.w3.org/2000/svg">
<path d="M14.1268 18.5498C15.072 18.5498 15.8925 18.3764 16.5886 18.0297C17.2846 17.683 17.8201 17.1989 18.195 16.5773C18.57 15.9558 18.7575 15.2341 18.7575 14.4122V7.87837C18.7575 7.60613 18.6766 7.39167 18.5148 7.235C18.353 7.07833 18.1334 7 17.856 7C17.5889 7 17.3757 7.07833 17.2165 7.235C17.0573 7.39167 16.9777 7.60613 16.9777 7.87837V14.2504C16.9777 15.0723 16.7272 15.7323 16.2264 16.2306C15.7256 16.7289 15.0257 16.978 14.1268 16.978C13.5258 16.978 13.0121 16.865 12.5858 16.639C12.1595 16.413 11.8346 16.0958 11.6111 15.6874C11.3877 15.279 11.276 14.8 11.276 14.2504V7.87837C11.276 7.60613 11.195 7.39167 11.0332 7.235C10.8714 7.07833 10.6518 7 10.3745 7C10.1074 7 9.89419 7.07833 9.73495 7.235C9.57571 7.39167 9.49609 7.60613 9.49609 7.87837V14.4122C9.49609 15.2341 9.68487 15.9558 10.0624 16.5773C10.44 17.1989 10.9742 17.683 11.6651 18.0297C12.3559 18.3764 13.1765 18.5498 14.1268 18.5498ZM10.0431 21H18.2028C18.362 21 18.4943 20.9486 18.5996 20.8459C18.7049 20.7432 18.7575 20.6147 18.7575 20.4606C18.7575 20.3065 18.7049 20.1781 18.5996 20.0754C18.4943 19.9727 18.362 19.9213 18.2028 19.9213H10.0431C9.88905 19.9213 9.75935 19.9727 9.65405 20.0754C9.54874 20.1781 9.49609 20.3065 9.49609 20.4606C9.49609 20.6147 9.54874 20.7432 9.65405 20.8459C9.75935 20.9486 9.88905 21 10.0431 21Z" fill="#99A2AD"/>
</svg>
