<svg width="24" height="24" viewBox="0 0 24 24" fill="none" xmlns="http://www.w3.org/2000/svg">
    <path
        d="M5.31466 21.4284H18.6851C20.1981 21.4284 21.4284 20.2078 21.4284 18.7075V10.5192C21.4284 9.78092 21.1219 9.06814 20.5884 8.56329C20.5434 8.54053 13.7002 3.15889 13.7002 3.15889C12.6992 2.37483 11.3006 2.37602 10.2995 3.15889L3.52269 8.46527C2.9453 8.99196 2.56537 9.72132 2.57136 10.5192V18.7075C2.57136 20.2078 3.80169 21.4284 5.31466 21.4284ZM11.4395 4.59147C11.7688 4.33251 12.231 4.33251 12.5603 4.59147L18.4229 9.18101L12.5603 13.7705C12.231 14.0295 11.7688 14.0295 11.4395 13.7705L5.57689 9.18101L11.4395 4.59147ZM4.41059 10.5925L10.2995 15.2031C11.3005 15.9868 12.6992 15.986 13.7002 15.2031L19.5892 10.5925V18.7075C19.5892 19.2017 19.1839 19.6038 18.6851 19.6038H5.31466C4.8159 19.6038 4.41059 19.2017 4.41059 18.7075V10.5925Z"
        fill="#007AFF" />
</svg>
