<svg width="556" height="200" viewBox="0 0 556 200" fill="none" xmlns="http://www.w3.org/2000/svg">
<path d="M110 107.73H105.57L103.02 100.7C102.59 99.51 101.46 98.73 100.2 98.73H56.8C55.54 98.73 54.41 99.52 53.98 100.7L51.43 107.73H47C45.34 107.73 44 109.07 44 110.73V113.73C44 115.39 45.34 116.73 47 116.73H52.1L59.63 192.03C59.78 193.56 61.07 194.73 62.62 194.73H94.38C95.92 194.73 97.21 193.56 97.37 192.03L104.9 116.73H110C111.66 116.73 113 115.39 113 113.73V110.73C113 109.07 111.66 107.73 110 107.73Z" fill="white"/>
<path d="M408.02 126.36C407.62 124.49 409.04 122.73 410.95 122.73H505.04C506.95 122.73 508.38 124.49 507.97 126.36L493.7 192.36C493.4 193.74 492.18 194.73 490.77 194.73H425.23C423.82 194.73 422.6 193.74 422.3 192.36L408.03 126.36H408.02Z" fill="white"/>
<path d="M116 187.73C116 186.07 117.34 184.73 119 184.73H431C432.66 184.73 434 186.07 434 187.73V191.73C434 195.6 430.87 198.73 427 198.73H123C119.13 198.73 116 195.6 116 191.73V187.73Z" fill="#DFEEFF"/>
<path d="M427 199.73H123C118.59 199.73 115 196.14 115 191.73V187.73C115 185.52 116.79 183.73 119 183.73H431C433.21 183.73 435 185.52 435 187.73V191.73C435 196.14 431.41 199.73 427 199.73ZM119 185.73C117.9 185.73 117 186.63 117 187.73V191.73C117 195.04 119.69 197.73 123 197.73H427C430.31 197.73 433 195.04 433 191.73V187.73C433 186.63 432.1 185.73 431 185.73H119Z" fill="#AEB7C2"/>
<path d="M240 184.73H310V185.73C310 189.6 306.87 192.73 303 192.73H247C243.13 192.73 240 189.6 240 185.73V184.73Z" fill="white"/>
<path d="M303 193.73H247C242.59 193.73 239 190.14 239 185.73V183.73H311V185.73C311 190.14 307.41 193.73 303 193.73ZM241 185.73C241 189.04 243.69 191.73 247 191.73H303C306.31 191.73 309 189.04 309 185.73H241Z" fill="#AEB7C2"/>
<path d="M156 49.73C156 45.86 159.13 42.73 163 42.73H387C390.87 42.73 394 45.86 394 49.73V184.73H156V49.73Z" fill="#DFEEFF"/>
<path d="M395 185.73H155V49.73C155 45.32 158.59 41.73 163 41.73H387C391.41 41.73 395 45.32 395 49.73V185.73ZM157 183.73H393V49.73C393 46.42 390.31 43.73 387 43.73H163C159.69 43.73 157 46.42 157 49.73V183.73Z" fill="#AEB7C2"/>
<path d="M383 48.73H167C164.239 48.73 162 50.9686 162 53.73V173.73C162 176.491 164.239 178.73 167 178.73H383C385.761 178.73 388 176.491 388 173.73V53.73C388 50.9686 385.761 48.73 383 48.73Z" fill="#F7F8FA"/>
<path d="M383 179.73H167C163.69 179.73 161 177.04 161 173.73V53.73C161 50.42 163.69 47.73 167 47.73H383C386.31 47.73 389 50.42 389 53.73V173.73C389 177.04 386.31 179.73 383 179.73ZM167 49.73C164.79 49.73 163 51.52 163 53.73V173.73C163 175.94 164.79 177.73 167 177.73H383C385.21 177.73 387 175.94 387 173.73V53.73C387 51.52 385.21 49.73 383 49.73H167Z" fill="#AEB7C2"/>
<path d="M386 68.63L198.77 176.73H167C165.34 176.73 164 175.39 164 173.73V141.48L321.18 50.73H383C384.66 50.73 386 52.07 386 53.73V68.63ZM164 90.11V116.17L277.35 50.73H232.21L163.99 90.11H164ZM386 120.83V86.1L229.02 176.73H289.18L385.99 120.83H386Z" fill="white"/>
<path d="M198.45 30.12C199.25 29.91 200.07 30.38 200.29 31.18L222.29 113.28C222.5 114.08 222.03 114.9 221.23 115.12C220.43 115.33 219.61 114.86 219.39 114.06L197.39 31.96C197.18 31.16 197.65 30.34 198.45 30.12Z" fill="#AEB7C2"/>
<path d="M273.402 10.2491L203.855 28.8841C201.721 29.4559 200.455 31.6492 201.027 33.7831L209.309 64.6927C209.881 66.8266 212.074 68.0929 214.208 67.5211L283.754 48.8862C285.888 48.3144 287.155 46.121 286.583 43.9872L278.301 13.0776C277.729 10.9437 275.536 9.67736 273.402 10.2491Z" fill="#FF724C"/>
<path d="M229.95 45.78L229.12 46L226.12 34.8C225.69 33.2 224.05 32.25 222.44 32.68L221.81 32.85C220.86 33.1 220.1 33.8 219.77 34.72L214.36 49.63C214.17 50.15 214.15 50.71 214.29 51.24C214.67 52.67 216.14 53.52 217.57 53.13L225.8 50.92L226.4 53.15C226.72 54.34 227.95 55.05 229.14 54.73C230.33 54.41 231.04 53.18 230.72 51.99L230.12 49.76L230.96 49.54C232 49.26 232.62 48.19 232.34 47.15C232.06 46.11 230.99 45.49 229.95 45.77V45.78ZM218.73 48.79L222.53 37.63L225.07 47.09L218.73 48.79ZM246.18 28.81C244.36 27.13 241.96 26.69 238.97 27.5C235.98 28.31 234.11 29.88 233.35 32.25C232.61 34.61 232.72 37.58 233.68 41.14C234.64 44.73 236.03 47.37 237.86 49.06C239.71 50.75 242.12 51.2 245.11 50.4C248.1 49.6 249.96 48.01 250.69 45.63C251.44 43.24 251.34 40.26 250.38 36.67C249.43 33.11 248.03 30.49 246.19 28.82L246.18 28.81ZM246.4 44.72C245.97 45.52 245.18 46.07 244.03 46.38C242.88 46.69 241.92 46.6 241.15 46.13C240.38 45.63 239.75 44.88 239.29 43.88C238.82 42.86 238.37 41.56 237.95 40C237.54 38.48 237.29 37.17 237.2 36.09C237.12 34.98 237.29 34.02 237.69 33.21C238.11 32.39 238.9 31.83 240.05 31.52C241.2 31.21 242.16 31.31 242.91 31.81C243.68 32.31 244.3 33.06 244.77 34.06C245.25 35.04 245.7 36.29 246.11 37.81C246.53 39.38 246.79 40.72 246.89 41.84C246.99 42.94 246.82 43.9 246.4 44.72ZM272.42 36.42C272.14 35.38 271.07 34.76 270.03 35.04L269.19 35.26L266.19 24.06C265.76 22.46 264.12 21.51 262.52 21.94L261.89 22.11C260.94 22.36 260.18 23.06 259.85 23.98L254.44 38.89C254.25 39.41 254.23 39.97 254.37 40.5C254.75 41.93 256.22 42.78 257.65 42.39L265.88 40.18L266.48 42.41C266.8 43.6 268.03 44.31 269.22 43.99C270.42 43.67 271.12 42.44 270.8 41.25L270.2 39.02L271.04 38.8C272.08 38.52 272.7 37.45 272.42 36.41V36.42ZM258.81 38.05L262.61 26.89L265.14 36.35L258.8 38.05H258.81Z" fill="white"/>
<path d="M364.12 51.56C369.48 49.96 373.41 46.08 375.94 40.09C378.5 34.04 378.59 28.37 376.07 23.17C373.65 17.97 369.23 14.05 362.93 11.38C358.63 9.55999 354.48 8.75999 350.5 9.03999C346.58 9.34999 343.13 10.63 340.17 12.91C338.89 13.9 337.75 15.03 336.73 16.31C335.41 17.98 335.25 19.98 335.89 21.73C336.53 23.46 337.94 24.95 339.79 25.73C341.72 26.55 343.69 26.33 345.49 25.76C347.19 25.22 348.85 24.31 350.32 23.52C350.4 23.48 350.48 23.43 350.56 23.39C350.77 23.27 350.99 23.17 351.22 23.08C353.07 22.38 355.23 22.48 357.77 23.56C360.17 24.58 361.64 26.03 362.35 27.88V27.9C363.11 29.79 363.05 31.9 362.03 34.3C361.32 35.98 360.42 37.2 359.37 38.01C358.33 38.82 357.08 39.27 355.6 39.35C352.48 39.52 348.41 38.59 343.34 36.44C340.64 35.3 337.54 36.61 336.47 39.34L334.28 44.96C332.88 48.56 334.59 52.63 338.15 54.14C341.65 55.62 345.7 54.11 347.37 50.69L347.64 50.13C353.58 52.49 359.08 53 364.1 51.56H364.12ZM323.86 70.29V70.31L323.88 70.33C324.89 72.57 326.67 74.2 329.11 75.23C331.5 76.24 333.85 76.35 336.11 75.5H336.12H336.13C338.4 74.58 340.03 72.95 341.01 70.65C341.98 68.36 342.01 66.07 341.06 63.85C340.14 61.57 338.43 59.92 336.04 58.91C333.59 57.87 331.16 57.77 328.83 58.66C326.57 59.52 324.94 61.13 323.97 63.43C323 65.73 322.96 68.04 323.87 70.31L323.86 70.29Z" fill="#DFEEFF"/>
<path d="M333 77.07C331.59 77.07 330.16 76.76 328.72 76.15C326.02 75 324.08 73.18 322.97 70.74L322.94 70.66C321.92 68.15 321.96 65.58 323.04 63.02C324.13 60.45 325.96 58.66 328.47 57.7C331.03 56.73 333.71 56.82 336.43 57.97C339.1 59.1 340.97 60.95 341.99 63.46C343.04 65.9 343.02 68.46 341.93 71.03C340.84 73.59 339.02 75.4 336.51 76.42C335.36 76.86 334.19 77.08 333.01 77.08L333 77.07ZM332.05 59.04C331.07 59.04 330.11 59.22 329.18 59.57C327.2 60.32 325.75 61.74 324.88 63.8C324.01 65.85 323.98 67.91 324.79 69.91V69.93C325.68 71.88 327.27 73.36 329.5 74.3C331.67 75.22 333.77 75.31 335.75 74.55C337.75 73.74 339.21 72.29 340.08 70.23C340.95 68.18 340.97 66.16 340.14 64.21C339.32 62.19 337.81 60.71 335.64 59.79C334.42 59.27 333.22 59.02 332.05 59.02V59.04ZM340.96 55.72C339.9 55.72 338.82 55.51 337.78 55.07C333.7 53.34 331.76 48.74 333.37 44.61L335.56 38.99C336.17 37.42 337.37 36.19 338.92 35.53C340.48 34.87 342.19 34.88 343.75 35.53C348.57 37.57 352.54 38.53 355.57 38.36C356.84 38.29 357.89 37.92 358.78 37.23C359.72 36.5 360.51 35.39 361.13 33.92C362.02 31.82 362.12 29.98 361.44 28.29C360.8 26.61 359.48 25.38 357.39 24.5C355.16 23.55 353.26 23.4 351.59 24.04C351.42 24.11 351.23 24.2 351.05 24.29L350.81 24.42C349.31 25.24 347.6 26.16 345.81 26.73C343.41 27.5 341.32 27.48 339.41 26.67C337.33 25.79 335.71 24.12 334.96 22.09C334.14 19.86 334.5 17.53 335.95 15.7C337.01 14.37 338.22 13.16 339.56 12.13C342.65 9.74 346.3 8.37 350.42 8.05C354.53 7.76 358.87 8.57 363.33 10.46C369.9 13.24 374.49 17.38 376.98 22.75C379.59 28.15 379.55 34.12 376.86 40.48C374.18 46.8 369.99 50.85 364.4 52.51H364.38C359.45 53.93 353.99 53.55 348.14 51.38C346.69 54.11 343.88 55.71 340.94 55.71L340.96 55.72ZM341.33 37.04C340.78 37.04 340.22 37.15 339.7 37.37C338.65 37.81 337.84 38.65 337.42 39.71L335.23 45.33C334.01 48.45 335.48 51.92 338.56 53.22C341.57 54.5 345.06 53.19 346.49 50.25L347.17 48.85L348.03 49.19C353.79 51.48 359.11 51.95 363.84 50.59H363.86C368.83 49.11 372.59 45.44 375.03 39.69C377.49 33.89 377.54 28.47 375.18 23.6C372.9 18.68 368.65 14.88 362.55 12.3C358.39 10.53 354.36 9.77 350.58 10.04C346.86 10.33 343.57 11.56 340.79 13.71C339.58 14.64 338.48 15.73 337.52 16.94C336.51 18.21 336.26 19.84 336.84 21.4C337.4 22.91 338.62 24.16 340.19 24.83C341.64 25.44 343.27 25.44 345.2 24.83C346.81 24.31 348.43 23.44 349.86 22.66L350.1 22.53C350.34 22.4 350.59 22.28 350.85 22.17C353.01 21.35 355.47 21.51 358.16 22.65C360.74 23.74 362.46 25.39 363.28 27.53C364.16 29.7 364.05 32.11 362.95 34.69C362.19 36.48 361.19 37.86 359.98 38.8C358.77 39.74 357.31 40.26 355.65 40.35C352.33 40.53 348.05 39.52 342.94 37.36C342.41 37.14 341.86 37.02 341.3 37.02L341.33 37.04Z" fill="#AEB7C2"/>
<path fill-rule="evenodd" clip-rule="evenodd" d="M235 89.79V157.72C235 159.93 236.79 161.72 239 161.72H311C313.21 161.72 315 159.93 315 157.72V69.73C315 67.52 313.21 65.73 311 65.73H259.07L235 89.8V89.79Z" fill="white"/>
<path fill-rule="evenodd" clip-rule="evenodd" d="M311 65.73H259L236 88.73L235 89.73V157.73C235 159.94 236.79 161.73 239 161.73H311C313.21 161.73 315 159.94 315 157.73V69.73C315 67.52 313.21 65.73 311 65.73ZM259 68.62V86.73C259 87.83 258.11 88.73 257 88.73H238.89L259 68.62ZM313 157.73C313 158.83 312.1 159.73 311 159.73H239C237.9 159.73 237 158.83 237 157.73V90.73H257C259.21 90.73 261 88.94 261 86.73V67.73H311C312.1 67.73 313 68.63 313 69.73V157.73ZM257 96.73H261V104.73H257V96.73ZM290 96.73H294V104.73H290V96.73ZM266 111.73H286V115.73H266V111.73ZM262 115.73H266V119.73H262V115.73ZM331.72 132.38C331.36 133.09 330.49 133.39 329.79 133.01C324.36 130.15 319.4 126.58 315 122.43V118.36C319.66 123.16 325.07 127.25 331.08 130.42C331.79 130.79 332.08 131.66 331.72 132.38ZM235 114.63C227.87 111.06 221.41 106.24 215.93 100.35L218.05 98.38C222.95 103.66 228.69 108.03 235 111.38V114.63ZM265 161.73H269V178.73H265V161.73ZM281 161.73H285V178.73H281V161.73ZM286 115.73H290V119.73H286V115.73Z" fill="#AEB7C2"/>
<path d="M257 133.73H293V135.73H257V133.73ZM257 139.73H293V141.73H257V139.73ZM257 145.73H277V147.73H257V145.73Z" fill="#E7E8EC"/>
</svg>
