<svg width="25" height="24" viewBox="0 0 25 24" fill="none" xmlns="http://www.w3.org/2000/svg">
<path fill-rule="evenodd" clip-rule="evenodd" d="M13.1582 5.70555C13.1582 5.45499 12.8712 5.31619 12.6753 5.46859L4.58605 11.7646C4.43172 11.8847 4.43174 12.1184 4.58608 12.2385L12.6816 18.5376C12.8774 18.69 13.1644 18.5512 13.1644 18.3006V14.5379C13.1644 14.0409 13.5673 13.6379 14.0644 13.6379C17.0118 13.6379 19.2747 14.7338 21.0629 16.2743C20.7436 14.5293 20.0736 13.1818 19.1782 12.1631C17.8997 10.7087 16.0816 9.8334 13.9168 9.48909C13.4798 9.41959 13.1582 9.04274 13.1582 8.60026V5.70555ZM11.5698 4.04812C12.9495 2.97429 14.9582 3.9589 14.9582 5.70555V7.85389C17.13 8.32629 19.0795 9.32444 20.5301 10.9748C22.152 12.8199 23.0703 15.3892 23.0703 18.708C23.0703 19.088 22.8317 19.427 22.4741 19.5552C22.1164 19.6835 21.7168 19.5733 21.4754 19.2799C19.8412 17.2941 17.8051 15.75 14.9644 15.4799V18.3006C14.9644 20.0472 12.9559 21.0318 11.5762 19.9582L3.4807 13.6591C2.40027 12.8184 2.40017 11.1849 3.48048 10.3441L11.5698 4.04812Z" fill="#007AFF"/>
</svg>
