<svg width="24" height="24" viewBox="0 0 24 24" fill="none" xmlns="http://www.w3.org/2000/svg">
    <path
        d="M12.0001 1.71436C17.6807 1.71436 22.2858 6.31943 22.2858 12.0001C22.2858 17.6807 17.6807 22.2858 12.0001 22.2858C6.31943 22.2858 1.71436 17.6807 1.71436 12.0001C1.71436 6.31943 6.31943 1.71436 12.0001 1.71436ZM12.0001 3.42864C7.2662 3.42864 3.42864 7.2662 3.42864 12.0001C3.42864 16.7339 7.2662 20.5715 12.0001 20.5715C16.7339 20.5715 20.5715 16.7339 20.5715 12.0001C20.5715 7.2662 16.7339 3.42864 12.0001 3.42864ZM12.0001 15.0858C12.6628 15.0858 13.2001 15.623 13.2001 16.2858C13.2001 16.9485 12.6628 17.4858 12.0001 17.4858C11.3373 17.4858 10.8001 16.9485 10.8001 16.2858C10.8001 15.623 11.3373 15.0858 12.0001 15.0858ZM12.0632 6.85721C12.2668 6.85721 12.3947 6.88904 12.5064 6.9488C12.6182 7.00856 12.7059 7.09626 12.7656 7.20801C12.8254 7.31975 12.8572 7.4476 12.8572 7.65125V12.9203C12.8572 13.124 12.8254 13.2518 12.7656 13.3636C12.7059 13.4753 12.6182 13.563 12.5064 13.6228C12.3947 13.6825 12.2668 13.7144 12.0632 13.7144H11.937C11.7333 13.7144 11.6055 13.6825 11.4937 13.6228C11.382 13.563 11.2943 13.4753 11.2345 13.3636C11.1748 13.2518 11.1429 13.124 11.1429 12.9203V7.65125C11.1429 7.4476 11.1748 7.31975 11.2345 7.20801C11.2943 7.09626 11.382 7.00856 11.4937 6.9488C11.6055 6.88904 11.7333 6.85721 11.937 6.85721H12.0632Z"
        fill="#55687D" />
</svg>
