<svg width="20" height="20" viewBox="0 0 20 20" fill="none" xmlns="http://www.w3.org/2000/svg">
<path fill-rule="evenodd" clip-rule="evenodd" d="M8.57807 6.01178C8.57807 5.20223 7.95494 4.5393 7.1655 4.48318L7.05686 4.47934C6.71663 4.47934 6.38623 4.59423 6.11845 4.80566L0.582871 9.17638C-0.0783687 9.69847 -0.19427 10.6617 0.324 11.3278C0.399554 11.4249 0.486474 11.5125 0.582871 11.5886L6.11845 15.9593C6.77969 16.4814 7.73587 16.3647 8.25414 15.6985C8.46402 15.4288 8.57807 15.0959 8.57807 14.7534L8.57878 12.9755L8.72983 12.9939C10.3562 13.2127 11.8263 14.048 12.8588 15.3213L12.991 15.4899C13.3412 15.9518 14.0718 15.744 14.1306 15.1658C14.1552 14.9233 14.1677 14.6788 14.1677 14.4334C14.1677 11.0561 11.8 8.19351 8.59323 7.52424L8.57878 7.52075L8.57807 6.01178ZM6.90409 5.81543C6.94769 5.78101 7.00147 5.76231 7.05686 5.76231C7.19363 5.76231 7.3045 5.874 7.3045 6.01195L7.30506 8.06619C7.30515 8.39037 7.54532 8.66354 7.86476 8.70278C10.3648 9.00991 12.3403 10.9272 12.7952 13.3616L12.812 13.4581L12.6887 13.3557C11.4704 12.373 9.96857 11.7728 8.35956 11.6694L8.11742 11.6576L7.95246 11.6549C7.5968 11.649 7.30531 11.9377 7.30521 12.2961L7.3045 14.7532C7.3045 14.809 7.28593 14.8632 7.25176 14.9071C7.1674 15.0155 7.01174 15.0345 6.90409 14.9495L1.36852 10.5788C1.35282 10.5664 1.33867 10.5522 1.32637 10.5364C1.242 10.4279 1.26087 10.2711 1.36852 10.1861L6.90409 5.81543Z" fill="#007AFF"/>
<path d="M14.4522 2.33238C14.7425 2.33238 15.0242 2.43049 15.2524 2.61067L19.4502 5.92513C20.0135 6.36984 20.1118 7.18958 19.6708 7.75649C19.6064 7.83919 19.5324 7.91379 19.4502 7.97865L15.2524 11.2931C15.1672 11.3604 15.076 11.4154 14.9811 11.4581C14.8211 11.5302 14.6571 11.4398 14.5952 11.3052C14.236 10.5235 13.761 9.80603 13.1921 9.17467L13.1116 9.08621L13.0612 9.03274C12.8653 8.82502 12.659 8.62722 12.4431 8.44018C12.2618 8.28306 12.3131 7.96449 12.5721 7.9084C12.8604 7.84595 13.1555 7.80448 13.4552 7.78521L13.4574 7.78507L13.6456 7.77593L13.7707 7.77393C14.1212 7.76813 14.4067 8.05245 14.4068 8.40298L14.4073 10.2663C14.4073 10.2769 14.4109 10.2872 14.4172 10.2953C14.4326 10.3152 14.4604 10.3183 14.4796 10.3031L18.6774 6.98866C18.6802 6.98641 18.6828 6.98379 18.6851 6.98087C18.701 6.96041 18.6972 6.93078 18.6774 6.91512L14.4796 3.60066C14.4716 3.5944 14.462 3.59111 14.4522 3.59111C14.4285 3.59111 14.4073 3.61079 14.4073 3.63756L14.4069 5.1954C14.4068 5.51257 14.1717 5.78124 13.857 5.8199C12.8761 5.94041 12.0051 6.39903 11.3559 7.07357C11.1595 7.27766 10.8503 7.34493 10.5883 7.21811C10.2456 7.05227 10.0908 6.59305 10.376 6.28374C11.1055 5.49271 12.0655 4.91666 13.1553 4.66701L13.1558 3.63743C13.1558 2.94894 13.686 2.38364 14.3597 2.33575L14.3648 2.33548L14.4522 2.33238Z" fill="#007AFF"/>
</svg>
