<svg width="44" height="44" viewBox="0 0 44 44" fill="none" xmlns="http://www.w3.org/2000/svg">
<path fill-rule="evenodd" clip-rule="evenodd" d="M2.75 0H41.25C42.7688 0 44 1.2375 44 2.75V41.25C44 42.7688 42.7688 44 41.25 44H2.75C1.23118 44 0 42.7688 0 41.25V2.75C0 1.2375 1.2375 0 2.75 0Z" fill="#818C99" fill-opacity="0.12"/>
<path d="M24.4808 12.0965C24.7777 12.1649 25.0405 12.2738 25.2989 12.4354C25.5573 12.597 25.7666 12.7666 26.3144 13.3144L29.6856 16.6856C30.2334 17.2334 30.403 17.4427 30.5646 17.7011C30.7262 17.9595 30.8351 18.2223 30.9035 18.5192C30.972 18.8162 31 19.0842 31 19.8588V27.1542C31 28.4915 30.8608 28.9764 30.5993 29.4653C30.3378 29.9542 29.9542 30.3378 29.4653 30.5993C28.9764 30.8608 28.4915 31 27.1542 31H17.8458C16.5085 31 16.0236 30.8608 15.5347 30.5993C15.0458 30.3378 14.6622 29.9542 14.4007 29.4653C14.1392 28.9764 14 28.4915 14 27.1542V15.8458C14 14.5085 14.1392 14.0236 14.4007 13.5347C14.6622 13.0458 15.0458 12.6622 15.5347 12.4007C16.0236 12.1392 16.5085 12 17.8458 12H23.1412C23.9158 12 24.1838 12.028 24.4808 12.0965ZM23.8 13.9243C23.6343 13.9243 23.5 14.0586 23.5 14.2243V18C23.5 18.2762 23.7239 18.5 24 18.5H27.7757C27.8553 18.5 27.9316 18.4684 27.9879 18.4122C28.105 18.295 28.105 18.105 27.9879 17.9879L24.0121 14.0121C23.9559 13.9559 23.8796 13.9243 23.8 13.9243Z" fill="#99A2AD"/>
</svg>
