<svg width="11" height="10" viewBox="0 0 11 10" fill="none" xmlns="http://www.w3.org/2000/svg">
<path d="M10.0221 0.263604C10.3735 0.615076 10.3735 1.18492 10.0221 1.5364L6.55864 5L10.0221 8.46362C10.3442 8.7858 10.3711 9.29148 10.1026 9.64424L10.0221 9.73641C9.67058 10.0879 9.10073 10.0879 8.74926 9.73641L5.28564 6.273L1.82204 9.73641C1.47057 10.0879 0.90072 10.0879 0.549248 9.73641C0.197777 9.38494 0.197777 8.81509 0.549248 8.46362L4.01264 5L0.549248 1.5364C0.227066 1.21421 0.200217 0.708534 0.468703 0.355769L0.549248 0.263604C0.90072 -0.087868 1.47057 -0.087868 1.82204 0.263604L5.28564 3.727L8.74926 0.263604C9.10073 -0.087868 9.67058 -0.087868 10.0221 0.263604Z" fill="#818C99"/>
</svg>
