<svg width="28" height="28" viewBox="0 0 28 28" fill="none" xmlns="http://www.w3.org/2000/svg">
<path d="M15.4623 8.60023C15.6778 8.60023 15.863 8.52008 16.0181 8.3598C16.1731 8.19951 16.2506 8.01164 16.2506 7.79617C16.2506 7.58071 16.1744 7.39414 16.022 7.23649C15.8696 7.07883 15.683 7 15.4623 7H5.16726C4.94654 7 4.75867 7.07752 4.60364 7.23255C4.44861 7.38758 4.37109 7.57545 4.37109 7.79617C4.37109 8.01689 4.44861 8.20608 4.60364 8.36374C4.75867 8.5214 4.94654 8.60023 5.16726 8.60023H15.4623ZM15.4623 12.7387C15.6778 12.7387 15.863 12.6573 16.0181 12.4944C16.1731 12.3315 16.2506 12.1423 16.2506 11.9268C16.2506 11.7061 16.1744 11.5182 16.022 11.3632C15.8696 11.2081 15.683 11.1306 15.4623 11.1306H5.16726C4.94654 11.1306 4.75867 11.2081 4.60364 11.3632C4.44861 11.5182 4.37109 11.7061 4.37109 11.9268C4.37109 12.1475 4.44861 12.338 4.60364 12.4983C4.75867 12.6586 4.94654 12.7387 5.16726 12.7387H15.4623ZM15.4623 16.8694C15.6778 16.8694 15.863 16.7892 16.0181 16.6289C16.1731 16.4687 16.2506 16.2808 16.2506 16.0653C16.2506 15.8446 16.1744 15.6554 16.022 15.4977C15.8696 15.3401 15.683 15.2613 15.4623 15.2613H5.16726C4.94654 15.2613 4.75867 15.3388 4.60364 15.4938C4.44861 15.6488 4.37109 15.8393 4.37109 16.0653C4.37109 16.286 4.44861 16.4752 4.60364 16.6329C4.75867 16.7905 4.94654 16.8694 5.16726 16.8694H15.4623ZM11.1425 21C11.3632 21 11.5498 20.9199 11.7022 20.7596C11.8546 20.5993 11.9308 20.4114 11.9308 20.1959C11.9308 19.9752 11.8546 19.7847 11.7022 19.6244C11.5498 19.4642 11.3632 19.384 11.1425 19.384H5.16726C4.94654 19.384 4.75867 19.4628 4.60364 19.6205C4.44861 19.7782 4.37109 19.97 4.37109 20.1959C4.37109 20.4167 4.44861 20.6059 4.60364 20.7635C4.75867 20.9212 4.94654 21 5.16726 21H11.1425ZM22.2968 16.6881C22.5017 16.8247 22.708 16.893 22.9156 16.893C23.1232 16.893 23.294 16.826 23.428 16.692C23.562 16.558 23.629 16.3649 23.629 16.1126V12.0608C23.629 11.6719 23.4884 11.421 23.2072 11.308C22.9261 11.195 22.6226 11.2515 22.2968 11.4775L19.4747 13.393C19.3118 13.5086 19.2014 13.6545 19.1436 13.8305C19.0858 14.0066 19.0832 14.1839 19.1357 14.3626C19.1883 14.5413 19.3013 14.6884 19.4747 14.8041L22.2968 16.6881Z" fill="#99A2AD"/>
</svg>
