<svg width="24" height="24" viewBox="0 0 24 24" fill="none" xmlns="http://www.w3.org/2000/svg">
    <path
        d="M12 1.71428C17.6806 1.71428 22.2857 6.31935 22.2857 12C22.2857 17.6806 17.6806 22.2857 12 22.2857C6.31935 22.2857 1.71428 17.6806 1.71428 12C1.71428 6.31935 6.31935 1.71428 12 1.71428ZM12 3.42856C7.26612 3.42856 3.42856 7.26612 3.42856 12C3.42856 16.7339 7.26612 20.5714 12 20.5714C16.7339 20.5714 20.5714 16.7339 20.5714 12C20.5714 7.26612 16.7339 3.42856 12 3.42856ZM15.6771 8.81999C16.0119 8.48526 16.5595 8.48526 16.8943 8.81999C17.229 9.15473 17.229 9.7024 16.8943 10.0371L10.8918 16.0347C10.5571 16.3694 10.0144 16.3694 9.67962 16.0347L6.67962 13.0347C6.34488 12.6999 6.34488 12.1572 6.67962 11.8225C7.01435 11.4877 7.55706 11.4877 7.8918 11.8225L10.2857 14.2164L15.6771 8.81999Z"
        fill="white" />
</svg>
