<svg width="29" height="28" viewBox="0 0 29 28" fill="none" xmlns="http://www.w3.org/2000/svg">
<path d="M6.95654 8.68817H21.54C21.7607 8.68817 21.9473 8.60803 22.0996 8.44775C22.252 8.28748 22.3281 8.09961 22.3281 7.88412C22.3281 7.66342 22.252 7.47421 22.0996 7.31656C21.9473 7.15891 21.7607 7.08008 21.54 7.08008L6.95654 7.08008C6.74121 7.08008 6.55615 7.15759 6.40088 7.31262C6.24609 7.46765 6.16846 7.65814 6.16846 7.88412C6.16846 8.00409 6.19141 8.11472 6.23682 8.21603C6.27539 8.30115 6.33008 8.3797 6.40088 8.45169C6.55615 8.60934 6.74121 8.68817 6.95654 8.68817Z" fill="#99A2AD"/>
<path d="M11.2764 12.8188H21.54C21.7212 12.8188 21.8799 12.7647 22.0146 12.6564C22.0439 12.633 22.0723 12.607 22.0996 12.5784C22.252 12.4181 22.3281 12.2302 22.3281 12.0148C22.3281 11.794 22.252 11.6035 22.0996 11.4433C21.9473 11.283 21.7607 11.2028 21.54 11.2028H11.2764C11.0557 11.2028 10.8682 11.2816 10.7129 11.4393C10.5581 11.597 10.4805 11.7888 10.4805 12.0148C10.4805 12.2355 10.5581 12.4247 10.7129 12.5823C10.8682 12.74 11.0557 12.8188 11.2764 12.8188Z" fill="#99A2AD"/>
<path d="M6.95654 16.7882H21.54C21.7607 16.7882 21.9473 16.708 22.0996 16.5478C22.252 16.3875 22.3281 16.1996 22.3281 15.9841C22.3281 15.7634 22.252 15.5742 22.0996 15.4166C21.9473 15.2589 21.7607 15.1801 21.54 15.1801H6.95654C6.74121 15.1801 6.55615 15.2576 6.40088 15.4126C6.24609 15.5677 6.16846 15.7581 6.16846 15.9841C6.16846 16.2049 6.24609 16.394 6.40088 16.5517C6.55615 16.7094 6.74121 16.7882 6.95654 16.7882Z" fill="#99A2AD"/>
<path d="M11.2764 20.9188H21.54C21.7607 20.9188 21.9473 20.8387 22.0996 20.6784C22.1987 20.5743 22.2651 20.4586 22.2998 20.3312C22.3188 20.2625 22.3281 20.1903 22.3281 20.1148C22.3281 19.894 22.252 19.7036 22.0996 19.5433C21.9473 19.383 21.7607 19.3028 21.54 19.3028H11.2764C11.0557 19.3028 10.8682 19.3817 10.7129 19.5393C10.5581 19.697 10.4805 19.8888 10.4805 20.1148C10.4805 20.3355 10.5581 20.5247 10.7129 20.6823C10.7949 20.7657 10.8862 20.8271 10.9863 20.8664C11.0757 20.9013 11.1724 20.9188 11.2764 20.9188Z" fill="#99A2AD"/>
</svg>
