<svg width="28" height="28" viewBox="0 0 28 28" fill="none" xmlns="http://www.w3.org/2000/svg">
<path fill-rule="evenodd" clip-rule="evenodd" d="M21.7819 3.33479C20.9263 2.89882 19.9136 2.89882 19.058 3.33479C18.6301 3.55279 18.2581 3.92573 17.8277 4.3572L4.67686 17.5082C4.32275 17.8622 4.06835 18.1164 3.85935 18.4041C3.44193 18.9786 3.16642 19.6438 3.05533 20.3452C2.9997 20.6964 2.99979 21.0561 2.99991 21.5567L2.99992 22.5994L2.99973 22.6804C2.9987 22.9622 2.99744 23.3085 3.09781 23.6174C3.29565 24.2263 3.77301 24.7037 4.38189 24.9015C4.69081 25.0019 5.03717 25.0006 5.31895 24.9996L5.39992 24.9994L6.4426 24.9994C6.94326 24.9995 7.30294 24.9996 7.65413 24.944C8.35554 24.8329 9.02069 24.5574 9.59521 24.14C9.88287 23.931 10.1371 23.6766 10.4911 23.3225L23.6421 10.1716C24.0736 9.7412 24.4465 9.3692 24.6645 8.94136C25.1005 8.08571 25.1005 7.07307 24.6645 6.21742C24.4465 5.78959 24.0736 5.4176 23.6421 4.98723L23.0121 4.35721C22.5817 3.92574 22.2097 3.55279 21.7819 3.33479ZM19.9659 5.11681C20.2512 4.97148 20.5887 4.97148 20.8739 5.11681C20.9795 5.17059 21.1112 5.28491 21.6927 5.86639L22.1329 6.3066C22.7144 6.88809 22.8287 7.01985 22.8825 7.1254C23.0278 7.41062 23.0278 7.74817 22.8825 8.03338C22.8287 8.13893 22.7144 8.2707 22.1329 8.85218L21.2749 9.7102L18.2891 6.72441L19.1471 5.86639C19.7286 5.28491 19.8604 5.17059 19.9659 5.11681ZM16.8749 8.13863L6.14221 18.8713C5.71675 19.2968 5.58227 19.4353 5.47738 19.5797C5.24549 19.8989 5.09242 20.2684 5.0307 20.658C5.00279 20.8343 4.99992 21.0273 4.99992 21.629V22.5994C4.99992 22.7964 5.00027 22.9042 5.00455 22.9824L5.00524 22.9941L5.0169 22.9948C5.09517 22.9991 5.2029 22.9994 5.39992 22.9994H6.37028C6.97197 22.9994 7.16501 22.9965 7.34126 22.9686C7.73093 22.9069 8.10046 22.7538 8.41964 22.5219C8.56401 22.4171 8.70254 22.2826 9.12799 21.8571L19.8607 11.1244L16.8749 8.13863Z" fill="#B8C1CC"/>
</svg>
