<svg width="32" height="32" viewBox="0 0 32 32" fill="none" xmlns="http://www.w3.org/2000/svg">
    <path fill-rule="evenodd" clip-rule="evenodd" d="M13.5002 4.24052C14.9903 3.15792 17.008 3.15792 18.4981 4.24052C18.9345 4.5576 19.2765 4.99695 19.5985 5.483C19.9195 5.96731 20.2859 6.60195 20.7386 7.3862L28.0852 20.1109C28.5381 20.8952 28.9045 21.5298 29.1635 22.0499C29.4233 22.5719 29.6328 23.0877 29.6892 23.6242C29.8818 25.4559 28.8729 27.2033 27.1903 27.9524C26.6975 28.1719 26.146 28.2483 25.5641 28.2842C24.9842 28.32 24.2513 28.32 23.3458 28.32H8.65253C7.74695 28.32 7.01413 28.32 6.43423 28.2842C5.85227 28.2483 5.3008 28.1719 4.80799 27.9524C3.12539 27.2033 2.11654 25.4559 2.30906 23.6242C2.36545 23.0877 2.57496 22.5719 2.83484 22.0499C3.09381 21.5298 3.46021 20.8952 3.913 20.111L11.2597 7.38619C11.7124 6.60194 12.0788 5.96731 12.3998 5.483C12.7218 4.99695 13.0638 4.5576 13.5002 4.24052ZM17.1546 6.08971C16.4656 5.58915 15.5327 5.58915 14.8437 6.08971C14.7456 6.161 14.5857 6.32207 14.3051 6.74558C14.0279 7.16399 13.6965 7.73695 13.2199 8.56228L5.91168 21.2206C5.43518 22.0459 5.10468 22.6194 4.88095 23.0687C4.6545 23.5235 4.59493 23.7425 4.58226 23.8631C4.49324 24.71 4.9597 25.518 5.73767 25.8643C5.84848 25.9137 6.0679 25.9716 6.57498 26.0029C7.07597 26.0338 7.73786 26.0343 8.69088 26.0343H23.3074C24.2604 26.0343 24.9223 26.0338 25.4233 26.0029C25.9304 25.9716 26.1498 25.9137 26.2606 25.8643C27.0386 25.518 27.5051 24.71 27.416 23.8631C27.4034 23.7425 27.3438 23.5235 27.1173 23.0687C26.8936 22.6194 26.5631 22.0459 26.0866 21.2206L18.7783 8.56229C18.3018 7.73695 17.9704 7.16399 17.6932 6.74558C17.4125 6.32207 17.2527 6.161 17.1546 6.08971Z" fill="#007AFF"/>
    <path fill-rule="evenodd" clip-rule="evenodd" d="M15.9992 10.6057C15.368 10.6057 14.8563 11.1174 14.8563 11.7486L14.8563 17.4629C14.8563 18.0941 15.368 18.6057 15.9992 18.6057C16.6303 18.6057 17.142 18.0941 17.142 17.4629V11.7486C17.142 11.1174 16.6303 10.6057 15.9992 10.6057ZM15.9992 20.6629C15.2418 20.6629 14.6277 21.2769 14.6277 22.0343C14.6277 22.7917 15.2418 23.4058 15.9992 23.4058C16.7566 23.4058 17.3706 22.7917 17.3706 22.0343C17.3706 21.2769 16.7566 20.6629 15.9992 20.6629Z" fill="#007AFF"/>
</svg>
