<svg width="44" height="44" viewBox="0 0 44 44" fill="none" xmlns="http://www.w3.org/2000/svg">
<path fill-rule="evenodd" clip-rule="evenodd" d="M34.0541 0H2.75C1.23118 0 0 1.2375 0 2.75V41.25C0 42.7625 1.2375 44 2.75 44H41.25C42.7688 44 44 42.7688 44 41.25V9.94592C41.0666 7.0125 35.475 1.43 34.045 0H34.0541Z" fill="#5CBB6C"/>
<path fill-rule="evenodd" clip-rule="evenodd" d="M34.1 0L44 9.9H36.85C35.3312 9.9 34.1 8.66883 34.1 7.15V0ZM14.0415 13.7511H18.997L22.0201 18.3948L25.115 13.7692H30.0001L24.2212 21.5886L30.2575 30.2318H25.7565L21.9698 24.8198L19.8042 28.0437L21.9992 28.0464V30.2492H13.7432L19.7481 21.6389L14.0418 13.7511H14.0415Z" fill="#00660A"/>
</svg>
