<svg width="24" height="24" viewBox="0 0 24 24" fill="none" xmlns="http://www.w3.org/2000/svg">
    <path
        d="M12.0001 1.71484C17.6807 1.71484 22.2858 6.31991 22.2858 12.0006C22.2858 17.6812 17.6807 22.2863 12.0001 22.2863C6.31943 22.2863 1.71436 17.6812 1.71436 12.0006C1.71436 6.31991 6.31943 1.71484 12.0001 1.71484ZM12.0001 3.42913C7.2662 3.42913 3.42864 7.26669 3.42864 12.0006C3.42864 16.7344 7.2662 20.572 12.0001 20.572C16.7339 20.572 20.5715 16.7344 20.5715 12.0006C20.5715 7.26669 16.7339 3.42913 12.0001 3.42913ZM16.2858 11.1434C16.7592 11.1434 17.1429 11.5272 17.1429 12.0006C17.1429 12.4739 16.7592 12.8577 16.2858 12.8577H7.71436C7.24097 12.8577 6.85721 12.4739 6.85721 12.0006C6.85721 11.5272 7.24097 11.1434 7.71436 11.1434H16.2858Z"
        fill="#E64646" />
</svg>
