<svg width="28" height="28" viewBox="0 0 28 28" fill="none" xmlns="http://www.w3.org/2000/svg">
<path d="M9.11563 15C10.181 15 10.7392 15.1078 11.3205 15.4187C11.8615 15.708 12.292 16.1385 12.5813 16.6795C12.8922 17.2608 13 17.819 13 18.8844V21.1156C13 22.181 12.8922 22.7392 12.5813 23.3206C12.292 23.8615 11.8615 24.292 11.3205 24.5813C10.7392 24.8922 10.181 25 9.11563 25H6.88437C5.81899 25 5.26083 24.8922 4.67945 24.5813C4.13851 24.292 3.70801 23.8615 3.41871 23.3206C3.10779 22.7392 3 22.181 3 21.1156V18.8844C3 17.819 3.10779 17.2608 3.41871 16.6795C3.70801 16.1385 4.13851 15.708 4.67945 15.4187C5.26083 15.1078 5.81899 15 6.88437 15H9.11563ZM21.1156 15C22.181 15 22.7392 15.1078 23.3206 15.4187C23.8615 15.708 24.292 16.1385 24.5813 16.6795C24.8922 17.2608 25 17.819 25 18.8844V21.1156C25 22.181 24.8922 22.7392 24.5813 23.3206C24.292 23.8615 23.8615 24.292 23.3206 24.5813C22.7392 24.8922 22.181 25 21.1156 25H18.8844C17.819 25 17.2608 24.8922 16.6794 24.5813C16.1385 24.292 15.708 23.8615 15.4187 23.3206C15.1078 22.7392 15 22.181 15 21.1156V18.8844C15 17.819 15.1078 17.2608 15.4187 16.6795C15.708 16.1385 16.1385 15.708 16.6794 15.4187C17.2608 15.1078 17.819 15 18.8844 15H21.1156ZM9.11563 17H6.88437C6.12092 17 5.87468 17.0476 5.62265 17.1823C5.43025 17.2852 5.28523 17.4303 5.18234 17.6227C5.04755 17.8747 5 18.1209 5 18.8844V21.1156C5 21.8791 5.04755 22.1253 5.18234 22.3774C5.28523 22.5698 5.43025 22.7148 5.62265 22.8177C5.87468 22.9525 6.12092 23 6.88437 23H9.11563C9.87908 23 10.1253 22.9525 10.3774 22.8177C10.5698 22.7148 10.7148 22.5698 10.8177 22.3774C10.9524 22.1253 11 21.8791 11 21.1156V18.8844C11 18.1209 10.9524 17.8747 10.8177 17.6227C10.7148 17.4303 10.5698 17.2852 10.3774 17.1823C10.1253 17.0476 9.87908 17 9.11563 17ZM21.1156 17H18.8844C18.1209 17 17.8747 17.0476 17.6226 17.1823C17.4303 17.2852 17.2852 17.4303 17.1823 17.6227C17.0476 17.8747 17 18.1209 17 18.8844V21.1156C17 21.8791 17.0476 22.1253 17.1823 22.3774C17.2852 22.5698 17.4303 22.7148 17.6226 22.8177C17.8747 22.9525 18.1209 23 18.8844 23H21.1156C21.8791 23 22.1253 22.9525 22.3774 22.8177C22.5697 22.7148 22.7148 22.5698 22.8177 22.3774C22.9524 22.1253 23 21.8791 23 21.1156V18.8844C23 18.1209 22.9524 17.8747 22.8177 17.6227C22.7148 17.4303 22.5697 17.2852 22.3774 17.1823C22.1253 17.0476 21.8791 17 21.1156 17ZM20.8915 2.41257C21.5224 2.60381 21.9933 2.92227 22.7467 3.67561L24.3244 5.25335C25.0777 6.00668 25.3962 6.47758 25.5874 7.10853C25.7654 7.69559 25.7654 8.30443 25.5874 8.89149C25.3962 9.52244 25.0777 9.99334 24.3244 10.7467L22.7467 12.3244C21.9933 13.0778 21.5224 13.3962 20.8915 13.5875C20.3044 13.7654 19.6956 13.7654 19.1085 13.5875C18.4776 13.3962 18.0067 13.0778 17.2533 12.3244L15.6756 10.7467C14.9223 9.99334 14.6038 9.52244 14.4126 8.89149C14.2346 8.30443 14.2346 7.69559 14.4126 7.10853C14.6038 6.47758 14.9223 6.00668 15.6756 5.25335L17.2533 3.67561C18.0067 2.92227 18.4776 2.60381 19.1085 2.41257C19.6956 2.23463 20.3044 2.23463 20.8915 2.41257ZM9.11563 3.00001C10.181 3.00001 10.7392 3.1078 11.3205 3.41872C11.8615 3.70802 12.292 4.13852 12.5813 4.67946C12.8922 5.26084 13 5.819 13 6.88438V9.11564C13 10.181 12.8922 10.7392 12.5813 11.3206C12.292 11.8615 11.8615 12.292 11.3205 12.5813C10.7392 12.8922 10.181 13 9.11563 13H6.88437C5.81899 13 5.26083 12.8922 4.67945 12.5813C4.13851 12.292 3.70801 11.8615 3.41871 11.3206C3.10779 10.7392 3 10.181 3 9.11564V6.88438C3 5.819 3.10779 5.26084 3.41871 4.67946C3.70801 4.13852 4.13851 3.70802 4.67945 3.41872C5.26083 3.1078 5.81899 3.00001 6.88437 3.00001H9.11563ZM19.6887 4.32658C19.4151 4.40948 19.2074 4.54998 18.6675 5.08982L17.0898 6.66756C16.55 7.2074 16.4095 7.41514 16.3266 7.68866C16.2633 7.89747 16.2633 8.10255 16.3266 8.31136C16.4095 8.58488 16.55 8.79262 17.0898 9.33246L18.6675 10.9102C19.2074 11.45 19.4151 11.5905 19.6887 11.6734C19.8975 11.7367 20.1025 11.7367 20.3113 11.6734C20.5849 11.5905 20.7926 11.45 21.3325 10.9102L22.9102 9.33246C23.45 8.79262 23.5905 8.58488 23.6734 8.31136C23.7367 8.10255 23.7367 7.89747 23.6734 7.68866C23.5905 7.41514 23.45 7.2074 22.9102 6.66756L21.3325 5.08982C20.7926 4.54998 20.5849 4.40948 20.3113 4.32658C20.1025 4.26329 19.8975 4.26329 19.6887 4.32658ZM9.11563 5.00001H6.88437C6.12092 5.00001 5.87468 5.04756 5.62265 5.18235C5.43025 5.28524 5.28523 5.43026 5.18234 5.62266C5.04755 5.87469 5 6.12093 5 6.88438V9.11564C5 9.87909 5.04755 10.1253 5.18234 10.3774C5.28523 10.5698 5.43025 10.7148 5.62265 10.8177C5.87468 10.9525 6.12092 11 6.88437 11H9.11563C9.87908 11 10.1253 10.9525 10.3774 10.8177C10.5698 10.7148 10.7148 10.5698 10.8177 10.3774C10.9524 10.1253 11 9.87909 11 9.11564V6.88438C11 6.12093 10.9524 5.87469 10.8177 5.62266C10.7148 5.43026 10.5698 5.28524 10.3774 5.18235C10.1253 5.04756 9.87908 5.00001 9.11563 5.00001Z" fill="#007AFF"/>
</svg>
