<svg width="32" height="32" viewBox="0 0 32 32" fill="none" xmlns="http://www.w3.org/2000/svg">
    <path d="M19.8613 2.28571C20.619 2.28571 21.3458 2.58673 21.8816 3.12254L28.8774 10.1183C29.4132 10.6542 29.7142 11.3809 29.7142 12.1386V19.8613C29.7142 20.6191 29.4132 21.3458 28.8774 21.8816L21.8816 28.8774C21.3458 29.4133 20.619 29.7143 19.8613 29.7143H12.1386C11.3808 29.7143 10.6541 29.4133 10.1183 28.8774L3.12248 21.8816C2.58666 21.3458 2.28564 20.6191 2.28564 19.8613V12.1386C2.28564 11.3809 2.58666 10.6542 3.12248 10.1183L10.1183 3.12254C10.6541 2.58673 11.3808 2.28571 12.1386 2.28571H19.8613ZM19.8613 4.57142H12.1386C11.987 4.57142 11.8417 4.63162 11.7345 4.73879L4.73873 11.7346C4.63156 11.8417 4.57136 11.9871 4.57136 12.1386V19.8613C4.57136 20.0129 4.63156 20.1582 4.73873 20.2654L11.7345 27.2612C11.8417 27.3684 11.987 27.4286 12.1386 27.4286H19.8613C20.0128 27.4286 20.1582 27.3684 20.2653 27.2612L27.2611 20.2654C27.3683 20.1582 27.4285 20.0129 27.4285 19.8613V12.1386C27.4285 11.9871 27.3683 11.8417 27.2611 11.7346L20.2653 4.73879C20.1582 4.63162 20.0128 4.57142 19.8613 4.57142ZM15.9999 19.2001L16.1403 19.2072C16.8317 19.2774 17.3714 19.8614 17.3714 20.5714C17.3714 21.3288 16.7574 21.9427 16 21.9427L15.8597 21.9356C15.1682 21.8654 14.6286 21.2814 14.6286 20.5714C14.6286 19.8141 15.2426 19.2001 15.9999 19.2001ZM15.9999 9.14285C16.6311 9.14285 17.1428 9.65452 17.1428 10.2857V16C17.1428 16.6312 16.6311 17.1428 15.9999 17.1428C15.3687 17.1428 14.8571 16.6312 14.8571 16V10.2857C14.8571 9.65452 15.3687 9.14285 15.9999 9.14285Z" fill="#007AFF"/>
</svg>
