<svg width="98" height="98" viewBox="0 0 98 98" fill="none" xmlns="http://www.w3.org/2000/svg">
<circle cx="49" cy="49" r="49" fill="#E0EDFF"/>
<path d="M49.9441 28.2701C49.1313 27.4571 48.0289 27.0002 46.8794 27H31.3348C30.1851 27 29.0826 27.4567 28.2696 28.2696C27.4567 29.0826 27 30.1851 27 31.3348V46.8794C27.0002 48.0289 27.4571 49.1313 28.2701 49.9441L47.1351 68.8091C48.1202 69.788 49.4526 70.3374 50.8414 70.3374C52.2301 70.3374 53.5625 69.788 54.5476 68.8091L68.8091 54.5476C69.788 53.5625 70.3374 52.2301 70.3374 50.8414C70.3374 49.4526 69.788 48.1202 68.8091 47.1351L49.9441 28.2701Z" stroke="#9EBFEB" stroke-width="4.33479" stroke-linecap="round" stroke-linejoin="round"/>
<path d="M38.9206 40.0043C39.5191 40.0043 40.0043 39.5191 40.0043 38.9206C40.0043 38.3221 39.5191 37.8369 38.9206 37.8369C38.3221 37.8369 37.8369 38.3221 37.8369 38.9206C37.8369 39.5191 38.3221 40.0043 38.9206 40.0043Z" fill="#9EBFEB" stroke="#9EBFEB" stroke-width="4.33479" stroke-linecap="round" stroke-linejoin="round"/>
</svg>
