<svg width="9" height="16" viewBox="0 0 9 16" fill="none" xmlns="http://www.w3.org/2000/svg">
<path d="M7.22114 15.6933C7.41487 15.8918 7.66145 16 7.95205 16C8.53327 16 9 15.531 9 14.9357C9 14.6381 8.87671 14.3675 8.67417 14.1601L2.50978 7.99098L8.67417 1.83991C8.87671 1.63247 9 1.35287 9 1.06426C9 0.468997 8.53327 0 7.95205 0C7.66145 0 7.41487 0.10823 7.22114 0.306652L0.369863 7.16122C0.123288 7.39572 0.00880626 7.68433 0 8C0 8.31567 0.123288 8.58625 0.369863 8.82976L7.22114 15.6933Z" fill="#3840F7"/>
</svg>
