<svg width="24" height="24" viewBox="0 0 24 24" fill="none" xmlns="http://www.w3.org/2000/svg">
<path d="M5.26363 5.2636C5.6151 4.91213 6.18495 4.91213 6.53642 5.26361L12 10.7272L17.4636 5.26363C17.8151 4.91216 18.385 4.91216 18.7364 5.26363C19.0879 5.6151 19.0879 6.18495 18.7364 6.53642L13.2728 12L18.7364 17.4636C19.0879 17.8151 19.0879 18.385 18.7364 18.7364C18.3849 19.0879 17.8151 19.0879 17.4636 18.7364L12 13.2728L6.53639 18.7364C6.18492 19.0879 5.61507 19.0879 5.2636 18.7364C4.91213 18.3849 4.91213 17.8151 5.26361 17.4636L10.7272 12L5.26363 6.53639C4.91216 6.18492 4.91216 5.61507 5.26363 5.2636Z" fill="black"/>
</svg>
