<svg width="20" height="20" viewBox="0 0 20 20" fill="none" xmlns="http://www.w3.org/2000/svg">
<path d="M14.1532 2.85742C15.0137 2.85742 15.4418 2.9257 15.9025 3.1294C16.3339 3.32013 16.6947 3.6096 16.9745 3.98933C17.2733 4.39487 17.4328 4.79797 17.6195 5.63791L18.5544 9.84533L18.5714 10.0003V12.7662C18.5714 14.0352 18.4513 14.6573 18.1054 15.3041C17.7898 15.8941 17.3225 16.3615 16.7324 16.6771C16.0856 17.023 15.4635 17.1431 14.1945 17.1431H5.80557C4.53657 17.1431 3.91444 17.023 3.26767 16.6771C2.67758 16.3615 2.21021 15.8941 1.89463 15.3041C1.54873 14.6573 1.42859 14.0352 1.42859 12.7662V10.0003L1.4456 9.84533L2.38058 5.63791C2.56723 4.79797 2.72676 4.39487 3.02554 3.98933C3.30531 3.6096 3.66617 3.32013 4.09755 3.1294C4.55824 2.9257 4.98635 2.85742 5.84678 2.85742H14.1532ZM2.85716 12.7662C2.85716 13.8195 2.93427 14.2188 3.15436 14.6303C3.3368 14.9715 3.60025 15.2349 3.94138 15.4174C4.3529 15.6375 4.75223 15.7146 5.80557 15.7146H14.1945C15.2478 15.7146 15.6471 15.6375 16.0587 15.4174C16.3998 15.2349 16.6632 14.9715 16.8457 14.6303C17.0658 14.2188 17.1429 13.8195 17.1429 12.7662V10.7146H13.5C13.1691 12.3447 11.7278 13.5717 10 13.5717C8.27219 13.5717 6.83094 12.3447 6.50003 10.7146H2.85716V12.7662ZM14.3022 4.28669L5.84678 4.28599C5.16851 4.28599 4.92744 4.32444 4.67524 4.43595C4.4714 4.52608 4.30786 4.65726 4.17566 4.8367C4.0121 5.0587 3.92227 5.28569 3.77513 5.94781L3.03287 9.28599H7.14287C7.50919 9.28599 7.81109 9.56174 7.85235 9.91698L7.85716 10.0003C7.85716 11.1837 8.81655 12.1431 10 12.1431C11.1835 12.1431 12.1429 11.1837 12.1429 10.0003C12.1429 9.60579 12.4627 9.28599 12.8572 9.28599H16.9664L16.2249 5.94781C16.0778 5.28569 15.9879 5.0587 15.8244 4.8367C15.6922 4.65726 15.5286 4.52608 15.3248 4.43595C15.092 4.33302 14.8687 4.29234 14.3022 4.28669Z" fill="#007AFF"/>
</svg>
