<svg width="80" height="80" viewBox="0 0 80 80" fill="none" xmlns="http://www.w3.org/2000/svg">
<path d="M24.1747 8.5H47.9677L68.4745 29.0068V59.2002C68.4744 65.9932 62.9677 71.5 56.1747 71.5H24.1747C17.3817 71.4999 11.875 65.9931 11.8749 59.2002V20.7998C11.875 14.113 17.211 8.67235 23.8573 8.50391L24.1747 8.5Z" fill="#FDF5F4" stroke="#D52E26"/>
<path d="M68.9749 29.6L47.3749 8V19.1724C47.3749 24.9314 51.8878 29.6 57.4549 29.6H68.9749Z" fill="#D52E26"/>
<path d="M22.4008 59.1998V44.7998H28.3456C29.3677 44.7998 30.2621 45.0107 31.0288 45.4326C31.7954 45.8545 32.3917 46.4475 32.8176 47.2115C33.2435 47.9756 33.4565 48.8686 33.4565 49.8904C33.4565 50.9217 33.2368 51.8146 32.7974 52.5693C32.3626 53.324 31.7506 53.9053 30.9615 54.3131C30.177 54.7209 29.2601 54.9248 28.2111 54.9248H24.6603V51.8873H27.4579C27.8972 51.8873 28.2716 51.8076 28.5809 51.6482C28.8948 51.4842 29.1346 51.2521 29.3005 50.9521C29.4709 50.6521 29.556 50.2982 29.556 49.8904C29.556 49.4779 29.4709 49.1264 29.3005 48.8357C29.1346 48.5404 28.8948 48.3154 28.5809 48.1607C28.2716 48.0014 27.8972 47.9217 27.4579 47.9217H26.1398V59.1998H22.4008Z" fill="#D52E26"/>
<path d="M40.1276 59.1998H34.8283V44.7998H40.0738C41.4905 44.7998 42.7144 45.0881 43.7455 45.6646C44.7812 46.2365 45.5792 47.0615 46.1396 48.1396C46.7045 49.2131 46.9869 50.4998 46.9869 51.9998C46.9869 53.4998 46.7067 54.7889 46.1463 55.867C45.5859 56.9404 44.7924 57.7654 43.7657 58.342C42.7391 58.9139 41.5263 59.1998 40.1276 59.1998ZM38.5674 55.8811H39.9931C40.6745 55.8811 41.2551 55.7662 41.7348 55.5365C42.219 55.3068 42.5866 54.9107 42.8377 54.3482C43.0932 53.7857 43.221 53.0029 43.221 51.9998C43.221 50.9967 43.091 50.2139 42.831 49.6514C42.5754 49.0889 42.1988 48.6928 41.7012 48.4631C41.208 48.2334 40.6028 48.1186 39.8855 48.1186H38.5674V55.8811Z" fill="#D52E26"/>
<path d="M48.7169 59.1998V44.7998H58.4008V47.9498H52.456V50.4248H57.809V53.5748H52.456V59.1998H48.7169Z" fill="#D52E26"/>
</svg>
