<svg width="24" height="24" viewBox="0 0 24 24" fill="none" xmlns="http://www.w3.org/2000/svg">
    <path
        d="M16.2856 0.857178C16.759 0.857178 17.1427 1.24093 17.1427 1.71432L17.1433 2.70845C17.8632 2.82298 18.3293 3.00799 18.7975 3.25838C19.6356 3.70659 20.2933 4.36434 20.7415 5.20243C21.1487 5.96385 21.383 6.71967 21.4225 8.57067L21.4284 8.57146V14.8358L21.4239 15.3587C21.3889 17.2613 21.1539 18.0266 20.7415 18.7976C20.2933 19.6357 19.6356 20.2935 18.7975 20.7417C17.9594 21.1899 17.1281 21.4286 14.8356 21.4286H9.16414L8.64125 21.424C6.73861 21.3891 5.9733 21.1541 5.20226 20.7417C4.36416 20.2935 3.70642 19.6357 3.2582 18.7976C2.82791 17.9931 2.59072 17.1948 2.57243 15.1039L2.57129 9.16431V8.57146C2.61672 6.71967 2.85099 5.96385 3.2582 5.20243C3.70642 4.36434 4.36416 3.70659 5.20226 3.25838C5.67064 3.00788 6.1369 2.82283 6.85727 2.70831L6.857 1.71432C6.857 1.24093 7.24076 0.857178 7.71415 0.857178C8.18753 0.857178 8.57129 1.24093 8.57129 1.71432L8.57049 2.57744C8.75689 2.57346 8.9544 2.57146 9.16414 2.57146H14.8356C15.0456 2.57146 15.2434 2.57347 15.4301 2.57745L15.4284 1.71432C15.4284 1.24093 15.8122 0.857178 16.2856 0.857178ZM19.7133 10.2857H4.28557L4.28637 15.0783L4.29395 15.5659C4.32727 16.8577 4.46378 17.4168 4.76988 17.9892C5.05833 18.5285 5.47136 18.9416 6.01071 19.23C6.65042 19.5721 7.27353 19.7024 8.92161 19.7135H15.0781L15.5657 19.7059C16.8576 19.6726 17.4166 19.5361 17.989 19.23C18.5284 18.9416 18.9414 18.5285 19.2298 17.9892C19.572 17.3495 19.7022 16.7264 19.7134 15.0783L19.7133 10.2857ZM16.325 14.5715C16.696 14.5715 16.9881 14.6411 17.2325 14.7718C17.4769 14.9025 17.6688 15.0944 17.7995 15.3388C17.9302 15.5833 17.9999 15.8754 17.9999 16.2463V16.3252C17.9999 16.6961 17.9302 16.9882 17.7995 17.2327C17.6688 17.4771 17.4769 17.669 17.2325 17.7997C16.9881 17.9304 16.696 18 16.325 18H16.2461C15.8752 18 15.5831 17.9304 15.3387 17.7997C15.0942 17.669 14.9024 17.4771 14.7716 17.2327C14.6409 16.9882 14.5713 16.6961 14.5713 16.3252V16.2463C14.5713 15.8754 14.6409 15.5833 14.7716 15.3388C14.9024 15.0944 15.0942 14.9025 15.3387 14.7718C15.5831 14.6411 15.8752 14.5715 16.2461 14.5715H16.325ZM15.0781 4.28654H8.92161L8.57129 4.29089V5.14289C8.57129 5.61628 8.18753 6.00004 7.71415 6.00004C7.24076 6.00004 6.857 5.61628 6.857 5.14289L6.85636 4.45076C6.53005 4.52611 6.27176 4.63044 6.01071 4.77006C5.47136 5.0585 5.05833 5.47154 4.76988 6.01089C4.45324 6.60296 4.31807 7.18083 4.29087 8.5703L19.7081 8.57146L19.7058 8.43419C19.6724 7.14234 19.5359 6.58325 19.2298 6.01089C18.9414 5.47154 18.5284 5.0585 17.989 4.77006C17.728 4.63048 17.4698 4.52616 17.1436 4.45081L17.1427 5.14289C17.1427 5.61628 16.759 6.00004 16.2856 6.00004C15.8122 6.00004 15.4284 5.61628 15.4284 5.14289L15.4305 4.29106C15.3184 4.28887 15.2011 4.28737 15.0781 4.28654Z"
        fill="#AEB7C2" />
</svg>
