<svg width="28" height="28" viewBox="0 0 28 28" fill="none" xmlns="http://www.w3.org/2000/svg">
<path d="M6.7085 8.68854H14.0002H21.292C21.5127 8.68854 21.6992 8.6084 21.8516 8.44812C22.0039 8.28784 22.0801 8.09998 22.0801 7.88449C22.0801 7.66379 22.0039 7.47458 21.8516 7.31693C21.6992 7.15927 21.5127 7.08044 21.292 7.08044L6.7085 7.08044C6.49316 7.08044 6.30811 7.15796 6.15283 7.31299C5.99805 7.46802 5.92041 7.65851 5.92041 7.88449C5.92041 8.00446 5.94336 8.11508 5.98877 8.2164C6.02734 8.30151 6.08203 8.38007 6.15283 8.45206C6.30811 8.60971 6.49316 8.68854 6.7085 8.68854Z" fill="#99A2AD"/>
<path d="M8.7959 12.8195H19.0596C19.2407 12.8195 19.3994 12.7653 19.5342 12.6571C19.5635 12.6336 19.5918 12.6076 19.6191 12.579C19.7715 12.4187 19.8477 12.2309 19.8477 12.0154C19.8477 11.7947 19.7715 11.6042 19.6191 11.4439C19.4668 11.2836 19.2803 11.2035 19.0596 11.2035H8.7959C8.5752 11.2035 8.3877 11.2823 8.23242 11.4399C8.07764 11.5976 8 11.7894 8 12.0154C8 12.2361 8.07764 12.4253 8.23242 12.583C8.3877 12.7406 8.5752 12.8195 8.7959 12.8195Z" fill="#99A2AD"/>
<path d="M6.7085 16.7886H21.292C21.5127 16.7886 21.6992 16.7084 21.8516 16.5481C22.0039 16.3878 22.0801 16.2 22.0801 15.9845C22.0801 15.7638 22.0039 15.5746 21.8516 15.4169C21.6992 15.2593 21.5127 15.1805 21.292 15.1805H6.7085C6.49316 15.1805 6.30811 15.258 6.15283 15.413C5.99805 15.568 5.92041 15.7585 5.92041 15.9845C5.92041 16.2052 5.99805 16.3944 6.15283 16.5521C6.30811 16.7097 6.49316 16.7886 6.7085 16.7886Z" fill="#99A2AD"/>
<path d="M8.7959 20.9195H19.0596C19.2803 20.9195 19.4668 20.8393 19.6191 20.679C19.7183 20.575 19.7847 20.4592 19.8193 20.3318C19.8384 20.2631 19.8477 20.1909 19.8477 20.1154C19.8477 19.8947 19.7715 19.7042 19.6191 19.5439C19.4668 19.3836 19.2803 19.3035 19.0596 19.3035H8.7959C8.5752 19.3035 8.3877 19.3823 8.23242 19.5399C8.07764 19.6976 8 19.8894 8 20.1154C8 20.3361 8.07764 20.5253 8.23242 20.683C8.31445 20.7664 8.40576 20.8278 8.50586 20.867C8.59521 20.902 8.69189 20.9195 8.7959 20.9195Z" fill="#99A2AD"/>
</svg>
