<svg width="24" height="24" viewBox="0 0 24 24" fill="none" xmlns="http://www.w3.org/2000/svg">
<path d="M17.3558 14.1983C17.7077 13.8473 18.2776 13.8479 18.6286 14.1998C18.9797 14.5517 18.979 15.1216 18.6271 15.4726L14.0643 20.0247C11.5536 22.5294 7.48776 22.5246 4.98298 20.0139C4.95572 19.9865 4.95572 19.9865 4.92868 19.9588C2.34868 17.3097 2.35833 13.0844 4.95042 10.4471L11.7862 3.49188C13.588 1.65866 16.5347 1.63314 18.3679 3.43489C18.407 3.47336 18.4455 3.51253 18.4833 3.55236L18.5148 3.58567C20.3243 5.49447 20.304 8.49133 18.4689 10.3755L11.5768 17.452C10.5166 18.5406 8.79579 18.6261 7.63278 17.6481L7.55711 17.5845C6.39786 16.6095 6.24841 14.8795 7.22332 13.7202C7.25904 13.6777 7.29605 13.6363 7.33428 13.5961L11.9727 8.71536C12.3151 8.35505 12.8847 8.34055 13.245 8.68296C13.6053 9.02537 13.6198 9.59503 13.2774 9.95534L8.63906 14.8361C8.62592 14.8499 8.6132 14.8641 8.60092 14.8787C8.26586 15.2772 8.31722 15.8718 8.71565 16.2068L8.79132 16.2705C9.23246 16.6415 9.88516 16.609 10.2873 16.1961L17.1795 9.11961C18.3404 7.92759 18.3532 6.03162 17.2085 4.82401L17.1769 4.79069C17.1538 4.76627 17.1302 4.74225 17.1062 4.71866C15.982 3.61374 14.1749 3.62939 13.07 4.75361L6.23418 11.7088C4.32817 13.6481 4.32107 16.755 6.2182 18.703C6.23766 18.7229 6.23766 18.7229 6.25728 18.7426C8.05994 20.5496 10.9861 20.553 12.793 18.7504L17.3558 14.1983Z" fill="#99A2AD"/>
</svg>
