<svg width="20" height="20" viewBox="0 0 20 20" fill="none" xmlns="http://www.w3.org/2000/svg">
<path fill-rule="evenodd" clip-rule="evenodd" d="M7.60906 2.89703C7.44096 2.85667 7.27015 2.85713 7.1345 2.85749L7.09804 2.85756L5.61336 2.85756C5.03838 2.85755 4.56384 2.85754 4.17727 2.88913C3.77577 2.92193 3.4067 2.99233 3.06003 3.16897C2.52242 3.44289 2.08534 3.87998 1.81141 4.41759C1.63478 4.76425 1.56437 5.13333 1.53157 5.53483C1.49999 5.92139 1.49999 6.39593 1.5 6.97089V13.0299C1.49999 13.6049 1.49999 14.0794 1.53157 14.466C1.56437 14.8675 1.63478 15.2366 1.81141 15.5832C2.08534 16.1209 2.52242 16.5579 3.06003 16.8319C3.4067 17.0085 3.77577 17.0789 4.17727 17.1117C4.56383 17.1433 5.03837 17.1433 5.61334 17.1433H7.92857C8.32306 17.1433 8.64286 16.8235 8.64286 16.429C8.64286 16.0345 8.32306 15.7147 7.92857 15.7147H5.64286C5.03102 15.7147 4.61509 15.7141 4.2936 15.6879C3.98045 15.6623 3.8203 15.6159 3.70859 15.559C3.43978 15.422 3.22124 15.2035 3.08428 14.9347C3.02736 14.823 2.98098 14.6628 2.9554 14.3497C2.92913 14.0282 2.92857 13.6123 2.92857 13.0004V9.28612H17.2143V10.0003C17.2143 10.3948 17.5341 10.7146 17.9286 10.7146C18.3231 10.7146 18.6429 10.3948 18.6429 10.0003V8.75661C18.6429 8.18164 18.6429 7.7071 18.6113 7.32054C18.5785 6.91904 18.5081 6.54997 18.3314 6.2033C18.0575 5.66569 17.6204 5.22861 17.0828 4.95468C16.7362 4.77805 16.3671 4.70764 15.9656 4.67484C15.579 4.64326 15.1045 4.64326 14.5295 4.64327L9.83053 4.64327C9.73696 4.64327 9.69026 4.6431 9.65633 4.64155L9.65377 4.64143L9.65188 4.6397C9.62679 4.61681 9.59365 4.58391 9.52748 4.51775L8.41124 3.4015L8.38551 3.37568C8.28984 3.2795 8.16939 3.1584 8.02199 3.06807C7.89417 2.98975 7.75482 2.93203 7.60906 2.89703ZM7.09804 4.28613C7.19161 4.28613 7.23832 4.2863 7.27224 4.28785L7.2748 4.28797L7.2767 4.2897C7.30178 4.31259 7.33492 4.34549 7.40109 4.41166L8.51733 5.5279L8.54306 5.55373C8.63873 5.6499 8.75919 5.77101 8.90658 5.86133C9.0344 5.93966 9.17375 5.99738 9.31952 6.03237C9.48761 6.07273 9.65842 6.07227 9.79407 6.07191L9.83053 6.07184H14.5C15.1118 6.07184 15.5278 6.0724 15.8493 6.09867C16.1624 6.12425 16.3226 6.17063 16.4343 6.22755C16.7031 6.36451 16.9216 6.58306 17.0586 6.85186C17.1155 6.96357 17.1619 7.12372 17.1875 7.43687C17.1976 7.56106 17.2039 7.69934 17.2078 7.85755H2.92857V7.00042C2.92857 6.38857 2.92913 5.97265 2.9554 5.65116C2.98098 5.338 3.02736 5.17786 3.08428 5.06614C3.22124 4.79734 3.43978 4.5788 3.70859 4.44183C3.8203 4.38491 3.98045 4.33854 4.2936 4.31295C4.61509 4.28669 5.03102 4.28613 5.64286 4.28613H7.09804Z" fill="#007AFF"/>
<path d="M15.3 14.4992C15.3 15.2172 14.718 15.7992 14 15.7992C13.282 15.7992 12.7 15.2172 12.7 14.4992C12.7 13.7812 13.282 13.1992 14 13.1992C14.718 13.1992 15.3 13.7812 15.3 14.4992Z" fill="#007AFF"/>
<path fill-rule="evenodd" clip-rule="evenodd" d="M18.5 14.4992C18.5 15.9135 16.4853 17.7992 14 17.7992C11.5147 17.7992 9.5 15.9135 9.5 14.4992C9.5 13.0849 11.5147 11.1992 14 11.1992C16.4853 11.1992 18.5 13.0849 18.5 14.4992ZM17.2 14.4992C17.2 14.7073 16.9994 15.2208 16.3434 15.743C15.7304 16.231 14.8948 16.5735 14 16.5735C13.1052 16.5735 12.2696 16.231 11.6566 15.743C11.0006 15.2208 10.8 14.7073 10.8 14.4992C10.8 14.2912 11.0006 13.7776 11.6566 13.2554C12.2696 12.7675 13.1052 12.4249 14 12.4249C14.8948 12.4249 15.7304 12.7675 16.3434 13.2554C16.9994 13.7776 17.2 14.2912 17.2 14.4992Z" fill="#007AFF"/>
</svg>
