<svg width="44" height="44" viewBox="0 0 44 44" fill="none" xmlns="http://www.w3.org/2000/svg">
<path fill-rule="evenodd" clip-rule="evenodd" d="M2.75 0H41.25C42.7688 0 44 1.2375 44 2.75V41.25C44 42.7688 42.7688 44 41.25 44H2.75C1.23118 44 0 42.7688 0 41.25V2.75C0 1.2375 1.2375 0 2.75 0Z" fill="#F1C569"/>
<path d="M21.863 32.0727C23.727 32.0678 25.2494 30.5821 25.3 28.7188L24.4485 21.336C24.3498 20.3762 23.5543 19.6385 22.5898 19.6123H21.1257C20.1821 19.6343 19.3943 20.3385 19.267 21.2737L18.426 28.5423C18.4036 29.4691 18.7555 30.3658 19.4022 31.0301C20.0489 31.6944 20.9359 32.0702 21.863 32.0727ZM20.0354 28.48L20.1185 27.7323C20.1888 26.8238 20.9465 26.1224 21.8578 26.1224C22.769 26.1224 23.5268 26.8238 23.597 27.7323L23.6801 28.48C23.7414 28.9037 23.6128 29.3328 23.3286 29.653C23.0445 29.9732 22.6336 30.1519 22.2056 30.1414H21.5099C21.0725 30.1509 20.6538 29.9643 20.3684 29.6326C20.083 29.301 19.9609 28.8592 20.0354 28.4281V28.48ZM20.8246 22.5405V22.1148C20.8761 21.6173 21.2953 21.2392 21.7955 21.2392C22.2956 21.2392 22.7148 21.6173 22.7663 22.1148L22.8183 22.5405C22.8522 22.778 22.7792 23.0183 22.6188 23.1967C22.4585 23.3751 22.2273 23.4732 21.9876 23.4647H21.6034C21.3727 23.4581 21.1557 23.3534 21.007 23.177C20.8583 23.0005 20.792 22.769 20.8246 22.5405Z" fill="white"/>
<path d="M21.4527 11.8252H19.9678C19.5234 11.8252 19.1631 12.1855 19.1631 12.6299C19.1631 13.0744 19.5234 13.4347 19.9678 13.4347H21.4527C21.8971 13.4347 22.2574 13.0744 22.2574 12.6299C22.2574 12.1855 21.8971 11.8252 21.4527 11.8252Z" fill="white"/>
<path d="M23.1037 13.4346H21.6188C21.1744 13.4346 20.8141 13.7949 20.8141 14.2393C20.8141 14.6837 21.1744 15.044 21.6188 15.044H23.1037C23.5481 15.044 23.9084 14.6837 23.9084 14.2393C23.9084 13.7949 23.5481 13.4346 23.1037 13.4346Z" fill="white"/>
<path d="M21.4527 15.0332H19.9678C19.5234 15.0332 19.1631 15.3935 19.1631 15.8379C19.1631 16.2824 19.5234 16.6427 19.9678 16.6427H21.4527C21.8971 16.6427 22.2574 16.2824 22.2574 15.8379C22.2574 15.3935 21.8971 15.0332 21.4527 15.0332Z" fill="white"/>
<path d="M23.1037 16.6426H21.6188C21.1744 16.6426 20.8141 17.0029 20.8141 17.4473C20.8141 17.8918 21.1744 18.252 21.6188 18.252H23.1037C23.5481 18.252 23.9084 17.8918 23.9084 17.4473C23.9084 17.0029 23.5481 16.6426 23.1037 16.6426Z" fill="white"/>
</svg>
