<svg width="28" height="28" viewBox="0 0 28 28" fill="none" xmlns="http://www.w3.org/2000/svg">
<path fill-rule="evenodd" clip-rule="evenodd" d="M14.0011 14.3525L4.00488 9.355C4.04189 8.71805 4.32102 8.11936 4.7851 7.68153C5.24919 7.24371 5.86311 6.99988 6.50113 7H21.5011C22.1392 6.99988 22.7531 7.24371 23.2172 7.68153C23.6812 8.11936 23.9604 8.71805 23.9974 9.355L14.0011 14.3525ZM14 17.1476L24 12.1476V19.5001C24 20.1631 23.7366 20.799 23.2678 21.2678C22.7989 21.7367 22.163 22.0001 21.5 22.0001H6.5C5.83696 22.0001 5.20107 21.7367 4.73223 21.2678C4.26339 20.799 4 20.1631 4 19.5001V12.1476L14 17.1476Z" fill="#007AFF"/>
</svg>
