<svg width="24" height="24" viewBox="0 0 24 24" fill="none" xmlns="http://www.w3.org/2000/svg">
<path d="M19.2239 9.58899C20.7496 9.58899 22.0143 8.32432 22.0143 6.79041C22.0143 5.26466 20.7496 4 19.2239 4C17.69 4 16.4253 5.26466 16.4253 6.79041C16.4253 8.32432 17.69 9.58899 19.2239 9.58899ZM18.0734 20C19.8032 20 20.8149 18.9801 20.8149 17.1362V10.462C20.2193 10.7557 19.5502 10.8618 18.873 10.7721V16.5324L14.8343 12.5263L17.1596 10.2417C16.6619 9.94799 16.2376 9.54003 15.9276 9.0668L12.256 12.6976C11.9296 13.0158 11.6849 13.1464 11.4156 13.1464C11.1464 13.1464 10.9016 13.0158 10.5752 12.6976L5.04335 7.22285H15.2585C15.1443 6.57012 15.2422 5.84396 15.5196 5.24018H4.74962C3.01989 5.24018 2 6.25191 2 8.10403V17.1362C2 18.9883 3.01989 20 4.88016 20H18.0734ZM3.94187 16.5487V8.54462L7.98878 12.5263L3.94187 16.5487ZM17.8531 18.0173H4.96175C4.93728 18.0173 4.92096 18.0092 4.90464 18.0092L9.21265 13.7256L9.52269 14.0357C10.1428 14.6395 10.7547 14.9169 11.4156 14.9169C12.0765 14.9169 12.6884 14.6395 13.3004 14.0357L13.6186 13.7256L17.9266 18.0092C17.9021 18.0092 17.8776 18.0173 17.8531 18.0173Z" fill="#99A2AD"/>
</svg>
