<svg width="24" height="24" viewBox="0 0 24 24" fill="none" xmlns="http://www.w3.org/2000/svg">
    <path fill-rule="evenodd" clip-rule="evenodd"
        d="M12.0029 1.7143L12.0006 1.71429C6.31992 1.71429 1.71484 6.31937 1.71484 12C1.71484 17.6807 6.31992 22.2857 12.0006 22.2857C17.6812 22.2857 22.2863 17.6807 22.2863 12C22.2863 6.32015 17.6825 1.71557 12.0029 1.7143ZM13.9838 20.3408C16.3056 19.7908 18.2621 18.2965 19.4253 16.2857H15.7537C15.4102 17.5959 14.9402 18.6784 14.4653 19.5391C14.3036 19.8323 14.1414 20.0995 13.9838 20.3408ZM16.1023 14.5714H20.1796C20.4345 13.7597 20.572 12.8959 20.572 12C20.572 11.1041 20.4345 10.2403 20.1796 9.42858H16.1023C16.2189 10.2209 16.2863 11.0778 16.2863 12C16.2863 12.9223 16.2189 13.7791 16.1023 14.5714ZM14.3673 9.42858C14.4958 10.2083 14.572 11.0649 14.572 12C14.572 12.9352 14.4958 13.7917 14.3673 14.5714H9.63385C9.50532 13.7917 9.42913 12.9352 9.42913 12C9.42913 11.0649 9.50532 10.2083 9.63385 9.42858H14.3673ZM15.7537 7.71429H19.4253C18.2621 5.70355 16.3056 4.20917 13.9838 3.65917C14.1414 3.90056 14.3036 4.16771 14.4653 4.46094C14.9402 5.32167 15.4102 6.40411 15.7537 7.71429ZM10.0173 3.65917C7.69549 4.20917 5.73899 5.70355 4.57583 7.71429H8.2474C8.59092 6.40411 9.0609 5.32167 9.53578 4.46094C9.69756 4.16771 9.85971 3.90056 10.0173 3.65917ZM10.0274 7.71429C10.3169 6.74454 10.6787 5.93807 11.0368 5.28908C11.3827 4.66216 11.7263 4.18001 12.0006 3.83861C12.2748 4.18001 12.6185 4.66216 12.9643 5.28908C13.3224 5.93807 13.6842 6.74454 13.9737 7.71429H10.0274ZM7.89886 9.42858H3.82153C3.56658 10.2403 3.42913 11.1041 3.42913 12C3.42913 12.8959 3.56658 13.7597 3.82153 14.5714H7.89886C7.78219 13.7791 7.71484 12.9223 7.71484 12C7.71484 11.0778 7.78219 10.2209 7.89886 9.42858ZM8.2474 16.2857H4.57583C5.73899 18.2965 7.69549 19.7908 10.0173 20.3408C9.85971 20.0995 9.69756 19.8323 9.53578 19.5391C9.0609 18.6784 8.59092 17.5959 8.2474 16.2857ZM10.0274 16.2857H13.9737C13.6842 17.2555 13.3224 18.062 12.9643 18.7109C12.6185 19.3379 12.2748 19.82 12.0006 20.1614C11.7263 19.82 11.3827 19.3379 11.0368 18.7109C10.6787 18.062 10.3169 17.2555 10.0274 16.2857Z"
        fill="white" />
</svg>
