<svg width="28" height="28" viewBox="0 0 28 28" fill="none" xmlns="http://www.w3.org/2000/svg">
<path fill-rule="evenodd" clip-rule="evenodd" d="M16 6C16 2.68629 18.6863 0 22 0C25.3137 0 28 2.68629 28 6C28 9.31371 25.3137 12 22 12C18.6863 12 16 9.31371 16 6ZM21 3C21 2.44772 21.4477 2 22 2C22.5523 2 23 2.44772 23 3V5H25C25.5523 5 26 5.44772 26 6C26 6.55228 25.5523 7 25 7H23V9C23 9.55229 22.5523 10 22 10C21.4477 10 21 9.55229 21 9V7H19C18.4477 7 18 6.55228 18 6C18 5.44771 18.4477 5 19 5H21V3Z" fill="#99A2AD"/>
<path fill-rule="evenodd" clip-rule="evenodd" d="M15 4C15 3.44772 14.5523 3 14 3H11.6917C9.10224 3 7.87375 3.23723 6.59786 3.91958C5.44582 4.53571 4.53571 5.44582 3.91958 6.59786C3.23723 7.87375 3 9.10224 3 11.6917V16.3083C3 18.8978 3.23723 20.1262 3.91958 21.4021C4.53571 22.5542 5.44582 23.4643 6.59786 24.0804C7.87375 24.7628 9.10224 25 11.6917 25H16.3083C18.8978 25 20.1262 24.7628 21.4021 24.0804C22.5542 23.4643 23.4643 22.5542 24.0804 21.4021C24.7628 20.1262 25 18.8978 25 16.3083V14C25 13.4477 24.5523 13 24 13C23.4477 13 23 13.4477 23 14V16.3083C23 16.6356 22.9964 16.9349 22.9887 17.2102L18.5236 13.2517C18.0972 12.8738 17.4417 12.9278 17.0831 13.3706L12.8612 18.5826L10.6402 16.7318C10.2429 16.4007 9.65861 16.4272 9.29289 16.7929L5.66305 20.4209C5.17229 19.4876 5 18.5652 5 16.3083V11.6917C5 9.40417 5.177 8.4876 5.68321 7.54106C6.11293 6.73755 6.73755 6.11293 7.54106 5.68321C8.4876 5.177 9.40417 5 11.6917 5H14C14.5523 5 15 4.55228 15 4ZM13.7771 20.6294L17.9791 15.4419L22.6781 19.6082C22.5829 19.9121 22.4637 20.1842 22.3168 20.4589C21.8871 21.2624 21.2624 21.8871 20.4589 22.3168C19.5124 22.823 18.5958 23 16.3083 23H11.6917C9.40417 23 8.4876 22.823 7.54106 22.3168C7.33681 22.2076 7.14411 22.0857 6.96323 21.9516L10.0614 18.8528L12.3598 20.7682C12.7883 21.1253 13.426 21.0628 13.7771 20.6294Z" fill="#99A2AD"/>
<path d="M12 10.5C12 9.67157 11.3284 9 10.5 9C9.67157 9 9 9.67157 9 10.5C9 11.3284 9.67157 12 10.5 12C11.3284 12 12 11.3284 12 10.5Z" fill="#99A2AD"/>
</svg>
