<svg width="12" height="12" viewBox="0 0 12 12" fill="none" xmlns="http://www.w3.org/2000/svg">
  <path fill-rule="evenodd" clip-rule="evenodd" d="M5.50594 0.166391C5.61219 0.0857701 5.73654 0.0323467 5.86816 0.0107736C5.99978 -0.0107996 6.13468 0.000131761 6.26111 0.0426156C6.38754 0.0850994 6.50167 0.157847 6.59355 0.254525C6.68544 0.351202 6.75229 0.468876 6.7883 0.597301L6.79103 0.60821L7.65339 3.95457C7.67767 4.04897 7.72681 4.13514 7.79568 4.20411C7.86456 4.27309 7.95066 4.32234 8.04503 4.34676L11.3919 5.20857L11.4007 5.2113C11.5733 5.25892 11.7255 5.36186 11.834 5.50434C11.9425 5.64681 12.0013 5.82095 12.0013 6.00003C12.0013 6.17911 11.9425 6.35325 11.834 6.49572C11.7255 6.63819 11.5733 6.74114 11.4007 6.78875L11.3919 6.79094L8.04557 7.6533C7.95111 7.67763 7.86489 7.72685 7.79591 7.79582C7.72694 7.8648 7.67772 7.95102 7.65339 8.04548L6.79048 11.3918L6.78775 11.4028C6.73963 11.5747 6.63658 11.7262 6.49432 11.8341C6.35206 11.942 6.1784 12.0004 5.99985 12.0004C5.82129 12.0004 5.64763 11.942 5.50537 11.8341C5.36311 11.7262 5.26006 11.5747 5.21194 11.4028L5.20921 11.3918L4.34685 8.04548C4.32246 7.95104 4.27323 7.86486 4.20426 7.79589C4.13529 7.72692 4.0491 7.67768 3.95466 7.6533L0.6083 6.79094L0.595754 6.78766C0.424477 6.73905 0.273732 6.63589 0.166392 6.49385C0.0590526 6.3518 0.000976563 6.17862 0.000976562 6.00057C0.000976563 5.82253 0.0590526 5.64935 0.166392 5.5073C0.273732 5.36525 0.424477 5.2621 0.595754 5.21348L0.6083 5.21021L3.95466 4.34621C4.04906 4.32193 4.13523 4.27279 4.2042 4.20392C4.27318 4.13504 4.32243 4.04894 4.34685 3.95457L5.20921 0.60821L5.21194 0.597301C5.26015 0.425508 5.36375 0.274187 5.50594 0.166391ZM6.00012 1.91076L6.59739 4.2273C6.67056 4.51031 6.81816 4.76858 7.02486 4.97528C7.23156 5.18198 7.48983 5.32958 7.77285 5.40275L10.0899 6.00003L7.77285 6.5973C7.48981 6.67042 7.23151 6.818 7.0248 7.02471C6.81809 7.23142 6.67051 7.48972 6.59739 7.77276L6.00012 10.0893L5.40284 7.77276C5.32986 7.48959 5.18234 7.23115 4.97562 7.02433C4.76889 6.81751 4.51052 6.66987 4.22739 6.59676L1.91139 6.00003L4.22739 5.40221C4.51039 5.32919 4.76867 5.18171 4.97538 4.97509C5.18209 4.76847 5.32969 4.51027 5.40284 4.2273L6.00012 1.91076ZM10.3638 0.545482C10.5084 0.545482 10.6472 0.60295 10.7494 0.705242C10.8517 0.807535 10.9092 0.946273 10.9092 1.09094V1.63639H11.4547C11.5993 1.63639 11.7381 1.69386 11.8404 1.79615C11.9427 1.89844 12.0001 2.03718 12.0001 2.18185C12.0001 2.32651 11.9427 2.46525 11.8404 2.56754C11.7381 2.66983 11.5993 2.7273 11.4547 2.7273H10.9092V3.27276C10.9092 3.41742 10.8517 3.55616 10.7494 3.65845C10.6472 3.76074 10.5084 3.81821 10.3638 3.81821C10.2191 3.81821 10.0804 3.76074 9.97806 3.65845C9.87577 3.55616 9.8183 3.41742 9.8183 3.27276V2.7273H9.27285C9.12818 2.7273 8.98944 2.66983 8.88715 2.56754C8.78486 2.46525 8.72739 2.32651 8.72739 2.18185C8.72739 2.03718 8.78486 1.89844 8.88715 1.79615C8.98944 1.69386 9.12818 1.63639 9.27285 1.63639H9.8183V1.09094C9.8183 0.946273 9.87577 0.807535 9.97806 0.705242C10.0804 0.60295 10.2191 0.545482 10.3638 0.545482ZM1.63648 8.18185C1.78115 8.18185 1.91988 8.23931 2.02218 8.34161C2.12447 8.4439 2.18194 8.58264 2.18194 8.7273C2.3266 8.7273 2.46534 8.78477 2.56763 8.88706C2.66992 8.98935 2.72739 9.12809 2.72739 9.27276C2.72739 9.41742 2.66992 9.55616 2.56763 9.65845C2.46534 9.76074 2.3266 9.81821 2.18194 9.81821C2.18194 9.96287 2.12447 10.1016 2.02218 10.2039C1.91988 10.3062 1.78115 10.3637 1.63648 10.3637C1.49182 10.3637 1.35308 10.3062 1.25079 10.2039C1.14849 10.1016 1.09103 9.96287 1.09103 9.81821C0.946364 9.81821 0.807625 9.76074 0.705332 9.65845C0.60304 9.55616 0.545573 9.41742 0.545573 9.27276C0.545573 9.12809 0.60304 8.98935 0.705332 8.88706C0.807625 8.78477 0.946364 8.7273 1.09103 8.7273C1.09103 8.58264 1.14849 8.4439 1.25079 8.34161C1.35308 8.23931 1.49182 8.18185 1.63648 8.18185Z" fill="#007AFF"/>
</svg>
