<svg width="29" height="28" viewBox="0 0 29 28" fill="none" xmlns="http://www.w3.org/2000/svg">
<path d="M19.6768 11.5796L12.3567 4.25958C12.0106 3.91347 11.4495 3.91347 11.1034 4.25958C10.7572 4.60568 10.7572 5.16682 11.1034 5.51292L12.5923 7.00183L8.01443 11.5796C7.48998 12.1041 7.48998 12.9486 8.01443 13.4641L12.9034 18.353C13.1611 18.6108 13.5078 18.7442 13.8456 18.7442C14.1834 18.7442 14.5301 18.6108 14.7878 18.353L19.6768 13.4641C20.2012 12.9486 20.2012 12.1041 19.6768 11.5796ZM9.58778 12.5219L13.8456 8.26406L18.1034 12.5219H9.58778ZM21.8457 13.8552C21.8457 13.8552 20.0679 15.7841 20.0679 16.9664C20.0679 17.9442 20.8679 18.7442 21.8457 18.7442C22.8235 18.7442 23.6235 17.9442 23.6235 16.9664C23.6235 15.7841 21.8457 13.8552 21.8457 13.8552Z" fill="#99A2AD"/>
<rect x="5.625" y="21.1895" width="16" height="2.5" rx="1.25" fill="#99A2AD"/>
</svg>
