<svg width="80" height="80" viewBox="0 0 80 80" fill="none" xmlns="http://www.w3.org/2000/svg">
<path d="M24.1735 8.5H47.9664L68.4733 29.0068V59.2002C68.4732 65.9932 62.9665 71.5 56.1735 71.5H24.1735C17.3805 71.4999 11.8738 65.9931 11.8737 59.2002V20.7998C11.8738 14.113 17.2098 8.67235 23.8561 8.50391L24.1735 8.5Z" fill="#FDFAF5" stroke="#E56E00"/>
<path d="M68.9737 29.6L47.3737 8V19.1724C47.3737 24.9314 51.8866 29.6 57.4537 29.6H68.9737Z" fill="#E56E00"/>
<path fill-rule="evenodd" clip-rule="evenodd" d="M33.5996 41.6001V59.2001H36.9444V52.8482H40.9462C43.7501 52.8482 46.0231 50.3302 46.0231 47.2242C46.0231 44.1181 43.7501 41.6001 40.9462 41.6001H33.5996ZM36.9444 50.2016V44.2467H40.2295C41.7139 44.2467 42.9173 45.5798 42.9173 47.2242C42.9173 48.8686 41.7139 50.2016 40.2295 50.2016H36.9444Z" fill="#E66E00"/>
</svg>
