<svg width="20" height="20" viewBox="0 0 20 20" fill="none" xmlns="http://www.w3.org/2000/svg">
<path fill-rule="evenodd" clip-rule="evenodd" d="M13.7142 11.4448L12.8902 12.104C12.824 12.1569 12.7782 12.2311 12.7604 12.314L11.8212 16.6956C11.5148 18.1247 9.99864 18.9368 8.63927 18.3998C7.7362 18.0431 7.14284 17.1708 7.14284 16.1998L7.14284 13.5729L6.7857 13.5729C5.22654 13.5729 3.86686 13.1326 2.89492 12.1877C1.91956 11.2394 1.42855 9.87423 1.42855 8.21572L1.42855 7.50144C1.42855 5.84293 1.91956 4.47775 2.89493 3.52949C3.86687 2.58455 5.22655 2.14432 6.7857 2.14432L13.7014 2.14432C13.9129 1.89657 14.1828 1.70066 14.491 1.57682C14.7088 1.48931 14.9273 1.45776 15.1421 1.44351C15.3453 1.43001 15.5901 1.43002 15.8709 1.43002L15.9147 1.43002C16.1955 1.43002 16.4404 1.43001 16.6436 1.44351C16.8583 1.45776 17.0769 1.48931 17.2947 1.57682C17.8096 1.78372 18.2177 2.19183 18.4246 2.70671C18.5121 2.92451 18.5437 3.1431 18.5579 3.35781C18.5714 3.56107 18.5714 3.8059 18.5714 4.08668L18.5714 9.4876C18.5714 9.76838 18.5714 10.0133 18.5579 10.2165C18.5437 10.4312 18.5121 10.6498 18.4246 10.8676C18.2177 11.3825 17.8096 11.7906 17.2947 11.9975C17.0769 12.085 16.8583 12.1166 16.6436 12.1308C16.4403 12.1443 16.1955 12.1443 15.9147 12.1443L15.871 12.1443C15.5902 12.1443 15.3453 12.1443 15.1421 12.1308C14.9273 12.1166 14.7087 12.085 14.491 11.9975C14.1889 11.8762 13.9237 11.6856 13.7142 11.4448ZM10.4243 16.3962C10.303 16.9622 9.70249 17.2838 9.16409 17.0711C8.80642 16.9299 8.57141 16.5844 8.57141 16.1998L8.57141 12.8586C8.57141 12.4641 8.25161 12.1443 7.85712 12.1443L6.7857 12.1443C5.4877 12.1443 4.52596 11.781 3.89075 11.1634C3.25897 10.5492 2.85712 9.59293 2.85712 8.21572L2.85712 7.50144C2.85712 6.12423 3.25897 5.16799 3.89075 4.55377C4.52595 3.93621 5.4877 3.57289 6.7857 3.57289L13.2183 3.57289C13.2143 3.72694 13.2143 3.89878 13.2143 4.08673L13.2143 9.4876C13.2143 9.67979 13.2143 9.85514 13.2186 10.0118L11.9978 10.9884C11.6744 11.2471 11.4504 11.6096 11.3636 12.0146L10.4243 16.3962ZM16.7621 10.672C16.7427 10.6797 16.693 10.6958 16.549 10.7054C16.3987 10.7154 16.2018 10.7157 15.8928 10.7157C15.5839 10.7157 15.3869 10.7154 15.2367 10.7054C15.0927 10.6958 15.0429 10.6797 15.0236 10.672C14.87 10.6103 14.7483 10.4885 14.6866 10.335C14.6788 10.3156 14.6627 10.2659 14.6532 10.1219C14.6432 9.97165 14.6428 9.77472 14.6428 9.46574L14.6428 4.1086C14.6428 3.79962 14.6432 3.60269 14.6532 3.45246C14.6627 3.30842 14.6788 3.2587 14.6866 3.23936C14.7483 3.0858 14.87 2.96408 15.0236 2.90238C15.0429 2.89461 15.0927 2.8785 15.2367 2.86894C15.3869 2.85896 15.5839 2.8586 15.8928 2.8586C16.2018 2.8586 16.3987 2.85896 16.549 2.86894C16.693 2.8785 16.7427 2.89461 16.7621 2.90238C16.9156 2.96408 17.0374 3.0858 17.0991 3.23936C17.1068 3.2587 17.1229 3.30842 17.1325 3.45246C17.1425 3.60269 17.1428 3.79962 17.1428 4.1086L17.1428 9.46574C17.1428 9.77472 17.1425 9.97165 17.1325 10.1219C17.1229 10.2659 17.1068 10.3156 17.0991 10.335C17.0374 10.4885 16.9156 10.6103 16.7621 10.672Z" fill="#007AFF"/>
</svg>
