<svg width="20" height="20" viewBox="0 0 20 20" fill="none" xmlns="http://www.w3.org/2000/svg">
<path d="M6.9226 2.85742H13.0774C14.9878 2.85742 15.6805 3.05633 16.3789 3.42985C17.0774 3.80336 17.6255 4.35148 17.999 5.0499C18.3725 5.74831 18.5714 6.44106 18.5714 8.35146V11.6491C18.5714 13.5595 18.3725 14.2522 17.999 14.9507C17.6255 15.6491 17.0774 16.1972 16.3789 16.5707C15.6805 16.9442 14.9878 17.1431 13.0774 17.1431H6.9226C5.0122 17.1431 4.31944 16.9442 3.62103 16.5707C2.92262 16.1972 2.3745 15.6491 2.00099 14.9507C1.62747 14.2522 1.42856 13.5595 1.42856 11.6491V8.35146C1.42856 6.44106 1.62747 5.74831 2.00099 5.0499C2.3745 4.35148 2.92262 3.80336 3.62103 3.42985C4.31944 3.05633 5.0122 2.85742 6.9226 2.85742ZM6.9226 4.28599C5.39651 4.28599 4.85322 4.39091 4.29474 4.68958C3.84529 4.92995 3.50109 5.27415 3.26072 5.72361C2.96204 6.28208 2.85713 6.82538 2.85713 8.35146V11.6491C2.85713 13.1752 2.96204 13.7185 3.26072 14.2769C3.50109 14.7264 3.84529 15.0706 4.29474 15.311C4.85322 15.6096 5.39651 15.7146 6.9226 15.7146H13.0774C14.6035 15.7146 15.1468 15.6096 15.7052 15.311C16.1547 15.0706 16.4989 14.7264 16.7393 14.2769C17.0379 13.7185 17.1428 13.1752 17.1428 11.6491V8.35146C17.1428 6.82538 17.0379 6.28208 16.7393 5.72361C16.4989 5.27415 16.1547 4.92995 15.7052 4.68958C15.1468 4.39091 14.6035 4.28599 13.0774 4.28599H6.9226ZM5.71427 8.21456C5.12254 8.21456 4.64284 7.73487 4.64284 7.14314C4.64284 6.5514 5.12254 6.07171 5.71427 6.07171C6.30601 6.07171 6.7857 6.5514 6.7857 7.14314C6.7857 7.73487 6.30601 8.21456 5.71427 8.21456ZM8.57141 8.21456C7.97968 8.21456 7.49999 7.73487 7.49999 7.14314C7.49999 6.5514 7.97968 6.07171 8.57141 6.07171C9.16315 6.07171 9.64284 6.5514 9.64284 7.14314C9.64284 7.73487 9.16315 8.21456 8.57141 8.21456ZM11.4286 8.21456C10.8368 8.21456 10.3571 7.73487 10.3571 7.14314C10.3571 6.5514 10.8368 6.07171 11.4286 6.07171C12.0203 6.07171 12.5 6.5514 12.5 7.14314C12.5 7.73487 12.0203 8.21456 11.4286 8.21456ZM14.2857 8.21456C13.694 8.21456 13.2143 7.73487 13.2143 7.14314C13.2143 6.5514 13.694 6.07171 14.2857 6.07171C14.8774 6.07171 15.3571 6.5514 15.3571 7.14314C15.3571 7.73487 14.8774 8.21456 14.2857 8.21456ZM14.2857 11.4289C13.694 11.4289 13.2143 10.9492 13.2143 10.3574C13.2143 9.76569 13.694 9.28599 14.2857 9.28599C14.8774 9.28599 15.3571 9.76569 15.3571 10.3574C15.3571 10.9492 14.8774 11.4289 14.2857 11.4289ZM11.4286 11.4289C10.8368 11.4289 10.3571 10.9492 10.3571 10.3574C10.3571 9.76569 10.8368 9.28599 11.4286 9.28599C12.0203 9.28599 12.5 9.76569 12.5 10.3574C12.5 10.9492 12.0203 11.4289 11.4286 11.4289ZM8.57141 11.4289C7.97968 11.4289 7.49999 10.9492 7.49999 10.3574C7.49999 9.76569 7.97968 9.28599 8.57141 9.28599C9.16315 9.28599 9.64284 9.76569 9.64284 10.3574C9.64284 10.9492 9.16315 11.4289 8.57141 11.4289ZM5.71427 11.4289C5.12254 11.4289 4.64284 10.9492 4.64284 10.3574C4.64284 9.76569 5.12254 9.28599 5.71427 9.28599C6.30601 9.28599 6.7857 9.76569 6.7857 10.3574C6.7857 10.9492 6.30601 11.4289 5.71427 11.4289ZM6.42856 12.8574H13.5714C13.9659 12.8574 14.2857 13.1772 14.2857 13.5717C14.2857 13.9662 13.9659 14.286 13.5714 14.286H6.42856C6.03407 14.286 5.71427 13.9662 5.71427 13.5717C5.71427 13.1772 6.03407 12.8574 6.42856 12.8574Z" fill="#007AFF"/>
</svg>
