<svg width="197" height="197" viewBox="0 0 197 197" fill="none" xmlns="http://www.w3.org/2000/svg">
<rect width="196.105" height="196.105" rx="64.7641" fill="white"/>
<rect width="196.105" height="196.105" rx="64.7641" fill="url(#paint0_linear_56880_7714)"/>
<g filter="url(#filter0_d_56880_7714)">
<path d="M31 89.4C31 77.3589 31 71.3383 33.2671 66.7392C35.2612 62.6937 38.4432 59.4046 42.357 57.3434C46.8064 55 52.6309 55 64.28 55H91.32C102.969 55 108.794 55 113.243 57.3434C117.157 59.4046 120.339 62.6937 122.333 66.7392C124.6 71.3383 124.6 77.3589 124.6 89.4V106.6C124.6 118.641 124.6 124.662 122.333 129.261C120.339 133.306 117.157 136.595 113.243 138.657C108.794 141 102.969 141 91.32 141H64.28C52.6309 141 46.8064 141 42.357 138.657C38.4432 136.595 35.2612 133.306 33.2671 129.261C31 124.662 31 118.641 31 106.6V89.4Z" fill="white"/>
<path d="M135 84.4626C135 83.5219 135 83.0516 135.136 82.634C135.257 82.2647 135.453 81.9268 135.713 81.6439C136.006 81.324 136.408 81.1037 137.212 80.6632L148.784 74.3237C152.815 72.1154 154.83 71.0113 156.475 71.2337C157.91 71.4278 159.202 72.2314 160.04 73.4514C161 74.8491 161 77.2069 161 81.9225V114.078C161 118.793 161 121.151 160.04 122.549C159.202 123.769 157.91 124.572 156.475 124.766C154.83 124.989 152.815 123.885 148.784 121.676L137.212 115.337C136.408 114.896 136.006 114.676 135.713 114.356C135.453 114.073 135.257 113.735 135.136 113.366C135 112.948 135 112.478 135 111.537V84.4626Z" fill="white"/>
</g>
<defs>
<filter id="filter0_d_56880_7714" x="21" y="47" width="150" height="106" filterUnits="userSpaceOnUse" color-interpolation-filters="sRGB">
<feFlood flood-opacity="0" result="BackgroundImageFix"/>
<feColorMatrix in="SourceAlpha" type="matrix" values="0 0 0 0 0 0 0 0 0 0 0 0 0 0 0 0 0 0 127 0" result="hardAlpha"/>
<feOffset dy="2"/>
<feGaussianBlur stdDeviation="5"/>
<feComposite in2="hardAlpha" operator="out"/>
<feColorMatrix type="matrix" values="0 0 0 0 0 0 0 0 0 0 0 0 0 0 0 0 0 0 0.1 0"/>
<feBlend mode="normal" in2="BackgroundImageFix" result="effect1_dropShadow_56880_7714"/>
<feBlend mode="normal" in="SourceGraphic" in2="effect1_dropShadow_56880_7714" result="shape"/>
</filter>
<linearGradient id="paint0_linear_56880_7714" x1="23" y1="177.5" x2="224" y2="-29.5" gradientUnits="userSpaceOnUse">
<stop offset="0.23798" stop-color="#50C750"/>
<stop offset="1" stop-color="#EBFF00"/>
</linearGradient>
</defs>
</svg>
