<svg width="24" height="24" viewBox="0 0 24 24" fill="none" xmlns="http://www.w3.org/2000/svg">
<path d="M12 16.4611L17.1721 19.6202L15.7658 13.7251L20.3686 9.78233L14.3274 9.29802L12 3.70217L9.67252 9.29802L3.63134 9.78233L8.23408 13.7251L6.82787 19.6202L12 16.4611ZM7.68698 21.2047C6.85679 21.7118 5.77271 21.4499 5.26563 20.6197C5.02304 20.2225 4.94749 19.7455 5.05547 19.2928L6.22811 14.3769L2.3899 11.089C1.6511 10.4562 1.56522 9.3442 2.19808 8.60539C2.50084 8.25195 2.93116 8.03269 3.39505 7.9955L8.43276 7.59163L10.3736 2.92529C10.7472 2.02707 11.7782 1.60178 12.6764 1.97537C13.1061 2.15409 13.4476 2.4956 13.6263 2.92529L15.5672 7.59163L20.6049 7.9955C21.5746 8.07324 22.2976 8.92236 22.2199 9.89206C22.1827 10.3559 21.9635 10.7863 21.61 11.089L17.7718 14.3769L18.9445 19.2928C19.1702 20.2391 18.5861 21.1891 17.6398 21.4149C17.1871 21.5228 16.7101 21.4473 16.3129 21.2047L12 18.5704L7.68698 21.2047Z" fill="#959DAD"/>
</svg>
