<svg width="24" height="24" viewBox="0 0 24 24" fill="none" xmlns="http://www.w3.org/2000/svg">
<path fill-rule="evenodd" clip-rule="evenodd" d="M10.0039 19.0998C10.0039 19.5968 9.60099 19.9998 9.10393 19.9998L4.90391 19.9998C4.40685 19.9998 4.00391 19.5968 4.00391 19.0998L4.00391 14.8998C4.00391 14.4027 4.40685 13.9998 4.90391 13.9998C5.40096 13.9998 5.80391 14.4027 5.80391 14.8998L5.80391 16.927L9.46751 13.2634C9.81898 12.9119 10.3888 12.9119 10.7403 13.2634C11.0918 13.6148 11.0918 14.1847 10.7403 14.5361L7.0767 18.1998L9.10393 18.1998C9.60099 18.1998 10.0039 18.6027 10.0039 19.0998Z" fill="black"/>
<path fill-rule="evenodd" clip-rule="evenodd" d="M13.2675 10.7362C12.916 10.3847 12.916 9.81483 13.2675 9.46336L16.9311 5.79976L14.9057 5.79976C14.4087 5.79976 14.0057 5.39681 14.0057 4.89976C14.0057 4.4027 14.4087 3.99976 14.9057 3.99976L19.1039 3.99976C19.601 3.99976 20.0039 4.4027 20.0039 4.89976L20.0039 9.09975C20.0039 9.59681 19.601 9.99975 19.1039 9.99975C18.6068 9.99975 18.2039 9.59681 18.2039 9.09975L18.2039 7.07255L14.5403 10.7362C14.1888 11.0876 13.619 11.0876 13.2675 10.7362Z" fill="black"/>
</svg>
