<svg width="20" height="20" viewBox="0 0 20 20" fill="none" xmlns="http://www.w3.org/2000/svg">
    <path fill-rule="evenodd" clip-rule="evenodd"
        d="M7.53764 2.89654C7.36955 2.85619 7.19874 2.85664 7.06309 2.857L7.02663 2.85707L5.54195 2.85707C4.96697 2.85706 4.49242 2.85705 4.10586 2.88864C3.70436 2.92144 3.33529 2.99184 2.98862 3.16848C2.45101 3.4424 2.01392 3.87949 1.74 4.4171C1.56336 4.76377 1.49296 5.13284 1.46016 5.53434C1.42857 5.9209 1.42858 6.39544 1.42859 6.97042V13.0294C1.42858 13.6044 1.42857 14.079 1.46016 14.4655C1.49296 14.867 1.56336 15.2361 1.74 15.5828C2.01392 16.1204 2.45101 16.5575 2.98862 16.8314C3.33528 17.008 3.70436 17.0784 4.10586 17.1112C4.49242 17.1428 4.96696 17.1428 5.54193 17.1428H14.4581C15.0331 17.1428 15.5076 17.1428 15.8942 17.1112C16.2957 17.0784 16.6648 17.008 17.0114 16.8314C17.549 16.5575 17.9861 16.1204 18.26 15.5828C18.4367 15.2361 18.5071 14.867 18.5399 14.4655C18.5715 14.079 18.5715 13.6044 18.5714 13.0294V8.75612C18.5715 8.18115 18.5715 7.70662 18.5399 7.32005C18.5071 6.91855 18.4367 6.54948 18.26 6.20281C17.9861 5.66521 17.549 5.22812 17.0114 4.95419C16.6648 4.77756 16.2957 4.70715 15.8942 4.67435C15.5076 4.64277 15.0331 4.64277 14.4581 4.64278L9.75912 4.64278C9.66555 4.64278 9.61885 4.64261 9.58492 4.64106L9.58236 4.64094L9.58047 4.63922C9.55538 4.61633 9.52224 4.58342 9.45607 4.51726L8.33983 3.40101L8.3141 3.37519C8.21843 3.27901 8.09797 3.15791 7.95058 3.06758C7.82276 2.98926 7.68341 2.93154 7.53764 2.89654ZM7.02663 4.28564C7.1202 4.28564 7.1669 4.28581 7.20083 4.28736L7.20339 4.28749L7.20528 4.28921C7.23037 4.3121 7.26351 4.345 7.32968 4.41117L8.44592 5.52741L8.47165 5.55324C8.56732 5.64941 8.68778 5.77052 8.83517 5.86084C8.96299 5.93917 9.10234 5.99689 9.24811 6.03188C9.4162 6.07224 9.58701 6.07178 9.72266 6.07142L9.75912 6.07136H14.4286C15.0404 6.07136 15.4564 6.07191 15.7778 6.09818C16.091 6.12376 16.2511 6.17014 16.3629 6.22706C16.6317 6.36402 16.8502 6.58257 16.9872 6.85137C17.0441 6.96308 17.0905 7.12323 17.1161 7.43638C17.1262 7.56057 17.1325 7.69885 17.1364 7.85706H2.85716V6.99993C2.85716 6.38808 2.85772 5.97216 2.88398 5.65067C2.90957 5.33751 2.95594 5.17737 3.01287 5.06566C3.14983 4.79685 3.36837 4.57831 3.63717 4.44135C3.74889 4.38443 3.90903 4.33805 4.22219 4.31246C4.54368 4.2862 4.9596 4.28564 5.57145 4.28564H7.02663ZM2.85716 9.28564V12.9999C2.85716 13.6118 2.85772 14.0277 2.88398 14.3492C2.90957 14.6623 2.95594 14.8225 3.01287 14.9342C3.14983 15.203 3.36837 15.4215 3.63717 15.5585C3.74889 15.6154 3.90903 15.6618 4.22219 15.6874C4.54368 15.7137 4.9596 15.7142 5.57145 15.7142H14.4286C15.0404 15.7142 15.4564 15.7137 15.7778 15.6874C16.091 15.6618 16.2511 15.6154 16.3629 15.5585C16.6317 15.4215 16.8502 15.203 16.9872 14.9342C17.0441 14.8225 17.0905 14.6623 17.1161 14.3492C17.1423 14.0277 17.1429 13.6118 17.1429 12.9999V9.28564H2.85716Z"
        fill="#99A2AD" />
</svg>