<svg width="20" height="20" viewBox="0 0 20 20" fill="none" xmlns="http://www.w3.org/2000/svg">
<path fill-rule="evenodd" clip-rule="evenodd" d="M7.81751 6.78765C7.42363 6.80953 7.12207 7.14658 7.14395 7.54046L7.50109 13.969C7.52297 14.3629 7.86002 14.6645 8.2539 14.6426C8.64778 14.6207 8.94935 14.2837 8.92746 13.8898L8.57032 7.46122C8.54844 7.06733 8.21139 6.76577 7.81751 6.78765Z" fill="#007AFF"/>
<path fill-rule="evenodd" clip-rule="evenodd" d="M12.1825 6.78765C12.5764 6.80953 12.8779 7.14658 12.856 7.54046L12.4989 13.969C12.477 14.3629 12.14 14.6645 11.7461 14.6426C11.3522 14.6207 11.0506 14.2837 11.0725 13.8898L11.4297 7.46122C11.4515 7.06733 11.7886 6.76577 12.1825 6.78765Z" fill="#007AFF"/>
<path fill-rule="evenodd" clip-rule="evenodd" d="M2.49999 3.57227C2.1055 3.57227 1.78571 3.89206 1.78571 4.28655C1.78571 4.68104 2.1055 5.00084 2.49999 5.00084H3.28291L4.20971 14.1598C4.26245 14.6811 4.30614 15.113 4.36965 15.4644C4.43586 15.8307 4.53213 16.1644 4.71865 16.4743C5.00953 16.9575 5.43694 17.3439 5.94703 17.5846C6.2741 17.739 6.61585 17.8012 6.98695 17.8302C7.34297 17.858 7.77709 17.858 8.30098 17.858H11.699C12.2229 17.858 12.657 17.858 13.013 17.8302C13.3841 17.8012 13.7259 17.739 14.053 17.5846C14.563 17.3439 14.9905 16.9575 15.2813 16.4743C15.4678 16.1644 15.5641 15.8307 15.6303 15.4644C15.6938 15.113 15.7375 14.6811 15.7903 14.1599L16.7171 5.00084H17.5C17.8945 5.00084 18.2143 4.68104 18.2143 4.28655C18.2143 3.89206 17.8945 3.57227 17.5 3.57227H13.1346C12.8098 2.14085 11.5297 1.07227 9.99999 1.07227C8.47029 1.07227 7.19016 2.14085 6.86535 3.57227H2.49999ZM5.62823 13.9884C5.68447 14.5442 5.72304 14.9203 5.77545 15.2103C5.82629 15.4916 5.88142 15.6359 5.9426 15.7376C6.08804 15.9792 6.30175 16.1724 6.55679 16.2927C6.66407 16.3434 6.81323 16.3837 7.09821 16.406C7.392 16.4289 7.77008 16.4294 8.32872 16.4294H11.6713C12.2299 16.4294 12.608 16.4289 12.9018 16.406C13.1867 16.3837 13.3359 16.3434 13.4432 16.2927C13.6982 16.1724 13.9119 15.9792 14.0574 15.7376C14.1186 15.6359 14.1737 15.4916 14.2245 15.2103C14.2769 14.9203 14.3155 14.5442 14.3718 13.9884L15.2812 5.00084H4.71878L5.62823 13.9884ZM9.99999 2.50084C9.26773 2.50084 8.63842 2.94159 8.36286 3.57227H11.6371C11.3616 2.94159 10.7322 2.50084 9.99999 2.50084Z" fill="#007AFF"/>
</svg>
