<svg width="24" height="24" viewBox="0 0 24 24" fill="none" xmlns="http://www.w3.org/2000/svg">
<path fill-rule="evenodd" clip-rule="evenodd" d="M10.8 2.39844C10.5772 2.39856 10.3588 2.4607 10.1693 2.5779C9.97987 2.6951 9.82676 2.86274 9.72718 3.06204L8.85838 4.79844H4.79998C4.48172 4.79844 4.17649 4.92487 3.95145 5.14991C3.7264 5.37495 3.59998 5.68018 3.59998 5.99844C3.59998 6.3167 3.7264 6.62192 3.95145 6.84697C4.17649 7.07201 4.48172 7.19844 4.79998 7.19844V19.1984C4.79998 19.835 5.05283 20.4454 5.50292 20.8955C5.95301 21.3456 6.56346 21.5984 7.19998 21.5984H16.8C17.4365 21.5984 18.0469 21.3456 18.497 20.8955C18.9471 20.4454 19.2 19.835 19.2 19.1984V7.19844C19.5182 7.19844 19.8235 7.07201 20.0485 6.84697C20.2735 6.62192 20.4 6.3167 20.4 5.99844C20.4 5.68018 20.2735 5.37495 20.0485 5.14991C19.8235 4.92487 19.5182 4.79844 19.2 4.79844H15.1416L14.2728 3.06204C14.1732 2.86274 14.0201 2.6951 13.8306 2.5779C13.6411 2.4607 13.4228 2.39856 13.2 2.39844H10.8ZM8.39998 9.59844C8.39998 9.28018 8.5264 8.97495 8.75145 8.74991C8.97649 8.52487 9.28172 8.39844 9.59998 8.39844C9.91824 8.39844 10.2235 8.52487 10.4485 8.74991C10.6735 8.97495 10.8 9.28018 10.8 9.59844V16.7984C10.8 17.1167 10.6735 17.4219 10.4485 17.647C10.2235 17.872 9.91824 17.9984 9.59998 17.9984C9.28172 17.9984 8.97649 17.872 8.75145 17.647C8.5264 17.4219 8.39998 17.1167 8.39998 16.7984V9.59844ZM14.4 8.39844C14.0817 8.39844 13.7765 8.52487 13.5514 8.74991C13.3264 8.97495 13.2 9.28018 13.2 9.59844V16.7984C13.2 17.1167 13.3264 17.4219 13.5514 17.647C13.7765 17.872 14.0817 17.9984 14.4 17.9984C14.7182 17.9984 15.0235 17.872 15.2485 17.647C15.4735 17.4219 15.6 17.1167 15.6 16.7984V9.59844C15.6 9.28018 15.4735 8.97495 15.2485 8.74991C15.0235 8.52487 14.7182 8.39844 14.4 8.39844Z" fill="#99A2AD"/>
</svg>
