<svg width="98" height="98" viewBox="0 0 98 98" fill="none" xmlns="http://www.w3.org/2000/svg">
<circle cx="49" cy="49" r="49" fill="#E0EDFF"/>
<path d="M44.2855 82.4224C43.7239 82.4224 43.1854 82.1993 42.7883 81.8022C42.3912 81.4052 42.1682 80.8666 42.1682 80.3051V59.9474L22.5409 38.3617C21.7683 37.5103 21.2594 36.4529 21.076 35.3179C20.8927 34.1829 21.0426 33.0191 21.5078 31.9677C21.973 30.9163 22.7334 30.0225 23.6966 29.3948C24.6599 28.7671 25.7846 28.4325 26.9343 28.4316H72.223C73.3727 28.4325 74.4975 28.7671 75.4607 29.3948C76.424 30.0225 77.1843 30.9163 77.6495 31.9677C78.1147 33.0191 78.2647 34.1829 78.0813 35.3179C77.8979 36.4529 77.389 37.5103 76.6164 38.3617L56.9892 59.9474V71.836C56.989 72.1531 56.9175 72.4662 56.7801 72.752C56.6427 73.0379 56.4428 73.2892 56.1952 73.4874L45.6088 81.9566C45.2334 82.2577 44.7667 82.422 44.2855 82.4224ZM26.9343 32.6662C26.6048 32.667 26.2827 32.7633 26.0068 32.9434C25.7309 33.1236 25.5132 33.3798 25.3799 33.6811C25.2466 33.9824 25.2035 34.3159 25.2558 34.6412C25.3081 34.9664 25.4535 35.2696 25.6745 35.514L45.8522 57.7454C46.1979 58.1256 46.3936 58.6185 46.4027 59.1323V75.9011L52.7546 70.7773V59.1323C52.7533 58.6039 52.9497 58.0941 53.3051 57.7031L73.4828 35.4716C73.6907 35.2262 73.8248 34.9269 73.8698 34.6085C73.9148 34.29 73.8687 33.9653 73.737 33.6719C73.6052 33.3785 73.3931 33.1284 73.1252 32.9504C72.8573 32.7725 72.5445 32.6739 72.223 32.6662H26.9343Z" fill="#9EBFEB"/>
</svg>
