<svg width="25" height="24" viewBox="0 0 25 24" fill="none" xmlns="http://www.w3.org/2000/svg">
<g clip-path="url(#clip0_2654_161806)">
<path d="M9.1518 5.21134C9.54443 4.90654 9.61564 4.34116 9.31084 3.94853C9.00604 3.55589 8.44066 3.48469 8.04802 3.78949L2.35174 8.21146C-0.117573 10.1333 -0.116654 13.8671 2.3529 15.7886L8.04789 20.2112C8.44047 20.5161 9.00587 20.445 9.31074 20.0524C9.61561 19.6599 9.5445 19.0945 9.15193 18.7896L3.45693 14.367C1.91433 13.166 1.91479 10.8331 3.4573 9.63193L9.1518 5.21134Z" fill="#007AFF"/>
<path fill-rule="evenodd" clip-rule="evenodd" d="M14.5878 5.70359C14.5878 5.45303 14.3008 5.31423 14.1049 5.46664L6.01564 11.7626C5.86132 11.8827 5.86133 12.1165 6.01568 12.2366L14.1112 18.5357C14.307 18.688 14.594 18.5492 14.594 18.2987V14.536C14.594 14.0389 14.9969 13.636 15.494 13.636C18.4414 13.636 20.7043 14.7318 22.4925 16.2724C22.1732 14.5273 21.5032 13.1798 20.6078 12.1612C19.3293 10.7067 17.5112 9.83145 15.3464 9.48714C14.9094 9.41763 14.5878 9.04079 14.5878 8.59831V5.70359ZM12.9994 4.04617C14.3791 2.97234 16.3878 3.95695 16.3878 5.70359V7.85194C18.5596 8.32434 20.5091 9.32248 21.9597 10.9728C23.5816 12.8179 24.4999 15.3873 24.4999 18.7061C24.4999 19.086 24.2613 19.425 23.9037 19.5533C23.546 19.6815 23.1464 19.5713 22.905 19.278C21.2708 17.2921 19.2347 15.7481 16.394 15.478V18.2987C16.394 20.0452 14.3855 21.0299 13.0058 19.9563L4.9103 13.6572C3.82987 12.8165 3.82976 11.183 4.91008 10.3421L12.9994 4.04617Z" fill="#007AFF"/>
</g>
<defs>
<clipPath id="clip0_2654_161806">
<rect width="24" height="24" fill="white" transform="translate(0.5)"/>
</clipPath>
</defs>
</svg>
