<svg width="28" height="28" viewBox="0 0 28 28" fill="none" xmlns="http://www.w3.org/2000/svg">
<path d="M6.71631 8.68842H14.0081H21.2998C21.5205 8.68842 21.707 8.60828 21.8594 8.448C22.0117 8.28772 22.0879 8.09985 22.0879 7.88437C22.0879 7.66367 22.0117 7.47446 21.8594 7.3168C21.707 7.15915 21.5205 7.08032 21.2998 7.08032L6.71631 7.08032C6.50098 7.08032 6.31592 7.15784 6.16064 7.31287C6.00586 7.4679 5.92822 7.65839 5.92822 7.88437C5.92822 8.00433 5.95117 8.11496 5.99658 8.21628C6.03516 8.30139 6.08984 8.37994 6.16064 8.45193C6.31592 8.60959 6.50098 8.68842 6.71631 8.68842Z" fill="#99A2AD"/>
<path d="M6.70947 12.8192L21.2998 12.8197C21.481 12.8197 21.6396 12.7656 21.7744 12.6573C21.8037 12.6339 21.832 12.6078 21.8594 12.5793C22.0117 12.419 22.0879 12.2311 22.0879 12.0157C22.0879 11.7949 22.0117 11.6044 21.8594 11.4442C21.707 11.2838 21.5205 11.2037 21.2998 11.2037L6.70947 11.2032C6.48877 11.2032 6.30127 11.282 6.146 11.4397C5.99121 11.5974 5.91357 11.7892 5.91357 12.0151C5.91357 12.2358 5.99121 12.425 6.146 12.5827C6.30127 12.7404 6.48877 12.8192 6.70947 12.8192Z" fill="#99A2AD"/>
<path d="M6.71631 16.7885H21.2998C21.5205 16.7885 21.707 16.7083 21.8594 16.548C22.0117 16.3877 22.0879 16.1999 22.0879 15.9844C22.0879 15.7637 22.0117 15.5745 21.8594 15.4168C21.707 15.2592 21.5205 15.1803 21.2998 15.1803H6.71631C6.50098 15.1803 6.31592 15.2578 6.16064 15.4129C6.00586 15.5679 5.92822 15.7584 5.92822 15.9844C5.92822 16.2051 6.00586 16.3943 6.16064 16.5519C6.31592 16.7096 6.50098 16.7885 6.71631 16.7885Z" fill="#99A2AD"/>
<path d="M6.70947 20.9192L21.2998 20.9197C21.5205 20.9197 21.707 20.8396 21.8594 20.6793C21.9585 20.5752 22.0249 20.4594 22.0596 20.3321C22.0786 20.2633 22.0879 20.1912 22.0879 20.1157C22.0879 19.8949 22.0117 19.7044 21.8594 19.5442C21.707 19.3839 21.5205 19.3037 21.2998 19.3037L6.70947 19.3032C6.48877 19.3032 6.30127 19.382 6.146 19.5397C5.99121 19.6974 5.91357 19.8892 5.91357 20.1151C5.91357 20.3358 5.99121 20.5251 6.146 20.6827C6.22803 20.7661 6.31934 20.8275 6.41943 20.8668C6.50879 20.9017 6.60547 20.9192 6.70947 20.9192Z" fill="#99A2AD"/>
</svg>
