<svg width="20" height="20" viewBox="0 0 20 20" fill="none" xmlns="http://www.w3.org/2000/svg">
<path d="M14.0077 6.61634L10.8827 3.49134L3.33268 11.0413L3.33268 14.1663H6.45768L14.0077 6.61634ZM4.99935 12.4997V11.733L10.8827 5.84968L11.6493 6.61634L5.76602 12.4997H4.99935Z" fill="#424244" fill-opacity="0.72"/>
<path d="M16.4243 4.19967C16.7493 3.87467 16.7493 3.34967 16.4243 3.02467L14.4743 1.07467C14.3077 0.908008 14.0993 0.833008 13.8827 0.833008C13.6743 0.833008 13.4577 0.916341 13.2993 1.07467L11.7743 2.59967L14.8993 5.72467L16.4243 4.19967Z" fill="#424244" fill-opacity="0.72"/>
<path d="M18.3327 15.833L1.66602 15.833L1.66602 19.1663L18.3327 19.1663V15.833Z" fill="#424244" fill-opacity="0.72"/>
</svg>
