<svg xmlns:dc="http://purl.org/dc/elements/1.1/" xmlns:cc="http://creativecommons.org/ns#" xmlns:rdf="http://www.w3.org/1999/02/22-rdf-syntax-ns#"
    xmlns="http://www.w3.org/2000/svg" id="svg82" style="fill-rule:evenodd;clip-rule:evenodd;stroke-linejoin:round;stroke-miterlimit:1.41421;"
    xml:space="preserve" version="1.1" viewBox="0 0 1067 1063" height="100%" width="100%"><metadata id="metadata88"><rdf:rdf><cc:work rdf:about=""><dc:format>image/svg+xml</dc:format><dc:type rdf:resource="http://purl.org/dc/dcmitype/StillImage"></dc:type></cc:work></rdf:rdf></metadata><defs id="defs86"></defs><rect style="fill:none;" height="1062.5" width="1062.5" y="0" x="3.832" id="Calendar"></rect><g transform="matrix(1.8968923,0,0,1.7008,-481.49385,-372.05)" id="g80"><path style="fill:#2196f3;fill-rule:nonzero" d="m 753.832,781.25 h -437.5 V 437.5 h 437.5 m -93.75,-218.75 v 62.5 h -250 v -62.5 h -62.5 v 62.5 h -31.25 c -34.562,0 -62.187,27.968 -62.187,62.5 l -0.312,437.5 c 0,34.5 27.937,62.5 62.499,62.5 h 437.5 c 34.468,0 62.5,-28 62.5,-62.5 v -437.5 c 0,-34.532 -28.032,-62.5 -62.5,-62.5 h -31.25 v -62.5 m -31.25,343.75 h -156.25 v 156.25 h 156.25 z" class="app-menu-icon-primary-color" id="calendar"></path><rect id="rect78" style="fill:#ffc107" height="161.438" width="161.438" y="561.32202" x="535.08197" class="app-menu-icon-accent-color"></rect></g></svg>