<svg width="28" height="28" viewBox="0 0 28 28" fill="none" xmlns="http://www.w3.org/2000/svg">
<path d="M12.5258 8.60023H22.8208C23.0363 8.60023 23.2215 8.5214 23.3765 8.36374C23.5316 8.20608 23.6091 8.01689 23.6091 7.79617C23.6091 7.57545 23.5316 7.38758 23.3765 7.23255C23.2215 7.07752 23.0363 7 22.8208 7H12.5258C12.305 7 12.1185 7.07883 11.9661 7.23649C11.8137 7.39414 11.7375 7.58071 11.7375 7.79617C11.7375 8.01164 11.8137 8.19951 11.9661 8.3598C12.1185 8.52008 12.305 8.60023 12.5258 8.60023ZM12.5258 12.7387H22.8208C23.0363 12.7387 23.2215 12.6586 23.3765 12.4983C23.5316 12.338 23.6091 12.1475 23.6091 11.9268C23.6091 11.7061 23.5316 11.5182 23.3765 11.3632C23.2215 11.2081 23.0363 11.1306 22.8208 11.1306H12.5258C12.305 11.1306 12.1185 11.2081 11.9661 11.3632C11.8137 11.5182 11.7375 11.7061 11.7375 11.9268C11.7375 12.1423 11.8137 12.3315 11.9661 12.4944C12.1185 12.6573 12.305 12.7387 12.5258 12.7387ZM12.5258 16.8694H22.8208C23.0363 16.8694 23.2215 16.7905 23.3765 16.6329C23.5316 16.4752 23.6091 16.286 23.6091 16.0653C23.6091 15.8393 23.5316 15.6488 23.3765 15.4938C23.2215 15.3388 23.0363 15.2613 22.8208 15.2613H12.5258C12.305 15.2613 12.1185 15.3401 11.9661 15.4977C11.8137 15.6554 11.7375 15.8446 11.7375 16.0653C11.7375 16.2808 11.8137 16.4687 11.9661 16.6289C12.1185 16.7892 12.305 16.8694 12.5258 16.8694ZM12.5258 21H18.501C18.7217 21 18.9096 20.9212 19.0646 20.7635C19.2196 20.6059 19.2972 20.4167 19.2972 20.1959C19.2972 19.97 19.2196 19.7782 19.0646 19.6205C18.9096 19.4628 18.7217 19.384 18.501 19.384H12.5258C12.305 19.384 12.1185 19.4642 11.9661 19.6244C11.8137 19.7847 11.7375 19.9752 11.7375 20.1959C11.7375 20.4114 11.8137 20.5993 11.9661 20.7596C12.1185 20.9199 12.305 21 12.5258 21ZM5.73072 16.6881L8.55279 14.8041C8.72095 14.6884 8.83132 14.5413 8.88387 14.3626C8.93642 14.1839 8.93379 14.0066 8.87599 13.8305C8.81818 13.6545 8.71044 13.5086 8.55279 13.393L5.73072 11.4775C5.50999 11.3251 5.29716 11.2502 5.0922 11.2528C4.88725 11.2554 4.71908 11.3251 4.5877 11.4617C4.45632 11.5983 4.39062 11.798 4.39062 12.0608V16.1126C4.39062 16.3649 4.45763 16.5567 4.59164 16.6881C4.72565 16.8194 4.89644 16.8864 5.10403 16.8891C5.31161 16.8917 5.5205 16.8247 5.73072 16.6881Z" fill="#99A2AD"/>
</svg>
