<svg width="197" height="197" viewBox="0 0 197 197" fill="none" xmlns="http://www.w3.org/2000/svg">
<rect width="196.105" height="196.105" rx="64.7641" fill="white"/>
<rect width="196.105" height="196.105" rx="64.7641" fill="url(#paint0_linear_56880_7711)"/>
<g filter="url(#filter0_d_56880_7711)">
<path fill-rule="evenodd" clip-rule="evenodd" d="M66.5801 38.9314C65.4451 38.3236 64.1021 38 62.3025 38H61.7331C59.9336 38 58.5906 38.3236 57.4556 38.9314C56.3207 39.5387 55.4298 40.4307 54.8232 41.567C54.2161 42.7033 53.8929 44.048 53.8929 45.8497L53.8985 48.487C51.2384 49.103 49.2485 49.9526 47.2512 51.0221C42.7115 53.4528 39.1486 57.0199 36.7208 61.565C34.2929 66.1102 33 70.6186 33 83.0511V123.105C33 135.538 34.2929 140.046 36.7208 144.591C39.1486 149.137 42.7115 152.704 47.2512 155.134C51.7909 157.565 56.2934 158.859 68.711 158.859H127.289C139.706 158.859 144.209 157.565 148.749 155.134C153.288 152.704 156.851 149.137 159.279 144.591C161.707 140.046 163 135.538 163 123.105V83.0511C163 70.6186 161.707 66.1102 159.279 61.565C156.851 57.0199 153.288 53.4528 148.749 51.0221C146.754 49.9539 144.766 49.1048 142.11 48.4892L142.107 45.8497C142.107 44.048 141.784 42.7033 141.177 41.567C140.57 40.4307 139.679 39.5387 138.544 38.9314C137.409 38.3236 136.066 38 134.267 38H133.697C131.898 38 130.555 38.3236 129.42 38.9314C128.285 39.5387 127.394 40.4307 126.787 41.567C126.18 42.7033 125.857 44.048 125.857 45.8497V47.2966L70.1428 47.2875V45.8497C70.1428 44.048 69.8195 42.7033 69.2125 41.567C68.6059 40.4307 67.715 39.5387 66.5801 38.9314ZM56.9875 82.16H139.012C141.703 82.16 142.679 82.4408 143.662 82.9671C144.646 83.4939 145.418 84.2667 145.944 85.2518C146.47 86.2365 146.75 87.2134 146.75 89.907V131.875L146.687 133.04C146.107 138.397 141.574 142.567 136.048 142.567L62.9135 142.406L61.4368 142.384C57.7763 142.279 56.2433 141.793 54.6994 140.964C52.9631 140.031 51.6006 138.664 50.6725 136.923C49.7439 135.182 49.2498 133.456 49.2498 128.696V89.907L49.2671 88.8526C49.335 86.934 49.6055 86.0957 50.0563 85.2518C50.582 84.2667 51.3539 83.4939 52.3379 82.9671C53.3214 82.4408 54.297 82.16 56.9875 82.16ZM126.215 93.7812H120.856C117.752 93.7812 116.626 94.1048 115.491 94.7126C114.356 95.3204 113.466 96.2119 112.859 97.3482C112.252 98.4845 111.929 99.6117 111.929 102.72V108.085C111.929 111.193 112.252 112.32 112.859 113.456C113.466 114.593 114.356 115.484 115.491 116.092C116.626 116.7 117.752 117.023 120.856 117.023H126.215C129.32 117.023 130.445 116.7 131.58 116.092C132.715 115.484 133.606 114.593 134.213 113.456C134.819 112.32 135.143 111.193 135.143 108.085V102.72C135.143 99.6117 134.819 98.4845 134.213 97.3482C133.606 96.2119 132.715 95.3204 131.58 94.7126C130.445 94.1048 129.32 93.7812 126.215 93.7812Z" fill="white"/>
</g>
<defs>
<filter id="filter0_d_56880_7711" x="23" y="30" width="150" height="140.859" filterUnits="userSpaceOnUse" color-interpolation-filters="sRGB">
<feFlood flood-opacity="0" result="BackgroundImageFix"/>
<feColorMatrix in="SourceAlpha" type="matrix" values="0 0 0 0 0 0 0 0 0 0 0 0 0 0 0 0 0 0 127 0" result="hardAlpha"/>
<feOffset dy="2"/>
<feGaussianBlur stdDeviation="5"/>
<feComposite in2="hardAlpha" operator="out"/>
<feColorMatrix type="matrix" values="0 0 0 0 0 0 0 0 0 0 0 0 0 0 0 0 0 0 0.1 0"/>
<feBlend mode="normal" in2="BackgroundImageFix" result="effect1_dropShadow_56880_7711"/>
<feBlend mode="normal" in="SourceGraphic" in2="effect1_dropShadow_56880_7711" result="shape"/>
</filter>
<linearGradient id="paint0_linear_56880_7711" x1="18.5" y1="196" x2="235" y2="-27.5" gradientUnits="userSpaceOnUse">
<stop offset="0.286667" stop-color="#FD813C"/>
<stop offset="1" stop-color="#FFF500"/>
</linearGradient>
</defs>
</svg>
