<svg width="20" height="20" viewBox="0 0 20 20" fill="none" xmlns="http://www.w3.org/2000/svg">
<path fill-rule="evenodd" clip-rule="evenodd" d="M11.49 3.17C11.11 1.61 8.88999 1.61 8.50999 3.17C8.45326 3.40442 8.34198 3.62212 8.18522 3.80541C8.02845 3.9887 7.83062 4.13238 7.60784 4.22477C7.38505 4.31716 7.1436 4.35564 6.90313 4.33709C6.66266 4.31854 6.42997 4.24347 6.22399 4.118C4.85199 3.282 3.28199 4.852 4.11799 6.224C4.65799 7.11 4.17899 8.266 3.17099 8.511C1.60999 8.89 1.60999 11.111 3.17099 11.489C3.40547 11.5458 3.62322 11.6572 3.80651 11.8141C3.98979 11.971 4.13343 12.1689 4.22573 12.3918C4.31803 12.6147 4.35639 12.8563 4.33766 13.0968C4.31894 13.3373 4.24368 13.5701 4.11799 13.776C3.28199 15.148 4.85199 16.718 6.22399 15.882C6.42993 15.7563 6.66265 15.6811 6.90318 15.6623C7.14371 15.6436 7.38527 15.682 7.60817 15.7743C7.83108 15.8666 8.02904 16.0102 8.18592 16.1935C8.34281 16.3768 8.45419 16.5945 8.51099 16.829C8.88999 18.39 11.111 18.39 11.489 16.829C11.546 16.5946 11.6575 16.377 11.8144 16.1939C11.9713 16.0107 12.1692 15.8672 12.3921 15.7749C12.6149 15.6826 12.8564 15.6442 13.0969 15.6628C13.3373 15.6815 13.57 15.7565 13.776 15.882C15.148 16.718 16.718 15.148 15.882 13.776C15.7565 13.57 15.6815 13.3373 15.6628 13.0969C15.6442 12.8564 15.6826 12.6149 15.7749 12.3921C15.8672 12.1692 16.0107 11.9713 16.1939 11.8144C16.377 11.6575 16.5946 11.546 16.829 11.489C18.39 11.11 18.39 8.889 16.829 8.511C16.5945 8.45419 16.3768 8.34281 16.1935 8.18593C16.0102 8.02904 15.8666 7.83109 15.7743 7.60818C15.682 7.38527 15.6436 7.14372 15.6623 6.90318C15.681 6.66265 15.7563 6.42994 15.882 6.224C16.718 4.852 15.148 3.282 13.776 4.118C13.5701 4.24368 13.3373 4.31895 13.0968 4.33767C12.8563 4.35639 12.6147 4.31804 12.3918 4.22574C12.1689 4.13344 11.971 3.9898 11.8141 3.80651C11.6572 3.62323 11.5458 3.40548 11.489 3.171L11.49 3.17ZM9.99999 13C10.7956 13 11.5587 12.6839 12.1213 12.1213C12.6839 11.5587 13 10.7956 13 10C13 9.20435 12.6839 8.44129 12.1213 7.87868C11.5587 7.31607 10.7956 7 9.99999 7C9.20434 7 8.44128 7.31607 7.87867 7.87868C7.31606 8.44129 6.99999 9.20435 6.99999 10C6.99999 10.7956 7.31606 11.5587 7.87867 12.1213C8.44128 12.6839 9.20434 13 9.99999 13V13Z" stroke="#007AFF" stroke-width="1.5"/>
</svg>
