<svg width="24" height="24" viewBox="0 0 24 24" fill="none" xmlns="http://www.w3.org/2000/svg">
<path d="M21.44 11.05L12.25 20.24C11.1242 21.3658 9.59718 21.9983 8.005 21.9983C6.41282 21.9983 4.88584 21.3658 3.76 20.24C2.63416 19.1141 2.00166 17.5872 2.00166 15.995C2.00166 14.4028 2.63416 12.8758 3.76 11.75L12.95 2.55998C13.7006 1.80942 14.7185 1.38776 15.78 1.38776C16.8415 1.38776 17.8594 1.80942 18.61 2.55998C19.3606 3.31054 19.7822 4.32852 19.7822 5.38998C19.7822 6.45144 19.3606 7.46942 18.61 8.21998L9.41 17.41C9.03472 17.7853 8.52573 17.9961 7.995 17.9961C7.46427 17.9961 6.95528 17.7853 6.58 17.41C6.20472 17.0347 5.99389 16.5257 5.99389 15.995C5.99389 15.4643 6.20472 14.9553 6.58 14.58L15.07 6.09998" stroke="#7E869B" stroke-width="2" stroke-linecap="round" stroke-linejoin="round"/>
</svg>
