<svg width="20" height="20" viewBox="0 0 20 20" fill="none" xmlns="http://www.w3.org/2000/svg">
<path d="M9.95459 10.2061C11.98 10.2061 13.6152 8.42969 13.6152 6.22998C13.6152 4.08008 11.98 2.34521 9.95459 2.34521C7.9375 2.34521 6.27734 4.09668 6.28564 6.24658C6.29395 8.42969 7.9209 10.2061 9.95459 10.2061ZM9.95459 8.62891C8.85059 8.62891 7.9209 7.61621 7.9209 6.23828C7.9126 4.91016 8.85059 3.92236 9.95459 3.92236C11.0669 3.92236 11.9883 4.90186 11.9883 6.22998C11.9883 7.60791 11.0669 8.62891 9.95459 8.62891ZM4.7998 17.9507H15.0928C16.562 17.9507 17.2842 17.4692 17.2842 16.4565C17.2842 14.1074 14.3706 11.1274 9.94629 11.1274C5.53027 11.1274 2.6167 14.1074 2.6167 16.4565C2.6167 17.4692 3.33057 17.9507 4.7998 17.9507ZM4.61719 16.3818C4.44287 16.3818 4.37646 16.3154 4.37646 16.1743C4.37646 14.9707 6.38525 12.7046 9.94629 12.7046C13.5073 12.7046 15.5244 14.9707 15.5244 16.1743C15.5244 16.3154 15.458 16.3818 15.2754 16.3818H4.61719Z" fill="#007AFF"/>
</svg>
