<svg width="25" height="24" viewBox="0 0 25 24" fill="none" xmlns="http://www.w3.org/2000/svg">
<path d="M12.5001 1.71423C18.1807 1.71423 22.7858 6.3193 22.7858 11.9999C22.7858 17.6806 18.1807 22.2857 12.5001 22.2857C6.81943 22.2857 2.21436 17.6806 2.21436 11.9999C2.21436 6.3193 6.81943 1.71423 12.5001 1.71423ZM12.5001 3.42852C7.7662 3.42852 3.92864 7.26608 3.92864 11.9999C3.92864 16.7338 7.7662 20.5714 12.5001 20.5714C17.2339 20.5714 21.0715 16.7338 21.0715 11.9999C21.0715 7.26608 17.2339 3.42852 12.5001 3.42852ZM12.5632 10.2857C12.7668 10.2857 12.8947 10.3175 13.0064 10.3773C13.1182 10.437 13.2059 10.5247 13.2656 10.6365C13.3254 10.7482 13.3572 10.876 13.3572 11.0797V16.3488C13.3572 16.5524 13.3254 16.6803 13.2656 16.792C13.2059 16.9038 13.1182 16.9915 13.0064 17.0512C12.8947 17.111 12.7668 17.1428 12.5632 17.1428H12.437C12.2333 17.1428 12.1055 17.111 11.9937 17.0512C11.882 16.9915 11.7943 16.9038 11.7345 16.792C11.6748 16.6803 11.6429 16.5524 11.6429 16.3488V11.0797C11.6429 10.876 11.6748 10.7482 11.7345 10.6365C11.7943 10.5247 11.882 10.437 11.9937 10.3773C12.1055 10.3175 12.2333 10.2857 12.437 10.2857H12.5632ZM12.5001 6.51423C13.1628 6.51423 13.7001 7.05149 13.7001 7.71423C13.7001 8.37698 13.1628 8.91423 12.5001 8.91423C11.8373 8.91423 11.3001 8.37698 11.3001 7.71423C11.3001 7.05149 11.8373 6.51423 12.5001 6.51423Z" fill="#007AFF"/>
</svg>
