<svg width="28" height="28" viewBox="0 0 28 28" fill="none" xmlns="http://www.w3.org/2000/svg">
<path d="M22.1213 4.28884L23.7071 5.87462C24.8787 7.0462 24.8787 8.94569 23.7071 10.1173L21 12.8244L10.1464 23.678C9.30249 24.5219 8.15794 24.9959 6.96451 24.9959H5.05C3.91782 24.9959 3 24.0781 3 22.9459V21.0315C3 19.838 3.47414 18.6934 4.31811 17.8494L15.172 6.99616L15.1716 6.99594L17.8787 4.28884C19.0503 3.11726 20.9497 3.11726 22.1213 4.28884ZM16.5 8.4966L5.73228 19.2637C5.26341 19.7325 5 20.3685 5 21.0315V22.9459C5 22.9736 5.02239 22.9959 5.05 22.9959H6.96451C7.62752 22.9959 8.26339 22.7326 8.73222 22.2638L19.5 11.4966L16.5 8.4966ZM19.2929 5.70305L18 6.99594L21 9.99594L22.2929 8.70305C22.6834 8.31253 22.6834 7.67936 22.2929 7.28884L20.7071 5.70305C20.3166 5.31253 19.6834 5.31253 19.2929 5.70305Z" fill="#007AFF"/>
</svg>
