<svg width="80" height="80" viewBox="0 0 80 80" fill="none" xmlns="http://www.w3.org/2000/svg">
<path d="M20.7954 8.5H59.1958C65.9887 8.50011 71.4955 14.0069 71.4956 20.7998V59.2002C71.4955 65.9931 65.9887 71.4999 59.1958 71.5H20.7954C14.0025 71.4999 8.49571 65.9931 8.49561 59.2002V20.7998C8.49571 14.0069 14.0025 8.50011 20.7954 8.5Z" fill="#F6FEFF" stroke="#0FCAD6"/>
<path d="M47.5719 34.3729C49.2138 34.3729 50.5463 33.0675 50.5463 31.4577C50.5463 29.8482 49.2142 28.5425 47.5719 28.5425C45.93 28.5425 44.5979 29.8479 44.5979 31.4577C44.5979 33.0704 45.94 34.3729 47.5745 34.3729H47.5719ZM57.5447 49.3749L46.3412 39.6179C45.7513 38.9414 45.2187 39.1416 44.5979 39.8672L41.865 42.7679C41.303 43.4053 40.4824 43.607 40.0437 43.0872L34.2102 35.3694C33.5764 34.7305 32.7585 34.8745 32.3907 35.6902L22.2727 49.7533C21.9049 50.572 22.3469 51.4651 23.2385 51.4576L56.9515 51.4453C57.8787 51.4513 58.1305 50.0372 57.5362 49.3749H57.5447Z" fill="#0FCAD6"/>
</svg>
