<svg width="28" height="28" viewBox="0 0 28 28" fill="none" xmlns="http://www.w3.org/2000/svg">
<path d="M10.2849 9.3288H22.5451C22.8109 9.3288 23.0375 9.23668 23.2247 9.05243C23.412 8.86818 23.5056 8.64013 23.5056 8.36828C23.5056 8.10248 23.412 7.87594 23.2247 7.68867C23.0375 7.5014 22.8109 7.40777 22.5451 7.40777H10.2849C10.0131 7.40777 9.78503 7.5014 9.60078 7.68867C9.41653 7.87594 9.3244 8.10248 9.3244 8.36828C9.3244 8.64013 9.41653 8.86818 9.60078 9.05243C9.78503 9.23668 10.0131 9.3288 10.2849 9.3288ZM10.2849 14.956H22.5451C22.8109 14.956 23.0375 14.8639 23.2247 14.6796C23.412 14.4954 23.5056 14.2673 23.5056 13.9955C23.5056 13.7297 23.412 13.5046 23.2247 13.3204C23.0375 13.1361 22.8109 13.044 22.5451 13.044H10.2849C10.0131 13.044 9.78503 13.1361 9.60078 13.3204C9.41653 13.5046 9.3244 13.7297 9.3244 13.9955C9.3244 14.2613 9.41653 14.4878 9.60078 14.6751C9.78503 14.8624 10.0131 14.956 10.2849 14.956ZM10.2849 20.5832H22.5451C22.8109 20.5832 23.0375 20.491 23.2247 20.3068C23.412 20.1225 23.5056 19.8945 23.5056 19.6227C23.5056 19.3569 23.412 19.1303 23.2247 18.943C23.0375 18.7558 22.8109 18.6621 22.5451 18.6621H10.2849C10.0131 18.6621 9.78503 18.7558 9.60078 18.943C9.41653 19.1303 9.3244 19.3569 9.3244 19.6227C9.3244 19.8945 9.41653 20.1225 9.60078 20.3068C9.78503 20.491 10.0131 20.5832 10.2849 20.5832ZM5.87198 9.73657C6.24652 9.73657 6.56971 9.60367 6.84155 9.33786C7.1134 9.07206 7.24932 8.74887 7.24932 8.36828C7.24932 7.9877 7.1134 7.66451 6.84155 7.39871C6.56971 7.1329 6.24652 7 5.87198 7C5.49139 7 5.16669 7.1329 4.89787 7.39871C4.62904 7.66451 4.49463 7.9877 4.49463 8.36828C4.49463 8.74887 4.62904 9.07206 4.89787 9.33786C5.16669 9.60367 5.49139 9.73657 5.87198 9.73657ZM5.87198 15.3728C6.24652 15.3728 6.56971 15.2369 6.84155 14.965C7.1134 14.6932 7.24932 14.37 7.24932 13.9955C7.24932 13.6209 7.1134 13.2977 6.84155 13.0259C6.56971 12.754 6.24652 12.6181 5.87198 12.6181C5.49139 12.6181 5.16669 12.754 4.89787 13.0259C4.62904 13.2977 4.49463 13.6209 4.49463 13.9955C4.49463 14.37 4.62904 14.6932 4.89787 14.965C5.16669 15.2369 5.49139 15.3728 5.87198 15.3728ZM5.87198 21C6.24652 21 6.56971 20.8656 6.84155 20.5968C7.1134 20.3279 7.24932 20.0032 7.24932 19.6227C7.24932 19.2421 7.1134 18.9189 6.84155 18.6531C6.56971 18.3873 6.24652 18.2544 5.87198 18.2544C5.49139 18.2544 5.16669 18.3873 4.89787 18.6531C4.62904 18.9189 4.49463 19.2421 4.49463 19.6227C4.49463 20.0032 4.62904 20.3279 4.89787 20.5968C5.16669 20.8656 5.49139 21 5.87198 21Z" fill="#99A2AD"/>
</svg>
