<svg width="12" height="12" viewBox="0 0 12 12" fill="none" xmlns="http://www.w3.org/2000/svg">
<path d="M5.26705 7.89678L3.38304 5.07471C3.24641 4.8645 3.1794 4.6556 3.18203 4.44802C3.18466 4.24044 3.25166 4.06964 3.38304 3.93563C3.51443 3.80162 3.70624 3.73462 3.9585 3.73462L8.0103 3.73462C8.27306 3.73462 8.47276 3.80031 8.6094 3.93169C8.74603 4.06307 8.81566 4.23124 8.81829 4.4362C8.82092 4.64115 8.74603 4.85399 8.59363 5.07471L6.67809 7.89678C6.56247 8.05444 6.41664 8.16217 6.24059 8.21998C6.06454 8.27779 5.88717 8.28041 5.70849 8.22786C5.52982 8.17531 5.38267 8.06495 5.26705 7.89678Z" fill="#99A2AD"/>
</svg>
