<svg width="44" height="44" viewBox="0 0 44 44" fill="none" xmlns="http://www.w3.org/2000/svg">
<path fill-rule="evenodd" clip-rule="evenodd" d="M34.0541 0H2.75C1.23118 0 0 1.2375 0 2.75V41.25C0 42.7625 1.2375 44 2.75 44H41.25C42.7688 44 44 42.7688 44 41.25V9.94592C41.0666 7.0125 35.475 1.43 34.045 0H34.0541Z" fill="#D52E26"/>
<path fill-rule="evenodd" clip-rule="evenodd" d="M34.1 0L44 9.9H36.85C35.3312 9.9 34.1 8.66882 34.1 7.15V0Z" fill="#9D0700"/>
<path d="M10.7642 26.3996V17.5996H14.5626C15.2158 17.5996 15.7873 17.7285 16.2771 17.9863C16.7669 18.2441 17.1479 18.6065 17.4201 19.0734C17.6922 19.5404 17.8283 20.0861 17.8283 20.7105C17.8283 21.3408 17.6879 21.8865 17.4072 22.3477C17.1293 22.8089 16.7383 23.1641 16.2341 23.4133C15.7328 23.6625 15.147 23.7871 14.4767 23.7871H12.208V21.9309H13.9955C14.2762 21.9309 14.5154 21.8822 14.713 21.7848C14.9136 21.6845 15.0668 21.5427 15.1728 21.3594C15.2817 21.176 15.3361 20.9598 15.3361 20.7105C15.3361 20.4585 15.2817 20.2436 15.1728 20.066C15.0668 19.8855 14.9136 19.748 14.713 19.6535C14.5154 19.5561 14.2762 19.5074 13.9955 19.5074H13.1533V26.3996H10.7642Z" fill="white"/>
<path d="M22.0908 26.3996H18.7048V17.5996H22.0564C22.9616 17.5996 23.7436 17.7758 24.4025 18.1281C25.0642 18.4776 25.5741 18.9818 25.9322 19.6406C26.2931 20.2966 26.4736 21.0829 26.4736 21.9996C26.4736 22.9163 26.2945 23.704 25.9365 24.3629C25.5784 25.0189 25.0714 25.523 24.4154 25.8754C23.7594 26.2249 22.9845 26.3996 22.0908 26.3996ZM21.0939 24.3715H22.0048C22.4402 24.3715 22.8112 24.3013 23.1177 24.1609C23.4271 24.0206 23.662 23.7785 23.8224 23.4348C23.9857 23.091 24.0673 22.6126 24.0673 21.9996C24.0673 21.3866 23.9843 20.9082 23.8181 20.5645C23.6548 20.2207 23.4142 19.9786 23.0962 19.8383C22.7811 19.6979 22.3944 19.6277 21.9361 19.6277H21.0939V24.3715Z" fill="white"/>
<path d="M27.579 26.3996V17.5996H33.7665V19.5246H29.968V21.0371H33.3883V22.9621H29.968V26.3996H27.579Z" fill="white"/>
</svg>
