<svg width="24" height="24" viewBox="0 0 24 24" fill="none" xmlns="http://www.w3.org/2000/svg">
    <path
        d="M24 12C24 18.6274 18.6274 24 12 24C5.37258 24 0 18.6274 0 12C0 5.37258 5.37258 0 12 0C18.6274 0 24 5.37258 24 12Z"
        fill="white" />
    <path fill-rule="evenodd" clip-rule="evenodd"
        d="M11.3 6.40002C11.17 6.40009 11.0427 6.43634 10.9321 6.50471C10.8216 6.57308 10.7323 6.67087 10.6742 6.78712L10.1674 7.80002H7.80001C7.61435 7.80002 7.43631 7.87377 7.30503 8.00505C7.17376 8.13633 7.10001 8.31437 7.10001 8.50002C7.10001 8.68568 7.17376 8.86372 7.30503 8.995C7.43631 9.12627 7.61435 9.20002 7.80001 9.20002V16.2C7.80001 16.5713 7.94751 16.9274 8.21006 17.19C8.47261 17.4525 8.8287 17.6 9.20001 17.6H14.8C15.1713 17.6 15.5274 17.4525 15.79 17.19C16.0525 16.9274 16.2 16.5713 16.2 16.2V9.20002C16.3857 9.20002 16.5637 9.12627 16.695 8.995C16.8263 8.86372 16.9 8.68568 16.9 8.50002C16.9 8.31437 16.8263 8.13633 16.695 8.00505C16.5637 7.87377 16.3857 7.80002 16.2 7.80002H13.8326L13.3258 6.78712C13.2677 6.67087 13.1784 6.57308 13.0679 6.50471C12.9573 6.43634 12.83 6.40009 12.7 6.40002H11.3ZM9.90001 10.6C9.90001 10.4144 9.97376 10.2363 10.105 10.105C10.2363 9.97377 10.4144 9.90002 10.6 9.90002C10.7857 9.90002 10.9637 9.97377 11.095 10.105C11.2263 10.2363 11.3 10.4144 11.3 10.6V14.8C11.3 14.9857 11.2263 15.1637 11.095 15.295C10.9637 15.4263 10.7857 15.5 10.6 15.5C10.4144 15.5 10.2363 15.4263 10.105 15.295C9.97376 15.1637 9.90001 14.9857 9.90001 14.8V10.6ZM13.4 9.90002C13.2144 9.90002 13.0363 9.97377 12.905 10.105C12.7738 10.2363 12.7 10.4144 12.7 10.6V14.8C12.7 14.9857 12.7738 15.1637 12.905 15.295C13.0363 15.4263 13.2144 15.5 13.4 15.5C13.5857 15.5 13.7637 15.4263 13.895 15.295C14.0263 15.1637 14.1 14.9857 14.1 14.8V10.6C14.1 10.4144 14.0263 10.2363 13.895 10.105C13.7637 9.97377 13.5857 9.90002 13.4 9.90002Z"
        fill="#FF3B30" />
</svg>
