<svg width="24" height="24" viewBox="0 0 24 24" fill="none" xmlns="http://www.w3.org/2000/svg">
    <path
        d="M24 12C24 18.6274 18.6274 24 12 24C5.37258 24 0 18.6274 0 12C0 5.37258 5.37258 0 12 0C18.6274 0 24 5.37258 24 12Z"
        fill="white" />
    <path
        d="M16.7543 10.5015C17.7125 10.5015 18.5025 9.71152 18.5025 8.74822C18.5025 7.79001 17.7125 7 16.7543 7C15.791 7 15.0061 7.79001 15.0061 8.74822C15.0061 9.71152 15.791 10.5015 16.7543 10.5015ZM11.8818 12.8308C12.1111 12.8308 12.3099 12.7187 12.5494 12.4791L14.7615 10.2773C14.4353 9.85423 14.2416 9.32416 14.2416 8.74822C14.2416 8.40673 14.3129 8.08053 14.4455 7.77982H7.71764C7.26402 7.77982 6.93782 7.86137 6.73904 8.01937L11.2141 12.4791C11.4536 12.7187 11.6524 12.8308 11.8818 12.8308ZM16.7543 9.51274C16.3364 9.51274 15.9949 9.16616 15.9949 8.74822C15.9949 8.33537 16.3364 7.98879 16.7543 7.98879C17.1672 7.98879 17.5138 8.33537 17.5138 8.74822C17.5138 9.16616 17.1672 9.51274 16.7543 9.51274ZM6.15291 16.0673L9.90418 12.3313L6.18349 8.65138C6.06116 8.83996 6 9.14577 6 9.56881V15.211C6 15.6035 6.05097 15.8889 6.15291 16.0673ZM17.6055 16.0622C17.7023 15.8838 17.7533 15.6035 17.7533 15.211V11.0469C17.4526 11.1845 17.1111 11.261 16.7543 11.261C16.2396 11.261 15.7604 11.1081 15.3629 10.8379L13.8542 12.3313L17.6055 16.0622ZM16.0408 17C16.5199 17 16.8665 16.9032 17.0805 16.7248L13.2579 12.9174L12.9827 13.1927C12.6208 13.5494 12.2691 13.7125 11.8818 13.7125C11.4944 13.7125 11.1376 13.5494 10.7808 13.1927L10.5056 12.9225L6.68807 16.7197C6.91233 16.9032 7.2844 17 7.79918 17H16.0408Z"
        fill="#007AFF" />
</svg>
