<svg width="24" height="24" viewBox="0 0 24 24" fill="none" xmlns="http://www.w3.org/2000/svg">
    <path
        d="M5.39393 5.3939C5.72867 5.05917 6.27138 5.05917 6.60612 5.3939L12 10.7871L17.3939 5.3939C17.7029 5.08492 18.1891 5.06115 18.5254 5.3226L18.6061 5.3939C18.9409 5.72864 18.9409 6.27135 18.6061 6.60609L13.2129 12L18.6061 17.3939C18.9151 17.7029 18.9389 18.1891 18.6774 18.5253L18.6061 18.6061C18.2714 18.9408 17.7287 18.9408 17.3939 18.6061L12 13.2129L6.60612 18.6061C6.29713 18.9151 5.81093 18.9388 5.47468 18.6774L5.39393 18.6061C5.0592 18.2714 5.0592 17.7286 5.39393 17.3939L10.7872 12L5.39393 6.60609C5.08495 6.2971 5.06118 5.8109 5.32263 5.47465L5.39393 5.3939Z"
        fill="#AEB7C2" />
</svg>
