<svg width="48" height="48" viewBox="0 0 48 48" fill="none" xmlns="http://www.w3.org/2000/svg">
<circle cx="24" cy="24" r="24" fill="#007AFF" fill-opacity="0.06"/>
<path fill-rule="evenodd" clip-rule="evenodd" d="M15.0243 15.3135C13.9224 15.3135 13.0292 16.2067 13.0292 17.3086V27.9495C13.0292 29.0514 13.9224 29.9447 15.0243 29.9447H22.34V27.0184C22.34 26.9418 22.3436 26.866 22.3506 26.7912C22.2029 26.9075 22.0376 27.0098 21.8617 27.1016C21.4162 27.3354 20.7704 27.5693 19.924 27.5693C17.5855 27.5693 15.5811 25.5648 15.5811 23.1706C15.5811 20.7764 17.5855 18.772 19.924 18.772C22.4296 18.772 24.3227 20.6762 24.3227 22.9479C24.3227 24.4512 23.4875 25.2864 22.3739 25.2864C21.8728 25.2864 21.5387 25.1083 21.3272 24.9301C21.2047 24.8299 21.1044 24.7074 21.0376 24.5626H20.9819C20.904 24.7074 20.8149 24.8299 20.6924 24.9301C20.4808 25.1083 20.1802 25.2864 19.7013 25.2864C18.688 25.2864 17.8639 24.4401 17.8639 23.2263C17.8639 22.0125 18.688 21.1662 19.7013 21.1662C20.0465 21.1662 20.2804 21.2664 20.4474 21.3889C20.5476 21.4557 20.6256 21.5336 20.7035 21.6116L20.7035 21.6116H20.7592V21.2219H21.8171V23.6161C21.8171 24.0058 22.0844 24.2842 22.4296 24.2842C22.875 24.2842 23.2091 23.9613 23.2091 22.9479C23.2091 21.2219 21.8283 19.8299 19.924 19.8299C18.1423 19.8299 16.6947 21.2775 16.6947 23.1706C16.6947 25.0637 18.1423 26.5114 19.924 26.5114C20.5588 26.5114 21.0599 26.3443 21.4051 26.1773C21.6055 26.0771 21.7837 25.9657 21.9285 25.8432L22.4072 26.4525C22.6615 25.4034 23.6068 24.6243 24.7342 24.6243H33.9119C34.0479 24.6243 34.1812 24.6356 34.311 24.6574V17.3086C34.311 16.2067 33.4177 15.3135 32.3158 15.3135H15.0243ZM19.8684 24.2285C19.3672 24.2285 18.9775 23.8499 18.9775 23.2263C18.9775 22.6027 19.3672 22.2241 19.8684 22.2241C20.3583 22.2241 20.7592 22.6027 20.7592 23.2263C20.7592 23.8499 20.3695 24.2285 19.8684 24.2285ZM25.9979 18.639C26.5489 18.639 26.9955 18.1924 26.9955 17.6414C26.9955 17.0905 26.5489 16.6439 25.9979 16.6439C25.447 16.6439 25.0004 17.0905 25.0004 17.6414C25.0004 18.1924 25.447 18.639 25.9979 18.639ZM29.9881 17.6414C29.9881 18.1924 29.5415 18.639 28.9905 18.639C28.4396 18.639 27.9929 18.1924 27.9929 17.6414C27.9929 17.0905 28.4396 16.6439 28.9905 16.6439C29.5415 16.6439 29.9881 17.0905 29.9881 17.6414ZM31.9833 18.639C32.5342 18.639 32.9808 18.1924 32.9808 17.6414C32.9808 17.0905 32.5342 16.6439 31.9833 16.6439C31.4323 16.6439 30.9857 17.0905 30.9857 17.6414C30.9857 18.1924 31.4323 18.639 31.9833 18.639Z" fill="#007AFF"/>
<path d="M23.9595 29.7878C23.8699 29.7425 23.7921 29.6711 23.7388 29.5772C23.7029 29.5138 23.6815 29.4461 23.6736 29.378C23.6678 29.3282 23.6692 29.2781 23.6774 29.2293C23.6873 29.1699 23.7074 29.1112 23.7388 29.0559C23.7921 28.9619 23.8699 28.8906 23.9595 28.8453L26.7304 27.2739C26.9839 27.1301 27.306 27.219 27.4498 27.4726C27.5936 27.7261 27.5046 28.0482 27.2511 28.192L25.2683 29.3165L27.2511 30.441C27.5046 30.5848 27.5936 30.9069 27.4498 31.1605C27.306 31.414 26.9839 31.503 26.7304 31.3592L23.9595 29.7878Z" fill="#007AFF"/>
<path d="M34.9539 29.7878C35.0436 29.7425 35.1213 29.6711 35.1746 29.5772C35.2106 29.5138 35.232 29.4461 35.2399 29.378C35.2457 29.3282 35.2443 29.2781 35.236 29.2293C35.2261 29.1699 35.206 29.1112 35.1746 29.0559C35.1213 28.9619 35.0436 28.8906 34.9539 28.8453L32.1831 27.2739C31.9295 27.1301 31.6075 27.219 31.4637 27.4726C31.3199 27.7261 31.4088 28.0482 31.6624 28.192L33.6452 29.3165L31.6624 30.441C31.4088 30.5848 31.3199 30.9069 31.4637 31.1605C31.6075 31.414 31.9295 31.503 32.1831 31.3592L34.9539 29.7878Z" fill="#007AFF"/>
<rect x="30.6904" y="25.2896" width="0.899591" height="7.91653" rx="0.449796" transform="rotate(22.1902 30.6904 25.2896)" fill="#007AFF"/>
</svg>
