<svg width="20" height="20" viewBox="0 0 20 20" fill="none" xmlns="http://www.w3.org/2000/svg">
<path d="M11.8233 5.22705L14.7725 8.17622L7.58679 15.3629C6.94241 16.0072 6.14959 16.4833 5.27805 16.7494L2.8593 17.4878C2.7124 17.5326 2.55696 17.4499 2.51212 17.303C2.49596 17.2501 2.49596 17.1935 2.51212 17.1406L3.25045 14.7221C3.51657 13.8504 3.99282 13.0575 4.63732 12.413L11.8233 5.22705ZM15.9492 2.86975L17.1311 4.05164C17.5888 4.50925 17.6174 5.23347 17.217 5.72444L17.1311 5.81937L15.6567 7.29288L12.7067 4.34288L14.1814 2.86971C14.6696 2.38163 15.4611 2.38165 15.9492 2.86975Z" fill="#007AFF"/>
</svg>
