<svg width="20" height="20" viewBox="0 0 20 20" fill="none" xmlns="http://www.w3.org/2000/svg">
<path d="M2.5 10.833H4.16667L4.16667 9.16634H2.5V10.833ZM2.5 14.1663H4.16667V12.4997H2.5V14.1663ZM2.5 7.49967H4.16667V5.83301H2.5V7.49967ZM5.83333 10.833L17.5 10.833V9.16634L5.83333 9.16634V10.833ZM5.83333 14.1663L17.5 14.1663V12.4997L5.83333 12.4997V14.1663ZM5.83333 5.83301V7.49967L17.5 7.49967V5.83301L5.83333 5.83301ZM2.5 10.833H4.16667L4.16667 9.16634H2.5V10.833ZM2.5 14.1663H4.16667V12.4997H2.5V14.1663ZM2.5 7.49967H4.16667V5.83301H2.5V7.49967ZM5.83333 10.833L17.5 10.833V9.16634L5.83333 9.16634V10.833ZM5.83333 14.1663L17.5 14.1663V12.4997L5.83333 12.4997V14.1663ZM5.83333 5.83301V7.49967L17.5 7.49967V5.83301L5.83333 5.83301Z" fill="#424244" fill-opacity="0.72"/>
</svg>
