<svg width="28" height="28" viewBox="0 0 28 28" fill="none" xmlns="http://www.w3.org/2000/svg">
    <path
        d="M12.2933 14.2905C11.9022 14.6816 11.9022 15.3156 12.2933 15.7067C12.6844 16.0978 13.3184 16.0978 13.7095 15.7067L17.4972 11.919V14.1662C17.4972 14.7193 17.9455 15.1676 18.4986 15.1676C19.0517 15.1676 19.5 14.7193 19.5 14.1662V9.50241L19.5 9.49216C19.4976 9.2399 19.4006 8.98834 19.2088 8.79543L19.2067 8.7933L19.2046 8.79118C19.1091 8.69623 18.9992 8.62449 18.8819 8.57599C18.7665 8.52814 18.6403 8.50124 18.5078 8.50004L18.4976 8.5L13.8338 8.5C13.2807 8.5 12.8324 8.94834 12.8324 9.5014C12.8324 10.0545 13.2807 10.5028 13.8338 10.5028L16.081 10.5028L12.2933 14.2905Z"
        fill="#007AFF" />
    <path fill-rule="evenodd" clip-rule="evenodd"
        d="M21 21C22.6569 21 24 19.6569 24 18V7C24 5.34315 22.6569 4 21 4H10C8.34315 4 7 5.34315 7 7L7 18C7 19.6569 8.34315 21 10 21L21 21ZM21 19L10 19C9.44772 19 9 18.5523 9 18L9 7C9 6.44772 9.44772 6 10 6L21 6C21.5523 6 22 6.44772 22 7V18C22 18.5523 21.5523 19 21 19Z"
        fill="#007AFF" />
    <path
        d="M17 25C18.3063 25 19.4175 24.1651 19.8293 22.9999L10.1278 23C8.34473 23 7.69816 22.8143 7.04631 22.4657C6.39446 22.1171 5.88288 21.6055 5.53427 20.9537C5.18565 20.3018 5 19.6552 5 17.8722L5.00009 9.17065C3.83485 9.58247 3 10.6937 3 12V19C3 22.3137 5.68629 25 9 25L17 25Z"
        fill="#007AFF" />
</svg>
