<svg width="20" height="20" viewBox="0 0 20 20" fill="none" xmlns="http://www.w3.org/2000/svg">
    <defs>
        <clipPath id="clip0_5284_257035">
            <rect width="20" height="20" fill="white" />
        </clipPath>
    </defs>
    <g clip-path="url(#clip0_5284_257035)">
        <path fill-rule="evenodd" clip-rule="evenodd"
            d="M5.37727 12.4616C5.65411 12.5012 5.79253 12.5209 5.91118 12.4977C6.02302 12.4758 6.10938 12.4375 6.20075 12.3694C6.29769 12.2972 6.38373 12.17 6.55581 11.9157C6.75036 11.6282 6.97269 11.324 7.21968 11.008C7.25054 10.9685 7.28178 10.9288 7.3134 10.889C7.60327 10.5238 7.7482 10.3413 7.78042 10.1659C7.8097 10.0064 7.78799 9.85732 7.71447 9.71285C7.63358 9.55393 7.45182 9.42669 7.08828 9.17222L4.72681 7.51919C4.44485 7.32181 4.35004 6.94766 4.50398 6.63982C4.64402 6.3598 4.95414 6.20814 5.26114 6.26954L9.73401 7.16408C10.0629 7.22987 10.2274 7.26276 10.3857 7.24728C10.5259 7.23357 10.662 7.19236 10.7863 7.126C10.9266 7.05105 11.0452 6.93246 11.2824 6.69527L12.3172 5.66041C13.712 4.26568 15.2949 3.58729 15.8528 4.14518C16.4107 4.70307 15.7323 6.28598 14.3376 7.68071L13.3027 8.71555C13.0655 8.95274 12.9469 9.07134 12.872 9.21168C12.8056 9.33592 12.7644 9.47203 12.7507 9.61221C12.7352 9.77056 12.7681 9.93502 12.8339 10.2639L13.7285 14.7368C13.7899 15.0439 13.6382 15.354 13.3581 15.4941C13.0503 15.648 12.6762 15.5531 12.4788 15.2712L10.8257 12.9097C10.5713 12.5461 10.444 12.3644 10.2851 12.2835C10.1406 12.21 9.99153 12.1883 9.8321 12.2175C9.65671 12.2498 9.47412 12.3947 9.10895 12.6846C9.06911 12.7162 9.02945 12.7474 8.98997 12.7783C8.67399 13.0253 8.36979 13.2476 8.08228 13.4421C7.82797 13.6142 7.70082 13.7003 7.62857 13.7972C7.56045 13.8886 7.5222 13.9749 7.50029 14.0868C7.47705 14.2054 7.49682 14.3438 7.53637 14.6207L7.71299 15.857C7.74691 16.0944 7.60618 16.3221 7.37866 16.398C7.16396 16.4695 6.92804 16.3868 6.8051 16.1968L5.75803 14.5786C5.70836 14.5018 5.68353 14.4635 5.65432 14.4288C5.62837 14.3981 5.59987 14.3696 5.56912 14.3436C5.53451 14.3144 5.49613 14.2896 5.41938 14.2399L3.80117 13.1929C3.61117 13.0699 3.52842 12.834 3.59998 12.6193C3.67582 12.3918 3.90352 12.2511 4.14094 12.285L5.37727 12.4616ZM4.34298 10.8708C3.42209 10.7392 2.53889 11.285 2.24472 12.1676C1.96713 13.0003 2.28813 13.9154 3.0251 14.3922L4.5919 15.4061L5.60571 16.9729C6.08258 17.7098 6.99765 18.0308 7.83041 17.7532C8.71291 17.4591 9.25876 16.5759 9.1272 15.655L8.97147 14.5649C9.24331 14.3781 9.52393 14.1723 9.81027 13.9501L11.3085 16.0904C11.9119 16.9525 13.0558 17.2424 13.997 16.7718C14.8533 16.3437 15.3171 15.3954 15.1293 14.4567L14.2047 9.83383L15.3477 8.69087C16.1407 7.89789 16.7784 7.00674 17.1405 6.16187C17.3198 5.74336 17.4619 5.26601 17.4755 4.77668C17.4893 4.2832 17.3697 3.64176 16.8629 3.13503C16.3562 2.6283 15.7148 2.50865 15.2213 2.52242C14.7319 2.53608 14.2546 2.67814 13.8361 2.8575C12.9912 3.21958 12.1001 3.85728 11.3071 4.65026L10.1641 5.79324L5.5413 4.86871C4.60263 4.68098 3.65444 5.14469 3.22627 6.00085C2.75558 6.94206 3.04547 8.08604 3.90758 8.68952L6.04782 10.1877C5.82565 10.474 5.61988 10.7547 5.43309 11.0265L4.34298 10.8708Z"
            fill="#007AFF" />
    </g>
</svg>
