<svg width="44" height="44" viewBox="0 0 44 44" fill="none" xmlns="http://www.w3.org/2000/svg">
<rect width="44" height="44" rx="12.5714" fill="white"/>
<rect width="44" height="44" rx="12.5714" fill="url(#paint0_linear_54756_34028)"/>
<rect width="44" height="44" rx="12.5714" fill="url(#paint1_linear_54756_34028)"/>
<rect width="44" height="44" rx="12.5714" fill="url(#paint2_linear_54756_34028)"/>
<path fill-rule="evenodd" clip-rule="evenodd" d="M8.54201 11.2892C7.85693 12.6338 7.85693 14.394 7.85693 17.9143V26.0857C7.85693 29.606 7.85693 31.3662 8.54201 32.7108C9.14464 33.8935 10.1063 34.8552 11.289 35.4578C12.6336 36.1429 14.3938 36.1429 17.9141 36.1429H26.0855C29.6058 36.1429 31.366 36.1429 32.7106 35.4578C33.8933 34.8552 34.8549 33.8935 35.4576 32.7108C36.1426 31.3662 36.1426 29.606 36.1426 26.0857V17.9143C36.1426 14.394 36.1426 12.6338 35.4576 11.2892C34.8549 10.1065 33.8933 9.14485 32.7106 8.54223C31.366 7.85715 29.6058 7.85715 26.0855 7.85715H17.9141C14.3938 7.85715 12.6336 7.85715 11.289 8.54223C10.1063 9.14485 9.14464 10.1065 8.54201 11.2892ZM21.9998 14.1429C24.1703 14.1429 25.9284 15.9009 25.9284 18.0714C25.9284 20.242 24.1703 22 21.9998 22C19.8293 22 18.0712 20.242 18.0712 18.0714C18.0712 15.9009 19.8293 14.1429 21.9998 14.1429ZM14.1427 28.8701V27.9231C14.1427 24.5384 19.3775 23.5714 21.9998 23.5714C24.6221 23.5714 29.8569 24.5384 29.8569 27.9231V28.8701C29.8569 29.4152 29.415 29.8571 28.8699 29.8571H15.1297C14.5845 29.8571 14.1427 29.4152 14.1427 28.8701Z" fill="white"/>
<rect width="44" height="44" rx="12" fill="white"/>
<rect width="44" height="44" rx="12" fill="url(#paint3_linear_54756_34028)"/>
<rect width="44" height="44" rx="12" fill="url(#paint4_linear_54756_34028)"/>
<rect width="44" height="44" rx="12" fill="url(#paint5_linear_54756_34028)"/>
<path fill-rule="evenodd" clip-rule="evenodd" d="M8.54201 11.2892C7.85693 12.6338 7.85693 14.394 7.85693 17.9143V26.0857C7.85693 29.606 7.85693 31.3662 8.54201 32.7108C9.14464 33.8935 10.1063 34.8552 11.289 35.4578C12.6336 36.1429 14.3938 36.1429 17.9141 36.1429H26.0855C29.6058 36.1429 31.366 36.1429 32.7106 35.4578C33.8933 34.8552 34.8549 33.8935 35.4576 32.7108C36.1426 31.3662 36.1426 29.606 36.1426 26.0857V17.9143C36.1426 14.394 36.1426 12.6338 35.4576 11.2892C34.8549 10.1065 33.8933 9.14485 32.7106 8.54223C31.366 7.85715 29.6058 7.85715 26.0855 7.85715H17.9141C14.3938 7.85715 12.6336 7.85715 11.289 8.54223C10.1063 9.14485 9.14464 10.1065 8.54201 11.2892ZM21.9998 14.1429C24.1703 14.1429 25.9284 15.9009 25.9284 18.0714C25.9284 20.242 24.1703 22 21.9998 22C19.8293 22 18.0712 20.242 18.0712 18.0714C18.0712 15.9009 19.8293 14.1429 21.9998 14.1429ZM14.1427 28.8701V27.9231C14.1427 24.5384 19.3775 23.5714 21.9998 23.5714C24.6221 23.5714 29.8569 24.5384 29.8569 27.9231V28.8701C29.8569 29.4152 29.415 29.8571 28.8699 29.8571H15.1297C14.5845 29.8571 14.1427 29.4152 14.1427 28.8701Z" fill="white"/>
<defs>
<linearGradient id="paint0_linear_54756_34028" x1="44" y1="25.6667" x2="-1.13278e-06" y2="25.6667" gradientUnits="userSpaceOnUse">
<stop offset="0.12998" stop-color="#A033FF"/>
<stop offset="0.610381" stop-color="#0094FF"/>
<stop offset="1" stop-color="#4FB500"/>
</linearGradient>
<linearGradient id="paint1_linear_54756_34028" x1="20.1667" y1="13.75" x2="6.41666" y2="41.25" gradientUnits="userSpaceOnUse">
<stop stop-color="#FFD600" stop-opacity="0"/>
<stop offset="0.563347" stop-color="#FFC700"/>
</linearGradient>
<linearGradient id="paint2_linear_54756_34028" x1="23.8333" y1="25.6667" x2="39.4167" y2="42.1667" gradientUnits="userSpaceOnUse">
<stop offset="0.0297327" stop-color="#FF3B30" stop-opacity="0"/>
<stop offset="0.842824" stop-color="#E73B2D"/>
</linearGradient>
<linearGradient id="paint3_linear_54756_34028" x1="44" y1="25.6667" x2="-1.13278e-06" y2="25.6667" gradientUnits="userSpaceOnUse">
<stop offset="0.12998" stop-color="#A033FF"/>
<stop offset="0.610381" stop-color="#0094FF"/>
<stop offset="1" stop-color="#4FB500"/>
</linearGradient>
<linearGradient id="paint4_linear_54756_34028" x1="20.1667" y1="13.75" x2="6.41666" y2="41.25" gradientUnits="userSpaceOnUse">
<stop stop-color="#FFD600" stop-opacity="0"/>
<stop offset="0.563347" stop-color="#FFC700"/>
</linearGradient>
<linearGradient id="paint5_linear_54756_34028" x1="23.8333" y1="25.6667" x2="39.4167" y2="42.1667" gradientUnits="userSpaceOnUse">
<stop offset="0.0297327" stop-color="#FF3B30" stop-opacity="0"/>
<stop offset="0.842824" stop-color="#E73B2D"/>
</linearGradient>
</defs>
</svg>
