<svg width="20" height="20" viewBox="0 0 20 20" fill="none" xmlns="http://www.w3.org/2000/svg">
<path d="M17.9992 15.1679L10.8326 9.79294V9.0346C12.2076 8.62627 13.1659 7.22627 12.8576 5.6596C12.6409 4.56794 11.7742 3.6596 10.6826 3.4096C8.78257 2.97627 7.08257 4.41794 7.08257 6.25127L8.74924 6.25127C8.74924 5.5596 9.30757 5.00127 9.99924 5.00127C10.6909 5.00127 11.2492 5.5596 11.2492 6.25127C11.2492 6.95127 10.6742 7.51794 9.97424 7.50127C9.52424 7.49294 9.16591 7.87627 9.16591 8.32627V9.79294L1.99924 15.1679C1.35757 15.6513 1.69924 16.6679 2.49924 16.6679H17.4992C18.2992 16.6679 18.6409 15.6513 17.9992 15.1679ZM4.99924 15.0013L9.99924 11.2513L14.9992 15.0013L4.99924 15.0013Z" fill="#424244"/>
</svg>
