<svg width="20" height="20" viewBox="0 0 20 20" fill="none" xmlns="http://www.w3.org/2000/svg">
<path d="M10.0001 1.66602C14.6014 1.66602 18.3334 5.39679 18.3334 9.99935C18.3334 14.6019 14.6014 18.3327 10.0001 18.3327C5.39752 18.3327 1.66675 14.6019 1.66675 9.99935C1.66675 5.39679 5.39752 1.66602 10.0001 1.66602ZM10.0001 3.33268C6.31803 3.33268 3.33341 6.3173 3.33341 9.99935C3.33341 13.6814 6.31803 16.666 10.0001 16.666C13.6811 16.666 16.6667 13.6814 16.6667 9.99935C16.6667 6.3173 13.6811 3.33268 10.0001 3.33268ZM9.44912 5.87114C9.90936 5.87114 10.2825 6.24424 10.2825 6.70448V9.89942L13.4163 10.9459C13.8523 11.0935 14.086 11.5665 13.9384 12.0025C13.7909 12.4384 13.3178 12.6722 12.8819 12.5246L9.18191 11.272C8.84351 11.1575 8.61579 10.8399 8.61579 10.4827V6.70448C8.61579 6.24424 8.98888 5.87114 9.44912 5.87114Z" fill="#B8C1CC"/>
</svg>
