<svg width="29" height="28" viewBox="0 0 29 28" fill="none" xmlns="http://www.w3.org/2000/svg">
<path d="M19.2606 18C19.9812 18 20.5 17.6019 20.5 17.0332C20.5 16.8463 20.452 16.6594 20.3367 16.3913L16.3014 7.12932C15.9556 6.34123 15.3983 6 14.4856 6C13.5825 6 13.0252 6.35748 12.689 7.13744L8.66333 16.3913C8.54804 16.6432 8.5 16.8707 8.5 17.0332C8.5 17.6263 8.98999 18 9.749 18C10.3927 18 10.7578 17.7319 10.9884 17.0982L11.9011 14.872H17.0797L17.9924 17.1144C18.2134 17.74 18.5881 18 19.2606 18ZM16.4744 13.2146H12.4872L14.4376 8.20988H14.5048L16.4744 13.2146Z" fill="#99A2AD"/>
<rect x="6.5" y="20" width="16" height="2.5" rx="1.25" fill="#99A2AD"/>
</svg>
