<svg width="20" height="20" viewBox="0 0 20 20" fill="none" xmlns="http://www.w3.org/2000/svg">
    <path
        d="M9.28585 4.58158L8.36236 5.50507C8.08341 5.78402 7.63115 5.78402 7.35221 5.50507C7.07326 5.22613 7.07326 4.77387 7.35221 4.49492L9.49506 2.35206C9.77401 2.07312 10.2263 2.07312 10.5052 2.35206L12.6481 4.49492C12.927 4.77387 12.927 5.22613 12.6481 5.50507C12.3691 5.78402 11.9169 5.78402 11.6379 5.50507L10.7144 4.58158V7.14285C10.7144 7.53734 10.3946 7.85714 10.0001 7.85714C9.60565 7.85714 9.28585 7.53734 9.28585 7.14285V4.58158Z"
        fill="#007AFF" />
    <path fill-rule="evenodd" clip-rule="evenodd"
        d="M5.92752 4.28572C5.9655 4.28572 6.00138 4.26924 6.02824 4.24238L6.30575 3.96487C6.71453 3.55609 6.42501 2.85714 5.84691 2.85714C4.98647 2.85714 4.55836 2.92542 4.09767 3.12911C3.66629 3.31985 3.30543 3.60932 3.02566 3.98905C2.72688 4.39458 2.56736 4.79768 2.3807 5.63763L1.44572 9.84505L1.42871 10V12.7659C1.42871 14.0349 1.54885 14.657 1.89475 15.3038C2.21033 15.8939 2.6777 16.3612 3.26779 16.6768C3.91456 17.0227 4.53669 17.1429 5.80569 17.1429H14.1946C15.4636 17.1429 16.0857 17.0227 16.7325 16.6768C17.3226 16.3612 17.7899 15.8939 18.1055 15.3038C18.4514 14.657 18.5716 14.0349 18.5716 12.7659V10L18.5546 9.84505L17.6196 5.63763C17.4329 4.79768 17.2734 4.39458 16.9746 3.98905C16.6948 3.60932 16.334 3.31985 15.9026 3.12911C15.4419 2.92542 15.0138 2.85714 14.1534 2.85714C13.5753 2.85714 13.2857 3.55609 13.6945 3.96488L13.972 4.24238C13.9993 4.26964 14.0357 4.28639 14.0742 4.28639L14.3023 4.28641C14.8688 4.29206 15.0921 4.33274 15.3249 4.43567C15.5288 4.5258 15.6923 4.65698 15.8245 4.83641C15.9881 5.05842 16.0779 5.28541 16.225 5.94753L16.9666 9.28571H12.8573C12.4628 9.28571 12.143 9.60551 12.143 10C12.143 11.1835 11.1836 12.1429 10.0001 12.1429C8.81667 12.1429 7.85728 11.1835 7.85728 10L7.85248 9.9167C7.81122 9.56145 7.50931 9.28571 7.143 9.28571H3.033L3.77525 5.94753C3.92239 5.28541 4.01222 5.05842 4.17578 4.83641C4.30799 4.65698 4.47152 4.5258 4.67536 4.43567C4.92756 4.32416 5.16863 4.28571 5.84691 4.28571L5.92752 4.28572ZM3.15448 14.6301C2.9344 14.2185 2.85728 13.8192 2.85728 12.7659V10.7143H6.50015C6.83106 12.3445 8.27231 13.5714 10.0001 13.5714C11.728 13.5714 13.1692 12.3445 13.5001 10.7143H17.143V12.7659C17.143 13.8192 17.0659 14.2185 16.8458 14.6301C16.6634 14.9712 16.3999 15.2346 16.0588 15.4171C15.6473 15.6372 15.2479 15.7143 14.1946 15.7143H5.80569C4.75235 15.7143 4.35302 15.6372 3.9415 15.4171C3.60037 15.2346 3.33692 14.9712 3.15448 14.6301Z"
        fill="#007AFF" />
</svg>
