<svg width="24" height="24" viewBox="0 0 24 24" fill="none" xmlns="http://www.w3.org/2000/svg">
    <path
        d="M10.2169 12.1327L10.7011 12.2574L10.2169 12.1328C10.0792 12.668 10.4014 13.2135 10.9366 13.3513L11.0612 12.8671L10.9366 13.3513C11.1006 13.3935 11.2656 13.3925 11.4195 13.3555C11.2882 13.5686 11.1754 13.8353 11.128 14.1666C11.0854 14.4648 11.179 14.7511 11.3615 14.9625C11.1383 15.1682 10.9985 15.4631 10.9985 15.7905C10.9985 16.4123 11.5026 16.9164 12.1243 16.9164C12.7461 16.9164 13.2502 16.4123 13.2502 15.7905C13.2502 15.46 13.1077 15.1627 12.8809 14.9567C12.9996 14.8175 13.0815 14.6442 13.1093 14.4497C13.1126 14.4263 13.1161 14.4175 13.1168 14.416L13.1168 14.4159C13.1173 14.4147 13.1191 14.4102 13.1273 14.3991C13.1373 14.3855 13.1551 14.3643 13.1896 14.3294C13.2248 14.2938 13.268 14.2531 13.3281 14.1971C13.5829 13.9593 14.0823 13.4928 14.0823 12.6229C14.0823 11.5384 13.2032 10.6593 12.1187 10.6593C11.2019 10.6593 10.4348 11.2864 10.2169 12.1327ZM11.9995 10.345C13.9009 10.345 15.4424 11.8864 15.4424 13.7878C15.4424 15.6893 13.9009 17.2307 11.9995 17.2307C10.0981 17.2307 8.55664 15.6893 8.55664 13.7878C8.55664 11.8864 10.0981 10.345 11.9995 10.345Z"
        fill="#007AFF" stroke="#007AFF" />
    <path fill-rule="evenodd" clip-rule="evenodd"
        d="M18.6861 21.4287H5.31564C3.80267 21.4287 2.57234 20.2081 2.57234 18.7078V10.5194C2.56634 9.72157 2.94628 8.9922 3.52367 8.46551L10.3005 3.15913C11.3016 2.37626 12.7002 2.37507 13.7012 3.15913C13.7012 3.15913 20.5444 8.54078 20.5894 8.56353C21.1229 9.06839 21.4294 9.78116 21.4294 10.5194V18.7078C21.4294 20.2081 20.199 21.4287 18.6861 21.4287ZM12.5613 4.59172C12.232 4.33275 11.7698 4.33275 11.4405 4.59172L5.57787 9.18126L7.12519 10.3941L4.41157 10.5927V18.7078C4.41157 19.2019 4.81688 19.604 5.31564 19.604H18.6861C19.1848 19.604 19.5902 19.2019 19.5902 18.7078V10.5927L18.0071 11.8383L16.8763 10.3941L18.4239 9.18125L12.5613 4.59172Z"
        fill="#007AFF" />
    <path fill-rule="evenodd" clip-rule="evenodd"
        d="M19.5902 10.5927L18.0071 11.8383C17.6083 12.1506 17.0318 12.0804 16.7196 11.6816C16.4073 11.2828 16.4775 10.7063 16.8763 10.3941L18.4239 9.18125L19.5902 10.5927Z"
        fill="#007AFF" />
    <path fill-rule="evenodd" clip-rule="evenodd"
        d="M4.41157 10.5927L5.99437 11.8383C6.39319 12.1506 6.96964 12.0804 7.2819 11.6816C7.59417 11.2828 7.52401 10.7063 7.12519 10.3941L4.41157 10.5927Z"
        fill="#007AFF" />
</svg>
