<svg width="28" height="28" viewBox="0 0 28 28" fill="none" xmlns="http://www.w3.org/2000/svg">
<path d="M6.08301 23.1221H21.2443C22.1466 23.1221 22.8453 22.862 23.3403 22.3419C23.8416 21.8281 24.0923 21.0699 24.0923 20.0673V12.5102C23.8228 12.6229 23.5409 12.7044 23.2463 12.7545C22.9581 12.8047 22.6636 12.8235 22.3628 12.8109V20.0109C22.3628 20.4621 22.2437 20.8036 22.0056 21.0354C21.7738 21.261 21.4416 21.3738 21.0093 21.3738H6.08301C5.64437 21.3738 5.30912 21.261 5.07727 21.0354C4.84542 20.8036 4.72949 20.4589 4.72949 20.0015V9.73731C4.72949 9.28613 4.84542 8.94775 5.07727 8.72217C5.30912 8.49032 5.64437 8.37439 6.08301 8.37439H17.9075C17.8824 8.07361 17.8949 7.77596 17.9451 7.48145C17.9952 7.18067 18.0735 6.89555 18.1801 6.6261H5.84802C4.94568 6.6261 4.24386 6.88615 3.74255 7.40625C3.24752 7.92009 3 8.67517 3 9.67151V20.0673C3 21.0699 3.26005 21.8281 3.78015 22.3419C4.30025 22.862 5.06787 23.1221 6.08301 23.1221ZM13.5649 17.4354C13.9159 17.4354 14.2574 17.3603 14.5895 17.2099C14.9216 17.0532 15.2568 16.8088 15.5952 16.4767L20.0223 12.1248C19.7968 11.9807 19.5837 11.8177 19.3832 11.636C19.1889 11.4543 19.0135 11.2569 18.8568 11.0438L14.6365 15.2078C14.436 15.402 14.248 15.543 14.0725 15.6308C13.9033 15.7185 13.7341 15.7623 13.5649 15.7623C13.3832 15.7623 13.2046 15.7185 13.0292 15.6308C12.86 15.543 12.6783 15.402 12.484 15.2078L5.06787 7.87622L3.94934 9.02295L11.5253 16.4767C11.8574 16.8088 12.1926 17.0532 12.531 17.2099C12.8694 17.3603 13.214 17.4354 13.5649 17.4354ZM22.0244 21.825L23.1617 20.6876L16.6198 14.2114L15.4918 15.3488L22.0244 21.825ZM5.20886 21.7122L11.4595 15.5086L10.3315 14.3806L4.07153 20.5842L5.20886 21.7122ZM22.4662 11.5044C23.0489 11.5044 23.5847 11.3572 24.0735 11.0626C24.5685 10.7681 24.9633 10.3733 25.2578 9.8783C25.5523 9.38326 25.6996 8.84123 25.6996 8.2522C25.6996 7.6569 25.5523 7.11487 25.2578 6.6261C24.9633 6.13106 24.5685 5.73629 24.0735 5.44177C23.5847 5.14726 23.0489 5 22.4662 5C21.8646 5 21.3195 5.14726 20.8307 5.44177C20.3419 5.73629 19.9503 6.13106 19.6558 6.6261C19.3612 7.11487 19.214 7.6569 19.214 8.2522C19.214 8.84123 19.3612 9.38326 19.6558 9.8783C19.9503 10.3733 20.3419 10.7681 20.8307 11.0626C21.3195 11.3572 21.8646 11.5044 22.4662 11.5044Z" fill="#007AFF"/>
</svg>
