<svg width="20" height="20" viewBox="0 0 20 20" fill="none" xmlns="http://www.w3.org/2000/svg">
<path fill-rule="evenodd" clip-rule="evenodd" d="M4.14236 8.11492C3.67363 6.91584 3.34508 5.9886 3.19939 5.39593C3.0197 4.66496 2.71772 3.85561 3.01933 3.1186C3.20261 2.67073 3.58836 2.30966 4.1061 2.18604C4.78469 2.02402 5.42551 2.34477 6.00789 2.65679C7.27792 3.33725 13.9194 6.81105 15.5227 7.65453C16.459 8.14712 17.8063 8.67458 17.8559 9.91289C17.9038 11.1111 16.7444 11.6499 15.8445 12.1232C12.5565 13.8528 9.28892 15.6217 5.99102 17.3323C5.39149 17.6433 4.73124 17.9819 4.037 17.8064C3.46878 17.6627 3.08862 17.2409 2.93796 16.7713C2.8045 16.3553 2.86147 15.9272 2.961 15.5122C3.25685 14.2787 3.66993 13.0728 4.12835 11.8912C4.43516 11.1004 4.9799 10.4469 5.66464 9.99495C4.98752 9.54509 4.44832 8.89759 4.14236 8.11492ZM8.726 9.46463C9.45782 9.61209 9.82724 9.69159 9.90479 9.81895C9.97461 9.93364 9.97413 10.0782 9.90353 10.1925C9.82132 10.3255 9.41852 10.4037 8.61291 10.5601C8.05745 10.668 7.60152 10.756 7.46124 10.7818C6.54504 10.9504 5.78653 11.5668 5.46019 12.4079C5.06991 13.4139 4.72372 14.4194 4.44862 15.4621C4.17078 16.5153 4.12434 16.6913 5.33323 16.0642C8.67163 14.3326 11.9812 12.5451 15.3079 10.7911C16.048 10.4008 16.4266 10.1915 16.4286 9.97881C16.4305 9.76808 16.0628 9.55402 15.3111 9.15728C11.9887 7.40365 8.6447 5.69022 5.33323 3.91602C4.1436 3.27864 4.1988 3.49977 4.51425 4.76331C4.75621 5.73251 5.10945 6.66509 5.47288 7.5948C5.80036 8.43252 6.55682 9.04606 7.47005 9.21463C7.88984 9.29212 8.30756 9.38031 8.726 9.46463Z" fill="#007AFF"/>
</svg>
