<svg width="28" height="28" viewBox="0 0 28 28" fill="none" xmlns="http://www.w3.org/2000/svg">
    <path
        d="M19.6843 2.33337C21.7645 2.33337 22.5188 2.54997 23.2793 2.95668C24.0398 3.3634 24.6367 3.96024 25.0434 4.72073C25.4501 5.48123 25.6667 6.23556 25.6667 8.31577V19.6843C25.6667 21.7645 25.4501 22.5189 25.0434 23.2793C24.6367 24.0398 24.0398 24.6367 23.2793 25.0434C22.5188 25.4501 21.7645 25.6667 19.6843 25.6667H8.31574C6.23553 25.6667 5.4812 25.4501 4.7207 25.0434C3.96021 24.6367 3.36337 24.0398 2.95665 23.2793C2.54994 22.5189 2.33334 21.7645 2.33334 19.6843V8.31577C2.33334 6.23556 2.54994 5.48123 2.95665 4.72073C3.36337 3.96024 3.96021 3.3634 4.7207 2.95668C5.4812 2.54997 6.23553 2.33337 8.31574 2.33337H19.6843ZM20.3421 4.66671H7.65788C6.61777 4.66671 6.2406 4.775 5.86036 4.97836C5.48011 5.18172 5.18169 5.48014 4.97833 5.86039C4.77497 6.24063 4.66668 6.6178 4.66668 7.65791V20.3422C4.66668 21.3823 4.77497 21.7594 4.97833 22.1397C5.18169 22.5199 5.48011 22.8184 5.86036 23.0217C6.2406 23.2251 6.61777 23.3334 7.65788 23.3334H20.3421C21.3823 23.3334 21.7594 23.2251 22.1397 23.0217C22.5199 22.8184 22.8183 22.5199 23.0217 22.1397C23.225 21.7594 23.3333 21.3823 23.3333 20.3422V7.65791C23.3333 6.6178 23.225 6.24063 23.0217 5.86039C22.8183 5.48014 22.5199 5.18172 22.1397 4.97836C21.7594 4.775 21.3823 4.66671 20.3421 4.66671Z"
        fill="#818C99" />
</svg>
