<svg width="145" height="28" viewBox="0 0 145 28" fill="none" xmlns="http://www.w3.org/2000/svg">
<path d="M34.9474 10.0902H30.3395V7.18723H42.781V10.0902H38.173V23.3151H34.9474V10.0902Z" fill="black"/>
<path d="M40.5393 11.3344H44.1795L45.7232 18.1311C45.8922 18.8223 46.015 19.429 46.0918 19.9513C46.1994 19.2908 46.3299 18.6764 46.4835 18.1081L48.2345 11.3344H51.8057L53.6719 18.1081C53.8255 18.6764 53.9561 19.2908 54.0636 19.9513C54.1404 19.429 54.2633 18.8223 54.4322 18.1311L56.0911 11.3344H59.4779L55.7455 23.3151H52.3817L50.4233 16.4953C50.239 15.9423 50.1008 15.3433 50.0086 14.6982C49.9011 15.4047 49.7782 16.0038 49.64 16.4953L47.8429 23.3151H44.2717L40.5393 11.3344Z" fill="black"/>
<path d="M65.0406 23.6146C63.9654 23.6146 62.9747 23.3381 62.0685 22.7851C61.1622 22.2168 60.4403 21.4565 59.9027 20.5042C59.3805 19.5519 59.1194 18.5074 59.1194 17.3708C59.1194 16.2342 59.3805 15.1897 59.9027 14.2374C60.4403 13.2697 61.1622 12.5017 62.0685 11.9334C62.9747 11.3651 63.9654 11.0809 65.0406 11.0809C66.0236 11.0809 66.8147 11.2653 67.4137 11.6339C68.0281 12.0025 68.5043 12.5325 68.8422 13.2236V11.3344H71.9295V23.3151H68.9113V21.3567C68.558 22.0786 68.0742 22.6392 67.4598 23.0386C66.8608 23.4226 66.0544 23.6146 65.0406 23.6146ZM62.2298 17.3478C62.2298 17.9622 62.368 18.5382 62.6445 19.0757C62.9363 19.598 63.328 20.0204 63.8195 20.3429C64.3264 20.6501 64.9024 20.8037 65.5475 20.8037C66.208 20.8037 66.7916 20.6501 67.2985 20.3429C67.8207 20.0357 68.2201 19.621 68.4966 19.0988C68.7731 18.5766 68.9113 18.0006 68.9113 17.3708C68.9113 16.741 68.7731 16.1651 68.4966 15.6428C68.2201 15.1052 67.8207 14.6828 67.2985 14.3756C66.7916 14.0531 66.208 13.8918 65.5475 13.8918C64.9024 13.8918 64.3264 14.0531 63.8195 14.3756C63.3126 14.6828 62.921 15.0975 62.6445 15.6198C62.368 16.142 62.2298 16.718 62.2298 17.3478Z" fill="black"/>
<path d="M76.8879 17.6242V23.3151H73.7775V6.49603H76.8879V16.1727L81.3807 11.3344H85.8043L80.1596 16.91L85.8273 23.3151H81.7032L76.8879 17.6242Z" fill="black"/>
<path d="M90.8543 23.6146C89.6409 23.6146 88.5657 23.3381 87.6288 22.7851C86.6918 22.2168 85.9622 21.4565 85.44 20.5042C84.9178 19.5519 84.6566 18.4998 84.6566 17.3478C84.6566 16.2111 84.9254 15.159 85.463 14.1913C86.0006 13.2236 86.7379 12.4557 87.6748 11.8873C88.6272 11.319 89.687 11.0349 90.8543 11.0349C92.0217 11.0349 93.0661 11.319 93.9877 11.8873C94.9247 12.4557 95.6466 13.2236 96.1535 14.1913C96.6757 15.1436 96.9368 16.1958 96.9368 17.3478C96.9368 17.7318 96.9061 18.1004 96.8447 18.4537H87.8822C88.0665 19.1756 88.4121 19.7593 88.919 20.2047C89.4412 20.6348 90.0863 20.8498 90.8543 20.8498C91.4994 20.8498 92.0754 20.7039 92.5823 20.4121C93.0892 20.1049 93.4885 19.7132 93.7804 19.237L96.1996 21.0572C95.708 21.8252 94.9861 22.4472 94.0338 22.9234C93.0815 23.3842 92.0217 23.6146 90.8543 23.6146ZM93.8034 16.1267C93.6191 15.4355 93.2581 14.8595 92.7206 14.3987C92.183 13.9379 91.5455 13.7075 90.8083 13.7075C90.0863 13.7075 89.4566 13.9302 88.919 14.3756C88.3968 14.8211 88.0512 15.4047 87.8822 16.1267H93.8034Z" fill="black"/>
<path d="M103.493 7.66832H107.214L110.315 14.276C111.185 16.1151 111.741 17.448 111.983 18.2749C112.183 17.5051 112.731 16.1721 113.63 14.276L116.752 7.66832H120.344V22.6373H117.415V16.5855C117.415 15.6019 117.429 14.8035 117.457 14.1905C117.486 13.5775 117.543 12.9288 117.628 12.2445L112.646 22.6373H111.192L106.209 12.2445C106.295 12.9288 106.352 13.5775 106.38 14.1905C106.409 14.8035 106.423 15.6019 106.423 16.5855V22.6373H103.493V7.66832Z" fill="url(#paint0_linear_1480_1594)"/>
<path d="M127.33 22.9153C126.332 22.9153 125.413 22.6587 124.572 22.1454C123.731 21.618 123.061 20.9123 122.562 20.0284C122.077 19.1445 121.835 18.1751 121.835 17.1201C121.835 16.0652 122.077 15.0958 122.562 14.2119C123.061 13.3138 123.731 12.6009 124.572 12.0735C125.413 11.546 126.332 11.2823 127.33 11.2823C128.243 11.2823 128.977 11.4533 129.533 11.7955C130.103 12.1376 130.545 12.6295 130.859 13.271V11.5175H133.724V22.6373H130.923V20.8196C130.595 21.4897 130.146 22.01 129.576 22.3807C129.02 22.7371 128.271 22.9153 127.33 22.9153ZM124.721 17.0988C124.721 17.669 124.85 18.2036 125.106 18.7026C125.377 19.1873 125.741 19.5793 126.197 19.8787C126.667 20.1638 127.202 20.3064 127.801 20.3064C128.414 20.3064 128.956 20.1638 129.426 19.8787C129.911 19.5936 130.281 19.2087 130.538 18.724C130.795 18.2393 130.923 17.7046 130.923 17.1201C130.923 16.5356 130.795 16.001 130.538 15.5163C130.281 15.0174 129.911 14.6253 129.426 14.3402C128.956 14.0408 128.414 13.8911 127.801 13.8911C127.202 13.8911 126.667 14.0408 126.197 14.3402C125.727 14.6253 125.363 15.0102 125.106 15.4949C124.85 15.9797 124.721 16.5143 124.721 17.0988Z" fill="url(#paint1_linear_1480_1594)"/>
<path d="M135.439 11.5175H138.326V22.6373H135.439V11.5175ZM135.14 8.88722C135.14 8.41677 135.304 8.0176 135.632 7.6897C135.974 7.36181 136.388 7.19787 136.872 7.19787C137.371 7.19787 137.785 7.36181 138.113 7.6897C138.44 8.0176 138.604 8.41677 138.604 8.88722C138.604 9.37193 138.44 9.77823 138.113 10.1061C137.785 10.434 137.371 10.598 136.872 10.598C136.388 10.598 135.974 10.434 135.632 10.1061C135.304 9.76397 135.14 9.35767 135.14 8.88722Z" fill="url(#paint2_linear_1480_1594)"/>
<path d="M140.034 7.02679H142.921V22.6373H140.034V7.02679Z" fill="url(#paint3_linear_1480_1594)"/>
<rect x="0.828369" y="1.55151" width="24.8333" height="24.8333" rx="8.07311" fill="white"/>
<rect x="0.828369" y="1.55151" width="24.8333" height="24.8333" rx="8.07311" fill="url(#paint4_linear_1480_1594)"/>
<rect x="0.828369" y="1.55151" width="24.8333" height="24.8333" rx="8.07311" fill="url(#paint5_linear_1480_1594)"/>
<rect x="0.828369" y="1.55151" width="24.8333" height="24.8333" rx="8.07311" fill="url(#paint6_linear_1480_1594)"/>
<path fill-rule="evenodd" clip-rule="evenodd" d="M4.8812 10.0606C4.30135 10.5028 3.96106 11.1903 3.96106 11.9195V19.8222C3.96106 21.3715 5.21705 22.6275 6.76638 22.6275H19.3074C20.8567 22.6275 22.1127 21.3715 22.1127 19.8222V11.9195C22.1127 11.1903 21.7724 10.5028 21.1925 10.0606L14.4545 4.92205C13.6173 4.28355 12.4565 4.28355 11.6192 4.92205L4.8812 10.0606ZM5.97791 11.7511V19.7149C5.97791 20.2313 6.39657 20.65 6.91301 20.65H19.1607C19.6772 20.65 20.0958 20.2313 20.0958 19.7149V11.7511L14.1097 15.9435C13.4656 16.3946 12.6081 16.3946 11.964 15.9435L5.97791 11.7511Z" fill="white"/>
<defs>
<linearGradient id="paint0_linear_1480_1594" x1="108.014" y1="3.09218" x2="122.877" y2="33.3682" gradientUnits="userSpaceOnUse">
<stop stop-color="#57B9FF"/>
<stop offset="1" stop-color="#0B84FF"/>
</linearGradient>
<linearGradient id="paint1_linear_1480_1594" x1="108.014" y1="3.09218" x2="122.877" y2="33.3682" gradientUnits="userSpaceOnUse">
<stop stop-color="#57B9FF"/>
<stop offset="1" stop-color="#0B84FF"/>
</linearGradient>
<linearGradient id="paint2_linear_1480_1594" x1="108.014" y1="3.09218" x2="122.877" y2="33.3682" gradientUnits="userSpaceOnUse">
<stop stop-color="#57B9FF"/>
<stop offset="1" stop-color="#0B84FF"/>
</linearGradient>
<linearGradient id="paint3_linear_1480_1594" x1="108.014" y1="3.09218" x2="122.877" y2="33.3682" gradientUnits="userSpaceOnUse">
<stop stop-color="#57B9FF"/>
<stop offset="1" stop-color="#0B84FF"/>
</linearGradient>
<linearGradient id="paint4_linear_1480_1594" x1="25.6617" y1="16.0376" x2="18.9382" y2="11.7451" gradientUnits="userSpaceOnUse">
<stop offset="0.12998" stop-color="#A033FF"/>
<stop offset="0.610381" stop-color="#0094FF"/>
<stop offset="1" stop-color="#1D90FF"/>
</linearGradient>
<linearGradient id="paint5_linear_1480_1594" x1="12.2103" y1="9.31191" x2="4.44989" y2="24.8327" gradientUnits="userSpaceOnUse">
<stop stop-color="#FFD600" stop-opacity="0"/>
<stop offset="0.563347" stop-color="#FFC700"/>
</linearGradient>
<linearGradient id="paint6_linear_1480_1594" x1="14.2797" y1="16.0376" x2="23.0748" y2="25.3501" gradientUnits="userSpaceOnUse">
<stop offset="0.0297327" stop-color="#FF3B30" stop-opacity="0"/>
<stop offset="0.842824" stop-color="#E73B2D"/>
</linearGradient>
</defs>
</svg>
