<svg width="24" height="24" viewBox="0 0 24 24" fill="none" xmlns="http://www.w3.org/2000/svg">
<path fill-rule="evenodd" clip-rule="evenodd" d="M14 4.9C14 4.40294 14.4029 4 14.9 4H19.1C19.5971 4 20 4.40294 20 4.9V9.10001C20 9.59706 19.5971 10 19.1 10C18.6029 10 18.2 9.59706 18.2 9.10001V7.07279L14.5364 10.7364C14.1849 11.0879 13.6151 11.0879 13.2636 10.7364C12.9121 10.3849 12.9121 9.81508 13.2636 9.46361L16.9272 5.8H14.9C14.4029 5.8 14 5.39706 14 4.9Z" fill="#99A2AD"/>
<path fill-rule="evenodd" clip-rule="evenodd" d="M10.7364 13.2636C11.0879 13.6151 11.0879 14.1849 10.7364 14.5364L7.07279 18.2H9.09818C9.59524 18.2 9.99818 18.6029 9.99818 19.1C9.99818 19.5971 9.59524 20 9.09818 20H4.9C4.40294 20 4 19.5971 4 19.1V14.9C4 14.403 4.40294 14 4.9 14C5.39706 14 5.8 14.403 5.8 14.9V16.9272L9.46361 13.2636C9.81508 12.9121 10.3849 12.9121 10.7364 13.2636Z" fill="#99A2AD"/>
</svg>
