<svg width="28" height="28" viewBox="0 0 28 28" fill="none" xmlns="http://www.w3.org/2000/svg">
    <path fill-rule="evenodd" clip-rule="evenodd"
        d="M2.84198 4.88142C2.33334 5.87967 2.33334 7.18646 2.33334 9.80004V18.2C2.33334 20.8136 2.33334 22.1204 2.84198 23.1187C3.28939 23.9968 4.0033 24.7107 4.88139 25.1581C5.87964 25.6667 7.18643 25.6667 9.80001 25.6667H18.2C20.8136 25.6667 22.1204 25.6667 23.1186 25.1581C23.9967 24.7107 24.7106 23.9968 25.158 23.1187C25.6667 22.1204 25.6667 20.8136 25.6667 18.2V9.80004C25.6667 7.18646 25.6667 5.87967 25.158 4.88142C24.7106 4.00333 23.9967 3.28942 23.1186 2.84201C22.1204 2.33337 20.8136 2.33337 18.2 2.33337H9.80001C7.18643 2.33337 5.87964 2.33337 4.88139 2.84201C4.0033 3.28942 3.28939 4.00333 2.84198 4.88142ZM21.2416 10.7417C21.6972 10.2861 21.6972 9.54736 21.2416 9.09175C20.786 8.63614 20.0473 8.63614 19.5917 9.09175L11.6667 17.0168L8.4083 13.7584C7.95269 13.3028 7.214 13.3028 6.75839 13.7584C6.30277 14.214 6.30277 14.9527 6.75839 15.4083L10.8417 19.4917C11.2973 19.9473 12.036 19.9473 12.4916 19.4917L21.2416 10.7417Z"
        fill="#007AFF" />
</svg>
