<svg width="40" height="40" viewBox="0 0 40 40" fill="none" xmlns="http://www.w3.org/2000/svg">
    <path
        d="M20 29C19.7167 29 19.4792 28.9042 19.2875 28.7125C19.0958 28.5208 19 28.2833 19 28V24C19 23.7167 19.0958 23.4792 19.2875 23.2875C19.4792 23.0958 19.7167 23 20 23C20.2833 23 20.5208 23.0958 20.7125 23.2875C20.9042 23.4792 21 23.7167 21 24V25H28C28.2833 25 28.5208 25.0958 28.7125 25.2875C28.9042 25.4792 29 25.7167 29 26C29 26.2833 28.9042 26.5208 28.7125 26.7125C28.5208 26.9042 28.2833 27 28 27H21V28C21 28.2833 20.9042 28.5208 20.7125 28.7125C20.5208 28.9042 20.2833 29 20 29ZM12 27C11.7167 27 11.4792 26.9042 11.2875 26.7125C11.0958 26.5208 11 26.2833 11 26C11 25.7167 11.0958 25.4792 11.2875 25.2875C11.4792 25.0958 11.7167 25 12 25H16C16.2833 25 16.5208 25.0958 16.7125 25.2875C16.9042 25.4792 17 25.7167 17 26C17 26.2833 16.9042 26.5208 16.7125 26.7125C16.5208 26.9042 16.2833 27 16 27H12ZM16 23C15.7167 23 15.4792 22.9042 15.2875 22.7125C15.0958 22.5208 15 22.2833 15 22V21H12C11.7167 21 11.4792 20.9042 11.2875 20.7125C11.0958 20.5208 11 20.2833 11 20C11 19.7167 11.0958 19.4792 11.2875 19.2875C11.4792 19.0958 11.7167 19 12 19H15V18C15 17.7167 15.0958 17.4792 15.2875 17.2875C15.4792 17.0958 15.7167 17 16 17C16.2833 17 16.5208 17.0958 16.7125 17.2875C16.9042 17.4792 17 17.7167 17 18V22C17 22.2833 16.9042 22.5208 16.7125 22.7125C16.5208 22.9042 16.2833 23 16 23ZM20 21C19.7167 21 19.4792 20.9042 19.2875 20.7125C19.0958 20.5208 19 20.2833 19 20C19 19.7167 19.0958 19.4792 19.2875 19.2875C19.4792 19.0958 19.7167 19 20 19H28C28.2833 19 28.5208 19.0958 28.7125 19.2875C28.9042 19.4792 29 19.7167 29 20C29 20.2833 28.9042 20.5208 28.7125 20.7125C28.5208 20.9042 28.2833 21 28 21H20ZM24 17C23.7167 17 23.4792 16.9042 23.2875 16.7125C23.0958 16.5208 23 16.2833 23 16V12C23 11.7167 23.0958 11.4792 23.2875 11.2875C23.4792 11.0958 23.7167 11 24 11C24.2833 11 24.5208 11.0958 24.7125 11.2875C24.9042 11.4792 25 11.7167 25 12V13H28C28.2833 13 28.5208 13.0958 28.7125 13.2875C28.9042 13.4792 29 13.7167 29 14C29 14.2833 28.9042 14.5208 28.7125 14.7125C28.5208 14.9042 28.2833 15 28 15H25V16C25 16.2833 24.9042 16.5208 24.7125 16.7125C24.5208 16.9042 24.2833 17 24 17ZM12 15C11.7167 15 11.4792 14.9042 11.2875 14.7125C11.0958 14.5208 11 14.2833 11 14C11 13.7167 11.0958 13.4792 11.2875 13.2875C11.4792 13.0958 11.7167 13 12 13H20C20.2833 13 20.5208 13.0958 20.7125 13.2875C20.9042 13.4792 21 13.7167 21 14C21 14.2833 20.9042 14.5208 20.7125 14.7125C20.5208 14.9042 20.2833 15 20 15H12Z"
        fill="#007AFF" />
</svg>
