<svg width="28" height="28" viewBox="0 0 28 28" fill="none" xmlns="http://www.w3.org/2000/svg">
    <path
        d="M20.3492 21.7593C20.7686 22.1187 21.3999 22.0701 21.7593 21.6508C22.1187 21.2315 22.0701 20.6002 21.6508 20.2407L14.6508 14.2407C14.2763 13.9198 13.7237 13.9198 13.3492 14.2407L6.34923 20.2407C5.9299 20.6002 5.88134 21.2315 6.24076 21.6508C6.60018 22.0701 7.23148 22.1187 7.65081 21.7593L14 16.3171L20.3492 21.7593Z"
        fill="black" />
    <path
        d="M20.3492 14.7593C20.7686 15.1187 21.3999 15.0701 21.7593 14.6508C22.1187 14.2315 22.0701 13.6002 21.6508 13.2407L14.6508 7.24074C14.2763 6.91975 13.7237 6.91975 13.3492 7.24074L6.34923 13.2407C5.9299 13.6002 5.88134 14.2315 6.24076 14.6508C6.60018 15.0701 7.23148 15.1187 7.65081 14.7593L14 9.31708L20.3492 14.7593Z"
        fill="black" />
</svg>
