<svg width="16" height="16" viewBox="0 0 16 16" fill="none" xmlns="http://www.w3.org/2000/svg">
<path d="M2.37282 16H13.6273C14.9008 16 15.9365 14.9643 15.9365 13.6913V6.74368C15.9365 6.11726 15.6785 5.51248 15.2294 5.08412C15.1915 5.06481 9.43134 0.498567 9.43134 0.498567C8.58869 -0.166692 7.41144 -0.165686 6.56882 0.498567L0.864436 5.00095C0.378424 5.44784 0.0586148 6.0667 0.0636574 6.74368V13.6913C0.0636574 14.9643 1.09929 16 2.37282 16ZM7.52837 1.7141C7.80556 1.49437 8.1946 1.49437 8.47179 1.7141L13.4066 5.60824L8.47179 9.50237C8.1946 9.72209 7.80556 9.72209 7.52837 9.50237L2.59355 5.60825L7.52837 1.7141ZM1.61182 6.80586L6.56882 10.7179C7.41137 11.3829 8.58869 11.3822 9.43134 10.7179L14.3883 6.80586V13.6913C14.3883 14.1106 14.0471 14.4518 13.6273 14.4518H2.37282C1.95299 14.4518 1.61182 14.1106 1.61182 13.6913V6.80586Z" fill="#007AFF"/>
</svg>
