<svg width="19" height="19" viewBox="0 0 19 19" fill="none" xmlns="http://www.w3.org/2000/svg">
    <path
        d="M9.23078 16.9231C4.99231 16.9231 1.53847 13.4692 1.53847 9.23077C1.53847 4.99231 4.99231 1.53846 9.23078 1.53846C13.4692 1.53846 16.9231 4.64615 16.9231 8.46154C16.9231 11.0077 14.8539 13.0769 12.3077 13.0769H10.9462C10.7308 13.0769 10.5615 13.2462 10.5615 13.4615C10.5615 13.5538 10.6 13.6385 10.6615 13.7154C10.9769 14.0769 11.1539 14.5308 11.1539 15C11.1539 16.0615 10.2923 16.9231 9.23078 16.9231ZM9.23078 3.07692C5.83847 3.07692 3.07693 5.83846 3.07693 9.23077C3.07693 12.6231 5.83847 15.3846 9.23078 15.3846C9.44616 15.3846 9.61539 15.2154 9.61539 15C9.61539 14.8769 9.55385 14.7846 9.5077 14.7308C9.19231 14.3769 9.02308 13.9231 9.02308 13.4615C9.02308 12.4 9.88462 11.5385 10.9462 11.5385H12.3077C14.0077 11.5385 15.3846 10.1615 15.3846 8.46154C15.3846 5.49231 12.6231 3.07692 9.23078 3.07692Z"
        fill="#1C1B1F" />
    <path
        d="M5.00001 10C5.63726 10 6.15385 9.4834 6.15385 8.84615C6.15385 8.2089 5.63726 7.69231 5.00001 7.69231C4.36275 7.69231 3.84616 8.2089 3.84616 8.84615C3.84616 9.4834 4.36275 10 5.00001 10Z"
        fill="#1C1B1F" />
    <path
        d="M7.3077 6.92308C7.94495 6.92308 8.46154 6.40648 8.46154 5.76923C8.46154 5.13198 7.94495 4.61538 7.3077 4.61538C6.67045 4.61538 6.15385 5.13198 6.15385 5.76923C6.15385 6.40648 6.67045 6.92308 7.3077 6.92308Z"
        fill="#1C1B1F" />
    <path
        d="M11.1539 6.92308C11.7911 6.92308 12.3077 6.40648 12.3077 5.76923C12.3077 5.13198 11.7911 4.61538 11.1539 4.61538C10.5166 4.61538 10 5.13198 10 5.76923C10 6.40648 10.5166 6.92308 11.1539 6.92308Z"
        fill="#1C1B1F" />
    <path
        d="M13.4615 10C14.0988 10 14.6154 9.4834 14.6154 8.84615C14.6154 8.2089 14.0988 7.69231 13.4615 7.69231C12.8243 7.69231 12.3077 8.2089 12.3077 8.84615C12.3077 9.4834 12.8243 10 13.4615 10Z"
        fill="#1C1B1F" />
</svg>
