<svg width="29" height="28" viewBox="0 0 29 28" fill="none" xmlns="http://www.w3.org/2000/svg">
<path d="M14.3418 21C15.419 21 16.3545 20.8288 17.1484 20.4863C17.9422 20.1439 18.5586 19.6598 18.9976 19.034C19.4366 18.4083 19.656 17.6782 19.656 16.8439C19.656 15.8352 19.3369 15.0429 18.6987 14.467C18.0605 13.891 17.0472 13.4474 15.6587 13.1361L14.0616 12.7718C13.1526 12.5602 12.4941 12.3064 12.0863 12.0107C11.6785 11.7149 11.4746 11.3211 11.4746 10.8292C11.4746 10.4307 11.5975 10.0758 11.8435 9.76451C12.0894 9.45319 12.4272 9.21192 12.8568 9.04069C13.2865 8.86947 13.7783 8.78386 14.3325 8.78386C14.8306 8.78386 15.2789 8.8539 15.6774 8.994C16.0759 9.13409 16.4183 9.34267 16.7047 9.61975C16.9911 9.89682 17.2215 10.2377 17.3959 10.6424C17.6013 11.0036 17.9002 11.1841 18.2925 11.1841C18.5789 11.1841 18.8061 11.1032 18.9742 10.9413C19.1424 10.7794 19.2264 10.5646 19.2264 10.2969C19.2264 10.2221 19.2217 10.1459 19.2124 10.068C19.2031 9.99022 19.1859 9.91083 19.161 9.82989C19.0116 9.26951 18.7127 8.77763 18.2644 8.35424C17.8161 7.93084 17.2542 7.59929 16.5786 7.35957C15.9031 7.11986 15.1544 7 14.3325 7C13.3549 7 12.4864 7.16967 11.7267 7.50901C10.9671 7.84834 10.371 8.31999 9.93822 8.92395C9.50549 9.52791 9.28912 10.2221 9.28912 11.0067C9.28912 11.9593 9.59888 12.7298 10.2184 13.3182C10.8379 13.9066 11.789 14.344 13.0716 14.6304L14.8275 15.032C15.7677 15.2562 16.4432 15.5255 16.8542 15.8399C17.2651 16.1543 17.4706 16.573 17.4706 17.0961C17.4706 17.507 17.3383 17.8728 17.0736 18.1935C16.809 18.5141 16.4417 18.7663 15.9716 18.95C15.5015 19.1336 14.9582 19.2255 14.3418 19.2255C13.8001 19.2255 13.3051 19.1477 12.8568 18.992C12.4085 18.8363 12.0225 18.6106 11.6987 18.3149C11.375 18.0191 11.1259 17.6689 10.9516 17.2642C10.8395 17.0587 10.7165 16.9093 10.5826 16.8159C10.4488 16.7225 10.276 16.6758 10.0643 16.6758C9.77166 16.6758 9.53973 16.7598 9.36851 16.928C9.19728 17.0961 9.11167 17.3202 9.11167 17.6004C9.11167 17.7934 9.13969 17.9864 9.19572 18.1795C9.37006 18.7585 9.69539 19.2582 10.1717 19.6785C10.648 20.0987 11.2426 20.4241 11.9556 20.6544C12.6685 20.8848 13.4639 21 14.3418 21ZM6.93555 14.4343H21.8135C21.9567 14.4343 22.0781 14.3829 22.1777 14.2802C22.2773 14.1775 22.3271 14.0576 22.3271 13.9206C22.3271 13.7836 22.2773 13.6638 22.1777 13.561C22.0781 13.4583 21.9567 13.4069 21.8135 13.4069H6.93555C6.79234 13.4069 6.67093 13.4583 6.57131 13.561C6.47169 13.6638 6.42188 13.7836 6.42188 13.9206C6.42188 14.0576 6.47169 14.1775 6.57131 14.2802C6.67093 14.3829 6.79234 14.4343 6.93555 14.4343Z" fill="#99A2AD"/>
</svg>
