<svg width="65" height="64" viewBox="0 0 65 64" fill="none" xmlns="http://www.w3.org/2000/svg">
<rect x="0.5" width="64" height="64" rx="16" fill="#FF3B30" fill-opacity="0.12"/>
<path d="M32.4888 43.4927C34.076 43.4927 35.5697 43.1895 36.9697 42.583C38.3698 41.984 39.6051 41.1493 40.6758 40.0786C41.7464 39.008 42.585 37.7726 43.1914 36.3726C43.7979 34.9725 44.1011 33.4788 44.1011 31.8916C44.1011 30.3044 43.7979 28.8107 43.1914 27.4106C42.585 26.0106 41.7464 24.779 40.6758 23.7158C39.6051 22.6452 38.3698 21.8066 36.9697 21.2002C35.5697 20.5938 34.0723 20.2905 32.4775 20.2905C30.8903 20.2905 29.3966 20.5938 27.9966 21.2002C26.604 21.8066 25.3724 22.6452 24.3018 23.7158C23.2386 24.779 22.4038 26.0106 21.7974 27.4106C21.1909 28.8107 20.8877 30.3044 20.8877 31.8916C20.8877 33.4788 21.1909 34.9725 21.7974 36.3726C22.4038 37.7726 23.2386 39.008 24.3018 40.0786C25.3724 41.1493 26.6077 41.984 28.0078 42.583C29.4079 43.1895 30.9015 43.4927 32.4888 43.4927ZM32.4888 41.2017C31.201 41.2017 29.9919 40.9621 28.8613 40.4829C27.7383 40.0037 26.75 39.3374 25.8965 38.4839C25.0505 37.6304 24.3879 36.6421 23.9087 35.519C23.4295 34.396 23.1899 33.1868 23.1899 31.8916C23.1899 30.6038 23.4295 29.3984 23.9087 28.2754C24.3879 27.1449 25.0505 26.1528 25.8965 25.2993C26.7425 24.4458 27.7271 23.7795 28.8501 23.3003C29.9806 22.8211 31.1898 22.5815 32.4775 22.5815C33.7728 22.5815 34.9819 22.8211 36.105 23.3003C37.228 23.7795 38.2163 24.4458 39.0698 25.2993C39.9308 26.1528 40.6009 27.1449 41.0801 28.2754C41.5592 29.3984 41.7988 30.6038 41.7988 31.8916C41.7988 33.1868 41.5592 34.396 41.0801 35.519C40.6009 36.6421 39.9346 37.6304 39.0811 38.4839C38.235 39.3374 37.2467 40.0037 36.1162 40.4829C34.9932 40.9621 33.784 41.2017 32.4888 41.2017ZM29.2095 37.0352C29.4341 37.0352 29.6138 36.9902 29.7485 36.9004C29.8908 36.8105 30.048 36.6458 30.2202 36.4062L32.4214 33.2168H32.4775L34.6787 36.4062C34.8359 36.6383 34.9857 36.8031 35.1279 36.9004C35.2702 36.9902 35.4461 37.0352 35.6558 37.0352C35.9552 37.0352 36.1986 36.9491 36.3857 36.7769C36.5804 36.5972 36.6777 36.3688 36.6777 36.0918C36.6777 35.8447 36.5879 35.6051 36.4082 35.373L33.7803 31.8018L36.4307 28.2192C36.6104 27.9797 36.7002 27.7401 36.7002 27.5005C36.7002 27.2384 36.6066 27.0213 36.4194 26.8491C36.2323 26.6694 35.9964 26.5796 35.7119 26.5796C35.5023 26.5796 35.3226 26.6283 35.1729 26.7256C35.0306 26.8154 34.8883 26.9727 34.7461 27.1973L32.6123 30.3867H32.5449L30.3662 27.1973C30.209 26.9652 30.0555 26.8042 29.9058 26.7144C29.7635 26.6245 29.5838 26.5796 29.3667 26.5796C29.0822 26.5796 28.8426 26.6732 28.6479 26.8604C28.4533 27.0475 28.356 27.2721 28.356 27.5342C28.356 27.7887 28.4495 28.0433 28.6367 28.2979L31.1636 31.7568L28.502 35.418C28.3372 35.6501 28.2549 35.8859 28.2549 36.1255C28.2549 36.3875 28.3447 36.6047 28.5244 36.7769C28.7116 36.9491 28.9399 37.0352 29.2095 37.0352Z" fill="#FF3B30"/>
</svg>
