<svg width="20" height="20" viewBox="0 0 20 20" fill="none" xmlns="http://www.w3.org/2000/svg">
<path fill-rule="evenodd" clip-rule="evenodd" d="M7.53764 2.89703C7.36955 2.85667 7.19874 2.85713 7.06309 2.85749L7.02663 2.85756L5.54195 2.85756C4.96697 2.85755 4.49242 2.85754 4.10586 2.88913C3.70436 2.92193 3.33529 2.99233 2.98862 3.16897C2.45101 3.44289 2.01392 3.87998 1.74 4.41759C1.56336 4.76425 1.49296 5.13333 1.46016 5.53483C1.42857 5.92139 1.42858 6.39593 1.42859 6.9709V13.0299C1.42858 13.6049 1.42857 14.0794 1.46016 14.466C1.49296 14.8675 1.56336 15.2366 1.74 15.5832C2.01392 16.1209 2.45101 16.5579 2.98862 16.8319C3.33528 17.0085 3.70436 17.0789 4.10586 17.1117C4.49242 17.1433 4.96696 17.1433 5.54193 17.1433H14.4581C15.0331 17.1433 15.5076 17.1433 15.8942 17.1117C16.2957 17.0789 16.6648 17.0085 17.0114 16.8319C17.549 16.5579 17.9861 16.1209 18.26 15.5832C18.4367 15.2366 18.5071 14.8675 18.5399 14.466C18.5715 14.0794 18.5715 13.6049 18.5714 13.0299V8.75661C18.5715 8.18164 18.5715 7.7071 18.5399 7.32054C18.5071 6.91904 18.4367 6.54997 18.26 6.2033C17.9861 5.66569 17.549 5.22861 17.0114 4.95468C16.6648 4.77805 16.2957 4.70764 15.8942 4.67484C15.5076 4.64326 15.0331 4.64326 14.4581 4.64327L9.75912 4.64327C9.66555 4.64327 9.61885 4.6431 9.58492 4.64155L9.58236 4.64143L9.58047 4.6397C9.55538 4.61681 9.52224 4.58391 9.45607 4.51775L8.33983 3.4015L8.3141 3.37568C8.21843 3.2795 8.09797 3.1584 7.95058 3.06807C7.82276 2.98975 7.68341 2.93203 7.53764 2.89703ZM7.02663 4.28613C7.1202 4.28613 7.1669 4.2863 7.20083 4.28785L7.20339 4.28797L7.20528 4.2897C7.23037 4.31259 7.26351 4.34549 7.32968 4.41166L8.44592 5.5279L8.47165 5.55373C8.56732 5.6499 8.68778 5.77101 8.83517 5.86133C8.96299 5.93966 9.10234 5.99738 9.24811 6.03237C9.4162 6.07273 9.58701 6.07227 9.72266 6.07191L9.75912 6.07184H14.4286C15.0404 6.07184 15.4564 6.0724 15.7778 6.09867C16.091 6.12425 16.2511 6.17063 16.3629 6.22755C16.6317 6.36451 16.8502 6.58306 16.9872 6.85186C17.0441 6.96357 17.0905 7.12372 17.1161 7.43687C17.1262 7.56106 17.1325 7.69934 17.1364 7.85755H2.85716V7.00042C2.85716 6.38857 2.85772 5.97265 2.88398 5.65116C2.90957 5.338 2.95594 5.17786 3.01287 5.06614C3.14983 4.79734 3.36837 4.5788 3.63717 4.44183C3.74889 4.38491 3.90903 4.33854 4.22219 4.31295C4.54368 4.28669 4.9596 4.28613 5.57145 4.28613H7.02663ZM2.85716 9.28612V13.0004C2.85716 13.6123 2.85772 14.0282 2.88398 14.3497C2.90957 14.6628 2.95594 14.823 3.01287 14.9347C3.14983 15.2035 3.36837 15.422 3.63717 15.559C3.74889 15.6159 3.90903 15.6623 4.22219 15.6879C4.54368 15.7141 4.9596 15.7147 5.57145 15.7147H14.4286C15.0404 15.7147 15.4564 15.7141 15.7778 15.6879C16.091 15.6623 16.2511 15.6159 16.3629 15.559C16.6317 15.422 16.8502 15.2035 16.9872 14.9347C17.0441 14.823 17.0905 14.6628 17.1161 14.3497C17.1423 14.0282 17.1429 13.6123 17.1429 13.0004V9.28612H2.85716Z" fill="#007AFF"/>
</svg>
