<svg width="28" height="28" viewBox="0 0 28 28" fill="none" xmlns="http://www.w3.org/2000/svg">
<path d="M13.7298 20.9716C14.4148 20.9716 14.908 20.5081 14.908 19.8459C14.908 19.6284 14.8624 19.4108 14.7528 19.0986L10.9166 8.31486C10.5878 7.3973 10.058 7 9.19031 7C8.33174 7 7.80199 7.41622 7.4823 8.32432L3.65527 19.0986C3.54567 19.3919 3.5 19.6568 3.5 19.8459C3.5 20.5365 3.96582 20.9716 4.68738 20.9716C5.29934 20.9716 5.64643 20.6595 5.86564 19.9216L6.73334 17.3297H11.6564L12.5241 19.9405C12.7342 20.6689 13.0904 20.9716 13.7298 20.9716ZM11.081 15.4H7.2905L9.14464 9.57297H9.20858L11.081 15.4ZM23.3948 21C24.0342 21 24.5 20.5743 24.5 19.8176V13.9054C24.5 11.8905 22.9381 10.5757 20.536 10.5757C18.6818 10.5757 17.1839 11.3135 16.6907 12.477C16.5902 12.6946 16.5354 12.9027 16.5354 13.1203C16.5354 13.6878 16.9373 14.0662 17.4944 14.0662C17.878 14.0662 18.1795 13.9149 18.4169 13.5932C18.9832 12.7324 19.5587 12.4203 20.4446 12.4203C21.5681 12.4203 22.2531 13.0257 22.2531 14.0757V14.7946L19.6865 14.9459C17.33 15.0973 16.0056 16.1662 16.0056 17.9446C16.0056 19.7514 17.3666 20.9716 19.239 20.9716C20.4903 20.9716 21.7051 20.3 22.2622 19.2122H22.3079V19.9122C22.3444 20.6122 22.7737 21 23.3948 21ZM19.9331 19.1932C18.9467 19.1932 18.2799 18.673 18.2799 17.85C18.2799 17.0554 18.9102 16.5446 20.0062 16.4689L22.2531 16.327V17.0932C22.2531 18.3041 21.2119 19.1932 19.9331 19.1932Z" fill="#99A2AD"/>
</svg>
