<svg width="80" height="80" viewBox="0 0 80 80" fill="none" xmlns="http://www.w3.org/2000/svg">
<path d="M24.1735 8.5H47.9664L68.4733 29.0068V59.2002C68.4732 65.9932 62.9665 71.5 56.1735 71.5H24.1735C17.3805 71.4999 11.8738 65.9931 11.8737 59.2002V20.7998C11.8738 14.113 17.2098 8.67235 23.8561 8.50391L24.1735 8.5Z" fill="#FDF5F5" stroke="#E50000"/>
<rect x="26" y="48" width="23" height="3" rx="1.5" fill="#E50000"/>
<rect x="23" y="55" width="30" height="3" rx="1.5" fill="#E50000"/>
<g clip-path="url(#clip0_7058_11193)">
<path d="M40.0309 37.7609C39.4638 38.1762 38.7646 38.4217 38.0079 38.4217C36.1138 38.4217 34.5783 36.8862 34.5783 34.9921C34.5783 33.2773 35.8368 31.8566 37.4805 31.6029V26C32.7541 26.2735 29 30.1976 29 34.9921C29 39.9637 33.0363 44 38.0079 44C40.3038 44 42.4 43.1387 43.9922 41.7222L40.0309 37.7609Z" fill="#E50000"/>
<path d="M41.3971 35.5194C41.3117 36.0729 41.0938 36.5826 40.777 37.0154L44.738 40.9764C46.0453 39.507 46.8792 37.6082 47 35.5194H41.3971ZM38.5353 31.6029C40.0071 31.83 41.17 32.9929 41.3972 34.4648H44.1986H47C46.7367 29.9128 43.0872 26.2634 38.5353 26V31.6029Z" fill="#E50000"/>
</g>
<path d="M68.9737 29.6L47.3737 8V19.1724C47.3737 24.9314 51.8866 29.6 57.4537 29.6H68.9737Z" fill="#E50000"/>
<defs>
<clipPath id="clip0_7058_11193">
<rect width="18" height="18" fill="white" transform="translate(29 26)"/>
</clipPath>
</defs>
</svg>
