<svg width="20" height="20" viewBox="0 0 20 20" fill="none" xmlns="http://www.w3.org/2000/svg">
    <path fill-rule="evenodd" clip-rule="evenodd"
        d="M15.5604 4.44057C15.8132 4.69337 15.8132 5.10323 15.5604 5.35602L12.9253 7.99106L14.3821 7.99106C14.7396 7.99106 15.0294 8.28087 15.0294 8.63838C15.0294 8.99588 14.7396 9.2857 14.3821 9.2857H11.3625C11.005 9.2857 10.7152 8.99588 10.7152 8.63838V5.61755C10.7152 5.26004 11.005 4.97023 11.3625 4.97023C11.7201 4.97023 12.0099 5.26004 12.0099 5.61755V7.07561L14.6449 4.44057C14.8977 4.18778 15.3076 4.18778 15.5604 4.44057Z"
        fill="#424244" fill-opacity="0.72" />
    <path fill-rule="evenodd" clip-rule="evenodd"
        d="M4.97118 11.3616C4.97118 11.0041 5.261 10.7143 5.6185 10.7143H8.63935C8.99686 10.7143 9.28668 11.0041 9.28668 11.3616V14.3824C9.28668 14.7399 8.99686 15.0298 8.63935 15.0298C8.28185 15.0298 7.99203 14.7399 7.99203 14.3824L7.99203 12.9244L5.357 15.5594C5.10421 15.8122 4.69434 15.8122 4.44155 15.5594C4.18875 15.3066 4.18875 14.8967 4.44155 14.644L7.07658 12.0089H5.6185C5.261 12.0089 4.97118 11.7191 4.97118 11.3616Z"
        fill="#424244" fill-opacity="0.72" />
</svg>
