<svg width="16" height="16" viewBox="0 0 16 16" fill="none" xmlns="http://www.w3.org/2000/svg">
    <path
        d="M7.99996 1.14285C11.7871 1.14285 14.8571 4.2129 14.8571 8C14.8571 11.7871 11.7871 14.8571 7.99996 14.8571C4.21287 14.8571 1.14282 11.7871 1.14282 8C1.14282 4.2129 4.21287 1.14285 7.99996 1.14285ZM7.99996 2.28571C4.84405 2.28571 2.28568 4.84408 2.28568 8C2.28568 11.1559 4.84405 13.7143 7.99996 13.7143C11.1559 13.7143 13.7143 11.1559 13.7143 8C13.7143 4.84408 11.1559 2.28571 7.99996 2.28571ZM7.99996 10.0571C8.44179 10.0571 8.79996 10.4153 8.79996 10.8571C8.79996 11.299 8.44179 11.6571 7.99996 11.6571C7.55814 11.6571 7.19997 11.299 7.19997 10.8571C7.19997 10.4153 7.55814 10.0571 7.99996 10.0571ZM8.04203 4.57142C8.1778 4.57142 8.26303 4.59264 8.33753 4.63248C8.41203 4.67232 8.47049 4.73079 8.51033 4.80529C8.55018 4.87979 8.57139 4.96501 8.57139 5.10078V8.61349C8.57139 8.74926 8.55018 8.83449 8.51033 8.90899C8.47049 8.98349 8.41203 9.04195 8.33753 9.08179C8.26303 9.12163 8.1778 9.14285 8.04203 9.14285H7.9579C7.82212 9.14285 7.7369 9.12163 7.6624 9.08179C7.5879 9.04195 7.52944 8.98349 7.4896 8.90899C7.44975 8.83449 7.42854 8.74926 7.42854 8.61349V5.10078C7.42854 4.96501 7.44975 4.87979 7.4896 4.80529C7.52944 4.73079 7.5879 4.67232 7.6624 4.63248C7.7369 4.59264 7.82212 4.57142 7.9579 4.57142H8.04203Z"
        fill="#FF3347" />
</svg>
