<svg width="20" height="20" viewBox="0 0 20 20" fill="none" xmlns="http://www.w3.org/2000/svg">
    <path
        d="M10 13.6988L14.0643 16.1812C14.0974 16.2014 14.137 16.2077 14.1746 16.1987C14.2533 16.1799 14.3019 16.1009 14.2831 16.0223L13.1781 11.3898L16.795 8.29152C16.8244 8.26635 16.8426 8.23058 16.8457 8.19201C16.8521 8.1114 16.792 8.04081 16.7114 8.03435L11.9642 7.65377L10.1352 3.25648C10.1204 3.22076 10.092 3.19237 10.0563 3.17752C9.9816 3.14646 9.8959 3.18181 9.86484 3.25648L8.03591 7.65377L3.28867 8.03435C3.25011 8.03744 3.21433 8.05567 3.18916 8.08505C3.13655 8.14647 3.14369 8.23891 3.20511 8.29152L6.822 11.3898L5.71698 16.0223C5.70801 16.0599 5.71429 16.0996 5.73445 16.1326C5.77661 16.2016 5.86673 16.2234 5.93574 16.1812L10 13.6988ZM10 15.3727L6.68039 17.4004C5.93806 17.8538 4.96872 17.6196 4.51531 16.8772C4.2984 16.5221 4.23085 16.0956 4.3274 15.6908L5.22996 11.9071L2.27574 9.37646C1.61513 8.81057 1.53834 7.8163 2.10422 7.15568C2.37494 6.83966 2.75971 6.6436 3.17451 6.61035L7.05197 6.29949L8.54581 2.70787C8.87986 1.90472 9.80174 1.52444 10.6049 1.85849C10.9891 2.01829 11.2945 2.32365 11.4543 2.70787L12.9481 6.29949L16.8256 6.61035C17.6926 6.67986 18.3392 7.43911 18.2697 8.30617C18.2364 8.72097 18.0404 9.10575 17.7243 9.37646L14.7701 11.9071L15.6727 15.6908C15.8745 16.5369 15.3522 17.3864 14.5061 17.5883C14.1013 17.6848 13.6748 17.6173 13.3197 17.4004L10 15.3727Z"
        fill="#007AFF" />
</svg>
