<svg width="48" height="48" viewBox="0 0 48 48" fill="none" xmlns="http://www.w3.org/2000/svg">
<circle cx="24" cy="24" r="24" fill="#007AFF" fill-opacity="0.06"/>
<path d="M32.5 20C32.5 18.0662 30.9338 16.5 29 16.5C27.0662 16.5 25.5 18.0662 25.5 20C25.5 21.9338 27.0662 23.5 29 23.5C30.9338 23.5 32.5 21.9338 32.5 20ZM29 25C31.4706 25 36 25.8571 36 29.2857C36 30.7857 35.5882 31 34.7647 31L27.7546 31.0011C27.9174 30.5134 28 29.9402 28 29.2857C28 27.5963 27.3723 26.2767 26.3292 25.2922C27.2862 25.081 28.2404 25 29 25ZM19 25C21.4706 25 26 25.8571 26 29.2857C26 30.7857 25.5882 31 24.7647 31H13.2353C12.4118 31 12 30.7857 12 29.2857C12 25.8571 16.5294 25 19 25ZM19 16.5C20.9338 16.5 22.5 18.0662 22.5 20C22.5 21.9338 20.9338 23.5 19 23.5C17.0662 23.5 15.5 21.9338 15.5 20C15.5 18.0662 17.0662 16.5 19 16.5Z" fill="#007AFF"/>
</svg>
