<svg width="16" height="16" viewBox="0 0 16 16" fill="none" xmlns="http://www.w3.org/2000/svg">
<rect width="16" height="16" rx="8" fill="#FF3347"/>
<path d="M8.64111 4L8.53955 9.69922H7.45752L7.35596 4H8.64111ZM8.00049 12.0742C7.78434 12.0742 7.59945 11.9987 7.4458 11.8477C7.29215 11.694 7.21663 11.5091 7.21924 11.293C7.21663 11.0794 7.29215 10.8971 7.4458 10.7461C7.59945 10.5924 7.78434 10.5156 8.00049 10.5156C8.21143 10.5156 8.39372 10.5924 8.54736 10.7461C8.70101 10.8971 8.77913 11.0794 8.78174 11.293C8.77913 11.4362 8.74137 11.5677 8.66846 11.6875C8.59814 11.8047 8.50439 11.8984 8.38721 11.9687C8.27002 12.0391 8.14111 12.0742 8.00049 12.0742Z" fill="white"/>
</svg>
