<svg width="24" height="24" viewBox="0 0 24 24" fill="none" xmlns="http://www.w3.org/2000/svg">
    <path fill-rule="evenodd" clip-rule="evenodd"
        d="M18.67 2.85888C17.9366 2.48519 17.0686 2.48519 16.3352 2.85888C15.9685 3.04574 15.6496 3.3654 15.2807 3.73523L4.00853 15.0075C3.705 15.3109 3.48695 15.5289 3.3078 15.7754C2.95002 16.2679 2.71386 16.838 2.61864 17.4392C2.57097 17.7402 2.57104 18.0485 2.57114 18.4777L2.57115 19.3714L2.57098 19.4408C2.5701 19.6823 2.56902 19.9792 2.65506 20.244C2.82463 20.7659 3.2338 21.1751 3.7557 21.3446C4.02049 21.4307 4.31737 21.4296 4.55889 21.4287L4.6283 21.4285L5.52202 21.4286C5.95115 21.4287 6.25945 21.4287 6.56048 21.3811C7.16168 21.2858 7.73181 21.0497 8.22426 20.6919C8.47083 20.5128 8.68877 20.2947 8.99214 19.9912L20.2645 8.71898C20.6343 8.35009 20.954 8.03123 21.1408 7.66451C21.5145 6.9311 21.5145 6.06312 21.1408 5.32971C20.954 4.96299 20.6343 4.64415 20.2645 4.27526L19.7245 3.73524C19.3556 3.3654 19.0367 3.04574 18.67 2.85888ZM17.1135 4.38632C17.3579 4.26176 17.6472 4.26176 17.8917 4.38632C17.9822 4.43242 18.0951 4.53041 18.5936 5.02882L18.9709 5.40615C19.4693 5.90456 19.5673 6.0175 19.6134 6.10797C19.7379 6.35244 19.7379 6.64177 19.6134 6.88624C19.5673 6.97671 19.4693 7.08966 18.9709 7.58807L18.2354 8.32352L15.6762 5.76427L16.4116 5.02883C16.91 4.53041 17.023 4.43242 17.1135 4.38632ZM14.464 6.97645L5.26454 16.1759C4.89986 16.5406 4.78459 16.6593 4.69469 16.7831C4.49592 17.0566 4.36472 17.3734 4.31182 17.7074C4.2879 17.8585 4.28544 18.0239 4.28544 18.5397V19.3714C4.28544 19.5403 4.28574 19.6326 4.28941 19.6997L4.29 19.7097L4.29999 19.7103C4.36708 19.714 4.45942 19.7143 4.6283 19.7143H5.46003C5.97576 19.7143 6.14123 19.7118 6.2923 19.6879C6.6263 19.635 6.94304 19.5038 7.21663 19.305C7.34037 19.2151 7.45911 19.0998 7.82379 18.7352L17.0232 9.5357L14.464 6.97645Z"
        fill="#007AFF" />
</svg>
