<svg width="48" height="48" viewBox="0 0 48 48" fill="none" xmlns="http://www.w3.org/2000/svg">
<circle cx="24" cy="24" r="24" fill="#007AFF" fill-opacity="0.06"/>
<path d="M21.22 24.8569C21.8886 24.8569 22.1311 24.9265 22.3755 25.0572C22.62 25.1879 22.8118 25.3798 22.9425 25.6242C23.0733 25.8687 23.1429 26.1111 23.1429 26.7798V30.6482C23.1429 31.3169 23.0733 31.5593 22.9425 31.8038C22.8118 32.0482 22.62 32.2401 22.3755 32.3708C22.1311 32.5015 21.8886 32.5712 21.22 32.5712H17.3515C16.6829 32.5712 16.4404 32.5015 16.196 32.3708C15.9515 32.2401 15.7597 32.0482 15.6289 31.8038C15.4982 31.5593 15.4286 31.3169 15.4286 30.6482V26.7798C15.4286 26.1111 15.4982 25.8687 15.6289 25.6242C15.7597 25.3798 15.9515 25.1879 16.196 25.0572C16.4404 24.9265 16.6829 24.8569 17.3515 24.8569H21.22ZM30.6485 24.8569C31.3172 24.8569 31.5596 24.9265 31.8041 25.0572C32.0485 25.1879 32.2404 25.3798 32.3711 25.6242C32.5018 25.8687 32.5714 26.1111 32.5714 26.7798V30.6482C32.5714 31.3169 32.5018 31.5593 32.3711 31.8038C32.2404 32.0482 32.0485 32.2401 31.8041 32.3708C31.5596 32.5015 31.3172 32.5712 30.6485 32.5712H26.7801C26.1114 32.5712 25.869 32.5015 25.6245 32.3708C25.3801 32.2401 25.1882 32.0482 25.0575 31.8038C24.9268 31.5593 24.8572 31.3169 24.8572 30.6482V26.7798C24.8572 26.1111 24.9268 25.8687 25.0575 25.6242C25.1882 25.3798 25.3801 25.1879 25.6245 25.0572C25.869 24.9265 26.1114 24.8569 26.7801 24.8569H30.6485ZM29.1152 14.5149C29.3805 14.5953 29.6012 14.7175 30.074 15.1903L32.8094 17.9257C33.2822 18.3985 33.4044 18.6192 33.4848 18.8845C33.5653 19.1498 33.5653 19.4211 33.4848 19.6864C33.4044 19.9517 33.2822 20.1723 32.8094 20.6451L30.074 23.3806C29.6012 23.8534 29.3805 23.9756 29.1152 24.056C28.85 24.1364 28.5787 24.1364 28.3134 24.056C28.0481 23.9756 27.8274 23.8534 27.3546 23.3806L24.6192 20.6451C24.1464 20.1723 24.0242 19.9517 23.9438 19.6864C23.8633 19.4211 23.8633 19.1498 23.9438 18.8845C24.0242 18.6192 24.1464 18.3985 24.6192 17.9257L27.3546 15.1903C27.8274 14.7175 28.0481 14.5953 28.3134 14.5149C28.5787 14.4345 28.85 14.4345 29.1152 14.5149ZM21.22 15.4283C21.8886 15.4283 22.1311 15.4979 22.3755 15.6286C22.62 15.7594 22.8118 15.9512 22.9425 16.1957C23.0733 16.4401 23.1429 16.6826 23.1429 17.3512V21.2197C23.1429 21.8883 23.0733 22.1308 22.9425 22.3752C22.8118 22.6197 22.62 22.8115 22.3755 22.9422C22.1311 23.073 21.8886 23.1426 21.22 23.1426H17.3515C16.6829 23.1426 16.4404 23.073 16.196 22.9422C15.9515 22.8115 15.7597 22.6197 15.6289 22.3752C15.4982 22.1308 15.4286 21.8883 15.4286 21.2197V17.3512C15.4286 16.6826 15.4982 16.4401 15.6289 16.1957C15.7597 15.9512 15.9515 15.7594 16.196 15.6286C16.4404 15.4979 16.6829 15.4283 17.3515 15.4283H21.22Z" fill="#007AFF"/>
</svg>
