<svg width="21" height="20" viewBox="0 0 21 20" fill="none" xmlns="http://www.w3.org/2000/svg">
<path fill-rule="evenodd" clip-rule="evenodd" d="M1.87874 3.27022C1.87874 2.66812 2.11792 2.09068 2.54367 1.66493C2.96942 1.23918 3.54686 1 4.14896 1H9.82451L12.0947 3.27022H17.7703C18.3724 3.27022 18.9498 3.5094 19.3756 3.93515C19.8013 4.3609 20.0405 4.93834 20.0405 5.54044V12.3511C20.0405 12.9532 19.8013 13.5306 19.3756 13.9564C18.9498 14.3821 18.3724 14.6213 17.7703 14.6213H11.6452C10.922 12.3187 8.77076 10.6485 6.22946 10.6485H2.44576C2.25439 10.6485 2.06524 10.6579 1.87874 10.6764V3.27022ZM2.13415 15.7163H7.26174L5.49063 17.4874C5.24298 17.7351 5.24298 18.1366 5.49063 18.3843C5.73828 18.6319 6.1398 18.6319 6.38745 18.3843L9.24112 15.5306C9.48877 15.2829 9.48877 14.8814 9.24112 14.6338L6.38745 11.7801C6.1398 11.5325 5.73828 11.5325 5.49063 11.7801C5.24298 12.0278 5.24298 12.4293 5.49063 12.6769L7.26174 14.448L2.13415 14.448C1.78392 14.448 1.5 14.732 1.5 15.0822C1.5 15.4324 1.78392 15.7163 2.13415 15.7163Z" fill="#007AFF"/>
</svg>
