<svg width="28" height="28" viewBox="0 0 28 28" fill="none" xmlns="http://www.w3.org/2000/svg">
    <path fill-rule="evenodd" clip-rule="evenodd"
        d="M19.1999 16.0207L18.0464 16.9435C17.9537 17.0177 17.8895 17.1215 17.8646 17.2376L16.5497 23.3718C16.1208 25.3725 13.9981 26.5094 12.095 25.7577C10.8307 25.2583 10 24.037 10 22.6777L10 19H9.5C7.31719 19 5.41363 18.3837 4.05292 17.0607C2.68741 15.7332 2 13.8219 2 11.5L2 10.5C2 8.17807 2.68741 6.26682 4.05293 4.93925C5.41364 3.61634 7.3172 3.00001 9.5 3.00001L19.182 3.00001C19.478 2.65316 19.8559 2.37888 20.2874 2.20552C20.5923 2.08299 20.8983 2.03883 21.1989 2.01888C21.4835 1.99998 21.8262 1.99999 22.2193 2L22.2806 2C22.6737 1.99999 23.0165 1.99998 23.3011 2.01888C23.6017 2.03883 23.9077 2.08299 24.2126 2.20552C24.9335 2.49517 25.5048 3.06653 25.7945 3.78736C25.917 4.09228 25.9612 4.3983 25.9811 4.6989C26 4.98347 26 5.32622 26 5.71932V13.2806C26 13.6737 26 14.0165 25.9811 14.3011C25.9612 14.6017 25.917 14.9077 25.7945 15.2126C25.5048 15.9335 24.9335 16.5048 24.2126 16.7945C23.9077 16.917 23.6017 16.9612 23.3011 16.9811C23.0165 17 22.6737 17 22.2806 17H22.2194C21.8263 17 21.4835 17 21.1989 16.9811C20.8983 16.9612 20.5923 16.917 20.2874 16.7945C19.8645 16.6246 19.4932 16.3578 19.1999 16.0207ZM14.5941 22.9526C14.4242 23.745 13.5835 24.1953 12.8298 23.8976C12.329 23.6998 12 23.2161 12 22.6777V18C12 17.4477 11.5523 17 11 17L9.5 17C7.68281 17 6.33637 16.4913 5.44708 15.6268C4.56259 14.7668 4 13.4281 4 11.5V10.5C4 8.57189 4.56259 7.23316 5.44708 6.37324C6.33636 5.50866 7.6828 5.00001 9.5 5.00001L18.5056 5.00001C18.5 5.21568 18.5 5.45626 18.5 5.71939L18.5 13.2806C18.5 13.5497 18.5 13.7952 18.506 14.0146L16.797 15.3818C16.3442 15.744 16.0306 16.2515 15.909 16.8184L14.5941 22.9526ZM23.4669 14.9387C23.4399 14.9496 23.3703 14.9721 23.1686 14.9855C22.9583 14.9995 22.6826 15 22.25 15C21.8174 15 21.5417 14.9995 21.3314 14.9855C21.1297 14.9721 21.0602 14.9496 21.0331 14.9387C20.8181 14.8523 20.6477 14.6819 20.5613 14.4669C20.5504 14.4399 20.5279 14.3703 20.5145 14.1686C20.5005 13.9583 20.5 13.6826 20.5 13.25V5.75C20.5 5.31743 20.5005 5.04173 20.5145 4.83141C20.5279 4.62975 20.5504 4.56015 20.5613 4.53307C20.6477 4.31809 20.8181 4.14768 21.0331 4.0613C21.0602 4.05042 21.1298 4.02787 21.3314 4.01448C21.5417 4.00052 21.8174 4 22.25 4C22.6826 4 22.9583 4.00052 23.1686 4.01448C23.3703 4.02787 23.4399 4.05042 23.4669 4.0613C23.6819 4.14768 23.8523 4.31809 23.9387 4.53307C23.9496 4.56015 23.9721 4.62975 23.9855 4.83141C23.9995 5.04173 24 5.31743 24 5.75V13.25C24 13.6826 23.9995 13.9583 23.9855 14.1686C23.9721 14.3703 23.9496 14.4399 23.9387 14.4669C23.8523 14.6819 23.6819 14.8523 23.4669 14.9387Z"
        fill="#007AFF" />
</svg>
