<svg width="178" height="88" viewBox="0 0 178 88" fill="none" xmlns="http://www.w3.org/2000/svg">
<path d="M94 72L94 16L106.544 16L106.544 72L94 72Z" fill="black"/>
<path d="M118.347 72L118.347 16L137.44 16C145.329 16 152.062 18.7343 157.637 24.2028C163.212 29.6714 166 36.2704 166 44C166 51.7296 163.212 58.3286 157.637 63.7972C152.062 69.2657 145.329 72 137.44 72L118.347 72ZM130.891 60.4845L137.44 60.4845C142.068 60.4845 145.855 58.907 148.801 55.7521C151.799 52.5446 153.298 48.6272 153.298 44C153.298 39.3728 151.799 35.4817 148.801 32.3268C145.855 29.1192 142.068 27.5155 137.44 27.5155L130.891 27.5155L130.891 60.4845Z" fill="black"/>
<rect x="7" y="7" width="74" height="74" rx="37" fill="white"/>
<rect x="7" y="7" width="74" height="74" rx="37" fill="url(#paint0_linear_19365_532)"/>
<rect x="7" y="7" width="74" height="74" rx="37" fill="url(#paint1_linear_19365_532)"/>
<rect x="7" y="7" width="74" height="74" rx="37" fill="url(#paint2_linear_19365_532)"/>
<path d="M43.878 20.1767C43.9013 20.1937 43.9281 20.2053 43.9564 20.2106C43.9702 20.2106 43.984 20.217 43.9988 20.218C44.1622 20.2349 44.3204 20.2851 44.4638 20.3653C44.5083 20.3875 44.5507 20.414 44.5941 20.4384L47.7774 22.2392L51.4999 24.3451C52.4003 24.8536 53.3 25.3628 54.199 25.8727C54.2552 25.9045 54.3113 25.9341 54.3654 25.968C54.7106 26.1791 54.9521 26.5247 55.0317 26.9214C55.0407 26.9633 55.046 27.0058 55.0476 27.0485C55.0476 27.1481 55.055 27.2477 55.055 27.3483L55.055 31.6471C55.055 33.2509 55.055 34.8547 55.055 36.4585C55.055 36.5443 55.055 36.6302 55.055 36.7149C55.0481 36.9444 54.9808 37.168 54.8601 37.3632C54.6796 37.6669 54.395 37.8946 54.0592 38.0041C53.916 38.0485 53.7674 38.073 53.6175 38.0772C53.5532 38.0767 53.4892 38.0714 53.4257 38.0613C53.2552 38.0425 53.0899 37.9915 52.9384 37.9109C52.8876 37.8844 52.8378 37.8558 52.7891 37.8283L48.0052 35.1217L44.6153 33.2075L44.4479 33.1132C44.3139 33.0468 44.1713 32.9994 44.0242 32.9723C43.9892 32.9658 43.9538 32.9619 43.9183 32.9606C43.8611 32.9606 43.8039 32.9606 43.7467 32.9606C43.525 32.962 43.307 33.0169 43.1111 33.1206C43.0539 33.1503 42.9988 33.1831 42.9437 33.2149C41.7375 33.9056 40.5313 34.5966 39.325 35.288L34.9818 37.7763C34.9204 37.8124 34.8579 37.8473 34.7954 37.8823C34.6575 37.957 34.5094 38.0109 34.3557 38.0422C34.3278 38.0481 34.2995 38.052 34.271 38.0539L34.0591 38.0602C33.8584 38.0607 33.6604 38.0143 33.4807 37.9247C33.0913 37.7479 32.8016 37.4058 32.6915 36.9924C32.6574 36.8757 32.6396 36.7549 32.6386 36.6333L32.6386 27.3494C32.6386 27.2922 32.6386 27.235 32.6386 27.1788C32.6424 27.0002 32.6783 26.8236 32.7445 26.6577C32.856 26.3773 33.0528 26.139 33.307 25.9765C33.3547 25.9458 33.4055 25.9182 33.4543 25.8896L36.0146 24.4214L39.0581 22.6778L42.1354 20.9182L42.8971 20.4818L43.0645 20.3875C43.1655 20.3324 43.272 20.288 43.3823 20.2551C43.452 20.2379 43.5227 20.2255 43.5941 20.218C43.6222 20.2137 43.6484 20.2012 43.6693 20.182L43.878 20.1767Z" fill="white"/>
<path d="M21.4952 46.3114C21.538 46.2996 21.5688 46.2624 21.5725 46.2182C21.5836 46.1336 21.5998 46.0498 21.6213 45.9672C21.713 45.6415 21.9157 45.3582 22.1944 45.1663C22.2526 45.126 22.3151 45.09 22.3766 45.0604L24.3215 43.9375L28.6552 41.4375L30.3406 40.464C30.402 40.429 30.4645 40.393 30.5281 40.358C30.7192 40.2599 30.9308 40.2084 31.1457 40.2075C31.5283 40.2031 31.8974 40.3492 32.1732 40.6144C32.3461 40.776 32.4748 40.9791 32.5472 41.2044C32.5917 41.3327 32.616 41.467 32.6192 41.6027C32.6192 41.6811 32.6192 41.7595 32.6192 41.8379L32.6192 50.8835C32.6192 50.9757 32.6192 51.0689 32.6192 51.161C32.6281 51.6328 32.865 52.071 33.2548 52.3369C33.3184 52.3814 33.3883 52.4195 33.4561 52.4576L35.3035 53.4905L39.1108 55.6187L41.4688 56.9344C41.5313 56.9693 41.5938 57.0032 41.6542 57.0403C41.9796 57.2286 42.2158 57.5397 42.3099 57.9036C42.3626 58.0891 42.376 58.2836 42.3491 58.4746C42.3262 58.6442 42.2754 58.8089 42.1987 58.9619C42.08 59.1914 41.9009 59.3841 41.6807 59.5191C41.6203 59.5573 41.5567 59.5901 41.4942 59.625L35.3311 63.0149L33.2326 64.1664C33.1764 64.1971 33.1266 64.2299 33.0641 64.2585C32.969 64.3077 32.8688 64.3464 32.7654 64.374C32.6203 64.412 32.4703 64.4281 32.3205 64.4217C32.0768 64.4099 31.8401 64.337 31.6319 64.2098L30.9868 63.8306L22.4168 58.7924C22.3617 58.7606 22.3109 58.7289 22.2516 58.6939C21.9214 58.4893 21.687 58.1607 21.6011 57.7818C21.5853 57.7193 21.581 57.6547 21.5694 57.5922C21.5638 57.5636 21.5437 57.5399 21.5164 57.5297C21.5099 57.5271 21.5031 57.525 21.4963 57.5233L21.4952 46.3114Z" fill="white"/>
<path d="M54.8807 64.4914C54.865 64.4775 54.8476 64.4658 54.8288 64.4565C54.775 64.4375 54.7202 64.4216 54.6646 64.4088C54.5322 64.3789 54.4048 64.33 54.2864 64.2637C54.2175 64.2256 54.1508 64.1853 54.083 64.1461L50.9167 62.3188L46.2302 59.6164C46.1804 59.5878 46.1306 59.5603 46.083 59.5296C45.7589 59.3273 45.5298 59.0032 45.4474 58.6302C45.4241 58.533 45.4124 58.4335 45.4124 58.3336C45.3951 57.8455 45.6295 57.3827 46.0332 57.1079C46.092 57.0694 46.1528 57.0341 46.2154 57.002L48.887 55.4702L52.4887 53.4077L54.1773 52.4405C54.2514 52.3982 54.3267 52.3569 54.3987 52.3113C54.6739 52.1408 54.8842 51.8831 54.9961 51.5793C55.035 51.4796 55.061 51.3753 55.0735 51.2689C55.0862 51.1557 55.0926 51.0418 55.0925 50.9278C55.0925 50.521 55.0925 50.1153 55.0925 49.7085C55.0925 47.1139 55.0925 44.5196 55.0925 41.9257C55.0925 41.8536 55.0925 41.7827 55.0925 41.7138C55.0925 41.6449 55.0925 41.5994 55.0989 41.5433C55.117 41.2038 55.26 40.8831 55.5004 40.6428C55.6812 40.4584 55.9085 40.3262 56.1582 40.2604C56.2679 40.2286 56.381 40.2105 56.4951 40.2062C56.7314 40.2024 56.9651 40.2559 57.1762 40.3621C57.2334 40.3907 57.2896 40.4225 57.3447 40.4553L59.493 41.6937L63.2716 43.8748L65.2525 45.0178C65.315 45.0539 65.3765 45.0888 65.4379 45.1238C65.6894 45.2768 65.8876 45.5035 66.0057 45.7731C66.0281 45.818 66.0428 45.8664 66.0492 45.9162C66.0573 45.9505 66.0729 45.9827 66.0947 46.0104L66.0947 57.8187C66.0705 57.8344 66.0546 57.86 66.0513 57.8887C66.0433 57.9454 66.0261 58.0005 66.0004 58.0518C65.8852 58.3067 65.6977 58.5222 65.4612 58.6715C65.4019 58.7107 65.3394 58.7457 65.278 58.7774L62.3659 60.4469L55.8743 64.1705C55.8192 64.2022 55.7684 64.2351 55.707 64.2647C55.589 64.3313 55.462 64.3802 55.3298 64.4099C55.281 64.4209 55.2328 64.4351 55.1858 64.4522C55.1658 64.4594 55.1489 64.4732 55.1381 64.4914L54.8807 64.4914Z" fill="white"/>
<rect x="1.5" y="1.5" width="175" height="85" rx="42.5" stroke="black" stroke-width="3"/>
<defs>
<linearGradient id="paint0_linear_19365_532" x1="81" y1="50.1667" x2="7" y2="50.1667" gradientUnits="userSpaceOnUse">
<stop offset="0.12998" stop-color="#A033FF"/>
<stop offset="0.610381" stop-color="#0094FF"/>
<stop offset="1" stop-color="#4FB500"/>
</linearGradient>
<linearGradient id="paint1_linear_19365_532" x1="40.9167" y1="30.125" x2="17.7917" y2="76.375" gradientUnits="userSpaceOnUse">
<stop stop-color="#FFD600" stop-opacity="0"/>
<stop offset="0.563347" stop-color="#FFC700"/>
</linearGradient>
<linearGradient id="paint2_linear_19365_532" x1="47.0833" y1="50.1667" x2="73.2917" y2="77.9167" gradientUnits="userSpaceOnUse">
<stop offset="0.0297327" stop-color="#FF3B30" stop-opacity="0"/>
<stop offset="0.842824" stop-color="#E73B2D"/>
</linearGradient>
</defs>
</svg>
