<svg width="122" height="100" viewBox="0 0 122 100" fill="none" xmlns="http://www.w3.org/2000/svg">
<path d="M60.6033 99.4921C85.237 99.4921 105.207 95.7607 105.207 91.1579C105.207 86.555 85.237 82.8237 60.6033 82.8237C35.9696 82.8237 16 86.555 16 91.1579C16 95.7607 35.9696 99.4921 60.6033 99.4921Z" fill="#F5F5F7" fill-opacity="0.8"/>
<path fill-rule="evenodd" clip-rule="evenodd" d="M96.2855 66.6737L80.5454 47.3019C79.7902 46.3901 78.6862 45.8381 77.5237 45.8381H43.6816C42.5198 45.8381 41.4158 46.3901 40.6606 47.3019L24.9211 66.6737V76.7941H96.2862V66.6737H96.2855Z" fill="#AEB8C2"/>
<path fill-rule="evenodd" clip-rule="evenodd" d="M38.2566 20.8355H82.9493C83.6473 20.8355 84.3166 21.1128 84.8102 21.6063C85.3037 22.0998 85.5809 22.7692 85.5809 23.4671V84.8776C85.5809 85.5755 85.3037 86.2449 84.8102 86.7384C84.3166 87.2319 83.6473 87.5092 82.9493 87.5092H38.2566C37.5586 87.5092 36.8893 87.2319 36.3958 86.7384C35.9023 86.2449 35.625 85.5755 35.625 84.8776V23.4671C35.625 22.7692 35.9023 22.0998 36.3958 21.6063C36.8893 21.1128 37.5586 20.8355 38.2566 20.8355V20.8355Z" fill="#F5F5F7"/>
<path fill-rule="evenodd" clip-rule="evenodd" d="M44.0777 27.3835H77.1283C77.4773 27.3835 77.812 27.5222 78.0587 27.7689C78.3055 28.0157 78.4441 28.3504 78.4441 28.6993V45.1184C78.4441 45.4674 78.3055 45.8021 78.0587 46.0488C77.812 46.2956 77.4773 46.4342 77.1283 46.4342H44.0777C43.7287 46.4342 43.394 46.2956 43.1472 46.0488C42.9005 45.8021 42.7619 45.4674 42.7619 45.1184V28.6993C42.7619 28.3504 42.9005 28.0157 43.1472 27.7689C43.394 27.5222 43.7287 27.3835 44.0777 27.3835ZM44.25 53.577H76.9559C77.3506 53.577 77.7291 53.7338 78.0082 54.0128C78.2873 54.2919 78.4441 54.6704 78.4441 55.0651C78.4441 55.4598 78.2873 55.8383 78.0082 56.1174C77.7291 56.3965 77.3506 56.5533 76.9559 56.5533H44.25C43.8553 56.5533 43.4768 56.3965 43.1977 56.1174C42.9186 55.8383 42.7619 55.4598 42.7619 55.0651C42.7619 54.6704 42.9186 54.2919 43.1977 54.0128C43.4768 53.7338 43.8553 53.577 44.25 53.577ZM44.25 61.3158H76.9559C77.3507 61.3158 77.7293 61.4726 78.0085 61.7518C78.2876 62.0309 78.4444 62.4095 78.4444 62.8043C78.4444 63.199 78.2876 63.5776 78.0085 63.8568C77.7293 64.1359 77.3507 64.2928 76.9559 64.2928H44.25C43.8552 64.2928 43.4766 64.1359 43.1975 63.8568C42.9184 63.5776 42.7615 63.199 42.7615 62.8043C42.7615 62.4095 42.9184 62.0309 43.1975 61.7518C43.4766 61.4726 43.8552 61.3158 44.25 61.3158ZM96.1402 89.9355C95.6303 91.9559 93.8395 93.4618 91.7092 93.4618H29.4967C27.3665 93.4618 25.5757 91.9553 25.0665 89.9355C24.9693 89.5505 24.9203 89.1549 24.9204 88.7579V66.6743H42.2349C44.1474 66.6743 45.6888 68.2849 45.6888 70.2401V70.2664C45.6888 72.221 47.248 73.7993 49.1605 73.7993H72.0454C73.9579 73.7993 75.5171 72.2066 75.5171 70.2513V70.2434C75.5171 68.2881 77.0586 66.6737 78.9711 66.6737H96.2855V88.7585C96.2855 89.1645 96.2349 89.5585 96.1402 89.9355Z" fill="#DCE0E6"/>
<path fill-rule="evenodd" clip-rule="evenodd" d="M98.3165 21.9026L93.823 23.6461C93.7076 23.6909 93.5818 23.7023 93.4602 23.6789C93.3386 23.6555 93.2261 23.5982 93.1356 23.5137C93.045 23.4292 92.9802 23.3208 92.9486 23.2011C92.9169 23.0813 92.9197 22.9551 92.9566 22.8368L94.2309 18.7533C92.5276 16.8164 91.5276 14.4546 91.5276 11.9059C91.5276 5.33026 98.1842 0 106.396 0C114.606 0 121.263 5.33026 121.263 11.9059C121.263 18.4816 114.607 23.8118 106.395 23.8118C103.416 23.8118 100.643 23.1105 98.3165 21.9026Z" fill="#DCE0E6"/>
<path d="M112.253 14.0559C113.288 14.0559 114.127 13.2268 114.127 12.204C114.127 11.1811 113.288 10.352 112.253 10.352C111.217 10.352 110.378 11.1811 110.378 12.204C110.378 13.2268 111.217 14.0559 112.253 14.0559Z" fill="white"/>
<path fill-rule="evenodd" clip-rule="evenodd" d="M102.413 13.8243H98.6644L100.571 10.5836L102.413 13.8243ZM104.756 10.5836H108.035V13.8243H104.756V10.5836Z" fill="white"/>
</svg>
