<svg width="56" height="56" viewBox="0 0 56 56" fill="none" xmlns="http://www.w3.org/2000/svg">
<path d="M32.9733 16L40 23.0267V32.9733L32.9733 40H23.0267L16 32.9733V23.0267L23.0267 16H32.9733ZM28.3333 31.6667H27.6667C26.9303 31.6667 26.3333 32.2636 26.3333 33V33.6667C26.3333 34.403 26.9303 35 27.6667 35H28.3333C29.0697 35 29.6667 34.403 29.6667 33.6667V33C29.6667 32.2636 29.0697 31.6667 28.3333 31.6667ZM28 21.3333C27.2636 21.3333 26.6667 21.9303 26.6667 22.6667V28C26.6667 28.7364 27.2636 29.3333 28 29.3333C28.7364 29.3333 29.3333 28.7364 29.3333 28V22.6667C29.3333 21.9303 28.7364 21.3333 28 21.3333Z" fill="#99A2AD"/>
</svg>
