<svg width="12" height="14" viewBox="0 0 12 14" fill="none" xmlns="http://www.w3.org/2000/svg">
<path d="M9.57056 8.46587C9.80515 8.23183 10.185 8.23228 10.4191 8.46687C10.6531 8.70146 10.6527 9.08136 10.4181 9.3154L7.3762 12.3501C5.7024 14.0199 2.99184 14.0167 1.32199 12.3429C1.30381 12.3246 1.30382 12.3246 1.28579 12.3062C-0.434213 10.5401 -0.427777 7.72328 1.30028 5.96504L5.85747 1.32825C7.05863 0.106098 9.02312 0.0890887 10.2453 1.29025C10.2714 1.3159 10.297 1.34201 10.3222 1.36856L10.3432 1.39077C11.5495 2.66331 11.536 4.66121 10.3126 5.91732L5.71787 10.635C5.01104 11.3607 3.86386 11.4178 3.08852 10.7657L3.03807 10.7233C2.26524 10.0734 2.16561 8.91997 2.81554 8.14713C2.83936 8.11881 2.86403 8.09122 2.88952 8.0644L5.98177 4.81056C6.21004 4.57036 6.58982 4.56069 6.83002 4.78896C7.07022 5.01724 7.07989 5.39701 6.85162 5.63722L3.75937 8.89105C3.75061 8.90027 3.74213 8.90975 3.73395 8.91949C3.51057 9.1851 3.54481 9.58151 3.81043 9.80489L3.86088 9.84731C4.15497 10.0946 4.59011 10.073 4.85821 9.79772L9.45297 5.08007C10.227 4.28539 10.2355 3.0214 9.47233 2.21633L9.45128 2.19412C9.43584 2.17784 9.42012 2.16183 9.40412 2.1461C8.65464 1.40949 7.44992 1.41992 6.71331 2.1694L2.15612 6.80619C0.885447 8.09906 0.880714 10.1703 2.14547 11.469C2.15844 11.4823 2.15844 11.4823 2.17152 11.4954C3.37329 12.7 5.32406 12.7023 6.52868 11.5006L9.57056 8.46587Z" fill="#007AFF"/>
</svg>
