<svg width="24" height="24" viewBox="0 0 24 24" fill="none" xmlns="http://www.w3.org/2000/svg">
<path d="M12.0006 1.71423C17.6812 1.71423 22.2863 6.3193 22.2863 11.9999C22.2863 17.6806 17.6812 22.2857 12.0006 22.2857C6.31991 22.2857 1.71484 17.6806 1.71484 11.9999C1.71484 6.3193 6.31991 1.71423 12.0006 1.71423ZM12.0006 3.42852C7.26669 3.42852 3.42913 7.26608 3.42913 11.9999C3.42913 16.7338 7.26669 20.5714 12.0006 20.5714C16.7344 20.5714 20.572 16.7338 20.572 11.9999C20.572 7.26608 16.7344 3.42852 12.0006 3.42852ZM12.0006 6.85709C12.4739 6.85709 12.8577 7.24085 12.8577 7.71423V11.1428H16.2863C16.7597 11.1428 17.1434 11.5266 17.1434 11.9999C17.1434 12.4733 16.7597 12.8571 16.2863 12.8571H12.8577V16.2857C12.8577 16.759 12.4739 17.1428 12.0006 17.1428C11.5272 17.1428 11.1434 16.759 11.1434 16.2857V12.8571H7.71484C7.24146 12.8571 6.8577 12.4733 6.8577 11.9999C6.8577 11.5266 7.24146 11.1428 7.71484 11.1428H11.1434V7.71423C11.1434 7.24085 11.5272 6.85709 12.0006 6.85709Z" fill="#007AFF"/>
</svg>
