<svg width="16" height="16" viewBox="0 0 16 16" fill="none" xmlns="http://www.w3.org/2000/svg">
<path d="M11.5706 9.46587C11.8051 9.23183 12.185 9.23228 12.4191 9.46687C12.6531 9.70146 12.6527 10.0814 12.4181 10.3154L9.3762 13.3501C7.7024 15.0199 4.99184 15.0167 3.32199 13.3429C3.30381 13.3246 3.30382 13.3246 3.28579 13.3062C1.56579 11.5401 1.57222 8.72328 3.30028 6.96504L7.85747 2.32825C9.05863 1.1061 11.0231 1.08909 12.2453 2.29025C12.2714 2.3159 12.297 2.34201 12.3222 2.36856L12.3432 2.39077C13.5495 3.66331 13.536 5.66121 12.3126 6.91732L7.71787 11.635C7.01104 12.3607 5.86386 12.4178 5.08852 11.7657L5.03807 11.7233C4.26524 11.0734 4.16561 9.91997 4.81554 9.14713C4.83936 9.11881 4.86403 9.09122 4.88952 9.0644L7.98177 5.81056C8.21004 5.57036 8.58982 5.56069 8.83002 5.78896C9.07022 6.01724 9.07989 6.39701 8.85162 6.63722L5.75937 9.89105C5.75061 9.90027 5.74213 9.90975 5.73395 9.91949C5.51057 10.1851 5.54481 10.5815 5.81043 10.8049L5.86088 10.8473C6.15497 11.0946 6.59011 11.073 6.85821 10.7977L11.453 6.08007C12.227 5.28539 12.2355 4.0214 11.4723 3.21633L11.4513 3.19412C11.4358 3.17784 11.4201 3.16183 11.4041 3.1461C10.6546 2.40949 9.44992 2.41992 8.71331 3.1694L4.15612 7.80619C2.88545 9.09906 2.88071 11.1703 4.14547 12.469C4.15844 12.4823 4.15844 12.4823 4.17152 12.4954C5.37329 13.7 7.32406 13.7023 8.52868 12.5006L11.5706 9.46587Z" fill="#007AFF"/>
</svg>
