<svg width="14" height="15" viewBox="0 0 14 15" fill="none" xmlns="http://www.w3.org/2000/svg">
<path d="M9.85721 0.572266C10.1728 0.572266 10.4286 0.828103 10.4286 1.14369L10.429 1.80645C10.909 1.8828 11.2197 2.00614 11.5318 2.17306C12.0905 2.47188 12.529 2.91037 12.8278 3.4691C13.0993 3.97671 13.2555 4.48059 13.2818 5.71459L13.2858 5.71512V9.89132L13.2827 10.2399C13.2594 11.5083 13.1027 12.0185 12.8278 12.5326C12.529 13.0913 12.0905 13.5298 11.5318 13.8286C10.9731 14.1274 10.4189 14.2866 8.89055 14.2866H5.10959L4.76099 14.2835C3.49257 14.2602 2.98237 14.1035 2.46833 13.8286C1.9096 13.5298 1.47111 13.0913 1.1723 12.5326C0.885438 11.9962 0.727309 11.464 0.715118 10.0701L0.714355 6.11035V5.71512C0.744642 4.48059 0.900823 3.97671 1.1723 3.4691C1.47111 2.91037 1.9096 2.47188 2.46833 2.17306C2.78059 2.00607 3.09143 1.8827 3.57168 1.80635L3.5715 1.14369C3.5715 0.828103 3.82734 0.572266 4.14293 0.572266C4.45852 0.572266 4.71436 0.828103 4.71436 1.14369L4.71382 1.7191C4.83809 1.71645 4.96976 1.71512 5.10959 1.71512H8.89055C9.03059 1.71512 9.16246 1.71646 9.28689 1.71912L9.28578 1.14369C9.28578 0.828103 9.54162 0.572266 9.85721 0.572266ZM12.1424 6.85798H1.85721L1.85774 10.053L1.8628 10.3781C1.88501 11.2393 1.97601 11.612 2.18008 11.9936C2.37238 12.3532 2.64774 12.6285 3.0073 12.8208C3.43377 13.0489 3.84918 13.1357 4.9479 13.1432H9.05224L9.3773 13.1381C10.2385 13.1159 10.6113 13.0249 10.9928 12.8208C11.3524 12.6285 11.6278 12.3532 11.8201 11.9936C12.0481 11.5671 12.135 11.1517 12.1424 10.053L12.1424 6.85798ZM9.8835 9.71512C10.1308 9.71512 10.3255 9.76154 10.4885 9.84869C10.6515 9.93584 10.7793 10.0637 10.8665 10.2267C10.9537 10.3897 11.0001 10.5844 11.0001 10.8317V10.8843C11.0001 11.1316 10.9537 11.3263 10.8665 11.4893C10.7793 11.6522 10.6515 11.7801 10.4885 11.8673C10.3255 11.9544 10.1308 12.0008 9.8835 12.0008H9.83092C9.58361 12.0008 9.3889 11.9544 9.22593 11.8673C9.06297 11.7801 8.93507 11.6522 8.84792 11.4893C8.76077 11.3263 8.71435 11.1316 8.71435 10.8843V10.8317C8.71435 10.5844 8.76077 10.3897 8.84792 10.2267C8.93507 10.0637 9.06297 9.93584 9.22593 9.84869C9.3889 9.76154 9.58361 9.71512 9.83092 9.71512H9.8835ZM9.05224 2.85851H4.9479L4.71436 2.86141V3.42941C4.71436 3.745 4.45852 4.00084 4.14293 4.00084C3.82734 4.00084 3.5715 3.745 3.5715 3.42941L3.57107 2.96799C3.35353 3.01822 3.18134 3.08778 3.0073 3.18085C2.64774 3.37315 2.37238 3.64851 2.18008 4.00807C1.96899 4.40279 1.87888 4.78803 1.86074 5.71435L12.1389 5.71512L12.1373 5.62361C12.1151 4.76237 12.0241 4.38965 11.8201 4.00807C11.6278 3.64851 11.3524 3.37315 10.9928 3.18085C10.8188 3.0878 10.6467 3.01825 10.4292 2.96802L10.4286 3.42941C10.4286 3.745 10.1728 4.00084 9.85721 4.00084C9.54162 4.00084 9.28578 3.745 9.28578 3.42941L9.28713 2.86152C9.21245 2.86006 9.13425 2.85906 9.05224 2.85851Z" fill="#007AFF"/>
</svg>
