<svg width="24" height="24" viewBox="0 0 24 24" fill="none" xmlns="http://www.w3.org/2000/svg">
<circle cx="12" cy="12" r="12" fill="#E6E5FF"/>
<path d="M16.1667 7.00074C16.3983 7.00074 16.5951 7.08172 16.757 7.24367C16.919 7.40562 17 7.60238 17 7.83395C17 8.06552 16.9151 8.25833 16.7452 8.41238L13.1807 12L16.7452 15.5884C16.9151 15.7582 17 15.955 17 16.1786C17 16.4023 16.919 16.5951 16.757 16.7571C16.5951 16.919 16.3983 17 16.1667 17C15.9351 17 15.7346 16.9227 15.5652 16.7682L12 13.1813L8.43556 16.7674C8.26568 16.922 8.06494 16.9993 7.83333 16.9993C7.60173 16.9993 7.40494 16.9183 7.24296 16.7563C7.08099 16.5944 7 16.3976 7 16.166C7 15.9345 7.08494 15.7417 7.25481 15.5876L10.8193 12L7.25481 8.41164C7.08494 8.25759 7 8.06478 7 7.83321C7 7.60164 7.08099 7.40488 7.24296 7.24293C7.40494 7.08098 7.60173 7 7.83333 7C8.06494 7 8.26543 7.07703 8.43481 7.23108L12 10.8187L15.5644 7.23256C15.7343 7.07801 15.9351 7.00074 16.1667 7.00074Z" fill="#3840F7"/>
</svg>
