<svg width="28" height="28" viewBox="0 0 28 28" fill="none" xmlns="http://www.w3.org/2000/svg">
<path d="M19.3591 8.30754C19.7692 8.71759 19.7692 9.38241 19.3591 9.79246L15.3185 13.8333L19.3591 17.8742C19.735 18.2501 19.7663 18.8401 19.4531 19.2516L19.3591 19.3591C18.9491 19.7692 18.2843 19.7692 17.8742 19.3591L13.8333 15.3185L9.79246 19.3591C9.38241 19.7692 8.71759 19.7692 8.30754 19.3591C7.89749 18.9491 7.89749 18.2843 8.30754 17.8742L12.3482 13.8333L8.30754 9.79246C7.93166 9.41658 7.90033 8.82662 8.21357 8.41506L8.30754 8.30754C8.71759 7.89749 9.38241 7.89749 9.79246 8.30754L13.8333 12.3482L17.8742 8.30754C18.2843 7.89749 18.9491 7.89749 19.3591 8.30754Z" fill="#99A2AD"/>
</svg>
