<svg width="20" height="20" viewBox="0 0 20 20" fill="none" xmlns="http://www.w3.org/2000/svg">
<path d="M9.99996 1.66602C14.6012 1.66602 18.3333 5.39679 18.3333 9.99935C18.3333 14.6019 14.6012 18.3327 9.99996 18.3327C5.3974 18.3327 1.66663 14.6019 1.66663 9.99935C1.66663 5.39679 5.3974 1.66602 9.99996 1.66602ZM9.99996 3.33268C6.31791 3.33268 3.33329 6.3173 3.33329 9.99935C3.33329 13.6814 6.31791 16.666 9.99996 16.666C13.681 16.666 16.6666 13.6814 16.6666 9.99935C16.6666 6.3173 13.681 3.33268 9.99996 3.33268ZM9.449 5.87114C9.90924 5.87114 10.2823 6.24424 10.2823 6.70448V9.89942L13.4162 10.9459C13.8521 11.0935 14.0859 11.5665 13.9383 12.0025C13.7908 12.4384 13.3177 12.6722 12.8818 12.5246L9.18179 11.272C8.84339 11.1575 8.61566 10.8399 8.61566 10.4827V6.70448C8.61566 6.24424 8.98876 5.87114 9.449 5.87114Z" fill="#99A2AD"/>
</svg>
