<svg width="18" height="18" viewBox="0 0 18 18" fill="none" xmlns="http://www.w3.org/2000/svg">
<path d="M9.00008 0.666016C13.6014 0.666016 17.3334 4.39679 17.3334 8.99935C17.3334 13.6019 13.6014 17.3327 9.00008 17.3327C4.39752 17.3327 0.666748 13.6019 0.666748 8.99935C0.666748 4.39679 4.39752 0.666016 9.00008 0.666016ZM9.00008 2.33268C5.31803 2.33268 2.33341 5.3173 2.33341 8.99935C2.33341 12.6814 5.31803 15.666 9.00008 15.666C12.6811 15.666 15.6667 12.6814 15.6667 8.99935C15.6667 5.3173 12.6811 2.33268 9.00008 2.33268ZM8.44912 4.87114C8.90936 4.87114 9.28245 5.24424 9.28245 5.70448V8.89942L12.4163 9.94592C12.8523 10.0935 13.086 10.5665 12.9384 11.0025C12.7909 11.4384 12.3178 11.6722 11.8819 11.5246L8.18191 10.272C7.84351 10.1575 7.61579 9.83994 7.61579 9.48268V5.70448C7.61579 5.24424 7.98888 4.87114 8.44912 4.87114Z" fill="#99A2AD"/>
</svg>
