<svg width="24" height="24" viewBox="0 0 24 24" fill="none" xmlns="http://www.w3.org/2000/svg">
<path fill-rule="evenodd" clip-rule="evenodd" d="M14.5562 8.10332C15.0523 8.13432 15.4293 8.56161 15.3983 9.0577L14.8983 17.0577C14.8673 17.5538 14.44 17.9308 13.9439 17.8998C13.4478 17.8688 13.0708 17.4415 13.1018 16.9454L13.6018 8.94542C13.6328 8.44933 14.0601 8.07231 14.5562 8.10332Z" fill="#959DAD"/>
<path fill-rule="evenodd" clip-rule="evenodd" d="M9.4439 8.10332C8.94781 8.13432 8.57078 8.56161 8.60179 9.0577L9.10179 17.0577C9.13279 17.5538 9.56009 17.9308 10.0562 17.8998C10.5523 17.8688 10.9293 17.4415 10.8983 16.9454L10.3983 8.94542C10.3673 8.44933 9.93998 8.07231 9.4439 8.10332Z" fill="#959DAD"/>
<path fill-rule="evenodd" clip-rule="evenodd" d="M3.00004 4.10156C2.50298 4.10156 2.10004 4.50451 2.10004 5.00156C2.10004 5.49862 2.50298 5.90156 3.00004 5.90156H4.18047L5.33509 18.2175C5.38043 18.7014 5.41923 19.1154 5.47812 19.4549C5.54024 19.8132 5.63506 20.1583 5.829 20.4843C6.12321 20.9788 6.55787 21.3746 7.0777 21.6214C7.42039 21.7841 7.77284 21.8462 8.13533 21.8747C8.47891 21.9016 8.89473 21.9016 9.3807 21.9016H14.6194C15.1053 21.9016 15.5212 21.9016 15.8647 21.8747C16.2272 21.8462 16.5797 21.7841 16.9224 21.6214C17.4422 21.3746 17.8769 20.9788 18.1711 20.4843C18.365 20.1583 18.4598 19.8132 18.522 19.4549C18.5808 19.1154 18.6196 18.7014 18.665 18.2176L19.8196 5.90156H21C21.4971 5.90156 21.9 5.49862 21.9 5.00156C21.9 4.50451 21.4971 4.10156 21 4.10156H15.7957C15.3894 2.38154 13.8442 1.10156 12 1.10156C10.1559 1.10156 8.61069 2.38154 8.2044 4.10156H3.00004ZM7.12411 18.0162C7.17345 18.5425 7.20626 18.8856 7.25164 19.1473C7.29513 19.3981 7.33952 19.5027 7.37595 19.564C7.48754 19.7515 7.65242 19.9017 7.8496 19.9953C7.91397 20.0258 8.02228 20.0603 8.27601 20.0802C8.54081 20.1009 8.8855 20.1016 9.41407 20.1016H14.586C15.1146 20.1016 15.4593 20.1009 15.7241 20.0802C15.9778 20.0603 16.0861 20.0258 16.1505 19.9953C16.3477 19.9017 16.5125 19.7515 16.6241 19.564C16.6606 19.5027 16.7049 19.3981 16.7484 19.1473C16.7938 18.8856 16.8266 18.5425 16.876 18.0162L18.0117 5.90156H5.98836L7.12411 18.0162ZM12 2.90156C11.1623 2.90156 10.4392 3.39208 10.1021 4.10156H13.8979C13.5609 3.39208 12.8378 2.90156 12 2.90156Z" fill="#959DAD"/>
</svg>
