<svg width="65" height="64" viewBox="0 0 65 64" fill="none" xmlns="http://www.w3.org/2000/svg">
<rect x="0.5" width="64" height="64" rx="16" fill="#FFE9DB"/>
<path fill-rule="evenodd" clip-rule="evenodd" d="M29.4445 27.5015C28.8931 27.5322 28.4709 28.004 28.5015 28.5555L29.0015 37.5555C29.0322 38.1069 29.504 38.5291 30.0555 38.4985C30.6069 38.4678 31.0291 37.996 30.9985 37.4445L30.4985 28.4445C30.4678 27.8931 29.996 27.4709 29.4445 27.5015Z" fill="#E64646"/>
<path fill-rule="evenodd" clip-rule="evenodd" d="M35.5555 27.5015C36.1069 27.5322 36.5291 28.004 36.4985 28.5555L35.9985 37.5555C35.9678 38.1069 35.496 38.5291 34.9445 38.4985C34.3931 38.4678 33.9709 37.996 34.0015 37.4445L34.5015 28.4445C34.5322 27.8931 35.004 27.4709 35.5555 27.5015Z" fill="#E64646"/>
<path fill-rule="evenodd" clip-rule="evenodd" d="M22 23C21.4477 23 21 23.4477 21 24C21 24.5523 21.4477 25 22 25H23.0961L24.3936 37.8226C24.4674 38.5523 24.5286 39.157 24.6175 39.6489C24.7102 40.1618 24.845 40.629 25.1061 41.0628C25.5134 41.7394 26.1117 42.2803 26.8259 42.6173C27.2837 42.8334 27.7622 42.9205 28.2817 42.9611C28.7802 43 29.3879 43 30.1214 43H34.8786C35.6121 43 36.2198 43 36.7183 42.9611C37.2378 42.9205 37.7163 42.8334 38.1741 42.6173C38.8883 42.2803 39.4866 41.7394 39.8939 41.0628C40.155 40.629 40.2898 40.1618 40.3825 39.6489C40.4714 39.157 40.5326 38.5523 40.6064 37.8226L41.9039 25H43C43.5523 25 44 24.5523 44 24C44 23.4477 43.5523 23 43 23H36.8885C36.4338 20.996 34.6416 19.5 32.5 19.5C30.3584 19.5 28.5662 20.996 28.1115 23H22ZM26.3795 37.5826C26.4583 38.3607 26.5123 38.8873 26.5856 39.2932C26.6568 39.687 26.734 39.8891 26.8196 40.0314C27.0233 40.3697 27.3225 40.6401 27.6795 40.8087C27.8297 40.8796 28.0385 40.936 28.4375 40.9672C28.8488 40.9993 29.3781 41 30.1602 41H34.8398C35.6219 41 36.1512 40.9993 36.5625 40.9672C36.9615 40.936 37.1703 40.8796 37.3205 40.8087C37.6775 40.6401 37.9767 40.3697 38.1804 40.0314C38.266 39.8891 38.3432 39.687 38.4144 39.2932C38.4877 38.8873 38.5417 38.3607 38.6205 37.5826L39.8937 25H25.1063L26.3795 37.5826ZM32.5 21.5C31.4748 21.5 30.5938 22.117 30.208 23H34.792C34.4062 22.117 33.5252 21.5 32.5 21.5Z" fill="#E64646"/>
</svg>
