<svg width="24" height="24" viewBox="0 0 24 24"  xmlns="http://www.w3.org/2000/svg">
    <path
        d="M18.0002 18.8572C18.4736 18.8572 18.8574 19.241 18.8574 19.7144C18.8574 20.1877 18.4736 20.5715 18.0002 20.5715H6.00021C5.52682 20.5715 5.14307 20.1877 5.14307 19.7144C5.14307 19.241 5.52682 18.8572 6.00021 18.8572H18.0002ZM12.0002 1.71436C12.4736 1.71436 12.8574 2.09811 12.8574 2.5715V14.2158L17.3941 9.67969C17.7289 9.34496 18.2716 9.34496 18.6063 9.67969C18.941 10.0144 18.941 10.5571 18.6063 10.8919L12.6063 16.8919C12.2716 17.2266 11.7289 17.2266 11.3941 16.8919L5.39412 10.8919C5.05938 10.5571 5.05938 10.0144 5.39412 9.67969C5.72885 9.34496 6.27157 9.34496 6.6063 9.67969L11.1431 14.2158V2.5715C11.1431 2.09811 11.5268 1.71436 12.0002 1.71436Z"
        fill="#007AFF" />
</svg>
