<svg width="24" height="24" viewBox="0 0 24 24" fill="none" xmlns="http://www.w3.org/2000/svg">
<mask id="mask0_7048_307397" style="mask-type:alpha" maskUnits="userSpaceOnUse" x="2" y="1" width="20" height="21">
<path fill-rule="evenodd" clip-rule="evenodd" d="M9.38105 8.14411C8.90839 8.17036 8.54652 8.57482 8.57277 9.04747L9.00135 16.7618C9.0276 17.2344 9.43206 17.5963 9.90472 17.57C10.3774 17.5438 10.7393 17.1393 10.713 16.6667L10.2844 8.95238C10.2582 8.47973 9.85371 8.11785 9.38105 8.14411Z" fill="#007AFF"/>
<path fill-rule="evenodd" clip-rule="evenodd" d="M14.619 8.14411C15.0917 8.17036 15.4535 8.57482 15.4273 9.04747L14.9987 16.7618C14.9724 17.2344 14.568 17.5963 14.0953 17.57C13.6227 17.5438 13.2608 17.1393 13.2871 16.6667L13.7156 8.95238C13.7419 8.47973 14.1463 8.11785 14.619 8.14411Z" fill="#007AFF"/>
<path fill-rule="evenodd" clip-rule="evenodd" d="M3.00003 4.28564C2.52664 4.28564 2.14288 4.6694 2.14288 5.14279C2.14288 5.61617 2.52664 5.99993 3.00003 5.99993H3.93953L5.05169 16.9907C5.11497 17.6162 5.16741 18.1345 5.24362 18.5562C5.32307 18.9957 5.4386 19.3962 5.66241 19.7681C6.01147 20.348 6.52437 20.8116 7.13647 21.1005C7.52895 21.2857 7.93906 21.3604 8.38438 21.3951C8.8116 21.4285 9.33254 21.4285 9.96121 21.4285H14.0388C14.6675 21.4285 15.1885 21.4285 15.6157 21.3951C16.061 21.3604 16.4711 21.2857 16.8636 21.1005C17.4757 20.8116 17.9886 20.348 18.3376 19.7681C18.5615 19.3962 18.677 18.9957 18.7564 18.5562C18.8326 18.1345 18.8851 17.6162 18.9484 16.9908L20.0605 5.99993H21C21.4734 5.99993 21.8572 5.61617 21.8572 5.14279C21.8572 4.6694 21.4734 4.28564 21 4.28564H15.7616C15.3718 2.56794 13.8357 1.28564 12 1.28564C10.1644 1.28564 8.62823 2.56794 8.23846 4.28564H3.00003ZM6.75391 16.785C6.8214 17.452 6.86768 17.9033 6.93058 18.2513C6.99158 18.5888 7.05774 18.762 7.13115 18.884C7.30568 19.174 7.56213 19.4058 7.86818 19.5502C7.99692 19.611 8.17592 19.6594 8.51789 19.6861C8.87043 19.7136 9.32413 19.7142 9.99451 19.7142H14.0055C14.6759 19.7142 15.1296 19.7136 15.4822 19.6861C15.8241 19.6594 16.0031 19.611 16.1319 19.5502C16.4379 19.4058 16.6944 19.174 16.8689 18.884C16.9423 18.762 17.0085 18.5888 17.0695 18.2513C17.1324 17.9033 17.1786 17.452 17.2461 16.785L18.3375 5.99993H5.66257L6.75391 16.785ZM12 2.99993C11.1213 2.99993 10.3661 3.52883 10.0355 4.28564H13.9646C13.6339 3.52883 12.8787 2.99993 12 2.99993Z" fill="#007AFF"/>
</mask>
<g mask="url(#mask0_7048_307397)">
<rect width="24" height="24" fill="#E64646"/>
</g>
</svg>
