<svg width="28" height="28" viewBox="0 0 28 28" fill="none" xmlns="http://www.w3.org/2000/svg">
    <path
        d="M7.65081 7.24076C7.23148 6.88134 6.60018 6.9299 6.24076 7.34923C5.88134 7.76855 5.9299 8.39985 6.34923 8.75927L13.3492 14.7593C13.7237 15.0803 14.2763 15.0803 14.6508 14.7593L21.6508 8.75928C22.0701 8.39985 22.1187 7.76855 21.7593 7.34923C21.3999 6.9299 20.7686 6.88134 20.3492 7.24076L14 12.6829L7.65081 7.24076Z"
        fill="black" />
    <path
        d="M7.65081 14.2408C7.23148 13.8813 6.60018 13.9299 6.24076 14.3492C5.88134 14.7686 5.9299 15.3999 6.34923 15.7593L13.3492 21.7593C13.7237 22.0803 14.2763 22.0803 14.6508 21.7593L21.6508 15.7593C22.0701 15.3999 22.1187 14.7686 21.7593 14.3492C21.3999 13.9299 20.7686 13.8813 20.3492 14.2408L14 19.6829L7.65081 14.2408Z"
        fill="black" />
</svg>
