<svg width="21" height="21" viewBox="0 0 21 21" fill="none" xmlns="http://www.w3.org/2000/svg">
<path d="M7.58333 18H13.4167C14.5673 18 15.5 17.0673 15.5 15.9167V6.33333H5.5V15.9167C5.5 17.0673 6.43274 18 7.58333 18ZM4.875 5.5C4.75994 5.5 4.66667 5.40673 4.66667 5.29167V4.66667C4.66667 4.20643 5.03976 3.83333 5.5 3.83333L7.80634 3.83327C8.09452 3.33514 8.63312 3 9.25 3H11.75C12.3669 3 12.9055 3.33514 13.1937 3.83327L15.5 3.83333C15.9602 3.83333 16.3333 4.20643 16.3333 4.66667V5.29167C16.3333 5.40673 16.2401 5.5 16.125 5.5H4.875Z" fill="#007AFF"/>
</svg>
