<svg width="22" height="22" viewBox="0 0 22 22" fill="none" xmlns="http://www.w3.org/2000/svg">
    <path d="M3.2006 22H18.7995C20.5646 22 22 20.576 22 18.8256V9.27255C22 8.41123 21.6424 7.57966 21.02 6.99067C20.9675 6.96412 12.9838 0.685529 12.9838 0.685529C11.8159 -0.229202 10.1842 -0.227818 9.0163 0.685529L1.10997 6.87631C0.436351 7.49078 -0.00690759 8.34171 8.147e-05 9.27255V18.8256C8.147e-05 20.576 1.43547 22 3.2006 22ZM10.3462 2.35688C10.7304 2.05476 11.2697 2.05476 11.6538 2.35688L18.4935 7.71134L11.6538 13.0658C11.2697 13.3679 10.7304 13.3679 10.3462 13.0658L3.50654 7.71134L10.3462 2.35688ZM2.14585 9.35806L9.0163 14.7372C10.1841 15.6515 11.8159 15.6505 12.9838 14.7372L19.8542 9.35806V18.8256C19.8542 19.4021 19.3813 19.8712 18.7995 19.8712H3.2006C2.61871 19.8712 2.14585 19.4021 2.14585 18.8256V9.35806Z" fill="#007AFF"/>
</svg>