<svg width="28" height="28" viewBox="0 0 28 28" fill="none" xmlns="http://www.w3.org/2000/svg">
<mask id="mask0_11187_419085" style="mask-type:alpha" maskUnits="userSpaceOnUse" x="0" y="0" width="28" height="28">
<path d="M6.2006 25H21.7995C23.5646 25 25 23.576 25 21.8256V12.2726C25 11.4112 24.6424 10.5797 24.02 9.99067C23.9675 9.96412 15.9838 3.68553 15.9838 3.68553C14.8159 2.7708 13.1842 2.77218 12.0163 3.68553L4.10997 9.87631C3.43635 10.4908 2.99309 11.3417 3.00008 12.2726V21.8256C3.00008 23.576 4.43547 25 6.2006 25ZM13.3462 5.35688C13.7304 5.05476 14.2697 5.05476 14.6538 5.35688L21.4935 10.7113L14.6538 16.0658C14.2697 16.3679 13.7304 16.3679 13.3462 16.0658L6.50654 10.7113L13.3462 5.35688ZM5.14585 12.3581L12.0163 17.7372C13.1841 18.6515 14.8159 18.6505 15.9838 17.7372L22.8542 12.3581V21.8256C22.8542 22.4021 22.3813 22.8712 21.7995 22.8712H6.2006C5.61871 22.8712 5.14585 22.4021 5.14585 21.8256V12.3581Z" fill="#007AFF"/>
</mask>
<g mask="url(#mask0_11187_419085)">
<rect width="28" height="28" fill="#007AFF"/>
</g>
</svg>
