<svg width="25" height="24" viewBox="0 0 25 24" fill="none" xmlns="http://www.w3.org/2000/svg">
<g clip-path="url(#clip0_748_83772)">
<path d="M15.9731 5.2133C15.5805 4.9085 15.5093 4.34312 15.8141 3.95048C16.1189 3.55785 16.6843 3.48664 17.0769 3.79144L22.7732 8.21342C25.2425 10.1353 25.2416 13.869 22.772 15.7906L17.077 20.2132C16.6845 20.5181 16.1191 20.447 15.8142 20.0544C15.5093 19.6618 15.5804 19.0964 15.973 18.7915L21.668 14.3689C23.2106 13.1679 23.2102 10.835 21.6676 9.63388L15.9731 5.2133Z" fill="#007AFF"/>
<path fill-rule="evenodd" clip-rule="evenodd" d="M10.5372 5.70555C10.5372 5.45499 10.8242 5.31619 11.02 5.46859L19.1093 11.7646C19.2636 11.8847 19.2636 12.1184 19.1093 12.2385L11.0138 18.5376C10.818 18.69 10.531 18.5512 10.531 18.3006V14.5379C10.531 14.0409 10.128 13.6379 9.63097 13.6379C6.68356 13.6379 4.42061 14.7338 2.63241 16.2743C2.9517 14.5293 3.62177 13.1818 4.51718 12.1631C5.79564 10.7087 7.61377 9.8334 9.77853 9.48909C10.2155 9.41959 10.5372 9.04274 10.5372 8.60026V5.70555ZM12.1256 4.04812C10.7459 2.97429 8.73716 3.9589 8.73716 5.70555V7.85389C6.5653 8.32629 4.61587 9.32444 3.16523 10.9748C1.54333 12.8199 0.625031 15.3892 0.625031 18.708C0.625031 19.088 0.863625 19.427 1.22127 19.5552C1.57891 19.6835 1.97856 19.5733 2.21998 19.2799C3.85416 17.2941 5.89024 15.75 8.73097 15.4799V18.3006C8.73097 20.0472 10.7394 21.0318 12.1192 19.9582L20.2146 13.6591C21.2951 12.8184 21.2952 11.1849 20.2149 10.3441L12.1256 4.04812Z" fill="#007AFF"/>
</g>
<defs>
<clipPath id="clip0_748_83772">
<rect width="24" height="24" fill="white" transform="matrix(-1 0 0 1 24.625 0)"/>
</clipPath>
</defs>
</svg>
