<svg width="29" height="38" viewBox="0 0 29 38" fill="none" xmlns="http://www.w3.org/2000/svg">
    <path
        d="M27.8914 10.7609L18.783 1.21875C18.2769 1.86935 17.2215 3.17056 17.048 3.17056C16.8312 3.17056 17.2649 7.07417 17.2649 7.29104C17.2649 7.46453 19.1444 10.5441 20.0842 12.0621L27.8914 10.7609Z"
        fill="white" stroke="#E0E0E0" stroke-width="0.433735" stroke-linejoin="round" />
    <path
        d="M17.9157 1H2.73494C1.77676 1 1 1.77676 1 2.73494V35.2651C1 36.2232 1.77676 37 2.73494 37H26.3735C27.3317 37 28.1084 36.2232 28.1084 35.2651V11.6265C28.1084 10.6683 27.3317 9.89157 26.3735 9.89157H21.3855C20.4274 9.89157 19.6506 9.11481 19.6506 8.15663V2.73494C19.6506 1.77676 18.8738 1 17.9157 1Z"
        fill="#FAFAFA" stroke="#E0E0E0" stroke-width="0.433735" />
</svg>
