<svg width="44" height="44" viewBox="0 0 44 44" fill="none" xmlns="http://www.w3.org/2000/svg">
<path fill-rule="evenodd" clip-rule="evenodd" d="M34.0541 0H2.75C1.23118 0 0 1.2375 0 2.75V41.25C0 42.7625 1.2375 44 2.75 44H41.25C42.7688 44 44 42.7688 44 41.25V9.94592C41.0666 7.0125 35.475 1.43 34.045 0H34.0541Z" fill="#C8421D"/>
<path fill-rule="evenodd" clip-rule="evenodd" d="M34.1 0L44 9.9H36.85C35.3312 9.9 34.1 8.66882 34.1 7.15V0Z" fill="#A03517"/>
<path fill-rule="evenodd" clip-rule="evenodd" d="M14 12V33H18.3077V25.4211H23.4615C27.0726 25.4211 30 22.4166 30 18.7105C30 15.0044 27.0726 12 23.4615 12H14ZM18.3077 22.2632V15.1579H22.5385C24.4502 15.1579 26 16.7485 26 18.7105C26 20.6726 24.4502 22.2632 22.5385 22.2632H18.3077Z" fill="white"/>
</svg>
