<svg width="24" height="24" viewBox="0 0 24 24" fill="none" xmlns="http://www.w3.org/2000/svg">
    <path
        d="M15.8572 12.8574C17.2163 12.8574 18.3643 13.7611 18.7331 15.0003L20.5715 15.0002C21.0449 15.0002 21.4287 15.384 21.4287 15.8574C21.4287 16.3307 21.0449 16.7145 20.5715 16.7145L18.7328 16.7152C18.3638 17.9541 17.216 18.8574 15.8572 18.8574C14.4985 18.8574 13.3507 17.9541 12.9817 16.7152L3.42868 16.7145C2.95529 16.7145 2.57153 16.3307 2.57153 15.8574C2.57153 15.384 2.95529 15.0002 3.42868 15.0002L12.9814 15.0003C13.3502 13.7611 14.4982 12.8574 15.8572 12.8574ZM15.8572 14.3574C15.0288 14.3574 14.3572 15.0289 14.3572 15.8574C14.3572 16.6858 15.0288 17.3574 15.8572 17.3574C16.6857 17.3574 17.3572 16.6858 17.3572 15.8574C17.3572 15.0289 16.6857 14.3574 15.8572 14.3574ZM9.0001 5.14307C10.3592 5.14307 11.5072 6.04678 11.8759 7.28606L20.5715 7.28592C21.0449 7.28592 21.4287 7.66968 21.4287 8.14307C21.4287 8.61645 21.0449 9.00021 20.5715 9.00021L11.8757 9.00093C11.5066 10.2398 10.3589 11.1431 9.0001 11.1431C7.64136 11.1431 6.49359 10.2398 6.12455 9.00093L3.42868 9.00021C2.95529 9.00021 2.57153 8.61645 2.57153 8.14307C2.57153 7.66968 2.95529 7.28592 3.42868 7.28592L6.1243 7.28606C6.49306 6.04678 7.64104 5.14307 9.0001 5.14307ZM9.0001 6.64307C8.17168 6.64307 7.5001 7.31464 7.5001 8.14307C7.5001 8.97149 8.17168 9.64307 9.0001 9.64307C9.82853 9.64307 10.5001 8.97149 10.5001 8.14307C10.5001 7.31464 9.82853 6.64307 9.0001 6.64307Z"
        fill="#AEB7C2" />
</svg>
