<svg width="21" height="20" viewBox="0 0 21 20" fill="none" xmlns="http://www.w3.org/2000/svg">
<path fill-rule="evenodd" clip-rule="evenodd" d="M3.5 6C3.5 5.20435 3.81607 4.44129 4.37868 3.87868C4.94129 3.31607 5.70435 3 6.5 3H16.5C16.6857 3 16.8678 3.05171 17.0257 3.14935C17.1837 3.24698 17.3114 3.38668 17.3944 3.55279C17.4775 3.71889 17.5126 3.90484 17.496 4.08981C17.4793 4.27477 17.4114 4.45143 17.3 4.6L14.75 8L17.3 11.4C17.4114 11.5486 17.4793 11.7252 17.496 11.9102C17.5126 12.0952 17.4775 12.2811 17.3944 12.4472C17.3114 12.6133 17.1837 12.753 17.0257 12.8506C16.8678 12.9483 16.6857 13 16.5 13H6.5C6.23478 13 5.98043 13.1054 5.79289 13.2929C5.60536 13.4804 5.5 13.7348 5.5 14V17C5.5 17.2652 5.39464 17.5196 5.20711 17.7071C5.01957 17.8946 4.76522 18 4.5 18C4.23478 18 3.98043 17.8946 3.79289 17.7071C3.60536 17.5196 3.5 17.2652 3.5 17V6Z" fill="#007AFF"/>
</svg>
