<svg width="80" height="80" viewBox="0 0 80 80" fill="none" xmlns="http://www.w3.org/2000/svg">
<path d="M23.9998 8.67676H55.9998C62.7928 8.67676 68.2995 14.1836 68.2996 20.9766V59.377C68.2995 66.17 62.7928 71.6768 55.9998 71.6768H23.9998C17.2068 71.6767 11.7001 66.1699 11.7 59.377V20.9766C11.7001 14.1836 17.2068 8.67686 23.9998 8.67676Z" fill="#F9F3FF" stroke="#A033FF"/>
<path d="M40.4007 60.7999C43.2204 60.7925 45.5235 58.5619 45.6 55.7643L44.3119 44.6797C44.1626 43.2387 42.9593 42.1312 41.5002 42.0918H39.2855C37.8581 42.1248 36.6663 43.1821 36.4738 44.5862L35.2015 55.4993C35.1677 56.8908 35.7 58.2372 36.6783 59.2345C37.6565 60.2319 38.9983 60.7961 40.4007 60.7999ZM37.6362 55.4057L37.7618 54.2832C37.8681 52.9191 39.0143 51.866 40.3929 51.866C41.7714 51.866 42.9176 52.9191 43.0239 54.2832L43.1496 55.4057C43.2423 56.0419 43.0477 56.6862 42.6179 57.167C42.188 57.6477 41.5665 57.9159 40.9191 57.9001H39.8666C39.205 57.9144 38.5715 57.6342 38.1398 57.1364C37.7081 56.6385 37.5233 55.975 37.6362 55.3278V55.4057ZM38.8299 46.4882V45.849C38.9079 45.1021 39.542 44.5345 40.2986 44.5345C41.0552 44.5345 41.6893 45.1021 41.7673 45.849L41.8458 46.4882C41.8972 46.8447 41.7867 47.2055 41.5442 47.4734C41.3016 47.7412 40.9518 47.8886 40.5892 47.8757H40.008C39.6591 47.8659 39.3309 47.7087 39.1059 47.4438C38.881 47.1788 38.7806 46.8312 38.8299 46.4882Z" fill="#A033FF"/>
<path d="M39.7801 30.3999H37.5339C36.8616 30.3999 36.3166 30.9408 36.3166 31.6081C36.3166 32.2754 36.8616 32.8164 37.5339 32.8164H39.7801C40.4524 32.8164 40.9975 32.2754 40.9975 31.6081C40.9975 30.9408 40.4524 30.3999 39.7801 30.3999Z" fill="#A033FF"/>
<path d="M42.2776 32.8165H40.0314C39.3591 32.8165 38.8141 33.3574 38.8141 34.0247C38.8141 34.692 39.3591 35.233 40.0314 35.233H42.2776C42.95 35.233 43.495 34.692 43.495 34.0247C43.495 33.3574 42.95 32.8165 42.2776 32.8165Z" fill="#A033FF"/>
<path d="M39.7801 35.2171H37.5339C36.8616 35.2171 36.3166 35.758 36.3166 36.4253C36.3166 37.0926 36.8616 37.6335 37.5339 37.6335H39.7801C40.4524 37.6335 40.9975 37.0926 40.9975 36.4253C40.9975 35.758 40.4524 35.2171 39.7801 35.2171Z" fill="#A033FF"/>
<path d="M42.2776 37.633H40.0314C39.3591 37.633 38.8141 38.1739 38.8141 38.8412C38.8141 39.5085 39.3591 40.0495 40.0314 40.0495H42.2776C42.95 40.0495 43.495 39.5085 43.495 38.8412C43.495 38.1739 42.95 37.633 42.2776 37.633Z" fill="#A033FF"/>
</svg>
