<svg width="24" height="21" viewBox="0 0 24 21" fill="none" xmlns="http://www.w3.org/2000/svg">
<path d="M13.2109 20.0947C13.7373 20.0947 14.167 19.8799 14.6826 19.3965L23.1582 11.3936C23.5664 11.0068 23.7061 10.5986 23.7061 10.2441C23.7061 9.87891 23.5771 9.48145 23.1582 9.08398L14.6826 1.15625C14.1133 0.619141 13.7588 0.393555 13.2324 0.393555C12.4805 0.393555 11.9434 0.984375 11.9434 1.7041V5.76465H11.6318C3.9082 5.76465 0.545898 10.7168 0.545898 18.6553C0.545898 19.5791 1.07227 20.0947 1.65234 20.0947C2.10352 20.0947 2.59766 19.9873 2.97363 19.2998C4.84277 15.7871 7.47461 14.7344 11.6318 14.7344H11.9434V18.8379C11.9434 19.5576 12.4805 20.0947 13.2109 20.0947ZM13.8232 17.7852C13.7373 17.7852 13.6729 17.7207 13.6729 17.624V13.4668C13.6729 13.2197 13.5654 13.1123 13.3184 13.1123H11.8789C6.77637 13.1123 3.52148 14.8848 2.25391 17.5811C2.22168 17.6562 2.2002 17.6885 2.14648 17.6885C2.10352 17.6885 2.07129 17.6562 2.07129 17.5703C2.28613 12.5 4.49902 7.38672 11.8789 7.38672H13.3184C13.5654 7.38672 13.6729 7.2793 13.6729 7.03223V2.76758C13.6729 2.68164 13.7373 2.61719 13.834 2.61719C13.8984 2.61719 13.9629 2.66016 14.0166 2.70312L21.665 10.04C21.7402 10.1152 21.7725 10.1797 21.7725 10.2441C21.7725 10.3086 21.751 10.3623 21.665 10.4482L14.0059 17.6885C13.9521 17.7529 13.8877 17.7852 13.8232 17.7852Z" fill="#007AFF"/>
</svg>
