<svg width="28" height="29" viewBox="0 0 28 29" fill="none" xmlns="http://www.w3.org/2000/svg">
<path d="M19.3436 16.7452C19.6707 16.4189 20.2004 16.4195 20.5267 16.7466C20.853 17.0737 20.8523 17.6033 20.5253 17.9296L16.2842 22.1607C13.9505 24.4889 10.1713 24.4844 7.84316 22.1507C7.81783 22.1252 7.81783 22.1252 7.79269 22.0995C5.3946 19.6371 5.40358 15.7098 7.81289 13.2584L14.1667 6.79365C15.8414 5.08969 18.5804 5.06597 20.2843 6.74068C20.3207 6.77644 20.3565 6.81284 20.3915 6.84986L20.4209 6.88083C22.1028 8.65504 22.0839 11.4406 20.3782 13.1919L13.9721 19.7694C12.9866 20.7813 11.3871 20.8608 10.3061 19.9517L10.2358 19.8926C9.15828 18.9864 9.01937 17.3783 9.92553 16.3008C9.95874 16.2613 9.99314 16.2228 10.0287 16.1854L14.34 11.6488C14.6583 11.3139 15.1878 11.3004 15.5227 11.6187C15.8576 11.937 15.871 12.4665 15.5528 12.8014L11.2415 17.338C11.2292 17.3508 11.2174 17.3641 11.206 17.3776C10.8946 17.748 10.9423 18.3007 11.3126 18.6121L11.383 18.6712C11.793 19.0161 12.3997 18.9859 12.7735 18.6021L19.1797 12.0246C20.2588 10.9166 20.2707 9.15431 19.2067 8.03185L19.1773 8.00088C19.1558 7.97818 19.1339 7.95586 19.1116 7.93393C18.0666 6.90692 16.387 6.92146 15.3599 7.96641L9.00614 14.4312C7.23452 16.2338 7.22792 19.1216 8.99129 20.9322C9.00937 20.9507 9.00938 20.9507 9.02761 20.9691C10.7032 22.6486 13.423 22.6518 15.1025 20.9763L19.3436 16.7452Z" fill="#007AFF"/>
</svg>
