<svg width="36" height="36" viewBox="0 0 36 36" fill="none" xmlns="http://www.w3.org/2000/svg">
<path d="M20.3083 7C22.8978 7 24.1262 7.23723 25.4021 7.91958C26.5542 8.53571 27.4643 9.44582 28.0804 10.5979C28.7628 11.8738 29 13.1022 29 15.6917V20.3083C29 22.8978 28.7628 24.1262 28.0804 25.4021C27.4643 26.5542 26.5542 27.4643 25.4021 28.0804C24.1262 28.7628 22.8978 29 20.3083 29H15.6917C13.1022 29 11.8738 28.7628 10.5979 28.0804C9.44582 27.4643 8.53571 26.5542 7.91958 25.4021C7.23723 24.1262 7 22.8978 7 20.3083V15.6917C7 13.1022 7.23723 11.8738 7.91958 10.5979C8.53571 9.44582 9.44582 8.53571 10.5979 7.91958C11.8738 7.23723 13.1022 7 15.6917 7H20.3083ZM21.9791 19.4419L17.7771 24.6294C17.426 25.0628 16.7883 25.1253 16.3598 24.7682L14.0614 22.8528L10.9632 25.9516C11.1441 26.0857 11.3368 26.2076 11.5411 26.3168C12.4876 26.823 13.4042 27 15.6917 27H20.3083C22.5958 27 23.5124 26.823 24.4589 26.3168C25.2624 25.8871 25.8871 25.2624 26.3168 24.4589C26.4637 24.1842 26.5829 23.9121 26.6781 23.6082L21.9791 19.4419ZM20.3083 9H15.6917C13.4042 9 12.4876 9.177 11.5411 9.68321C10.7376 10.1129 10.1129 10.7376 9.68321 11.5411C9.177 12.4876 9 13.4042 9 15.6917V20.3083C9 22.5652 9.17229 23.4876 9.66305 24.4209L13.2929 20.7929C13.6586 20.4272 14.2429 20.4007 14.6402 20.7318L16.8612 22.5826L21.0831 17.3706C21.4417 16.9278 22.0972 16.8738 22.5236 17.2517L26.9887 21.2102C26.9964 20.9349 27 20.6356 27 20.3083V15.6917C27 13.4042 26.823 12.4876 26.3168 11.5411C25.8871 10.7376 25.2624 10.1129 24.4589 9.68321C23.5124 9.177 22.5958 9 20.3083 9ZM14.5 13C15.3284 13 16 13.6716 16 14.5C16 15.3284 15.3284 16 14.5 16C13.6716 16 13 15.3284 13 14.5C13 13.6716 13.6716 13 14.5 13Z" fill="#007AFF"/>
</svg>
