<svg width="234" height="146" viewBox="0 0 234 146" fill="none" xmlns="http://www.w3.org/2000/svg">
<path d="M24.6457 118.419H16.4165V113.234H38.6353V118.419H30.4061V142.037H24.6457V118.419Z" fill="black"/>
<path d="M34.6319 120.641H41.133L43.8898 132.779C44.1915 134.013 44.4109 135.097 44.5481 136.029C44.7401 134.85 44.9733 133.752 45.2476 132.738L48.3747 120.641H54.7523L58.0851 132.738C58.3594 133.752 58.5926 134.85 58.7846 136.029C58.9217 135.097 59.1412 134.013 59.4429 132.779L62.4054 120.641H68.4539L61.7882 142.037H55.7809L52.2835 129.857C51.9544 128.87 51.7075 127.8 51.5429 126.648C51.3509 127.91 51.1314 128.98 50.8846 129.857L47.6752 142.037H41.2976L34.6319 120.641Z" fill="black"/>
<path d="M78.388 142.571C76.4679 142.571 74.6986 142.078 73.0802 141.09C71.4618 140.075 70.1726 138.717 69.2125 137.017C68.2799 135.316 67.8135 133.451 67.8135 131.421C67.8135 129.391 68.2799 127.526 69.2125 125.825C70.1726 124.097 71.4618 122.725 73.0802 121.71C74.6986 120.696 76.4679 120.188 78.388 120.188C80.1436 120.188 81.5563 120.517 82.6261 121.176C83.7233 121.834 84.5736 122.78 85.1771 124.015V120.641H90.6907V142.037H85.3005V138.539C84.6696 139.828 83.8056 140.83 82.7084 141.543C81.6386 142.229 80.1984 142.571 78.388 142.571ZM73.3682 131.38C73.3682 132.477 73.6151 133.506 74.1089 134.466C74.63 135.398 75.3295 136.153 76.2073 136.729C77.1125 137.277 78.1412 137.552 79.2932 137.552C80.4728 137.552 81.5151 137.277 82.4203 136.729C83.353 136.18 84.0662 135.439 84.5599 134.507C85.0537 133.574 85.3005 132.546 85.3005 131.421C85.3005 130.296 85.0537 129.268 84.5599 128.335C84.0662 127.375 83.353 126.621 82.4203 126.072C81.5151 125.496 80.4728 125.208 79.2932 125.208C78.1412 125.208 77.1125 125.496 76.2073 126.072C75.3021 126.621 74.6026 127.361 74.1089 128.294C73.6151 129.226 73.3682 130.255 73.3682 131.38Z" fill="black"/>
<path d="M99.5457 131.873V142.037H93.991V112H99.5457V129.281L107.569 120.641H115.469L105.388 130.598L115.51 142.037H108.145L99.5457 131.873Z" fill="black"/>
<path d="M124.488 142.571C122.321 142.571 120.401 142.078 118.727 141.09C117.054 140.075 115.751 138.717 114.819 137.017C113.886 135.316 113.42 133.437 113.42 131.38C113.42 129.35 113.9 127.471 114.86 125.743C115.82 124.015 117.136 122.643 118.81 121.628C120.51 120.613 122.403 120.106 124.488 120.106C126.573 120.106 128.438 120.613 130.084 121.628C131.757 122.643 133.046 124.015 133.951 125.743C134.884 127.443 135.35 129.322 135.35 131.38C135.35 132.065 135.296 132.724 135.186 133.355H119.18C119.509 134.644 120.126 135.686 121.032 136.482C121.964 137.25 123.116 137.634 124.488 137.634C125.64 137.634 126.669 137.373 127.574 136.852C128.479 136.304 129.192 135.604 129.713 134.754L134.034 138.004C133.156 139.376 131.867 140.487 130.166 141.337C128.465 142.16 126.573 142.571 124.488 142.571ZM129.755 129.199C129.425 127.965 128.781 126.936 127.821 126.113C126.861 125.29 125.722 124.879 124.406 124.879C123.116 124.879 121.992 125.276 121.032 126.072C120.099 126.867 119.482 127.91 119.18 129.199H129.755Z" fill="black"/>
<path d="M147.059 115.416H153.704L159.241 127.217C160.795 130.501 161.787 132.881 162.22 134.358C162.577 132.983 163.557 130.603 165.161 127.217L170.736 115.416H177.152V142.149H171.92V131.341C171.92 129.584 171.946 128.159 171.997 127.064C172.048 125.969 172.149 124.811 172.302 123.589L163.404 142.149H160.807L151.909 123.589C152.062 124.811 152.164 125.969 152.215 127.064C152.266 128.159 152.291 129.584 152.291 131.341V142.149H147.059V115.416Z" fill="url(#paint0_linear_28813_8605)"/>
<path d="M189.629 142.645C187.846 142.645 186.204 142.187 184.702 141.27C183.2 140.328 182.003 139.068 181.112 137.49C180.247 135.911 179.814 134.18 179.814 132.296C179.814 130.412 180.247 128.681 181.112 127.102C182.003 125.498 183.2 124.225 184.702 123.283C186.204 122.341 187.846 121.87 189.629 121.87C191.258 121.87 192.569 122.176 193.562 122.787C194.58 123.398 195.37 124.276 195.93 125.422V122.29H201.047V142.149H196.044V138.903C195.459 140.099 194.657 141.028 193.638 141.69C192.646 142.327 191.309 142.645 189.629 142.645ZM184.969 132.258C184.969 133.276 185.199 134.231 185.657 135.122C186.141 135.988 186.79 136.688 187.605 137.222C188.445 137.731 189.399 137.986 190.469 137.986C191.563 137.986 192.531 137.731 193.371 137.222C194.237 136.713 194.899 136.026 195.357 135.16C195.815 134.294 196.044 133.34 196.044 132.296C196.044 131.252 195.815 130.297 195.357 129.432C194.899 128.541 194.237 127.84 193.371 127.331C192.531 126.797 191.563 126.529 190.469 126.529C189.399 126.529 188.445 126.797 187.605 127.331C186.764 127.84 186.115 128.528 185.657 129.393C185.199 130.259 184.969 131.214 184.969 132.258Z" fill="url(#paint1_linear_28813_8605)"/>
<path d="M204.11 122.29H209.266V142.149H204.11V122.29ZM203.576 117.593C203.576 116.753 203.868 116.04 204.454 115.454C205.065 114.869 205.803 114.576 206.669 114.576C207.56 114.576 208.298 114.869 208.884 115.454C209.47 116.04 209.762 116.753 209.762 117.593C209.762 118.459 209.47 119.184 208.884 119.77C208.298 120.355 207.56 120.648 206.669 120.648C205.803 120.648 205.065 120.355 204.454 119.77C203.868 119.159 203.576 118.433 203.576 117.593Z" fill="url(#paint2_linear_28813_8605)"/>
<path d="M212.315 114.271H217.471V142.149H212.315V114.271Z" fill="url(#paint3_linear_28813_8605)"/>
<rect x="79" y="15.9999" width="75.9976" height="75.9976" rx="25.0984" fill="white"/>
<rect x="79" y="15.9999" width="75.9976" height="75.9976" rx="25.0984" fill="url(#paint4_linear_28813_8605)"/>
<g filter="url(#filter0_d_28813_8605)">
<path fill-rule="evenodd" clip-rule="evenodd" d="M94.6378 43.9612C92.8423 45.3305 91.7886 47.4592 91.7886 49.7173V70.379C91.7886 75.1766 95.6778 79.0658 100.475 79.0658H133.481C138.279 79.0658 142.168 75.1766 142.168 70.379V49.7173C142.168 47.4592 141.114 45.3305 139.319 43.9612L121.368 30.2715C118.776 28.2944 115.181 28.2944 112.589 30.2715L94.6378 43.9612ZM97.3863 48.8784V70.6816C97.3863 72.2808 98.6827 73.5772 100.282 73.5772H133.675C135.274 73.5772 136.57 72.2808 136.57 70.6816V48.8784L120.301 60.2732C118.306 61.6701 115.651 61.6701 113.656 60.2732L97.3863 48.8784Z" fill="white"/>
</g>
<defs>
<filter id="filter0_d_28813_8605" x="87.9132" y="25.6884" width="58.1301" height="58.0278" filterUnits="userSpaceOnUse" color-interpolation-filters="sRGB">
<feFlood flood-opacity="0" result="BackgroundImageFix"/>
<feColorMatrix in="SourceAlpha" type="matrix" values="0 0 0 0 0 0 0 0 0 0 0 0 0 0 0 0 0 0 127 0" result="hardAlpha"/>
<feOffset dy="0.775071"/>
<feGaussianBlur stdDeviation="1.93768"/>
<feComposite in2="hardAlpha" operator="out"/>
<feColorMatrix type="matrix" values="0 0 0 0 0 0 0 0 0 0 0 0 0 0 0 0 0 0 0.1 0"/>
<feBlend mode="normal" in2="BackgroundImageFix" result="effect1_dropShadow_28813_8605"/>
<feBlend mode="normal" in="SourceGraphic" in2="effect1_dropShadow_28813_8605" result="shape"/>
</filter>
<linearGradient id="paint0_linear_28813_8605" x1="155.132" y1="107.244" x2="155.132" y2="142.612" gradientUnits="userSpaceOnUse">
<stop stop-color="#57B9FF"/>
<stop offset="1" stop-color="#0B84FF"/>
</linearGradient>
<linearGradient id="paint1_linear_28813_8605" x1="155.132" y1="107.244" x2="155.132" y2="142.612" gradientUnits="userSpaceOnUse">
<stop stop-color="#57B9FF"/>
<stop offset="1" stop-color="#0B84FF"/>
</linearGradient>
<linearGradient id="paint2_linear_28813_8605" x1="155.132" y1="107.244" x2="155.132" y2="142.612" gradientUnits="userSpaceOnUse">
<stop stop-color="#57B9FF"/>
<stop offset="1" stop-color="#0B84FF"/>
</linearGradient>
<linearGradient id="paint3_linear_28813_8605" x1="155.132" y1="107.244" x2="155.132" y2="142.612" gradientUnits="userSpaceOnUse">
<stop stop-color="#57B9FF"/>
<stop offset="1" stop-color="#0B84FF"/>
</linearGradient>
<linearGradient id="paint4_linear_28813_8605" x1="89.6572" y1="84.0125" x2="153.213" y2="19.6815" gradientUnits="userSpaceOnUse">
<stop stop-color="#1E91FF"/>
<stop offset="0.997303" stop-color="#2ED9FF"/>
</linearGradient>
</defs>
</svg>
