<svg width="886" height="403" viewBox="0 0 886 403" fill="none" xmlns="http://www.w3.org/2000/svg">
<path d="M36.2437 295.375H0V272.541H97.858V295.375H61.6143V399.394H36.2437V295.375Z" fill="black"/>
<path d="M80.226 305.161H108.859L121 358.62C122.329 364.057 123.296 368.829 123.9 372.936C124.745 367.741 125.772 362.909 126.98 358.439L140.753 305.161H168.842L183.521 358.439C184.729 362.909 185.756 367.741 186.601 372.936C187.205 368.829 188.172 364.057 189.501 358.62L202.549 305.161H229.188L199.83 399.394H173.372L157.969 345.754C156.519 341.404 155.432 336.693 154.707 331.618C153.861 337.176 152.895 341.888 151.807 345.754L137.672 399.394H109.583L80.226 305.161Z" fill="black"/>
<path d="M272.941 401.75C264.484 401.75 256.691 399.575 249.563 395.226C242.436 390.756 236.757 384.776 232.529 377.286C228.421 369.795 226.367 361.58 226.367 352.64C226.367 343.7 228.421 335.484 232.529 327.994C236.757 320.383 242.436 314.342 249.563 309.872C256.691 305.402 264.484 303.167 272.941 303.167C280.673 303.167 286.895 304.617 291.606 307.516C296.439 310.416 300.184 314.584 302.842 320.021V305.161H327.125V399.394H303.385V383.991C300.607 389.669 296.801 394.078 291.969 397.22C287.257 400.24 280.914 401.75 272.941 401.75ZM250.832 352.459C250.832 357.291 251.919 361.822 254.094 366.05C256.389 370.158 259.47 373.48 263.336 376.017C267.323 378.433 271.853 379.641 276.927 379.641C282.122 379.641 286.713 378.433 290.7 376.017C294.808 373.601 297.949 370.339 300.123 366.231C302.298 362.124 303.385 357.593 303.385 352.64C303.385 347.687 302.298 343.156 300.123 339.048C297.949 334.82 294.808 331.498 290.7 329.081C286.713 326.544 282.122 325.276 276.927 325.276C271.853 325.276 267.323 326.544 263.336 329.081C259.349 331.498 256.269 334.76 254.094 338.867C251.919 342.975 250.832 347.505 250.832 352.459Z" fill="black"/>
<path d="M366.125 354.633V399.394H341.661V267.105H366.125V343.216L401.463 305.161H436.257L391.858 349.015L436.438 399.394H404L366.125 354.633Z" fill="black"/>
<path d="M475.978 401.75C466.433 401.75 457.977 399.575 450.607 395.226C443.237 390.756 437.499 384.776 433.391 377.286C429.284 369.795 427.23 361.52 427.23 352.459C427.23 343.519 429.344 335.243 433.573 327.632C437.801 320.021 443.6 313.98 450.969 309.51C458.46 305.04 466.796 302.805 475.978 302.805C485.159 302.805 493.375 305.04 500.623 309.51C507.993 313.98 513.671 320.021 517.658 327.632C521.766 335.122 523.819 343.398 523.819 352.459C523.819 355.479 523.578 358.378 523.094 361.157H452.6C454.05 366.835 456.768 371.426 460.755 374.93C464.863 378.312 469.937 380.004 475.978 380.004C481.052 380.004 485.582 378.856 489.569 376.561C493.556 374.144 496.697 371.064 498.992 367.319L518.02 381.635C514.154 387.675 508.476 392.568 500.986 396.314C493.495 399.938 485.159 401.75 475.978 401.75ZM499.174 342.854C497.724 337.417 494.885 332.887 490.656 329.263C486.428 325.638 481.414 323.826 475.615 323.826C469.937 323.826 464.984 325.578 460.755 329.081C456.648 332.585 453.929 337.176 452.6 342.854H499.174Z" fill="black"/>
<path d="M575.389 282.151H604.655L629.043 334.123C635.883 348.588 640.257 359.073 642.163 365.576C643.733 359.521 648.05 349.037 655.114 334.123L679.671 282.151H707.928V399.888H684.885V352.289C684.885 344.552 684.997 338.272 685.221 333.451C685.446 328.629 685.894 323.527 686.567 318.145L647.377 399.888H635.94L596.75 318.145C597.422 323.527 597.871 328.629 598.095 333.451C598.32 338.272 598.432 344.552 598.432 352.289V399.888H575.389V282.151Z" fill="url(#paint0_linear_57681_2055)"/>
<path d="M762.877 402.075C755.028 402.075 747.795 400.057 741.18 396.02C734.564 391.871 729.294 386.321 725.369 379.368C721.557 372.416 719.65 364.791 719.65 356.494C719.65 348.196 721.557 340.571 725.369 333.619C729.294 326.555 734.564 320.948 741.18 316.799C747.795 312.65 755.028 310.576 762.877 310.576C770.053 310.576 775.828 311.921 780.201 314.613C784.686 317.304 788.163 321.172 790.629 326.218V312.426H813.168V399.888H791.134V385.592C788.555 390.862 785.023 394.955 780.538 397.87C776.165 400.673 770.278 402.075 762.877 402.075ZM742.357 356.325C742.357 360.811 743.366 365.016 745.384 368.94C747.515 372.753 750.374 375.836 753.963 378.191C757.663 380.434 761.868 381.555 766.577 381.555C771.399 381.555 775.66 380.434 779.36 378.191C783.173 375.948 786.088 372.921 788.106 369.108C790.125 365.296 791.134 361.091 791.134 356.494C791.134 351.896 790.125 347.691 788.106 343.879C786.088 339.954 783.173 336.871 779.36 334.628C775.66 332.273 771.399 331.096 766.577 331.096C761.868 331.096 757.663 332.273 753.963 334.628C750.262 336.871 747.403 339.898 745.384 343.711C743.366 347.523 742.357 351.728 742.357 356.325Z" fill="url(#paint1_linear_57681_2055)"/>
<path d="M826.659 312.426H849.366V399.888H826.659V312.426ZM824.304 291.738C824.304 288.037 825.594 284.898 828.173 282.319C830.864 279.74 834.116 278.45 837.928 278.45C841.853 278.45 845.105 279.74 847.684 282.319C850.263 284.898 851.552 288.037 851.552 291.738C851.552 295.55 850.263 298.746 847.684 301.325C845.105 303.904 841.853 305.194 837.928 305.194C834.116 305.194 830.864 303.904 828.173 301.325C825.594 298.634 824.304 295.438 824.304 291.738Z" fill="url(#paint2_linear_57681_2055)"/>
<path d="M862.795 277.105H885.502V399.888H862.795V277.105Z" fill="url(#paint3_linear_57681_2055)"/>
<rect x="345" y="-9.53674e-05" width="196.105" height="196.105" rx="64.7641" fill="white"/>
<rect x="345" y="-9.53674e-05" width="196.105" height="196.105" rx="64.7641" fill="url(#paint4_linear_57681_2055)"/>
<g filter="url(#filter0_d_57681_2055)">
<path fill-rule="evenodd" clip-rule="evenodd" d="M385.352 72.1512C380.719 75.6846 378 81.1776 378 87.0044V140.32C378 152.7 388.036 162.735 400.415 162.735H485.585C497.964 162.735 508 152.7 508 140.32V87.0044C508 81.1776 505.281 75.6846 500.648 72.1512L454.327 36.8264C447.637 31.7246 438.363 31.7246 431.673 36.8264L385.352 72.1512ZM392.444 84.8396V141.101C392.444 145.227 395.79 148.573 399.916 148.573H486.084C490.21 148.573 493.556 145.227 493.556 141.101V84.8396L451.573 114.243C446.426 117.847 439.574 117.847 434.427 114.243L392.444 84.8396Z" fill="white"/>
</g>
<defs>
<filter id="filter0_d_57681_2055" x="368" y="25.0001" width="150" height="149.735" filterUnits="userSpaceOnUse" color-interpolation-filters="sRGB">
<feFlood flood-opacity="0" result="BackgroundImageFix"/>
<feColorMatrix in="SourceAlpha" type="matrix" values="0 0 0 0 0 0 0 0 0 0 0 0 0 0 0 0 0 0 127 0" result="hardAlpha"/>
<feOffset dy="2"/>
<feGaussianBlur stdDeviation="5"/>
<feComposite in2="hardAlpha" operator="out"/>
<feColorMatrix type="matrix" values="0 0 0 0 0 0 0 0 0 0 0 0 0 0 0 0 0 0 0.1 0"/>
<feBlend mode="normal" in2="BackgroundImageFix" result="effect1_dropShadow_57681_2055"/>
<feBlend mode="normal" in="SourceGraphic" in2="effect1_dropShadow_57681_2055" result="shape"/>
</filter>
<linearGradient id="paint0_linear_57681_2055" x1="610.944" y1="246.157" x2="610.944" y2="401.931" gradientUnits="userSpaceOnUse">
<stop stop-color="#57B9FF"/>
<stop offset="1" stop-color="#0B84FF"/>
</linearGradient>
<linearGradient id="paint1_linear_57681_2055" x1="610.944" y1="246.157" x2="610.944" y2="401.931" gradientUnits="userSpaceOnUse">
<stop stop-color="#57B9FF"/>
<stop offset="1" stop-color="#0B84FF"/>
</linearGradient>
<linearGradient id="paint2_linear_57681_2055" x1="610.944" y1="246.157" x2="610.944" y2="401.931" gradientUnits="userSpaceOnUse">
<stop stop-color="#57B9FF"/>
<stop offset="1" stop-color="#0B84FF"/>
</linearGradient>
<linearGradient id="paint3_linear_57681_2055" x1="610.944" y1="246.157" x2="610.944" y2="401.931" gradientUnits="userSpaceOnUse">
<stop stop-color="#57B9FF"/>
<stop offset="1" stop-color="#0B84FF"/>
</linearGradient>
<linearGradient id="paint4_linear_57681_2055" x1="372.5" y1="175.5" x2="536.5" y2="9.4999" gradientUnits="userSpaceOnUse">
<stop stop-color="#1E91FF"/>
<stop offset="0.997303" stop-color="#2ED9FF"/>
</linearGradient>
</defs>
</svg>
