<svg width="1134" height="221" viewBox="0 0 1134 221" fill="none" xmlns="http://www.w3.org/2000/svg">
<path d="M269.024 80.0887H232.78V57.2552H330.638V80.0887H294.395V184.108H269.024V80.0887Z" fill="black"/>
<path d="M313.006 89.8745H341.639L353.78 143.334C355.109 148.771 356.076 153.543 356.68 157.65C357.526 152.455 358.553 147.623 359.761 143.153L373.533 89.8745H401.622L416.301 143.153C417.509 147.623 418.536 152.455 419.382 157.65C419.986 153.543 420.952 148.771 422.281 143.334L435.329 89.8745H461.968L432.611 184.108H406.153L390.749 130.467C389.299 126.118 388.212 121.407 387.487 116.332C386.641 121.89 385.675 126.601 384.588 130.467L370.453 184.108H342.364L313.006 89.8745Z" fill="black"/>
<path d="M505.721 186.464C497.264 186.464 489.472 184.289 482.344 179.94C475.216 175.47 469.538 169.49 465.309 161.999C461.202 154.509 459.148 146.294 459.148 137.354C459.148 128.414 461.202 120.198 465.309 112.708C469.538 105.097 475.216 99.0562 482.344 94.5862C489.472 90.1161 497.264 87.8811 505.721 87.8811C513.453 87.8811 519.675 89.3309 524.386 92.2303C529.219 95.1298 532.964 99.2979 535.622 104.734V89.8745H559.905V184.108H536.166V168.705C533.387 174.383 529.581 178.792 524.749 181.934C520.037 184.954 513.695 186.464 505.721 186.464ZM483.612 137.173C483.612 142.005 484.7 146.536 486.874 150.764C489.17 154.872 492.25 158.194 496.116 160.731C500.103 163.147 504.634 164.355 509.708 164.355C514.903 164.355 519.494 163.147 523.48 160.731C527.588 158.315 530.729 155.053 532.904 150.945C535.078 146.838 536.166 142.307 536.166 137.354C536.166 132.4 535.078 127.87 532.904 123.762C530.729 119.534 527.588 116.212 523.48 113.795C519.494 111.258 514.903 109.99 509.708 109.99C504.634 109.99 500.103 111.258 496.116 113.795C492.13 116.212 489.049 119.474 486.874 123.581C484.7 127.689 483.612 132.219 483.612 137.173Z" fill="black"/>
<path d="M598.905 139.347V184.108H574.441V51.8186H598.905V127.93L634.243 89.8745H669.037L624.639 133.729L669.218 184.108H636.78L598.905 139.347Z" fill="black"/>
<path d="M708.758 186.464C699.214 186.464 690.757 184.289 683.387 179.94C676.018 175.47 670.279 169.49 666.172 161.999C662.064 154.509 660.01 146.233 660.01 137.173C660.01 128.232 662.124 119.957 666.353 112.346C670.581 104.734 676.38 98.6938 683.75 94.2238C691.24 89.7537 699.576 87.5187 708.758 87.5187C717.94 87.5187 726.155 89.7537 733.404 94.2238C740.773 98.6938 746.451 104.734 750.438 112.346C754.546 119.836 756.6 128.112 756.6 137.173C756.6 140.193 756.358 143.092 755.875 145.871H685.381C686.83 151.549 689.549 156.14 693.536 159.644C697.643 163.026 702.717 164.718 708.758 164.718C713.832 164.718 718.363 163.57 722.349 161.275C726.336 158.858 729.477 155.778 731.773 152.032L750.801 166.349C746.935 172.389 741.256 177.282 733.766 181.027C726.276 184.652 717.94 186.464 708.758 186.464ZM731.954 127.568C730.504 122.131 727.665 117.601 723.437 113.977C719.208 110.352 714.194 108.54 708.395 108.54C702.717 108.54 697.764 110.292 693.536 113.795C689.428 117.299 686.71 121.89 685.381 127.568H731.954Z" fill="black"/>
<path d="M808.168 61.0394H837.434L861.823 113.012C868.663 127.477 873.036 137.961 874.942 144.465C876.512 138.41 880.829 127.926 887.893 113.012L912.45 61.0394H940.707V178.777H917.664V131.178C917.664 123.44 917.776 117.161 918.001 112.339C918.225 107.518 918.673 102.416 919.346 97.0336L880.156 178.777H868.719L829.529 97.0336C830.202 102.416 830.65 107.518 830.875 112.339C831.099 117.161 831.211 123.44 831.211 131.178V178.777H808.168V61.0394Z" fill="url(#paint0_linear_55504_32391)"/>
<path d="M995.656 180.964C987.807 180.964 980.575 178.945 973.959 174.909C967.343 170.76 962.073 165.209 958.148 158.257C954.336 151.305 952.43 143.68 952.43 135.382C952.43 127.085 954.336 119.46 958.148 112.508C962.073 105.443 967.343 99.8369 973.959 95.688C980.575 91.5391 987.807 89.4647 995.656 89.4647C1002.83 89.4647 1008.61 90.8103 1012.98 93.5014C1017.47 96.1926 1020.94 100.061 1023.41 105.107V91.3149H1045.95V178.777H1023.91V164.481C1021.33 169.751 1017.8 173.843 1013.32 176.759C1008.94 179.562 1003.06 180.964 995.656 180.964ZM975.136 135.214C975.136 139.7 976.145 143.904 978.164 147.829C980.294 151.641 983.154 154.725 986.742 157.08C990.442 159.322 994.647 160.444 999.357 160.444C1004.18 160.444 1008.44 159.322 1012.14 157.08C1015.95 154.837 1018.87 151.81 1020.89 147.997C1022.9 144.185 1023.91 139.98 1023.91 135.382C1023.91 130.785 1022.9 126.58 1020.89 122.768C1018.87 118.843 1015.95 115.759 1012.14 113.517C1008.44 111.162 1004.18 109.985 999.357 109.985C994.647 109.985 990.442 111.162 986.742 113.517C983.041 115.759 980.182 118.787 978.164 122.599C976.145 126.412 975.136 130.617 975.136 135.214Z" fill="url(#paint1_linear_55504_32391)"/>
<path d="M1059.44 91.3149H1082.14V178.777H1059.44V91.3149ZM1057.08 70.6267C1057.08 66.9263 1058.37 63.7866 1060.95 61.2076C1063.64 58.6286 1066.9 57.3391 1070.71 57.3391C1074.63 57.3391 1077.88 58.6286 1080.46 61.2076C1083.04 63.7866 1084.33 66.9263 1084.33 70.6267C1084.33 74.4391 1083.04 77.6349 1080.46 80.2139C1077.88 82.7929 1074.63 84.0824 1070.71 84.0824C1066.9 84.0824 1063.64 82.7929 1060.95 80.2139C1058.37 77.5227 1057.08 74.327 1057.08 70.6267Z" fill="url(#paint2_linear_55504_32391)"/>
<path d="M1095.57 55.9935H1118.28V178.777H1095.57V55.9935Z" fill="url(#paint3_linear_55504_32391)"/>
<rect x="0.665039" y="12.9266" width="195.325" height="195.325" rx="64.5067" fill="white"/>
<rect x="0.665039" y="12.9266" width="195.325" height="195.325" rx="64.5067" fill="url(#paint4_linear_55504_32391)"/>
<rect x="0.665039" y="12.9266" width="195.325" height="195.325" rx="64.5067" fill="url(#paint5_linear_55504_32391)"/>
<rect x="0.665039" y="12.9266" width="195.325" height="195.325" rx="64.5067" fill="url(#paint6_linear_55504_32391)"/>
<path fill-rule="evenodd" clip-rule="evenodd" d="M33.0466 80.9173C28.4133 84.4507 25.6943 89.9437 25.6943 95.7705V158.915C25.6943 171.295 35.7301 181.331 48.1098 181.331H148.316C160.696 181.331 170.731 171.295 170.731 158.916V95.7705C170.731 89.9437 168.012 84.4507 163.379 80.9173L109.54 39.8587C102.85 34.7569 93.5755 34.7569 86.8856 39.8587L33.0466 80.9173ZM41.8096 94.4248V158.058C41.8096 162.185 45.1548 165.53 49.2814 165.53H147.144C151.271 165.53 154.616 162.185 154.616 158.058V94.4248L106.785 127.924C101.639 131.528 94.787 131.528 89.6403 127.924L41.8096 94.4248Z" fill="white"/>
<defs>
<linearGradient id="paint0_linear_55504_32391" x1="843.723" y1="25.046" x2="960.628" y2="263.181" gradientUnits="userSpaceOnUse">
<stop stop-color="#57B9FF"/>
<stop offset="1" stop-color="#0B84FF"/>
</linearGradient>
<linearGradient id="paint1_linear_55504_32391" x1="843.723" y1="25.046" x2="960.628" y2="263.181" gradientUnits="userSpaceOnUse">
<stop stop-color="#57B9FF"/>
<stop offset="1" stop-color="#0B84FF"/>
</linearGradient>
<linearGradient id="paint2_linear_55504_32391" x1="843.723" y1="25.046" x2="960.628" y2="263.181" gradientUnits="userSpaceOnUse">
<stop stop-color="#57B9FF"/>
<stop offset="1" stop-color="#0B84FF"/>
</linearGradient>
<linearGradient id="paint3_linear_55504_32391" x1="843.723" y1="25.046" x2="960.628" y2="263.181" gradientUnits="userSpaceOnUse">
<stop stop-color="#57B9FF"/>
<stop offset="1" stop-color="#0B84FF"/>
</linearGradient>
<linearGradient id="paint4_linear_55504_32391" x1="195.99" y1="126.866" x2="143.108" y2="93.1039" gradientUnits="userSpaceOnUse">
<stop offset="0.12998" stop-color="#A033FF"/>
<stop offset="0.610381" stop-color="#0094FF"/>
<stop offset="1" stop-color="#1D90FF"/>
</linearGradient>
<linearGradient id="paint5_linear_55504_32391" x1="90.1892" y1="73.9658" x2="29.15" y2="196.044" gradientUnits="userSpaceOnUse">
<stop stop-color="#FFD600" stop-opacity="0"/>
<stop offset="0.563347" stop-color="#FFC700"/>
</linearGradient>
<linearGradient id="paint6_linear_55504_32391" x1="106.466" y1="126.866" x2="175.644" y2="200.113" gradientUnits="userSpaceOnUse">
<stop offset="0.0297327" stop-color="#FF3B30" stop-opacity="0"/>
<stop offset="0.842824" stop-color="#E73B2D"/>
</linearGradient>
</defs>
</svg>
