<svg width="28" height="28" viewBox="0 0 28 28" fill="none" xmlns="http://www.w3.org/2000/svg">
<path d="M7.73868 17.7541C7.05303 19.609 6.62218 20.9122 6.44611 21.6638C5.89277 24.026 5.49042 24.5581 7.55279 23.4355C9.61516 22.3129 19.5994 16.7519 21.8269 15.516C24.7306 13.905 24.7694 14.0309 21.6711 12.3204C19.3114 11.0176 9.4442 5.60166 7.55279 4.53825C5.66138 3.47483 5.89277 3.94771 6.44611 6.30986C6.62446 7.07122 7.06157 8.38609 7.75745 10.2545C8.24415 11.5612 9.37624 12.5202 10.7452 12.7854L16.5097 13.9019C16.5639 13.9128 16.599 13.9655 16.5882 14.0196C16.5802 14.0592 16.5493 14.0901 16.5097 14.0981L10.7322 15.2136C9.3588 15.4788 8.22367 16.4421 7.73868 17.7541Z" fill="#007AFF"/>
</svg>
