<svg width="28" height="28" viewBox="0 0 28 28" fill="none" xmlns="http://www.w3.org/2000/svg">
<path d="M6.80002 5.59961C6.1635 5.59961 5.55306 5.85247 5.10297 6.30255C4.65288 6.75264 4.40002 7.36309 4.40002 7.99961C4.40002 8.63613 4.65288 9.24658 5.10297 9.69667C5.55306 10.1468 6.1635 10.3996 6.80002 10.3996H21.2C21.8365 10.3996 22.447 10.1468 22.8971 9.69667C23.3472 9.24658 23.6 8.63613 23.6 7.99961C23.6 7.36309 23.3472 6.75264 22.8971 6.30255C22.447 5.85247 21.8365 5.59961 21.2 5.59961H6.80002Z" fill="#007AFF"/>
<path fill-rule="evenodd" clip-rule="evenodd" d="M5.59998 11.5996H22.4V19.9996C22.4 20.6361 22.1471 21.2466 21.697 21.6967C21.2469 22.1468 20.6365 22.3996 20 22.3996H7.99998C7.36346 22.3996 6.75301 22.1468 6.30292 21.6967C5.85283 21.2466 5.59998 20.6361 5.59998 19.9996V11.5996ZM11.6 15.1996C11.6 14.8814 11.7264 14.5761 11.9514 14.3511C12.1765 14.126 12.4817 13.9996 12.8 13.9996H15.2C15.5182 13.9996 15.8235 14.126 16.0485 14.3511C16.2735 14.5761 16.4 14.8814 16.4 15.1996C16.4 15.5179 16.2735 15.8231 16.0485 16.0481C15.8235 16.2732 15.5182 16.3996 15.2 16.3996H12.8C12.4817 16.3996 12.1765 16.2732 11.9514 16.0481C11.7264 15.8231 11.6 15.5179 11.6 15.1996Z" fill="#007AFF"/>
</svg>
