<svg width="28" height="28" viewBox="0 0 28 28" fill="none" xmlns="http://www.w3.org/2000/svg">
<path fill-rule="evenodd" clip-rule="evenodd" d="M12.8 4.40039C12.5772 4.40051 12.3588 4.46265 12.1693 4.57985C11.9799 4.69706 11.8268 4.86469 11.7272 5.06399L10.8584 6.80039H6.79998C6.48172 6.80039 6.17649 6.92682 5.95145 7.15186C5.7264 7.37691 5.59998 7.68213 5.59998 8.00039C5.59998 8.31865 5.7264 8.62387 5.95145 8.84892C6.17649 9.07396 6.48172 9.20039 6.79998 9.20039V21.2004C6.79998 21.8369 7.05283 22.4474 7.50292 22.8974C7.95301 23.3475 8.56346 23.6004 9.19998 23.6004H18.8C19.4365 23.6004 20.0469 23.3475 20.497 22.8974C20.9471 22.4474 21.2 21.8369 21.2 21.2004V9.20039C21.5182 9.20039 21.8235 9.07396 22.0485 8.84892C22.2735 8.62387 22.4 8.31865 22.4 8.00039C22.4 7.68213 22.2735 7.37691 22.0485 7.15186C21.8235 6.92682 21.5182 6.80039 21.2 6.80039H17.1416L16.2728 5.06399C16.1732 4.86469 16.0201 4.69706 15.8306 4.57985C15.6411 4.46265 15.4228 4.40051 15.2 4.40039H12.8ZM10.4 11.6004C10.4 11.2821 10.5264 10.9769 10.7514 10.7519C10.9765 10.5268 11.2817 10.4004 11.6 10.4004C11.9182 10.4004 12.2235 10.5268 12.4485 10.7519C12.6735 10.9769 12.8 11.2821 12.8 11.6004V18.8004C12.8 19.1186 12.6735 19.4239 12.4485 19.6489C12.2235 19.874 11.9182 20.0004 11.6 20.0004C11.2817 20.0004 10.9765 19.874 10.7514 19.6489C10.5264 19.4239 10.4 19.1186 10.4 18.8004V11.6004ZM16.4 10.4004C16.0817 10.4004 15.7765 10.5268 15.5514 10.7519C15.3264 10.9769 15.2 11.2821 15.2 11.6004V18.8004C15.2 19.1186 15.3264 19.4239 15.5514 19.6489C15.7765 19.874 16.0817 20.0004 16.4 20.0004C16.7182 20.0004 17.0235 19.874 17.2485 19.6489C17.4735 19.4239 17.6 19.1186 17.6 18.8004V11.6004C17.6 11.2821 17.4735 10.9769 17.2485 10.7519C17.0235 10.5268 16.7182 10.4004 16.4 10.4004Z" fill="#007AFF"/>
</svg>
