<svg width="28" height="28" viewBox="0 0 28 28" fill="none" xmlns="http://www.w3.org/2000/svg">
<path d="M16.4808 4.0965C16.7777 4.16494 17.0405 4.27379 17.2989 4.4354C17.5573 4.597 17.7666 4.76664 18.3144 5.31438L21.6856 8.68562C22.2334 9.23336 22.403 9.44267 22.5646 9.70107C22.7262 9.95947 22.8351 10.2223 22.9035 10.5192C22.972 10.8162 23 11.0842 23 11.8588V19.1542C23 20.4915 22.8608 20.9764 22.5993 21.4653C22.3378 21.9542 21.9542 22.3378 21.4653 22.5993C20.9764 22.8608 20.4915 23 19.1542 23H9.84583C8.50855 23 8.02362 22.8608 7.53473 22.5993C7.04584 22.3378 6.66216 21.9542 6.4007 21.4653C6.13924 20.9764 6 20.4915 6 19.1542V7.84583C6 6.50855 6.13924 6.02362 6.4007 5.53473C6.66216 5.04584 7.04584 4.66216 7.53473 4.4007C8.02362 4.13924 8.50855 4 9.84583 4H15.1412C15.9158 4 16.1838 4.02805 16.4808 4.0965ZM15.8 5.92427C15.6343 5.92427 15.5 6.05858 15.5 6.22427V10C15.5 10.2762 15.7239 10.5 16 10.5H19.7757C19.8553 10.5 19.9316 10.4684 19.9879 10.4122C20.105 10.295 20.105 10.105 19.9879 9.98789L16.0121 6.01213C15.9559 5.95587 15.8796 5.92427 15.8 5.92427Z" fill="#007AFF"/>
</svg>
