<svg width="24" height="24" viewBox="0 0 24 24" fill="none" xmlns="http://www.w3.org/2000/svg">
<path d="M9.49936 4.91517L9.49939 4.91513L9.49619 4.91251L8.9612 4.47399C8.66129 4.21966 8.38572 4.04346 8.06568 3.93318C7.74668 3.82326 7.39549 3.78301 6.95068 3.78301H4.4458C3.64366 3.78301 2.98502 4.01297 2.52863 4.49842C2.07386 4.98214 1.84502 5.69295 1.84502 6.60352V17.3174C1.84502 18.2547 2.08294 18.9885 2.58821 19.4866C3.09302 19.9841 3.83498 20.217 4.77979 20.217H19.4839C20.3044 20.217 20.9802 19.9778 21.4494 19.4785C21.917 18.9808 22.155 18.2505 22.155 17.3174V8.29102C22.155 7.35748 21.9145 6.62393 21.4085 6.12513C20.9029 5.62676 20.1613 5.39141 19.2202 5.39141H10.7827C10.4979 5.39141 10.2805 5.35791 10.0861 5.28499C9.89158 5.21205 9.70919 5.09562 9.49936 4.91517ZM7.85741 6.02539L7.85797 6.02586L8.3941 6.4741L8.39452 6.47445C8.69093 6.7207 8.96868 6.89429 9.29146 7.00427C9.61293 7.11381 9.96792 7.15645 10.4136 7.15645H19.1938C19.5981 7.15645 19.8906 7.26628 20.0822 7.45704C20.2737 7.64762 20.3899 7.9442 20.3899 8.37012V8.69609H3.61006V6.68262C3.61006 6.27673 3.71634 5.99821 3.89309 5.82058C4.06972 5.64307 4.34362 5.53926 4.73584 5.53926H6.59033C6.86461 5.53926 7.07483 5.57447 7.266 5.6492C7.45818 5.72431 7.64156 5.8434 7.85741 6.02539ZM4.79736 18.452C4.38745 18.452 4.09799 18.3437 3.91036 18.156C3.72276 17.9684 3.61006 17.6746 3.61006 17.2471V10.3732H20.3899V17.2559C20.3899 17.6769 20.274 17.9687 20.0831 18.156C19.8917 18.3438 19.599 18.452 19.1938 18.452H4.79736Z" fill="#99A2AD" stroke="#999FAD" stroke-width="0.35"/>
</svg>
