<svg width="28" height="28" viewBox="0 0 28 28" fill="none" xmlns="http://www.w3.org/2000/svg">
<path d="M23.6 13.4004C23.6 13.8778 23.4103 14.3356 23.0727 14.6732C22.7352 15.0107 22.2773 15.2004 21.8 15.2004C21.3226 15.2004 20.8647 15.0107 20.5272 14.6732C20.1896 14.3356 20 13.8778 20 13.4004V6.20039C20 5.723 20.1896 5.26516 20.5272 4.9276C20.8647 4.59003 21.3226 4.40039 21.8 4.40039C22.2773 4.40039 22.7352 4.59003 23.0727 4.9276C23.4103 5.26516 23.6 5.723 23.6 6.20039V13.4004ZM18.8 13.6008V7.08479C18.8003 6.63892 18.6764 6.20178 18.4422 5.82238C18.208 5.44297 17.8727 5.13632 17.474 4.93679L17.414 4.90679C16.747 4.57345 16.0116 4.40007 15.266 4.40039H8.76795C8.21292 4.40017 7.67497 4.59233 7.24569 4.94416C6.81641 5.29598 6.52234 5.78572 6.41355 6.32999L4.97355 13.53C4.90394 13.8782 4.91249 14.2376 4.99858 14.5822C5.08467 14.9267 5.24615 15.2479 5.47137 15.5224C5.6966 15.797 5.97996 16.0182 6.30101 16.17C6.62206 16.3219 6.97281 16.4005 7.32795 16.4004H11.6V21.2004C11.6 21.8369 11.8528 22.4474 12.3029 22.8974C12.753 23.3475 13.3634 23.6004 14 23.6004C14.3182 23.6004 14.6234 23.474 14.8485 23.2489C15.0735 23.0239 15.2 22.7186 15.2 22.4004V21.6C15.2 20.5614 15.5368 19.5509 16.16 18.72L17.84 16.4808C18.4631 15.6499 18.8 14.6394 18.8 13.6008Z" fill="#007AFF"/>
</svg>
