<svg width="12" height="13" viewBox="0 0 12 13" fill="none" xmlns="http://www.w3.org/2000/svg">
<path fill-rule="evenodd" clip-rule="evenodd" d="M9.34098 3.34091C9.34098 5.18605 7.8452 6.68183 6.00006 6.68183C4.15493 6.68183 2.65915 5.18605 2.65915 3.34091C2.65915 1.49578 4.15493 0 6.00006 0C7.8452 0 9.34098 1.49578 9.34098 3.34091ZM8.00461 3.34091C8.00461 4.448 7.10714 5.34546 6.00006 5.34546C4.89298 5.34546 3.99551 4.448 3.99551 3.34091C3.99551 2.23383 4.89298 1.33637 6.00006 1.33637C7.10714 1.33637 8.00461 2.23383 8.00461 3.34091Z" fill="#007AFF"/>
<path fill-rule="evenodd" clip-rule="evenodd" d="M6.00007 7.35001C4.25108 7.35001 2.89561 7.57366 1.95496 8.06673C1.47452 8.31857 1.0857 8.64945 0.819306 9.07022C0.551345 9.49346 0.431885 9.96893 0.431885 10.4682V10.6909C0.43188 11.552 1.12991 12.25 1.99098 12.25H10.0092C10.8705 12.25 11.5683 11.5514 11.5683 10.6906V10.4682C11.5683 9.96893 11.4488 9.49346 11.1808 9.07022C10.9144 8.64945 10.5256 8.31857 10.0452 8.06673C9.10454 7.57366 7.74907 7.35001 6.00007 7.35001ZM1.76825 10.4682C1.76825 10.1879 1.83299 9.96736 1.94841 9.78507C2.06539 9.60029 2.25912 9.41612 2.57538 9.25034C3.22814 8.90818 4.32267 8.68638 6.00007 8.68638C7.67748 8.68638 8.77201 8.90818 9.42476 9.25034C9.74102 9.41612 9.93475 9.60029 10.0517 9.78507C10.1672 9.96736 10.2319 10.1879 10.2319 10.4682V10.6906C10.2319 10.8139 10.1319 10.9137 10.0092 10.9137H1.99098C1.86797 10.9137 1.76825 10.8139 1.76825 10.6909L1.76825 10.4682Z" fill="#007AFF"/>
</svg>
