<svg width="28" height="28" viewBox="0 0 28 28" fill="none" xmlns="http://www.w3.org/2000/svg">
<path d="M13.9546 14.2061C15.98 14.2061 17.6152 12.4297 17.6152 10.23C17.6152 8.08008 15.98 6.34521 13.9546 6.34521C11.9375 6.34521 10.2773 8.09668 10.2856 10.2466C10.2939 12.4297 11.9209 14.2061 13.9546 14.2061ZM13.9546 12.6289C12.8506 12.6289 11.9209 11.6162 11.9209 10.2383C11.9126 8.91016 12.8506 7.92236 13.9546 7.92236C15.0669 7.92236 15.9883 8.90186 15.9883 10.23C15.9883 11.6079 15.0669 12.6289 13.9546 12.6289ZM8.7998 21.9507H19.0928C20.562 21.9507 21.2842 21.4692 21.2842 20.4565C21.2842 18.1074 18.3706 15.1274 13.9463 15.1274C9.53027 15.1274 6.6167 18.1074 6.6167 20.4565C6.6167 21.4692 7.33057 21.9507 8.7998 21.9507ZM8.61719 20.3818C8.44287 20.3818 8.37646 20.3154 8.37646 20.1743C8.37646 18.9707 10.3853 16.7046 13.9463 16.7046C17.5073 16.7046 19.5244 18.9707 19.5244 20.1743C19.5244 20.3154 19.458 20.3818 19.2754 20.3818H8.61719Z" fill="#007AFF"/>
</svg>
