<svg width="30" height="21" viewBox="0 0 30 21" fill="none" xmlns="http://www.w3.org/2000/svg">
<path d="M11.2568 20.0947C11.9873 20.0947 12.5137 19.5576 12.5137 18.8379V16.9258L15.1348 19.3965C15.6504 19.8799 16.0801 20.0947 16.6064 20.0947C17.3369 20.0947 17.8633 19.5576 17.8633 18.8379V14.7344H18.1748C22.3428 14.7344 24.9639 15.7871 26.8438 19.2998C27.2197 19.9873 27.7139 20.0947 28.165 20.0947C28.7344 20.0947 29.2715 19.5791 29.2715 18.6553C29.2715 10.7168 25.8984 5.76465 18.1748 5.76465H17.8633V1.7041C17.8633 0.984375 17.3369 0.393555 16.585 0.393555C16.0586 0.393555 15.7041 0.619141 15.1348 1.15625L12.5137 3.60547V1.7041C12.5137 0.984375 11.9873 0.393555 11.2354 0.393555C10.709 0.393555 10.3545 0.619141 9.78516 1.15625L1.29883 9.08398C0.879883 9.48145 0.761719 9.87891 0.761719 10.2441C0.761719 10.5986 0.890625 11.0068 1.29883 11.3936L9.78516 19.3965C10.29 19.8799 10.7305 20.0947 11.2568 20.0947ZM15.9941 17.7852C15.9297 17.7852 15.8652 17.7529 15.8008 17.6885L8.15234 10.4482C8.06641 10.3623 8.03418 10.3086 8.03418 10.2441C8.03418 10.1797 8.06641 10.1152 8.15234 10.04L15.8008 2.70312C15.8545 2.66016 15.9189 2.61719 15.9834 2.61719C16.0801 2.61719 16.1338 2.68164 16.1338 2.76758V7.03223C16.1338 7.2793 16.252 7.38672 16.499 7.38672H17.9385C25.3076 7.38672 27.5312 12.5 27.7461 17.5703C27.7461 17.6562 27.7139 17.6885 27.6602 17.6885C27.6172 17.6885 27.5957 17.6562 27.5635 17.5811C26.2959 14.8848 23.041 13.1123 17.9385 13.1123H16.499C16.252 13.1123 16.1338 13.2197 16.1338 13.4668V17.624C16.1338 17.7207 16.0801 17.7852 15.9941 17.7852ZM10.4512 17.6885L2.80273 10.4482C2.7168 10.3623 2.68457 10.3086 2.68457 10.2441C2.68457 10.1797 2.7168 10.1152 2.80273 10.04L10.4512 2.70312C10.5049 2.66016 10.5693 2.61719 10.6338 2.61719C10.7305 2.61719 10.7842 2.68164 10.7842 2.76758V5.2168L6.65918 9.08398C6.24023 9.48145 6.11133 9.87891 6.11133 10.2441C6.11133 10.5986 6.25098 11.0068 6.65918 11.3936L10.7842 15.293V17.624C10.7842 17.7207 10.7305 17.7852 10.6338 17.7852C10.5801 17.7852 10.5156 17.7529 10.4512 17.6885Z" fill="#007AFF"/>
</svg>
