<svg width="26" height="24" viewBox="0 0 26 24" fill="none" xmlns="http://www.w3.org/2000/svg">
<path d="M3.90002 12C3.90002 14.5129 4.91858 16.7879 6.56535 18.4347C8.21213 20.0815 10.4871 21.1 13 21.1C14.6344 21.1 16.1681 20.6185 17.4938 19.8642M22.1 12C22.1 9.48713 21.0815 7.21213 19.4347 5.56535C17.7879 3.91858 15.5129 2.90002 13 2.90002C11.3656 2.90002 9.83189 3.38148 8.50617 4.13582" stroke="white" stroke-width="2" stroke-linecap="round"/>
<path d="M19.4948 11C19.0879 11 18.8514 11.4603 19.0884 11.7911L21.5916 15.2861C21.791 15.5645 22.2051 15.5645 22.4045 15.2861L24.9078 11.7911C25.1447 11.4603 24.9082 11 24.5013 11H19.4948Z" fill="white"/>
<path d="M6.50516 13C6.91214 13 7.14863 12.5397 6.91165 12.2089L4.40844 8.71393C4.20898 8.43546 3.79491 8.43546 3.59546 8.71393L1.09225 12.2089C0.855264 12.5397 1.09175 13 1.49874 13H6.50516Z" fill="white"/>
<path fill-rule="evenodd" clip-rule="evenodd" d="M8.01163 3.26667C9.46463 2.43991 11.1671 1.90002 13 1.90002C15.7888 1.90002 18.3152 3.0316 20.1418 4.85825C21.7474 6.46387 22.816 8.61014 23.0511 11H24.5013C24.9083 11 25.1447 11.4603 24.9078 11.7912L22.4046 15.2861C22.2051 15.5646 21.791 15.5646 21.5916 15.2861L19.0884 11.7912C18.8514 11.4603 19.0879 11 19.4949 11H21.039C20.813 9.16312 19.9725 7.51732 18.7276 6.27246C17.2607 4.80555 15.2371 3.90002 13 3.90002C11.5642 3.90002 10.1992 4.32304 9.00073 5.00497C8.52071 5.2781 7.91016 5.11038 7.63703 4.63037C7.3639 4.15035 7.53161 3.5398 8.01163 3.26667ZM4.96109 13H6.50511C6.91209 13 7.14858 12.5398 6.9116 12.2089L4.40839 8.71396C4.20893 8.43549 3.79486 8.43549 3.59541 8.71396L1.0922 12.2089C0.855213 12.5398 1.0917 13 1.49869 13H2.94896C3.18405 15.3899 4.25263 17.5362 5.85826 19.1418C7.6849 20.9685 10.2113 22.1 13 22.1C14.8329 22.1 16.5354 21.5601 17.9884 20.7334C18.4684 20.4602 18.6361 19.8497 18.363 19.3697C18.0899 18.8896 17.4793 18.7219 16.9993 18.9951C15.8008 19.677 14.4359 20.1 13 20.1C10.763 20.1 8.73938 19.1945 7.27247 17.7276C6.02761 16.4827 5.18704 14.8369 4.96109 13Z" fill="#007AFF"/>
</svg>
