<svg width="24" height="24" viewBox="0 0 24 24" fill="none" xmlns="http://www.w3.org/2000/svg">
<path d="M18.4349 3.85715C18.9085 3.85715 19.2924 4.2409 19.2924 4.71429V7.71429C19.2924 8.18767 18.9085 8.57143 18.4349 8.57143H15.4334C14.9598 8.57143 14.5759 8.18767 14.5759 7.71429C14.5759 7.2409 14.9598 6.85714 15.4334 6.85714H16.5412C15.3313 5.78958 13.7427 5.14286 12.0032 5.14286C8.47247 5.14286 5.5637 7.80941 5.18461 11.237C5.13257 11.7076 4.70877 12.0468 4.23802 11.9948C3.76727 11.9428 3.42784 11.5192 3.47988 11.0487C3.95396 6.7621 7.5885 3.42857 12.0032 3.42857C14.1317 3.42857 16.0788 4.20402 17.5773 5.48622V4.71429C17.5773 4.2409 17.9613 3.85715 18.4349 3.85715Z" fill="#007AFF"/>
<path d="M19.7683 12.0052C20.2391 12.0572 20.5785 12.4808 20.5265 12.9513C20.0524 17.2379 16.4179 20.5714 12.0032 20.5714C9.87469 20.5714 7.92758 19.796 6.42904 18.5138V19.2857C6.42904 19.7591 6.04509 20.1429 5.57148 20.1429C5.09786 20.1429 4.71392 19.7591 4.71392 19.2857V16.2857C4.71392 15.8123 5.09786 15.4286 5.57148 15.4286H8.57294C9.04656 15.4286 9.4305 15.8123 9.4305 16.2857C9.4305 16.7591 9.04656 17.1429 8.57294 17.1429H7.46511C8.67505 18.2104 10.2636 18.8571 12.0032 18.8571C15.5339 18.8571 18.4427 16.1906 18.8217 12.763C18.8738 12.2924 19.2976 11.9532 19.7683 12.0052Z" fill="#007AFF"/>
</svg>
