<svg width="24" height="21" viewBox="0 0 24 21" fill="none" xmlns="http://www.w3.org/2000/svg">
<path d="M10.5635 20.0947C11.2939 20.0947 11.8203 19.5576 11.8203 18.8379V14.7344H12.1318C16.2998 14.7344 18.9209 15.7871 20.8008 19.2998C21.1768 19.9873 21.6709 20.0947 22.1221 20.0947C22.6914 20.0947 23.2285 19.5791 23.2285 18.6553C23.2285 10.7168 19.8662 5.76465 12.1318 5.76465H11.8203V1.7041C11.8203 0.984375 11.2939 0.393555 10.542 0.393555C10.0156 0.393555 9.66113 0.619141 9.0918 1.15625L0.616211 9.08398C0.197266 9.48145 0.0683594 9.87891 0.0683594 10.2441C0.0683594 10.5986 0.208008 11.0068 0.616211 11.3936L9.0918 19.3965C9.60742 19.8799 10.0371 20.0947 10.5635 20.0947ZM9.95117 17.7852C9.88672 17.7852 9.82227 17.7529 9.76855 17.6885L2.10938 10.4482C2.02344 10.3623 1.99121 10.3086 1.99121 10.2441C1.99121 10.1797 2.02344 10.1152 2.10938 10.04L9.75781 2.70312C9.81152 2.66016 9.87598 2.61719 9.94043 2.61719C10.0371 2.61719 10.0908 2.68164 10.0908 2.76758V7.03223C10.0908 7.2793 10.209 7.38672 10.4561 7.38672H11.8955C19.2646 7.38672 21.4883 12.5 21.7031 17.5703C21.7031 17.6562 21.6709 17.6885 21.6172 17.6885C21.5742 17.6885 21.5527 17.6562 21.5205 17.5811C20.2529 14.8848 16.998 13.1123 11.8955 13.1123H10.4561C10.209 13.1123 10.0908 13.2197 10.0908 13.4668V17.624C10.0908 17.7207 10.0371 17.7852 9.95117 17.7852Z" fill="#007AFF"/>
</svg>
