<svg width="21" height="20" viewBox="0 0 21 20" fill="none" xmlns="http://www.w3.org/2000/svg">
<path d="M15.9596 17.92C17.531 17.92 18.3924 17.0654 18.3924 15.501V8.85732C18.3924 7.3618 18.1237 7.07235 17.1243 6.36249L12.2036 2.74431C11.5213 2.255 11.0872 2 10.4462 2C9.81217 2 9.37799 2.255 8.69571 2.74431L3.77498 6.36249C2.78256 7.06545 2.5 7.3618 2.5 8.85732V15.501C2.5 17.0654 3.36147 17.92 4.9328 17.92H15.9596ZM12.3001 11.0627L11.9969 10.7594C11.48 10.2495 10.9631 10.0151 10.4049 10.0151C9.84663 10.0151 9.32975 10.2495 8.80597 10.7594L8.50274 11.0558L4.91901 7.49274L9.63988 3.97794C9.94312 3.75051 10.143 3.63335 10.4462 3.63335C10.7495 3.63335 10.9493 3.75051 11.2526 3.97794L15.9252 7.45829L12.3001 11.0627ZM16.7522 15.439L13.3339 12.0758L16.7522 8.67813V15.439ZM4.14024 15.3494V8.76083L7.47586 12.0689L4.14024 15.3494ZM15.5186 16.2453H5.29117L9.69501 11.8966C9.97068 11.6278 10.1774 11.5175 10.4049 11.5175C10.6323 11.5175 10.839 11.6209 11.1147 11.8966L15.5186 16.2453Z" fill="#007AFF"/>
</svg>
