<svg width="24" height="24" viewBox="0 0 24 24" fill="none" xmlns="http://www.w3.org/2000/svg">
    <path
        d="M9.93548 15.5002C9.8462 15.1542 9.66581 14.8384 9.41309 14.5856C9.16037 14.3329 8.84455 14.1525 8.49848 14.0632L2.36348 12.4812C2.25881 12.4515 2.16668 12.3885 2.10109 12.3017C2.03549 12.2149 2 12.1091 2 12.0002C2 11.8914 2.03549 11.7856 2.10109 11.6988C2.16668 11.612 2.25881 11.549 2.36348 11.5192L8.49848 9.93625C8.84442 9.84706 9.16017 9.66682 9.41288 9.41429C9.66559 9.16175 9.84604 8.84614 9.93548 8.50025L11.5175 2.36525C11.5469 2.26017 11.6099 2.16759 11.6968 2.10164C11.7837 2.0357 11.8899 2 11.999 2C12.1081 2 12.2142 2.0357 12.3012 2.10164C12.3881 2.16759 12.4511 2.26017 12.4805 2.36525L14.0615 8.50025C14.1508 8.84632 14.3311 9.16215 14.5839 9.41487C14.8366 9.66759 15.1524 9.84797 15.4985 9.93725L21.6335 11.5182C21.739 11.5473 21.832 11.6103 21.8983 11.6973C21.9646 11.7844 22.0005 11.8908 22.0005 12.0002C22.0005 12.1097 21.9646 12.2161 21.8983 12.3032C21.832 12.3902 21.739 12.4531 21.6335 12.4822L15.4985 14.0632C15.1524 14.1525 14.8366 14.3329 14.5839 14.5856C14.3311 14.8384 14.1508 15.1542 14.0615 15.5002L12.4795 21.6353C12.4501 21.7403 12.3871 21.8329 12.3002 21.8989C12.2132 21.9648 12.1071 22.0005 11.998 22.0005C11.8889 22.0005 11.7827 21.9648 11.6958 21.8989C11.6089 21.8329 11.5459 21.7403 11.5165 21.6353L9.93548 15.5002Z"
        stroke="#55687D" stroke-width="2" stroke-linecap="round" stroke-linejoin="round" />
    <path d="M20 3V7" stroke="#55687D" stroke-width="2" stroke-linecap="round"
        stroke-linejoin="round" />
    <path d="M22 5H18" stroke="#55687D" stroke-width="2" stroke-linecap="round"
        stroke-linejoin="round" />
    <path d="M4 17V19" stroke="#55687D" stroke-width="2" stroke-linecap="round"
        stroke-linejoin="round" />
    <path d="M5 18H3" stroke="#55687D" stroke-width="2" stroke-linecap="round"
        stroke-linejoin="round" />
</svg>
