<svg width="40" height="40" viewBox="0 0 40 40" fill="none" xmlns="http://www.w3.org/2000/svg">
<circle cx="20" cy="20" r="18" fill="#3C3C43" fill-opacity="0.18"/>
<path fill-rule="evenodd" clip-rule="evenodd" d="M20.7355 10.3422C20.555 10.133 20.2914 10 19.9951 10C19.6865 10 19.4135 10.1449 19.233 10.3696C19.1945 10.4179 12.3897 17.225 12.3897 17.225C12.0034 17.614 12.0034 18.3302 12.3897 18.7188C12.7759 19.1078 13.5681 19.1078 13.9539 18.7188L18.8637 13.7378V28.7207C18.8637 29.2736 19.4492 29.7 19.9951 29.7C20.5416 29.7 21.1565 29.2736 21.1565 28.7207V13.7378L26.1093 18.8763C26.4951 19.2653 27.224 19.2653 27.6103 18.8763C27.9965 18.4878 27.9965 17.614 27.6103 17.225C27.6103 17.225 20.7726 10.385 20.7355 10.3422Z" fill="white"/>
</svg>
