<svg width="28" height="28" viewBox="0 0 28 28" fill="none" xmlns="http://www.w3.org/2000/svg">
    <defs>
        <linearGradient id="paint0_linear_4501_192118" x1="4" y1="20" x2="41" y2="19.5"
            gradientUnits="userSpaceOnUse">
            <stop stop-color="#F40303" />
            <stop offset="0.188171" stop-color="#EBEF31" />
            <stop offset="0.313936" stop-color="#73E960" />
            <stop offset="0.504726" stop-color="#3532D7" />
            <stop offset="0.552173" stop-color="#5BECE3" />
            <stop offset="0.854664" stop-color="#D732A9" />
            <stop offset="1" stop-color="#F40303" />
        </linearGradient>
    </defs>
    <path
        d="M18.7606 18C19.4812 18 20 17.6019 20 17.0332C20 16.8463 19.952 16.6594 19.8367 16.3913L15.8014 7.12932C15.4556 6.34123 14.8983 6 13.9856 6C13.0825 6 12.5252 6.35748 12.189 7.13744L8.16333 16.3913C8.04804 16.6432 8 16.8707 8 17.0332C8 17.6263 8.48999 18 9.249 18C9.89271 18 10.2578 17.7319 10.4884 17.0982L11.4011 14.872H16.5797L17.4924 17.1144C17.7134 17.74 18.0881 18 18.7606 18ZM15.9744 13.2146H11.9872L13.9376 8.20988H14.0048L15.9744 13.2146Z"
        fill="#99A2AD" />
    <rect x="6" y="20" width="16" height="2.5" rx="1.25" fill="url(#paint0_linear_4501_192118)" />
</svg>
