<svg width="28" height="28" viewBox="0 0 28 28" fill="none" xmlns="http://www.w3.org/2000/svg">
<path fill-rule="evenodd" clip-rule="evenodd" d="M14 28C21.732 28 28 21.732 28 14C28 6.26801 21.732 0 14 0C6.26801 0 0 6.26801 0 14C0 21.732 6.26801 28 14 28ZM19.7071 12.2929L14.7071 7.29289C14.3166 6.90237 13.6834 6.90237 13.2929 7.29289L8.29289 12.2929C7.90237 12.6834 7.90237 13.3166 8.29289 13.7071C8.68342 14.0976 9.31658 14.0976 9.70711 13.7071L13 10.4142V20C13 20.5523 13.4477 21 14 21C14.5523 21 15 20.5523 15 20V10.4142L18.2929 13.7071C18.6834 14.0976 19.3166 14.0976 19.7071 13.7071C20.0976 13.3166 20.0976 12.6834 19.7071 12.2929Z" fill="#99A2AD"/>
</svg>
