<svg width="24" height="24" viewBox="0 0 24 24" fill="none" xmlns="http://www.w3.org/2000/svg">
<path d="M20.228 11.4857C20.228 11.8949 20.0655 12.2873 19.7761 12.5767C19.4868 12.866 19.0944 13.0286 18.6852 13.0286C18.276 13.0286 17.8836 12.866 17.5942 12.5767C17.3049 12.2873 17.1423 11.8949 17.1423 11.4857V5.31428C17.1423 4.90509 17.3049 4.51266 17.5942 4.22332C17.8836 3.93397 18.276 3.77142 18.6852 3.77142C19.0944 3.77142 19.4868 3.93397 19.7761 4.22332C20.0655 4.51266 20.228 4.90509 20.228 5.31428V11.4857ZM16.1138 11.6575V6.07234C16.114 5.69016 16.0078 5.31547 15.8071 4.99027C15.6063 4.66507 15.319 4.40222 14.9772 4.2312L14.9258 4.20548C14.3541 3.91976 13.7237 3.77115 13.0846 3.77142H7.5149C7.03916 3.77124 6.57805 3.93595 6.2101 4.23751C5.84215 4.53907 5.59009 4.95885 5.49684 5.42537L4.26256 11.5968C4.20289 11.8953 4.21022 12.2033 4.28401 12.4986C4.3578 12.794 4.49621 13.0692 4.68926 13.3046C4.88231 13.54 5.12519 13.7296 5.40038 13.8597C5.67557 13.9898 5.97621 14.0573 6.28061 14.0571H9.94233V18.1714C9.94233 18.717 10.1591 19.2403 10.5449 19.626C10.9306 20.0118 11.4539 20.2286 11.9995 20.2286C12.2723 20.2286 12.5339 20.1202 12.7268 19.9273C12.9197 19.7344 13.028 19.4728 13.028 19.2V18.5139C13.028 17.6237 13.3168 16.7575 13.8509 16.0454L15.2909 14.1261C15.825 13.4139 16.1138 12.5477 16.1138 11.6575Z" fill="#007AFF"/>
</svg>
