<svg width="28" height="28" viewBox="0 0 28 28" fill="none" xmlns="http://www.w3.org/2000/svg">
    <path fill-rule="evenodd" clip-rule="evenodd"
        d="M19.5 9.5C19.5 6.46147 17.0385 4 14 4C10.9615 4 8.5 6.46147 8.5 9.5C8.5 12.5385 10.9615 15 14 15C17.0385 15 19.5 12.5385 19.5 9.5ZM10.5 9.5C10.5 7.56603 12.066 6 14 6C15.934 6 17.5 7.56603 17.5 9.5C17.5 11.434 15.934 13 14 13C12.066 13 10.5 11.434 10.5 9.5Z"
        fill="#007AFF" />
    <path
        d="M16.5001 24.5C17.0523 24.5 17.5 24.0523 17.5 23.5001C17.5 22.9479 17.0523 22.5002 16.5001 22.5002L7.37213 22.5006L7.33233 22.5012C7.18713 22.5034 7.10358 22.5046 7.05605 22.4639C6.99162 22.4087 6.99335 22.2763 6.99742 21.9644C6.99861 21.8734 7 21.767 7 21.6429C7 19.3547 10.304 18 14.25 18C15.5976 18 16.8703 18.158 17.9621 18.4572C18.5322 18.6135 19.1555 18.3148 19.3254 17.7487C19.4766 17.2448 19.2133 16.7026 18.707 16.5598C17.37 16.1826 15.8438 16 14.25 16C9.29892 16 5 17.7626 5 21.6429C5 23.6593 5.78111 24.5 7.45588 24.5H16.5001Z"
        fill="#007AFF" />
    <path
        d="M23.5611 19.351C23.8584 19.4204 24.1403 19.5388 24.3955 19.7H24.1542C23.7952 19.7 23.5042 19.991 23.5042 20.35C23.5042 20.709 23.7952 21 24.1542 21H25.8542C26.2132 21 26.5042 20.709 26.5042 20.35V18.65C26.5042 18.291 26.2132 18 25.8542 18C25.4952 18 25.2041 18.291 25.2041 18.65V18.7001C25.1774 18.6818 25.1504 18.6638 25.1233 18.6461C24.7361 18.3945 24.3063 18.2105 23.8517 18.1045C23.0668 17.9215 22.2449 17.9799 21.4937 18.272C20.7425 18.5642 20.0971 19.0764 19.642 19.7416C19.3255 20.2045 19.1112 20.7264 19.0102 21.2727C18.9368 21.6699 19.271 22 19.675 22C19.9779 22 20.2179 21.752 20.2786 21.4551C20.3509 21.102 20.493 20.7648 20.6985 20.4643C21.008 20.0119 21.4468 19.6636 21.9577 19.465C22.4684 19.2663 23.0274 19.2266 23.5611 19.351Z"
        fill="#007AFF" />
    <path
        d="M20.5436 25.2001V25.35C20.5436 25.709 20.2526 26 19.8936 26C19.5346 26 19.2436 25.709 19.2436 25.35V23.65C19.2436 23.291 19.5346 23 19.8936 23H21.5935C21.9525 23 22.2436 23.291 22.2436 23.65C22.2436 24.009 21.9525 24.3 21.5935 24.3H21.4915C21.7469 24.4612 22.0286 24.5797 22.326 24.649C22.8597 24.7734 23.4186 24.7337 23.9294 24.535C24.4402 24.3364 24.8791 23.9881 25.1885 23.5357C25.3941 23.2352 25.5362 22.8981 25.6084 22.5449C25.6691 22.2481 25.9091 22 26.2121 22C26.616 22 26.9502 22.3301 26.8769 22.7274C26.7758 23.2736 26.5616 23.7955 26.245 24.2584C25.79 24.9237 25.1446 25.4359 24.3933 25.728C23.6421 26.0201 22.8202 26.0786 22.0353 25.8955C21.5807 25.7896 21.1509 25.6055 20.7637 25.3539C20.6888 25.3051 20.6153 25.2539 20.5436 25.2001Z"
        fill="#007AFF" />
</svg>
