<svg width="24" height="24" viewBox="0 0 24 24" fill="none" xmlns="http://www.w3.org/2000/svg">
<path d="M5.73868 15.7541C5.05303 17.609 4.62218 18.9122 4.44611 19.6638C3.89277 22.026 3.49042 22.5581 5.55279 21.4355C7.61516 20.3129 17.5994 14.7519 19.8269 13.516C22.7306 11.905 22.7694 12.0309 19.6711 10.3204C17.3114 9.0176 7.4442 3.60166 5.55279 2.53825C3.66138 1.47483 3.89277 1.94771 4.44611 4.30986C4.62446 5.07122 5.06157 6.38609 5.75745 8.25446C6.24415 9.56121 7.37624 10.5202 8.74523 10.7854L14.5097 11.9019C14.5639 11.9128 14.599 11.9655 14.5882 12.0196C14.5802 12.0592 14.5493 12.0901 14.5097 12.0981L8.73224 13.2136C7.3588 13.4788 6.22367 14.4421 5.73868 15.7541Z" fill="white"/>
</svg>
