<svg width="28" height="28" viewBox="0 0 28 28" fill="none" xmlns="http://www.w3.org/2000/svg">
<path d="M3.48633 13.9904C3.48633 14.1164 3.51299 14.2388 3.56631 14.3575C3.61962 14.4763 3.6996 14.5842 3.80624 14.6811L8.51039 18.9199C8.70427 19.0993 8.91754 19.1853 9.15021 19.178C9.38287 19.1708 9.57918 19.0774 9.73913 18.8981C9.89909 18.7139 9.97059 18.5055 9.95362 18.2728C9.93666 18.0402 9.83365 17.8414 9.64462 17.6766L5.58029 13.9904L9.64462 10.3041C9.83365 10.1345 9.93666 9.93333 9.95362 9.70066C9.97059 9.468 9.89909 9.262 9.73913 9.08265C9.57918 8.90331 9.38287 8.81 9.15021 8.80273C8.91754 8.79546 8.70427 8.8815 8.51039 9.06084L3.80624 13.2997C3.6996 13.3966 3.61962 13.5045 3.56631 13.6232C3.51299 13.742 3.48633 13.8644 3.48633 13.9904ZM11.9785 20.963C12.2209 21.0308 12.4426 21.0054 12.6438 20.8866C12.8449 20.7679 12.9819 20.5873 13.0546 20.345L16.6318 8.0793C16.7045 7.85148 16.6875 7.63699 16.5809 7.43584C16.4742 7.23468 16.2997 7.1026 16.0574 7.03958C15.8199 6.97173 15.6017 6.99111 15.403 7.09775C15.2043 7.20439 15.0686 7.391 14.9959 7.65759L11.4332 19.8651C11.3605 20.1172 11.3702 20.3462 11.4623 20.5522C11.5544 20.7582 11.7265 20.8951 11.9785 20.963ZM24.5132 13.9904C24.5132 13.8644 24.4878 13.742 24.4369 13.6232C24.386 13.5045 24.3072 13.3966 24.2006 13.2997L19.4964 9.06084C19.3025 8.8815 19.0905 8.79546 18.8602 8.80273C18.63 8.81 18.4325 8.90331 18.2677 9.08265C18.1029 9.262 18.029 9.468 18.0459 9.70066C18.0629 9.93333 18.1659 10.1345 18.3549 10.3041L22.4265 13.9904L18.3549 17.6766C18.1659 17.8414 18.0629 18.0402 18.0459 18.2728C18.029 18.5055 18.1029 18.7139 18.2677 18.8981C18.4325 19.0774 18.63 19.1708 18.8602 19.178C19.0905 19.1853 19.3025 19.0993 19.4964 18.9199L24.2006 14.6811C24.3072 14.5842 24.386 14.4763 24.4369 14.3575C24.4878 14.2388 24.5132 14.1164 24.5132 13.9904Z" fill="#99A2AD"/>
</svg>
