<svg width="28" height="28" viewBox="0 0 28 28" fill="none" xmlns="http://www.w3.org/2000/svg">
<path d="M9.83423 21H14.9349C15.9335 21 16.7983 20.8352 17.5293 20.5056C18.2603 20.176 18.8249 19.7126 19.223 19.1154C19.6212 18.5182 19.8202 17.8149 19.8202 17.0056C19.8202 16.366 19.6783 15.7981 19.3944 15.3021C19.1105 14.8061 18.7156 14.4079 18.2098 14.1077C17.7039 13.8075 17.1181 13.641 16.4524 13.6084V13.5301C16.9941 13.4517 17.4706 13.2739 17.8818 12.9965C18.293 12.7191 18.6128 12.3667 18.8412 11.9392C19.0697 11.5117 19.1839 11.0401 19.1839 10.5245C19.1839 9.8 19.006 9.17343 18.6503 8.64476C18.2946 8.11608 17.7904 7.70979 17.1377 7.42587C16.485 7.14196 15.7051 7 14.7979 7H9.83423C9.31209 7 8.90579 7.14685 8.61535 7.44056C8.32491 7.73427 8.17969 8.15198 8.17969 8.69371V19.3161C8.17969 19.8513 8.32491 20.2657 8.61535 20.5594C8.90579 20.8531 9.31209 21 9.83423 21ZM11.4105 18.7385V14.8517H13.8678C14.7293 14.8517 15.3902 15.0149 15.8503 15.3413C16.3105 15.6676 16.5405 16.1441 16.5405 16.7706C16.5405 17.4103 16.317 17.8981 15.8699 18.2343C15.4228 18.5704 14.7783 18.7385 13.9363 18.7385H11.4105ZM11.4105 12.8154V9.3007H13.8188C14.5042 9.3007 15.0394 9.45082 15.4244 9.75105C15.8095 10.0513 16.0021 10.469 16.0021 11.0042C16.0021 11.572 15.7883 12.0159 15.3608 12.3357C14.9333 12.6555 14.3377 12.8154 13.5741 12.8154H11.4105Z" fill="#99A2AD"/>
</svg>
