<svg width="21" height="20" viewBox="0 0 21 20" fill="none" xmlns="http://www.w3.org/2000/svg">
<path d="M18.5 9.5C18.5 9.89783 18.342 10.2794 18.0607 10.5607C17.7794 10.842 17.3978 11 17 11C16.6022 11 16.2206 10.842 15.9393 10.5607C15.658 10.2794 15.5 9.89783 15.5 9.5V3.5C15.5 3.10218 15.658 2.72064 15.9393 2.43934C16.2206 2.15804 16.6022 2 17 2C17.3978 2 17.7794 2.15804 18.0607 2.43934C18.342 2.72064 18.5 3.10218 18.5 3.5V9.5ZM14.5 9.667V4.237C14.5003 3.86544 14.397 3.50116 14.2018 3.18499C14.0067 2.86882 13.7273 2.61327 13.395 2.447L13.345 2.422C12.7892 2.14422 12.1763 1.99973 11.555 2H6.14C5.67747 1.99982 5.22918 2.15995 4.87145 2.45314C4.51371 2.74633 4.26866 3.15444 4.178 3.608L2.978 9.608C2.91999 9.89821 2.92712 10.1977 2.99886 10.4848C3.0706 10.7719 3.20516 11.0396 3.39285 11.2684C3.58054 11.4972 3.81667 11.6815 4.08422 11.808C4.35176 11.9346 4.64405 12.0001 4.94 12H8.5V16C8.5 16.5304 8.71072 17.0391 9.08579 17.4142C9.46086 17.7893 9.96957 18 10.5 18C10.7652 18 11.0196 17.8946 11.2071 17.7071C11.3946 17.5196 11.5 17.2652 11.5 17V16.333C11.5 15.4675 11.7807 14.6254 12.3 13.933L13.7 12.067C14.2193 11.3746 14.5 10.5325 14.5 9.667Z" fill="#007AFF"/>
</svg>
