<svg width="28" height="28" viewBox="0 0 28 28" fill="none" xmlns="http://www.w3.org/2000/svg">
<path d="M13.9678 21C15.045 21 15.9805 20.8288 16.7743 20.4863C17.5682 20.1439 18.1846 19.6598 18.6236 19.034C19.0625 18.4083 19.282 17.6782 19.282 16.8439C19.282 15.8352 18.9629 15.0429 18.3247 14.467C17.6865 13.891 16.6732 13.4474 15.2847 13.1361L13.6876 12.7718C12.7786 12.5602 12.1201 12.3064 11.7123 12.0107C11.3045 11.7149 11.1006 11.3211 11.1006 10.8292C11.1006 10.4307 11.2235 10.0758 11.4695 9.76451C11.7154 9.45319 12.0532 9.21192 12.4828 9.04069C12.9124 8.86947 13.4043 8.78386 13.9585 8.78386C14.4566 8.78386 14.9049 8.8539 15.3034 8.994C15.7018 9.13409 16.0443 9.34267 16.3307 9.61975C16.6171 9.89682 16.8475 10.2377 17.0218 10.6424C17.2273 11.0036 17.5262 11.1841 17.9184 11.1841C18.2048 11.1841 18.4321 11.1032 18.6002 10.9413C18.7683 10.7794 18.8524 10.5646 18.8524 10.2969C18.8524 10.2221 18.8477 10.1459 18.8384 10.068C18.829 9.99022 18.8119 9.91083 18.787 9.82989C18.6376 9.26951 18.3387 8.77763 17.8904 8.35424C17.4421 7.93084 16.8802 7.59929 16.2046 7.35957C15.5291 7.11986 14.7803 7 13.9585 7C12.9809 7 12.1123 7.16967 11.3527 7.50901C10.5931 7.84834 9.99693 8.31999 9.5642 8.92395C9.13146 9.52791 8.9151 10.2221 8.9151 11.0067C8.9151 11.9593 9.22486 12.7298 9.84438 13.3182C10.4639 13.9066 11.415 14.344 12.6976 14.6304L14.4535 15.032C15.3936 15.2562 16.0692 15.5255 16.4801 15.8399C16.8911 16.1543 17.0965 16.573 17.0965 17.0961C17.0965 17.507 16.9642 17.8728 16.6996 18.1935C16.435 18.5141 16.0676 18.7663 15.5976 18.95C15.1275 19.1336 14.5842 19.2255 13.9678 19.2255C13.4261 19.2255 12.9311 19.1477 12.4828 18.992C12.0345 18.8363 11.6485 18.6106 11.3247 18.3149C11.0009 18.0191 10.7519 17.6689 10.5775 17.2642C10.4655 17.0587 10.3425 16.9093 10.2086 16.8159C10.0748 16.7225 9.90198 16.6758 9.69028 16.6758C9.39764 16.6758 9.16571 16.7598 8.99448 16.928C8.82326 17.0961 8.73764 17.3202 8.73764 17.6004C8.73764 17.7934 8.76566 17.9864 8.8217 18.1795C8.99604 18.7585 9.32137 19.2582 9.79768 19.6785C10.274 20.0987 10.8686 20.4241 11.5815 20.6544C12.2945 20.8848 13.0899 21 13.9678 21ZM6.56153 14.4343H21.4394C21.5827 14.4343 21.7041 14.3829 21.8037 14.2802C21.9033 14.1775 21.9531 14.0576 21.9531 13.9206C21.9531 13.7836 21.9033 13.6638 21.8037 13.561C21.7041 13.4583 21.5827 13.4069 21.4394 13.4069H6.56153C6.41832 13.4069 6.29691 13.4583 6.19728 13.561C6.09766 13.6638 6.04785 13.7836 6.04785 13.9206C6.04785 14.0576 6.09766 14.1775 6.19728 14.2802C6.29691 14.3829 6.41832 14.4343 6.56153 14.4343Z" fill="#99A2AD"/>
</svg>
