<svg width="28" height="28" viewBox="0 0 28 28" fill="none" xmlns="http://www.w3.org/2000/svg">
<path d="M1.98438 13.989C1.98438 14.133 2.01484 14.2729 2.07578 14.4086C2.13671 14.5443 2.22812 14.6676 2.34999 14.7784L7.72616 19.6228C7.94774 19.8277 8.19148 19.9261 8.45738 19.9177C8.72328 19.9094 8.94763 19.8028 9.13044 19.5978C9.31325 19.3873 9.39496 19.1491 9.37557 18.8832C9.35618 18.6173 9.23846 18.3902 9.02242 18.2019L4.37748 13.989L9.02242 9.77615C9.23846 9.58227 9.35618 9.35237 9.37557 9.08647C9.39496 8.82057 9.31325 8.58514 9.13044 8.38018C8.94763 8.17521 8.72328 8.06857 8.45738 8.06026C8.19148 8.05195 7.94774 8.15028 7.72616 8.35525L2.34999 13.1996C2.22812 13.3104 2.13671 13.4337 2.07578 13.5694C2.01484 13.7051 1.98438 13.845 1.98438 13.989ZM11.6897 21.9577C11.9667 22.0353 12.2201 22.0062 12.45 21.8705C12.6799 21.7347 12.8364 21.5284 12.9195 21.2514L17.0077 7.23348C17.0908 6.97312 17.0714 6.72799 16.9496 6.4981C16.8277 6.26821 16.6283 6.11725 16.3513 6.04524C16.0799 5.96769 15.8306 5.98984 15.6034 6.11171C15.3763 6.23359 15.2212 6.44686 15.1381 6.75154L11.0665 20.703C10.9834 20.991 10.9945 21.2528 11.0998 21.4882C11.205 21.7237 11.4017 21.8801 11.6897 21.9577ZM26.0151 13.989C26.0151 13.845 25.986 13.7051 25.9278 13.5694C25.8697 13.4337 25.7797 13.3104 25.6578 13.1996L20.2816 8.35525C20.06 8.15028 19.8177 8.05195 19.5546 8.06026C19.2914 8.06857 19.0657 8.17521 18.8773 8.38018C18.689 8.58514 18.6045 8.82057 18.6239 9.08647C18.6433 9.35237 18.761 9.58227 18.9771 9.77615L23.6303 13.989L18.9771 18.2019C18.761 18.3902 18.6433 18.6173 18.6239 18.8832C18.6045 19.1491 18.689 19.3873 18.8773 19.5978C19.0657 19.8028 19.2914 19.9094 19.5546 19.9177C19.8177 19.9261 20.06 19.8277 20.2816 19.6228L25.6578 14.7784C25.7797 14.6676 25.8697 14.5443 25.9278 14.4086C25.986 14.2729 26.0151 14.133 26.0151 13.989Z" fill="#AEAEC0"/>
</svg>
