<svg width="21" height="21" viewBox="0 0 21 21" fill="none" xmlns="http://www.w3.org/2000/svg">
    <path
        d="M3.38581 11.5441L8.20407 16.4223C9.65945 17.8958 12.0338 17.9105 13.5073 16.4552L16.4445 13.5541C16.6197 14.3625 16.3903 15.2405 15.7582 15.8648L13.7936 17.8053C12.1563 19.4224 9.51819 19.4061 7.90111 17.7688L4.3459 14.1694C3.72466 13.5404 3.37872 12.6904 3.38419 11.8064L3.38581 11.5441ZM15.783 11.8649L12.3361 15.2694C11.5175 16.0779 10.1984 16.0698 9.38985 15.2512L4.37065 10.1694C3.74941 9.54047 3.40347 8.69047 3.40894 7.80643L3.42876 4.60387C3.43588 3.4533 4.37437 2.52635 5.52494 2.53347L8.7275 2.55328C9.61154 2.55875 10.4572 2.91518 11.0784 3.54416L15.8048 8.32942C16.7751 9.31175 16.7653 10.8946 15.783 11.8649ZM7.57214 8.37958C8.4926 8.38527 9.2434 7.64371 9.24909 6.72326C9.25479 5.8028 8.51323 5.052 7.59277 5.04631C6.67231 5.04061 5.92152 5.78217 5.91582 6.70263C5.91013 7.62309 6.65169 8.37388 7.57214 8.37958Z"
        fill="#007AFF" />
</svg>
