<svg width="24" height="24" viewBox="0 0 24 24" fill="none" xmlns="http://www.w3.org/2000/svg">
<path d="M24 12C24 18.6274 18.6274 24 12 24C5.37258 24 0 18.6274 0 12C0 5.37258 5.37258 0 12 0C18.6274 0 24 5.37258 24 12Z" fill="#007AFF"/>
<path d="M17.6 12.6484C17.6 12.9269 17.4894 13.194 17.2925 13.3909C17.0956 13.5878 16.8285 13.6984 16.55 13.6984C16.2715 13.6984 16.0045 13.5878 15.8076 13.3909C15.6106 13.194 15.5 12.9269 15.5 12.6484V8.44844C15.5 8.16996 15.6106 7.90289 15.8076 7.70598C16.0045 7.50906 16.2715 7.39844 16.55 7.39844C16.8285 7.39844 17.0956 7.50906 17.2925 7.70598C17.4894 7.90289 17.6 8.16996 17.6 8.44844V12.6484ZM14.8 12.7653V8.96434C14.8002 8.70425 14.7279 8.44925 14.5913 8.22793C14.4547 8.00661 14.2591 7.82773 14.0265 7.71134L13.9915 7.69384C13.6025 7.49939 13.1735 7.39825 12.7385 7.39844H8.94801C8.62424 7.39831 8.31044 7.5104 8.06002 7.71564C7.80961 7.92087 7.63807 8.20655 7.57461 8.52404L6.73461 12.724C6.69401 12.9272 6.69899 13.1368 6.74921 13.3378C6.79943 13.5388 6.89363 13.7261 7.02501 13.8863C7.15639 14.0465 7.32168 14.1755 7.50896 14.2641C7.69625 14.3526 7.90085 14.3985 8.10801 14.3984H10.6V17.1984C10.6 17.5697 10.7475 17.9258 11.0101 18.1884C11.2726 18.4509 11.6287 18.5984 12 18.5984C12.1857 18.5984 12.3637 18.5247 12.495 18.3934C12.6263 18.2621 12.7 18.0841 12.7 17.8984V17.4315C12.7 16.8257 12.8965 16.2362 13.26 15.7515L14.24 14.4453C14.6035 13.9607 14.8 13.3712 14.8 12.7653Z" fill="white"/>
</svg>
