<svg width="24" height="24" viewBox="0 0 24 24" fill="none" xmlns="http://www.w3.org/2000/svg">
    <path
        d="M2.57153 5.99997C2.57153 5.52658 2.95529 5.14282 3.42868 5.14282H10.2858C10.7592 5.14282 11.143 5.52658 11.143 5.99997C11.143 6.47335 10.7592 6.85711 10.2858 6.85711L7.71439 6.85711V12.8571C7.71439 13.3305 7.33063 13.7143 6.85725 13.7143C6.38386 13.7143 6.0001 13.3305 6.0001 12.8571V6.85711L3.42868 6.85711C2.95529 6.85711 2.57153 6.47335 2.57153 5.99997Z"
        fill="#55687D" />
    <path
        d="M14.5715 6.85711C14.0981 6.85711 13.7144 7.24086 13.7144 7.71425C13.7144 8.18764 14.0981 8.57139 14.5715 8.57139L20.5715 8.57139C21.0449 8.57139 21.4287 8.18764 21.4287 7.71425C21.4287 7.24086 21.0449 6.85711 20.5715 6.85711L14.5715 6.85711Z"
        fill="#55687D" />
    <path
        d="M10.2858 12.8571C10.2858 12.3837 10.6696 12 11.143 12L20.5715 12C21.0449 12 21.4287 12.3837 21.4287 12.8571C21.4287 13.3305 21.0449 13.7143 20.5715 13.7143L11.143 13.7143C10.6696 13.7143 10.2858 13.3305 10.2858 12.8571Z"
        fill="#55687D" />
    <path
        d="M6.0001 18C6.0001 17.5266 6.38386 17.1428 6.85725 17.1428L20.5715 17.1428C21.0449 17.1428 21.4287 17.5266 21.4287 18C21.4287 18.4734 21.0449 18.8571 20.5715 18.8571L6.85725 18.8571C6.38386 18.8571 6.0001 18.4734 6.0001 18Z"
        fill="#55687D" />
</svg>
