<svg width="24" height="24" viewBox="0 0 24 24" fill="none" xmlns="http://www.w3.org/2000/svg">
<rect width="24" height="24" rx="12" fill="#007AFF"/>
<path fill-rule="evenodd" clip-rule="evenodd" d="M5.51256 7.48816C5.18437 7.80072 5 8.22464 5 8.66667V15.3333C5 15.7754 5.18437 16.1993 5.51256 16.5118C5.84075 16.8244 6.28587 17 6.75 17H17.25C17.7141 17 18.1592 16.8244 18.4874 16.5118C18.8156 16.1993 19 15.7754 19 15.3333V10.3333C19 9.89131 18.8156 9.46738 18.4874 9.15482C18.1592 8.84226 17.7141 8.66667 17.25 8.66667H12.875L11.125 7H6.75C6.28587 7 5.84075 7.17559 5.51256 7.48816ZM14.4758 12.9634H10.5232L11.8885 14.2636C12.0794 14.4454 12.0794 14.7402 11.8885 14.922C11.6976 15.1038 11.3881 15.1038 11.1972 14.922L8.99742 12.827C8.80652 12.6452 8.80652 12.3504 8.99742 12.1686L11.1972 10.0736C11.3881 9.8918 11.6976 9.8918 11.8885 10.0736C12.0794 10.2554 12.0794 10.5502 11.8885 10.732L10.5232 12.0323H14.4758C14.7458 12.0323 14.9647 12.2407 14.9647 12.4978C14.9647 12.7549 14.7458 12.9634 14.4758 12.9634Z" fill="white"/>
</svg>
