<svg width="24" height="24" viewBox="0 0 24 24" fill="none" xmlns="http://www.w3.org/2000/svg">
<path d="M14.4859 8.83364L14.7206 9.37496L15.3079 9.4313L19.8142 9.86364C20.2806 9.90838 20.3945 10.1199 20.4164 10.1898C20.4374 10.2572 20.466 10.4906 20.1087 10.7875L16.5807 13.7196L16.0851 14.1316L16.2555 14.7531L17.5652 19.5297C17.6968 20.0096 17.519 20.1608 17.495 20.1777C17.4735 20.1929 17.2752 20.312 16.8657 20.0227L12.579 16.9948L12.0021 16.5873L11.4251 16.9948L7.13841 20.0227C6.73296 20.3091 6.5336 20.1922 6.50995 20.1755C6.48516 20.1581 6.30785 20.0078 6.43893 19.5297L7.74862 14.7531L7.91904 14.1316L7.42339 13.7196L3.89544 10.7875C3.53264 10.486 3.56331 10.2521 3.58322 10.1883C3.60388 10.1222 3.71624 9.90907 4.18963 9.86364L8.69513 9.4313L9.28231 9.37496L9.51703 8.83379L11.502 4.2572C11.6858 3.83361 11.9207 3.78465 12.002 3.78467C12.0834 3.78468 12.3183 3.83389 12.5019 4.2572L14.4859 8.83364Z" stroke="#99A2AD" stroke-width="2"/>
</svg>
