<svg width="21" height="20" viewBox="0 0 21 20" fill="none" xmlns="http://www.w3.org/2000/svg">
<path d="M16.5139 7.99074C17.7854 7.99074 18.8393 6.93686 18.8393 5.6586C18.8393 4.38714 17.7854 3.33325 16.5139 3.33325C15.2357 3.33325 14.1818 4.38714 14.1818 5.6586C14.1818 6.93686 15.2357 7.99074 16.5139 7.99074ZM15.5552 16.6666C16.9967 16.6666 17.8398 15.8167 17.8398 14.28V8.71826C17.3435 8.96303 16.7859 9.05142 16.2216 8.97663V13.7769L12.8559 10.4385L14.7937 8.53468C14.379 8.28991 14.0254 7.94994 13.767 7.55559L10.7074 10.5813C10.4354 10.8464 10.2314 10.9552 10.0071 10.9552C9.78268 10.9552 9.57871 10.8464 9.30674 10.5813L4.69684 6.01896H13.2095C13.1143 5.47502 13.1959 4.86988 13.4271 4.36674H4.45207C3.01063 4.36674 2.16072 5.20985 2.16072 6.75328V14.28C2.16072 15.8235 3.01063 16.6666 4.56086 16.6666H15.5552ZM3.77894 13.7905V7.12044L7.15137 10.4385L3.77894 13.7905ZM15.3717 15.0144H4.62885C4.60845 15.0144 4.59485 15.0076 4.58125 15.0076L8.17126 11.438L8.42963 11.6963C8.94637 12.1995 9.45632 12.4307 10.0071 12.4307C10.5578 12.4307 11.0677 12.1995 11.5777 11.6963L11.8429 11.438L15.4329 15.0076C15.4125 15.0076 15.3921 15.0144 15.3717 15.0144Z" fill="#007AFF"/>
</svg>
