<svg width="20" height="20" viewBox="0 0 20 20" fill="none" xmlns="http://www.w3.org/2000/svg">
<path fill-rule="evenodd" clip-rule="evenodd" d="M11.4902 3.17C11.1102 1.61 8.89024 1.61 8.51024 3.17C8.45351 3.40442 8.34223 3.62212 8.18546 3.80541C8.02869 3.9887 7.83087 4.13238 7.60808 4.22477C7.3853 4.31716 7.14384 4.35564 6.90338 4.33709C6.66291 4.31854 6.43022 4.24347 6.22424 4.118C4.85224 3.282 3.28224 4.852 4.11824 6.224C4.65824 7.11 4.17924 8.266 3.17124 8.511C1.61024 8.89 1.61024 11.111 3.17124 11.489C3.40572 11.5458 3.62346 11.6572 3.80675 11.8141C3.99004 11.971 4.13368 12.1689 4.22598 12.3918C4.31828 12.6147 4.35663 12.8563 4.33791 13.0968C4.31919 13.3373 4.24392 13.5701 4.11824 13.776C3.28224 15.148 4.85224 16.718 6.22424 15.882C6.43018 15.7563 6.66289 15.6811 6.90342 15.6623C7.14396 15.6436 7.38551 15.682 7.60842 15.7743C7.83132 15.8666 8.02928 16.0102 8.18617 16.1935C8.34305 16.3768 8.45443 16.5945 8.51124 16.829C8.89024 18.39 11.1112 18.39 11.4892 16.829C11.5462 16.5946 11.6577 16.377 11.8146 16.1939C11.9716 16.0107 12.1695 15.8672 12.3923 15.7749C12.6152 15.6826 12.8566 15.6442 13.0971 15.6628C13.3376 15.6815 13.5702 15.7565 13.7762 15.882C15.1482 16.718 16.7182 15.148 15.8822 13.776C15.7568 13.57 15.6817 13.3373 15.6631 13.0969C15.6445 12.8564 15.6829 12.6149 15.7751 12.3921C15.8674 12.1692 16.011 11.9713 16.1941 11.8144C16.3773 11.6575 16.5949 11.546 16.8292 11.489C18.3902 11.11 18.3902 8.889 16.8292 8.511C16.5948 8.45419 16.377 8.34281 16.1937 8.18593C16.0104 8.02904 15.8668 7.83109 15.7745 7.60818C15.6822 7.38527 15.6438 7.14372 15.6626 6.90318C15.6813 6.66265 15.7566 6.42994 15.8822 6.224C16.7182 4.852 15.1482 3.282 13.7762 4.118C13.5703 4.24368 13.3376 4.31895 13.0971 4.33767C12.8565 4.35639 12.615 4.31804 12.3921 4.22574C12.1692 4.13344 11.9712 3.9898 11.8143 3.80651C11.6574 3.62323 11.546 3.40548 11.4892 3.171L11.4902 3.17ZM10.0002 13C10.7959 13 11.559 12.6839 12.1216 12.1213C12.6842 11.5587 13.0002 10.7956 13.0002 10C13.0002 9.20435 12.6842 8.44129 12.1216 7.87868C11.559 7.31607 10.7959 7 10.0002 7C9.20459 7 8.44153 7.31607 7.87892 7.87868C7.31631 8.44129 7.00024 9.20435 7.00024 10C7.00024 10.7956 7.31631 11.5587 7.87892 12.1213C8.44153 12.6839 9.20459 13 10.0002 13V13Z" stroke="#007AFF" stroke-width="1.5"/>
</svg>
