<svg width="20" height="20" viewBox="0 0 20 20" fill="none" xmlns="http://www.w3.org/2000/svg">
<path d="M13.5711 0.714844C13.9656 0.714844 14.2854 1.03464 14.2854 1.42913L14.2859 2.25757C14.8858 2.35301 15.2742 2.50718 15.6644 2.71584C16.3628 3.08936 16.9109 3.63748 17.2844 4.33589C17.6238 4.9704 17.819 5.60025 17.8519 7.14275L17.8569 7.14341V12.3637L17.8531 12.7994C17.8239 14.3849 17.6281 15.0227 17.2844 15.6652C16.9109 16.3636 16.3628 16.9118 15.6644 17.2853C14.966 17.6588 14.2732 17.8577 12.3628 17.8577H7.63662L7.20087 17.8539C5.61534 17.8248 4.97759 17.6289 4.33505 17.2853C3.63664 16.9118 3.08852 16.3636 2.71501 15.6652C2.35643 14.9947 2.15877 14.3295 2.14353 12.5871L2.14258 7.63745V7.14341C2.18044 5.60025 2.37566 4.9704 2.71501 4.33589C3.08852 3.63748 3.63664 3.08936 4.33505 2.71584C4.72537 2.5071 5.11392 2.35289 5.71423 2.25745L5.71401 1.42913C5.71401 1.03464 6.0338 0.714844 6.42829 0.714844C6.82278 0.714844 7.14258 1.03464 7.14258 1.42913L7.14191 2.14839C7.29725 2.14508 7.46184 2.14342 7.63662 2.14342H12.3628C12.5379 2.14342 12.7027 2.14509 12.8583 2.14841L12.8569 1.42913C12.8569 1.03464 13.1767 0.714844 13.5711 0.714844ZM16.4276 8.57199H3.57115L3.57181 12.5658L3.57813 12.9721C3.6059 14.0486 3.71965 14.5145 3.97474 14.9915C4.21511 15.441 4.55931 15.7852 5.00876 16.0255C5.54185 16.3106 6.06111 16.4192 7.43451 16.4285H12.5649L12.9713 16.4221C14.0478 16.3944 14.5137 16.2806 14.9907 16.0255C15.4401 15.7852 15.7843 15.441 16.0247 14.9915C16.3098 14.4584 16.4184 13.9392 16.4276 12.5658L16.4276 8.57199ZM13.604 12.1434C13.9131 12.1434 14.1565 12.2014 14.3602 12.3104C14.564 12.4193 14.7238 12.5792 14.8328 12.7829C14.9417 12.9866 14.9997 13.23 14.9997 13.5391V13.6049C14.9997 13.914 14.9417 14.1574 14.8328 14.3611C14.7238 14.5648 14.564 14.7247 14.3602 14.8336C14.1565 14.9425 13.9131 15.0006 13.604 15.0006H13.5383C13.2292 15.0006 12.9858 14.9425 12.782 14.8336C12.5783 14.7247 12.4185 14.5648 12.3095 14.3611C12.2006 14.1574 12.1426 13.914 12.1426 13.6049V13.5391C12.1426 13.23 12.2006 12.9866 12.3095 12.7829C12.4185 12.5792 12.5783 12.4193 12.782 12.3104C12.9858 12.2014 13.2292 12.1434 13.5383 12.1434H13.604ZM12.5649 3.57265H7.43451L7.14258 3.57627V4.28627C7.14258 4.68076 6.82278 5.00056 6.42829 5.00056C6.0338 5.00056 5.71401 4.68076 5.71401 4.28627L5.71347 3.7095C5.44155 3.77229 5.22631 3.85923 5.00876 3.97558C4.55931 4.21595 4.21511 4.56014 3.97474 5.0096C3.71087 5.503 3.59823 5.98455 3.57556 7.14245L16.4233 7.14341L16.4213 7.02902C16.3935 5.95248 16.2798 5.48657 16.0247 5.0096C15.7843 4.56014 15.4401 4.21595 14.9907 3.97558C14.7732 3.85926 14.558 3.77233 14.2862 3.70954L14.2854 4.28627C14.2854 4.68076 13.9656 5.00056 13.5711 5.00056C13.1767 5.00056 12.8569 4.68076 12.8569 4.28627L12.8586 3.57641C12.7652 3.57458 12.6674 3.57334 12.5649 3.57265Z" fill="#B8C1CC"/>
</svg>
