<svg width="24" height="24" viewBox="0 0 24 24" fill="none" xmlns="http://www.w3.org/2000/svg">
<path d="M12 0C18.6274 0 24 5.37258 24 12C24 18.6274 18.6274 24 12 24C5.37258 24 0 18.6274 0 12C0 5.37258 5.37258 0 12 0ZM15.6954 8.49541L10.35 13.8408L8.30459 11.7954C7.77739 11.2682 6.92261 11.2682 6.39541 11.7954C5.8682 12.3226 5.8682 13.1774 6.39541 13.7046L9.39541 16.7046C9.92261 17.2318 10.7774 17.2318 11.3046 16.7046L17.6046 10.4046C18.1318 9.87739 18.1318 9.02261 17.6046 8.49541C17.0774 7.9682 16.2226 7.9682 15.6954 8.49541Z" fill="#007AFF"/>
</svg>
