<svg width="24" height="24" viewBox="0 0 24 24" fill="none" xmlns="http://www.w3.org/2000/svg">
    <path fill-rule="evenodd" clip-rule="evenodd"
        d="M9.10005 3.59201C8.92714 3.55051 8.75145 3.55098 8.6119 3.55134L8.57441 3.55141H7.04592C6.45517 3.55141 5.96755 3.55141 5.57016 3.58387C5.15717 3.61762 4.77762 3.69004 4.42104 3.87171C3.86804 4.15348 3.41846 4.60304 3.13676 5.15602C2.95506 5.51258 2.88259 5.89221 2.84887 6.30516C2.81641 6.70278 2.81641 7.19089 2.81641 7.78226V14.0144C2.81641 14.6058 2.81641 15.0939 2.84887 15.4915C2.88259 15.9045 2.95506 16.2841 3.13676 16.6407C3.41846 17.1937 3.86804 17.6432 4.42104 17.925C4.77762 18.1067 5.15717 18.1791 5.57016 18.2128C5.96773 18.2453 6.45589 18.2453 7.04726 18.2453H10.898C11.3038 18.2453 11.6327 17.9164 11.6327 17.5106C11.6327 17.1048 11.3038 16.7759 10.898 16.7759H7.07767C6.44835 16.7759 6.02047 16.7753 5.6898 16.7483C5.36775 16.722 5.203 16.6743 5.08811 16.6157C4.81161 16.4749 4.58686 16.2501 4.44597 15.9736C4.38741 15.8587 4.33969 15.694 4.31342 15.3719C4.28633 15.0412 4.28579 14.6134 4.28579 13.9841V10.1637L18.9797 10.1638C18.9797 10.5694 19.3085 10.8982 19.7141 10.8982C20.1199 10.8982 20.4489 10.5695 20.4474 10.1637C20.4466 9.96009 20.4456 9.73749 20.4439 9.51606C20.4474 9.4875 20.4491 9.45844 20.4491 9.42896C20.4491 9.39544 20.4467 9.36243 20.4424 9.3301C20.4378 8.79771 20.43 8.30548 20.4166 8.1419C20.3829 7.72895 20.3104 7.34931 20.1287 6.99275C19.847 6.43978 19.3974 5.99021 18.8444 5.70845C18.4878 5.52677 18.1083 5.45435 17.6953 5.42061C17.2979 5.38814 16.8103 5.38814 16.2195 5.38814H11.3849C11.2887 5.38814 11.2406 5.38796 11.2057 5.38637L11.2031 5.38626L11.2012 5.38449C11.1754 5.36094 11.1413 5.32709 11.0733 5.25904L9.92514 4.1109L9.89869 4.08433L9.89788 4.08359C9.7995 3.98478 9.676 3.86059 9.5247 3.76795C9.39323 3.68737 9.24991 3.628 9.10005 3.59201ZM18.973 8.69426C18.969 8.53153 18.9625 8.38929 18.9521 8.26156C18.9258 7.93946 18.8781 7.77473 18.8195 7.65984C18.6786 7.38335 18.4539 7.15855 18.1774 7.01768C18.0625 6.95914 17.8977 6.91143 17.5757 6.88513C17.245 6.85811 16.8172 6.85753 16.1878 6.85753H11.3849L11.3474 6.8576C11.2079 6.85798 11.0322 6.85845 10.8593 6.81695C10.7094 6.78094 10.5661 6.72157 10.4346 6.64101C10.283 6.5481 10.1591 6.42355 10.0607 6.3246L8.88606 5.14992C8.85297 5.11673 8.82786 5.09169 8.80786 5.072C8.78678 5.05131 8.77136 5.03653 8.75817 5.02447L8.7562 5.0227L8.7536 5.02257C8.71871 5.02097 8.67064 5.02079 8.57441 5.02079H7.07767C6.44835 5.02079 6.02047 5.02138 5.6898 5.04839C5.36775 5.07469 5.203 5.12241 5.08811 5.18095C4.81161 5.32182 4.58686 5.54661 4.44597 5.82311C4.38741 5.938 4.33969 6.10272 4.31342 6.42482C4.28633 6.75551 4.28579 7.18331 4.28579 7.81264V8.69426H18.973Z"
        fill="#007AFF" />
    <path fill-rule="evenodd" clip-rule="evenodd"
        d="M21.1838 16.0411C21.1838 13.6065 19.2102 11.6329 16.7756 11.6329C14.341 11.6329 12.3674 13.6065 12.3674 16.0411C12.3674 18.4756 14.341 20.4492 16.7756 20.4492C19.2102 20.4492 21.1838 18.4756 21.1838 16.0411ZM16.1991 13.286C16.4837 13.0015 16.945 13.0015 17.2295 13.286L19.4696 15.5261C19.6198 15.6596 19.7143 15.8542 19.7143 16.0708C19.7143 16.2877 19.6196 16.4824 19.4693 16.6158L17.2295 18.8556C16.945 19.1401 16.4837 19.1401 16.1991 18.8556C15.9146 18.5711 15.9146 18.1098 16.1991 17.8252L17.225 16.7994H14.4429C14.0405 16.7994 13.7143 16.4732 13.7143 16.0708C13.7143 15.6684 14.0405 15.3422 14.4429 15.3422H17.225L16.1991 14.3163C15.9146 14.0318 15.9146 13.5705 16.1991 13.286Z"
        fill="#007AFF" />
</svg>
