<svg width="24" height="24" viewBox="0 0 24 24" fill="none" xmlns="http://www.w3.org/2000/svg">
<path d="M19.2856 5.99998C19.2856 7.89353 17.7506 9.42855 15.857 9.42855C13.9635 9.42855 12.4284 7.89353 12.4284 5.99998C12.4284 4.10643 13.9635 2.57141 15.857 2.57141C17.7506 2.57141 19.2856 4.10643 19.2856 5.99998Z" fill="#007AFF"/>
<path fill-rule="evenodd" clip-rule="evenodd" d="M10.9255 3.03074C10.5568 3.13161 10.2856 3.46915 10.2856 3.87C10.2856 4.32828 10.6399 4.7037 11.0896 4.7375C8.42606 4.99405 6.42843 7.34795 6.42843 10.3534V11.9204C6.42843 12.7156 6.09905 13.3062 5.38986 14.1422C5.32708 14.2163 5.26765 14.2852 5.14879 14.4227C4.49735 15.178 4.28557 15.5354 4.28557 15.9328C4.28557 16.1134 4.30106 16.2197 4.3517 16.3193C4.46868 16.5494 4.7876 16.7143 5.57129 16.7143H17.5713C18.355 16.7143 18.6739 16.5494 18.7909 16.3193C18.8415 16.2197 18.857 16.1134 18.857 15.9328C18.857 15.5354 18.6452 15.178 17.9938 14.4227C17.8749 14.2852 17.8155 14.2163 17.7527 14.1422C17.0435 13.3062 16.7141 12.7156 16.7141 11.9204L16.7139 11.143C16.7139 10.6696 17.0977 10.2857 17.5711 10.2857C18.0444 10.2857 18.4282 10.6694 18.4282 11.1427L18.4284 11.9204C18.4284 12.1843 18.5984 12.489 19.06 13.0334L19.1452 13.1332L19.2916 13.303C20.1586 14.3078 20.5311 14.9121 20.5682 15.7838C20.5702 15.8079 20.5713 15.8324 20.5713 15.8571V15.9328C20.5713 16.2046 20.5548 16.4291 20.4964 16.6548C20.4629 16.7844 20.4158 16.9143 20.3501 17.0539C19.9353 17.9364 18.9987 18.4286 17.5713 18.4286L15.3418 18.4292C14.7693 20.3696 13.4676 21.4286 11.5713 21.4286C9.67494 21.4286 8.37333 20.3696 7.80078 18.4292L5.57129 18.4286C4.1439 18.4286 3.20724 17.9364 2.79248 17.0539C2.61251 16.6712 2.57129 16.3606 2.57129 15.9328V15.8571C2.57129 15.8324 2.57234 15.8079 2.57443 15.7838C2.61147 14.9121 2.98396 14.3078 3.85093 13.303C3.97001 13.1651 4.02462 13.1018 4.08259 13.0334C4.54422 12.489 4.71415 12.1843 4.71415 11.9204V10.3534C4.71415 6.48526 7.36321 3.37048 10.9255 3.03074Z" fill="#007AFF"/>
<path d="M11.1556 4.73998C11.6361 4.73998 12.0256 4.35047 12.0256 3.86998C12.0256 3.42681 11.6942 3.06103 11.2657 3.00689C11.1515 3.01202 11.0381 3.01997 10.9255 3.03074C10.9333 3.02859 10.9412 3.02655 10.9492 3.02461C10.5683 3.11728 10.2856 3.46063 10.2856 3.87C10.2856 4.33233 10.6462 4.71042 11.1015 4.73833" fill="#007AFF"/>
</svg>
