<svg width="20" height="21" viewBox="0 0 20 21" fill="none" xmlns="http://www.w3.org/2000/svg">
<path fill-rule="evenodd" clip-rule="evenodd" d="M12.5567 7.10185C13.0528 7.13286 13.4298 7.56015 13.3988 8.05624L12.8988 16.0562C12.8678 16.5523 12.4405 16.9294 11.9444 16.8983C11.4484 16.8673 11.0713 16.44 11.1023 15.944L11.6023 7.94396C11.6333 7.44787 12.0606 7.07085 12.5567 7.10185Z" fill="#959DAD"/>
<path fill-rule="evenodd" clip-rule="evenodd" d="M7.44445 7.10185C6.94836 7.13286 6.57133 7.56015 6.60234 8.05624L7.10234 16.0562C7.13334 16.5523 7.56064 16.9294 8.05673 16.8983C8.55281 16.8673 8.92984 16.44 8.89883 15.944L8.39883 7.94396C8.36783 7.44787 7.94053 7.07085 7.44445 7.10185Z" fill="#959DAD"/>
<path fill-rule="evenodd" clip-rule="evenodd" d="M1.00059 3.1001C0.50353 3.1001 0.100586 3.50304 0.100586 4.0001C0.100586 4.49715 0.50353 4.9001 1.00059 4.9001H2.18101L3.33564 17.2161C3.38098 17.6999 3.41978 18.1139 3.47866 18.4534C3.54079 18.8117 3.6356 19.1568 3.82955 19.4828C4.12375 19.9773 4.55842 20.3732 5.07825 20.6199C5.42094 20.7826 5.77339 20.8448 6.13588 20.8732C6.47946 20.9001 6.89528 20.9001 7.38125 20.9001H12.6199C13.1059 20.9001 13.5217 20.9001 13.8653 20.8732C14.2278 20.8448 14.5802 20.7826 14.9229 20.6199C15.4427 20.3732 15.8774 19.9773 16.1716 19.4828C16.3656 19.1568 16.4604 18.8117 16.5225 18.4534C16.5814 18.1139 16.6202 17.6999 16.6655 17.2161L17.8202 4.9001H19.0006C19.4976 4.9001 19.9006 4.49715 19.9006 4.0001C19.9006 3.50304 19.4976 3.1001 19.0006 3.1001H13.7962C13.3899 1.38008 11.8447 0.100098 10.0006 0.100098C8.15644 0.100098 6.61124 1.38008 6.20495 3.1001H1.00059ZM5.12466 17.0148C5.174 17.541 5.20681 17.8842 5.25219 18.1459C5.29568 18.3966 5.34007 18.5013 5.3765 18.5625C5.48809 18.7501 5.65297 18.9002 5.85014 18.9938C5.91452 19.0244 6.02283 19.0588 6.27655 19.0787C6.54136 19.0995 6.88605 19.1001 7.41462 19.1001H12.5866C13.1151 19.1001 13.4598 19.0995 13.7246 19.0787C13.9783 19.0588 14.0867 19.0244 14.151 18.9938C14.3482 18.9002 14.5131 18.7501 14.6247 18.5625C14.6611 18.5013 14.7055 18.3966 14.749 18.1459C14.7944 17.8842 14.8272 17.541 14.8765 17.0148L16.0123 4.9001H3.98891L5.12466 17.0148ZM10.0006 1.9001C9.16287 1.9001 8.43971 2.39061 8.10268 3.1001H11.8985C11.5615 2.39061 10.8383 1.9001 10.0006 1.9001Z" fill="#959DAD"/>
</svg>
