<svg width="29" height="28" viewBox="0 0 29 28" fill="none" xmlns="http://www.w3.org/2000/svg">
<path d="M15.5873 8.60023C15.8028 8.60023 15.988 8.52008 16.1431 8.3598C16.2981 8.19951 16.3756 8.01164 16.3756 7.79617C16.3756 7.58071 16.2994 7.39414 16.147 7.23649C15.9946 7.07883 15.808 7 15.5873 7H5.29226C5.07154 7 4.88367 7.07752 4.72864 7.23255C4.57361 7.38758 4.49609 7.57545 4.49609 7.79617C4.49609 8.01689 4.57361 8.20608 4.72864 8.36374C4.88367 8.5214 5.07154 8.60023 5.29226 8.60023H15.5873ZM15.5873 12.7387C15.8028 12.7387 15.988 12.6573 16.1431 12.4944C16.2981 12.3315 16.3756 12.1423 16.3756 11.9268C16.3756 11.7061 16.2994 11.5182 16.147 11.3632C15.9946 11.2081 15.808 11.1306 15.5873 11.1306H5.29226C5.07154 11.1306 4.88367 11.2081 4.72864 11.3632C4.57361 11.5182 4.49609 11.7061 4.49609 11.9268C4.49609 12.1475 4.57361 12.338 4.72864 12.4983C4.88367 12.6586 5.07154 12.7387 5.29226 12.7387H15.5873ZM15.5873 16.8694C15.8028 16.8694 15.988 16.7892 16.1431 16.6289C16.2981 16.4687 16.3756 16.2808 16.3756 16.0653C16.3756 15.8446 16.2994 15.6554 16.147 15.4977C15.9946 15.3401 15.808 15.2613 15.5873 15.2613H5.29226C5.07154 15.2613 4.88367 15.3388 4.72864 15.4938C4.57361 15.6488 4.49609 15.8393 4.49609 16.0653C4.49609 16.286 4.57361 16.4752 4.72864 16.6329C4.88367 16.7905 5.07154 16.8694 5.29226 16.8694H15.5873ZM11.2675 21C11.4882 21 11.6748 20.9199 11.8272 20.7596C11.9796 20.5993 12.0558 20.4114 12.0558 20.1959C12.0558 19.9752 11.9796 19.7847 11.8272 19.6244C11.6748 19.4642 11.4882 19.384 11.2675 19.384H5.29226C5.07154 19.384 4.88367 19.4628 4.72864 19.6205C4.57361 19.7782 4.49609 19.97 4.49609 20.1959C4.49609 20.4167 4.57361 20.6059 4.72864 20.7635C4.88367 20.9212 5.07154 21 5.29226 21H11.2675ZM22.4218 16.6881C22.6267 16.8247 22.833 16.893 23.0406 16.893C23.2482 16.893 23.419 16.826 23.553 16.692C23.687 16.558 23.754 16.3649 23.754 16.1126V12.0608C23.754 11.6719 23.6134 11.421 23.3322 11.308C23.0511 11.195 22.7476 11.2515 22.4218 11.4775L19.5997 13.393C19.4368 13.5086 19.3264 13.6545 19.2686 13.8305C19.2108 14.0066 19.2082 14.1839 19.2607 14.3626C19.3133 14.5413 19.4263 14.6884 19.5997 14.8041L22.4218 16.6881Z" fill="#99A2AD"/>
</svg>
