<svg width="64" height="64" viewBox="0 0 64 64" fill="none" xmlns="http://www.w3.org/2000/svg">
<rect width="64" height="64" rx="16" fill="#F2F3F5"/>
<path d="M32 17.7142C34.7159 17.7142 36.486 19.124 37.0535 21.7137L44 21.7142C44.6312 21.7142 45.1429 22.2259 45.1429 22.8571C45.1429 23.4883 44.6312 23.9999 44 23.9999H42.7372L40.8946 41.5017C40.7109 43.2467 39.2394 44.5714 37.4848 44.5714H26.5152C24.7606 44.5714 23.2892 43.2467 23.1055 41.5017L21.2629 23.9999H20C19.3689 23.9999 18.8572 23.4883 18.8572 22.8571C18.8572 22.2259 19.3689 21.7142 20 21.7142L26.9466 21.7137C27.5141 19.124 29.2842 17.7142 32 17.7142ZM40.4377 23.9999H23.5612L25.3786 41.2624C25.4399 41.8441 25.9304 42.2857 26.5152 42.2857H37.4848C38.0697 42.2857 38.5602 41.8441 38.6214 41.2624L40.4377 23.9999ZM32 26.2857C32.6312 26.2857 33.1429 26.7973 33.1429 27.4285V38.8571C33.1429 39.4883 32.6312 39.9999 32 39.9999C31.3689 39.9999 30.8572 39.4883 30.8572 38.8571V27.4285C30.8572 26.7973 31.3689 26.2857 32 26.2857ZM36.6285 26.2871C37.2589 26.3186 37.7444 26.8552 37.7129 27.4856L37.1415 38.9142C37.1099 39.5446 36.5734 40.03 35.943 39.9985C35.3126 39.967 34.8271 39.4304 34.8586 38.8L35.43 27.3714C35.4615 26.7411 35.9981 26.2556 36.6285 26.2871ZM27.3715 26.2871C28.0019 26.2556 28.5385 26.7411 28.57 27.3714L29.1415 38.8C29.173 39.4304 28.6875 39.967 28.0571 39.9985C27.4267 40.03 26.8901 39.5446 26.8586 38.9142L26.2872 27.4856C26.2557 26.8552 26.7411 26.3186 27.3715 26.2871ZM32 19.9999C30.5524 19.9999 29.7147 20.5189 29.3118 21.7137H34.6882C34.2854 20.5189 33.4477 19.9999 32 19.9999Z" fill="#007AFF"/>
</svg>
