<svg width="16" height="16" viewBox="0 0 16 16" fill="none" xmlns="http://www.w3.org/2000/svg">
<path d="M10.8538 0C12.278 0.01504 13.0027 0.168509 13.7542 0.570407C14.4735 0.955113 15.0424 1.52399 15.4271 2.24333C15.829 2.99481 15.9825 3.71955 15.9975 5.14371V10.8538C15.9825 12.278 15.829 13.0027 15.4271 13.7542C15.0424 14.4735 14.4735 15.0424 13.7542 15.4271C13.0027 15.829 12.278 15.9825 10.8538 15.9975H5.14371C3.71955 15.9825 2.99481 15.829 2.24333 15.4271C1.52399 15.0424 0.955113 14.4735 0.570407 13.7542C0.168509 13.0027 0.01504 12.278 0 10.8538V5.14371C0.01504 3.71955 0.168509 2.99481 0.570407 2.24333C0.955113 1.52399 1.52399 0.955113 2.24333 0.570407C2.99481 0.168509 3.71955 0.01504 5.14371 0H10.8538ZM10.6099 1.4533H5.38764L4.98227 1.45685C3.90643 1.47725 3.42471 1.58809 2.92929 1.85304C2.46344 2.10218 2.10218 2.46344 1.85304 2.92929C1.58809 3.42471 1.47725 3.90643 1.45685 4.98227L1.4533 5.38764V10.6099L1.45685 11.0153C1.47725 12.0911 1.58809 12.5728 1.85304 13.0682C2.10218 13.5341 2.46344 13.8953 2.92929 14.1444C3.42471 14.4095 3.90643 14.5203 4.98227 14.5407L5.38764 14.5442H10.6099L11.0153 14.5407C12.0911 14.5203 12.5728 14.4095 13.0682 14.1444C13.5341 13.8953 13.8953 13.5341 14.1444 13.0682C14.4095 12.5728 14.5203 12.0911 14.5407 11.0153L14.5442 10.6099V5.38764L14.5407 4.98227C14.5203 3.90643 14.4095 3.42471 14.1444 2.92929C13.8953 2.46344 13.5341 2.10218 13.0682 1.85304C12.5728 1.58809 12.0911 1.47725 11.0153 1.45685L10.6099 1.4533Z" fill="#007AFF"/>
</svg>
