<svg width="28" height="28" viewBox="0 0 28 28" fill="none" xmlns="http://www.w3.org/2000/svg">
    <path fill-rule="evenodd" clip-rule="evenodd"
        d="M8.80011 11.9702L9.95365 11.0474C10.0463 10.9733 10.1105 10.8694 10.1354 10.7534L11.4503 4.61914C11.8792 2.6184 14.0019 1.48149 15.905 2.23322C17.1693 2.73261 18 3.9539 18 5.31326V8.99092H18.5C20.6828 8.99092 22.5864 9.60727 23.9471 10.9302C25.3126 12.2578 26 14.169 26 16.491V17.491C26 19.8129 25.3126 21.7241 23.9471 23.0517C22.5864 24.3746 20.6828 24.9909 18.5 24.9909H8.81796C8.52197 25.3378 8.14408 25.6121 7.71264 25.7854C7.40773 25.9079 7.1017 25.9521 6.8011 25.9721C6.51654 25.991 6.17379 25.9909 5.78071 25.9909H5.71939C5.32631 25.9909 4.98346 25.991 4.6989 25.9721C4.3983 25.9521 4.09228 25.9079 3.78736 25.7854C3.06653 25.4958 2.49517 24.9244 2.20552 24.2036C2.08299 23.8987 2.03884 23.5926 2.01888 23.292C1.99998 23.0075 1.99999 22.6647 2 22.2716V14.7103C1.99999 14.3172 1.99998 13.9744 2.01888 13.6898C2.03884 13.3892 2.08299 13.0832 2.20552 12.7783C2.49517 12.0575 3.06653 11.4861 3.78736 11.1965C4.09228 11.0739 4.3983 11.0298 4.6989 11.0098C4.98349 10.9909 5.32627 10.9909 5.7194 10.9909H5.7806C6.17373 10.9909 6.51652 10.9909 6.8011 11.0098C7.1017 11.0298 7.40773 11.0739 7.71264 11.1965C8.13546 11.3664 8.50684 11.6332 8.80011 11.9702ZM13.4059 5.03834C13.5758 4.24592 14.4165 3.79563 15.1702 4.09336C15.671 4.29115 16 4.77487 16 5.31326V9.99092C16 10.5432 16.4477 10.9909 17 10.9909H18.5C20.3172 10.9909 21.6636 11.4996 22.5529 12.3642C23.4374 13.2241 24 14.5629 24 16.491V17.491C24 19.419 23.4374 20.7578 22.5529 21.6177C21.6636 22.4823 20.3172 22.9909 18.5 22.9909H9.49436C9.50002 22.7753 9.50001 22.5347 9.5 22.2715V14.7103C9.50001 14.4413 9.50002 14.1958 9.49396 13.9764L11.203 12.6092C11.6558 12.247 11.9695 11.7395 12.091 11.1726L13.4059 5.03834ZM4.53307 13.0522C4.56015 13.0413 4.62975 13.0188 4.83142 13.0054C5.04173 12.9914 5.31743 12.9909 5.75 12.9909C6.18257 12.9909 6.45827 12.9914 6.66859 13.0054C6.87025 13.0188 6.93985 13.0413 6.96693 13.0522C7.18192 13.1386 7.35232 13.309 7.43871 13.524C7.44959 13.5511 7.47213 13.6207 7.48552 13.8223C7.49949 14.0327 7.5 14.3084 7.5 14.7409V22.2409C7.5 22.6735 7.49949 22.9492 7.48552 23.1595C7.47213 23.3612 7.44959 23.4308 7.43871 23.4579C7.35232 23.6728 7.18192 23.8433 6.96693 23.9296C6.93985 23.9405 6.87025 23.9631 6.66859 23.9765C6.45827 23.9904 6.18257 23.9909 5.75 23.9909C5.31743 23.9909 5.04173 23.9904 4.83142 23.9765C4.62975 23.9631 4.56015 23.9405 4.53307 23.9296C4.31809 23.8433 4.14769 23.6728 4.0613 23.4579C4.05042 23.4308 4.02787 23.3612 4.01448 23.1595C4.00052 22.9492 4 22.6735 4 22.2409V14.7409C4 14.3084 4.00052 14.0327 4.01448 13.8223C4.02787 13.6207 4.05042 13.5511 4.0613 13.524C4.14769 13.309 4.31809 13.1386 4.53307 13.0522Z"
        fill="#007AFF" />
</svg>
