<svg width="21" height="20" viewBox="0 0 21 20" fill="none" xmlns="http://www.w3.org/2000/svg">
    <path fill-rule="evenodd" clip-rule="evenodd"
        d="M3.73156 15.1869C4.09231 15.5476 4.62474 15.728 5.32886 15.728H15.6775C16.861 15.728 17.8204 14.7686 17.8204 13.5852V6.39848C17.8204 5.7074 17.64 5.18366 17.2793 4.82726C16.9185 4.46651 16.3861 4.28613 15.682 4.28613H5.16587C4.53999 4.28613 4.05319 4.46651 3.70548 4.82726C3.36211 5.18366 3.19043 5.7074 3.19043 6.39848V13.6092C3.19043 14.3046 3.37081 14.8305 3.73156 15.1869ZM12.2891 10.7625L11.9267 11.1187C11.692 11.349 11.4594 11.5185 11.2291 11.6272C10.9987 11.7315 10.7618 11.7837 10.5185 11.7837C10.2751 11.7837 10.036 11.7315 9.8013 11.6272C9.56659 11.5185 9.33406 11.349 9.1037 11.1187L8.7413 10.7625L4.99236 14.4763C5.09259 14.5024 5.20476 14.5154 5.32886 14.5154H15.8482L12.2891 10.7625ZM16.6208 6.5062L13.0816 9.98381L16.6208 13.718V6.5062ZM7.94881 9.98376L4.39003 13.5091V6.48657L7.94881 9.98376ZM5.32886 5.49878C5.2121 5.49878 5.1059 5.51062 5.01027 5.5343L9.7687 10.2385C9.90344 10.3689 10.0295 10.4667 10.1468 10.5319C10.2685 10.5928 10.3924 10.6232 10.5185 10.6232C10.6358 10.6232 10.7532 10.5928 10.8705 10.5319C10.9922 10.4711 11.1226 10.3733 11.2617 10.2385L16.0201 5.54052C15.9195 5.51269 15.8067 5.49878 15.682 5.49878H5.32886Z"
        fill="#686E76" />
</svg>
