<svg width="28" height="28" viewBox="0 0 28 28" fill="none" xmlns="http://www.w3.org/2000/svg">
<path d="M6.7085 8.68866H21.292C21.5127 8.68866 21.6992 8.60852 21.8516 8.44824C22.0039 8.28796 22.0801 8.1001 22.0801 7.88461C22.0801 7.66391 22.0039 7.4747 21.8516 7.31705C21.6992 7.15939 21.5127 7.08057 21.292 7.08057L6.7085 7.08057C6.49316 7.08057 6.30811 7.15808 6.15283 7.31311C5.99805 7.46814 5.92041 7.65863 5.92041 7.88461C5.92041 8.00458 5.94336 8.1152 5.98877 8.21652C6.02734 8.30164 6.08203 8.38019 6.15283 8.45218C6.30811 8.60983 6.49316 8.68866 6.7085 8.68866Z" fill="#99A2AD"/>
<path d="M11.0283 12.8193H21.292C21.4731 12.8193 21.6318 12.7652 21.7666 12.6569C21.7959 12.6335 21.8242 12.6075 21.8516 12.5789C22.0039 12.4186 22.0801 12.2307 22.0801 12.0153C22.0801 11.7945 22.0039 11.604 21.8516 11.4438C21.6992 11.2834 21.5127 11.2033 21.292 11.2033H11.0283C10.8076 11.2033 10.6201 11.2821 10.4648 11.4398C10.3101 11.5975 10.2324 11.7893 10.2324 12.0153C10.2324 12.236 10.3101 12.4252 10.4648 12.5828C10.6201 12.7405 10.8076 12.8193 11.0283 12.8193Z" fill="#99A2AD"/>
<path d="M6.7085 16.7887H21.292C21.5127 16.7887 21.6992 16.7085 21.8516 16.5482C22.0039 16.388 22.0801 16.2001 22.0801 15.9846C22.0801 15.7639 22.0039 15.5747 21.8516 15.4171C21.6992 15.2594 21.5127 15.1806 21.292 15.1806H6.7085C6.49316 15.1806 6.30811 15.2581 6.15283 15.4131C5.99805 15.5681 5.92041 15.7586 5.92041 15.9846C5.92041 16.2054 5.99805 16.3945 6.15283 16.5522C6.30811 16.7098 6.49316 16.7887 6.7085 16.7887Z" fill="#99A2AD"/>
<path d="M11.0283 20.9193H21.292C21.5127 20.9193 21.6992 20.8392 21.8516 20.6789C21.9507 20.5748 22.0171 20.459 22.0518 20.3317C22.0708 20.2629 22.0801 20.1908 22.0801 20.1153C22.0801 19.8945 22.0039 19.704 21.8516 19.5438C21.6992 19.3835 21.5127 19.3033 21.292 19.3033H11.0283C10.8076 19.3033 10.6201 19.3821 10.4648 19.5398C10.3101 19.6975 10.2324 19.8893 10.2324 20.1153C10.2324 20.336 10.3101 20.5252 10.4648 20.6828C10.5469 20.7662 10.6382 20.8276 10.7383 20.8669C10.8276 20.9018 10.9243 20.9193 11.0283 20.9193Z" fill="#99A2AD"/>
</svg>
