<svg width="29" height="28" viewBox="0 0 29 28" fill="none" xmlns="http://www.w3.org/2000/svg">
<path d="M19.6356 18C20.3562 18 20.875 17.6019 20.875 17.0332C20.875 16.8463 20.827 16.6594 20.7117 16.3913L16.6764 7.12932C16.3306 6.34123 15.7733 6 14.8606 6C13.9575 6 13.4002 6.35748 13.064 7.13744L9.03833 16.3913C8.92304 16.6432 8.875 16.8707 8.875 17.0332C8.875 17.6263 9.36499 18 10.124 18C10.7677 18 11.1328 17.7319 11.3634 17.0982L12.2761 14.872H17.4547L18.3674 17.1144C18.5884 17.74 18.9631 18 19.6356 18ZM16.8494 13.2146H12.8622L14.8126 8.20988H14.8798L16.8494 13.2146Z" fill="#99A2AD"/>
<rect x="6.875" y="20" width="16" height="2.5" rx="1.25" fill="#99A2AD"/>
</svg>
