<svg width="16" height="16" viewBox="0 0 16 16" fill="none" xmlns="http://www.w3.org/2000/svg">
<path fill-rule="evenodd" clip-rule="evenodd" d="M11.3409 5.34091C11.3409 7.18605 9.84508 8.68183 7.99994 8.68183C6.1548 8.68183 4.65903 7.18605 4.65903 5.34091C4.65903 3.49578 6.1548 2 7.99994 2C9.84508 2 11.3409 3.49578 11.3409 5.34091ZM10.0045 5.34091C10.0045 6.448 9.10702 7.34546 7.99994 7.34546C6.89286 7.34546 5.99539 6.448 5.99539 5.34091C5.99539 4.23383 6.89286 3.33637 7.99994 3.33637C9.10702 3.33637 10.0045 4.23383 10.0045 5.34091Z" fill="#007AFF"/>
<path fill-rule="evenodd" clip-rule="evenodd" d="M7.99995 9.35001C6.25096 9.35001 4.89549 9.57366 3.95484 10.0667C3.47439 10.3186 3.08558 10.6495 2.81918 11.0702C2.55122 11.4935 2.43176 11.9689 2.43176 12.4682V12.6909C2.43176 13.552 3.12979 14.25 3.99086 14.25H12.009C12.8704 14.25 13.5681 13.5514 13.5681 12.6906V12.4682C13.5681 11.9689 13.4487 11.4935 13.1807 11.0702C12.9143 10.6495 12.5255 10.3186 12.0451 10.0667C11.1044 9.57366 9.74895 9.35001 7.99995 9.35001ZM3.76813 12.4682C3.76813 12.1879 3.83287 11.9674 3.94828 11.7851C4.06527 11.6003 4.259 11.4161 4.57526 11.2503C5.22801 10.9082 6.32255 10.6864 7.99995 10.6864C9.67736 10.6864 10.7719 10.9082 11.4246 11.2503C11.7409 11.4161 11.9346 11.6003 12.0516 11.7851C12.167 11.9674 12.2318 12.1879 12.2318 12.4682V12.6906C12.2318 12.8139 12.1317 12.9137 12.009 12.9137H3.99086C3.86785 12.9137 3.76813 12.8139 3.76813 12.6909L3.76813 12.4682Z" fill="#007AFF"/>
</svg>
