<svg width="16" height="12" viewBox="0 0 16 12" fill="none" xmlns="http://www.w3.org/2000/svg">
<path d="M2.98535 11.895H13.2051C13.7764 11.895 14.2186 11.73 14.5317 11.3999C14.8491 11.0741 15.0078 10.5832 15.0078 9.92725V2.91943C15.0078 2.26774 14.8407 1.77897 14.5063 1.45312C14.1763 1.12305 13.679 0.958008 13.0146 0.958008H2.79492C2.22363 0.958008 1.7793 1.12305 1.46191 1.45312C1.14876 1.77897 0.992188 2.26774 0.992188 2.91943V9.92725C0.992188 10.5832 1.15723 11.0741 1.4873 11.3999C1.82161 11.73 2.32096 11.895 2.98535 11.895ZM2.94727 10.9238C2.62988 10.9238 2.38656 10.8413 2.21729 10.6763C2.04801 10.507 1.96338 10.2573 1.96338 9.92725V2.91943C1.96338 2.59359 2.04801 2.34814 2.21729 2.18311C2.38656 2.01383 2.62988 1.9292 2.94727 1.9292H13.0527C13.3659 1.9292 13.6071 2.01383 13.7764 2.18311C13.9499 2.34814 14.0366 2.5957 14.0366 2.92578V9.93359C14.0366 10.2594 13.9499 10.507 13.7764 10.6763C13.6071 10.8413 13.3659 10.9238 13.0527 10.9238H2.94727ZM8.0127 8.11816C8.23698 8.11816 8.45703 8.0695 8.67285 7.97217C8.88867 7.87484 9.10872 7.71615 9.33301 7.49609L14.4873 2.43066L13.8271 1.76416L8.78076 6.74707C8.64111 6.88249 8.50781 6.98193 8.38086 7.04541C8.25814 7.10889 8.13542 7.14062 8.0127 7.14062C7.88574 7.14062 7.75879 7.10889 7.63184 7.04541C7.50911 6.9777 7.38005 6.87826 7.24463 6.74707L2.17285 1.73877L1.50635 2.40527L6.69238 7.49609C6.91243 7.71615 7.13037 7.87484 7.34619 7.97217C7.56624 8.0695 7.78841 8.11816 8.0127 8.11816ZM13.7637 11.0635L14.4238 10.397L10.3169 6.34082L9.65674 7.00098L13.7637 11.0635ZM1.59521 10.4033L2.25537 11.0698L6.36865 7.00098L5.70215 6.34082L1.59521 10.4033Z" fill="#007AFF"/>
</svg>
