<svg width="20" height="20" viewBox="0 0 20 20" fill="none" xmlns="http://www.w3.org/2000/svg">
    <path fill-rule="evenodd" clip-rule="evenodd"
        d="M7.06297 2.85719C7.19862 2.85683 7.36943 2.85637 7.53752 2.89672C7.68329 2.93172 7.82264 2.98944 7.95046 3.06777C8.09785 3.15809 8.21831 3.2792 8.31397 3.37537L8.33971 3.4012L9.45595 4.51744C9.52212 4.58361 9.55526 4.61651 9.58034 4.6394L9.58224 4.64112L9.5848 4.64125C9.61872 4.6428 9.66542 4.64297 9.759 4.64297L14.458 4.64297C15.0329 4.64296 15.5075 4.64295 15.8941 4.67453C16.2956 4.70734 16.6646 4.77774 17.0113 4.95438C17.5489 5.2283 17.986 5.66539 18.2599 6.20299C18.4365 6.54966 18.507 6.91874 18.5398 7.32023C18.5713 7.7068 18.5713 8.18134 18.5713 8.75631V9.99997C18.5713 10.3945 18.2515 10.7143 17.857 10.7143C17.4625 10.7143 17.1428 10.3945 17.1428 9.99997V9.28582H2.85704V13.0001C2.85704 13.612 2.85759 14.0279 2.88386 14.3494C2.90945 14.6625 2.95582 14.8227 3.01274 14.9344C3.14971 15.2032 3.36825 15.4217 3.63705 15.5587C3.74877 15.6156 3.90891 15.662 4.22207 15.6876C4.54356 15.7138 4.95948 15.7144 5.57132 15.7144H7.85704C8.25153 15.7144 8.57132 16.0342 8.57132 16.4287C8.57132 16.8232 8.25153 17.143 7.85704 17.143H5.54181C4.96684 17.143 4.4923 17.143 4.10573 17.1114C3.70424 17.0786 3.33516 17.0082 2.9885 16.8316C2.45089 16.5576 2.0138 16.1205 1.73988 15.5829C1.56324 15.2363 1.49284 14.8672 1.46003 14.4657C1.42845 14.0791 1.42846 13.6046 1.42847 13.0296V6.9706C1.42846 6.39563 1.42845 5.92108 1.46003 5.53452C1.49284 5.13302 1.56324 4.76395 1.73988 4.41728C2.0138 3.87967 2.45089 3.44259 2.9885 3.16866C3.33516 2.99203 3.70424 2.92162 4.10574 2.88882C4.4923 2.85724 4.96685 2.85724 5.54183 2.85725L7.02651 2.85725L7.06297 2.85719ZM7.2007 4.28755C7.16678 4.286 7.12008 4.28582 7.02651 4.28582H5.57133C4.95948 4.28582 4.54356 4.28638 4.22207 4.31265C3.90891 4.33823 3.74877 4.38461 3.63705 4.44153C3.36825 4.57849 3.14971 4.79704 3.01274 5.06584C2.95582 5.17755 2.90945 5.3377 2.88386 5.65085C2.85759 5.97234 2.85704 6.38827 2.85704 7.00011V7.85725H17.1363C17.1324 7.69903 17.1261 7.56075 17.1159 7.43657C17.0903 7.12341 17.044 6.96327 16.987 6.85155C16.8501 6.58275 16.6315 6.36421 16.3627 6.22724C16.251 6.17032 16.0909 6.12395 15.7777 6.09836C15.4562 6.07209 15.0403 6.07154 14.4285 6.07154H9.759L9.72254 6.0716C9.58689 6.07197 9.41608 6.07242 9.24798 6.03207C9.10222 5.99707 8.96287 5.93935 8.83505 5.86102C8.68765 5.7707 8.56719 5.6496 8.47153 5.55342L8.4458 5.52759L7.32955 4.41135C7.26339 4.34519 7.23025 4.31228 7.20516 4.28939L7.20326 4.28767L7.2007 4.28755Z"
        fill="#AEB7C2" />
    <path fill-rule="evenodd" clip-rule="evenodd"
        d="M10.2597 10.1883C10.5107 9.93721 10.9178 9.93721 11.1688 10.1883L18.3117 17.3311C18.5627 17.5822 18.5627 17.9892 18.3117 18.2403C18.0606 18.4913 17.6536 18.4913 17.4025 18.2403L16.381 17.2187C15.6693 17.5663 14.8288 17.7865 13.9285 17.7865C11.3643 17.7865 9.28561 16.0007 9.28561 14.5722C9.28561 13.7065 10.0489 12.7097 11.2209 12.0586L10.2597 11.0974C10.0086 10.8463 10.0086 10.4393 10.2597 10.1883ZM14.7454 15.5831L15.4019 16.2396C14.9544 16.4024 14.4548 16.5007 13.9285 16.5007C12.9395 16.5007 12.045 16.1537 11.4129 15.6834C10.7257 15.1723 10.5713 14.7042 10.5713 14.5722C10.5713 14.4402 10.7257 13.972 11.4129 13.4609C11.6375 13.2938 11.8952 13.1423 12.1786 13.0163L12.9883 13.8261C12.8168 14.04 12.7142 14.3117 12.7142 14.6073C12.7142 15.2976 13.2739 15.8573 13.9642 15.8573C14.2598 15.8573 14.5314 15.7547 14.7454 15.5831Z"
        fill="#AEB7C2" />
    <path
        d="M14.9723 11.457C14.6039 11.3866 14.2856 11.6869 14.2856 12.062C14.2856 12.3993 14.5458 12.6754 14.8749 12.7499C15.4817 12.8873 16.0215 13.1466 16.4441 13.4609C17.1312 13.972 17.2856 14.4402 17.2856 14.5722C17.2856 14.6023 17.2776 14.65 17.2569 14.7117C17.1653 14.9861 17.1601 15.3038 17.3647 15.5084L17.374 15.5177C17.668 15.8117 18.1632 15.7977 18.3494 15.426C18.4935 15.1384 18.5713 14.8486 18.5713 14.5722C18.5713 13.3436 17.0338 11.8508 14.9723 11.457Z"
        fill="#AEB7C2" />
</svg>
