<svg width="21" height="20" viewBox="0 0 21 20" fill="none" xmlns="http://www.w3.org/2000/svg">
    <path
        d="M9.4707 11.4857L4.41076 10.9586C3.72968 10.8877 3.14916 10.4335 2.91639 9.78952C2.58115 8.86202 3.06127 7.83837 3.98877 7.50314L14.5138 3.69889C14.9845 3.52876 15.5 3.52876 15.9707 3.69889C17.0837 4.10118 17.6598 5.32956 17.2575 6.44255L13.4533 16.9676C13.2205 17.6116 12.64 18.0658 11.9589 18.1367C10.978 18.2389 10.1 17.5266 9.99778 16.5456L9.4707 11.4857ZM4.41595 8.87387C4.26955 8.95895 4.2003 9.13903 4.25989 9.30392C4.30645 9.43271 4.42255 9.52355 4.55877 9.53774L10.1951 10.1249C10.531 10.1598 10.7965 10.4254 10.8315 10.7613L11.4187 16.3976C11.4391 16.5938 11.6147 16.7363 11.8109 16.7158C11.9471 16.7017 12.0632 16.6108 12.1098 16.482L15.914 5.95695C16.0481 5.58595 15.8561 5.17649 15.4851 5.04239C15.3282 4.98568 15.1564 4.98568 14.9995 5.04239L4.47437 8.84664L4.41595 8.87387Z"
        fill="#686E76" />
</svg>
