<svg width="20" height="20" viewBox="0 0 20 20" fill="none" xmlns="http://www.w3.org/2000/svg">
<path fill-rule="evenodd" clip-rule="evenodd" d="M12.4421 2.14286C13.0789 2.14286 13.3098 2.20916 13.5426 2.33367C13.7754 2.45817 13.9581 2.64088 14.0826 2.87368C14.1764 3.04906 14.2372 3.22336 14.2615 3.57092L5.71401 3.57092C5.73828 3.22336 5.79904 3.04906 5.89283 2.87368C6.01734 2.64088 6.20004 2.45817 6.43285 2.33367C6.66565 2.20916 6.89657 2.14286 7.53337 2.14286L12.4421 2.14286ZM6.51956 5L13.6972 5.00127C14.8222 5.01492 15.4091 5.14049 16.0178 5.46604C16.6079 5.78162 17.0752 6.249 17.3908 6.83908C17.7367 7.48586 17.8569 8.10798 17.8569 9.37698V10C17.8569 10.3945 17.5371 10.7143 17.1426 10.7143C16.7481 10.7143 16.4283 10.3945 16.4283 10V9.37698C16.4283 8.45114 16.3687 8.03057 16.2048 7.66287L12.02 11.847C10.9414 12.9256 9.21503 12.9615 8.09325 11.9549L7.97942 11.847L3.7946 7.66287C3.63073 8.03057 3.57115 8.45114 3.57115 9.37698L3.57115 12.7659C3.57115 13.8192 3.64826 14.2185 3.86835 14.6301C4.05079 14.9712 4.31424 15.2347 4.65537 15.4171C5.01848 15.6113 5.37209 15.6942 6.17386 15.711L6.51956 15.7143L11.4283 15.7143C11.8228 15.7143 12.1426 16.0341 12.1426 16.4286C12.1426 16.8231 11.8228 17.1429 11.4283 17.1429H6.51956C5.25056 17.1429 4.62843 17.0227 3.98166 16.6768C3.39157 16.3612 2.9242 15.8939 2.60862 15.3038C2.26272 14.657 2.14258 14.0349 2.14258 12.7659L2.14385 9.15962C2.15749 8.03471 2.28306 7.44781 2.60862 6.83908C2.9242 6.249 3.39157 5.78162 3.98166 5.46604C4.62843 5.12014 5.25056 5 6.51956 5ZM13.4799 6.42857L6.51956 6.42857C5.59372 6.42857 5.17314 6.48815 4.80545 6.65202L8.98957 10.8368C9.5181 11.3654 10.3577 11.3932 10.919 10.9203L11.0099 10.8368L15.194 6.65202C14.8263 6.48815 14.4057 6.42857 13.4799 6.42857ZM19.9997 15C19.9997 16.9724 18.4007 18.5714 16.4283 18.5714C14.4559 18.5714 12.8569 16.9724 12.8569 15C12.8569 13.0275 14.4559 11.4285 16.4283 11.4285C18.4007 11.4285 19.9997 13.0275 19.9997 15ZM16.1426 12.8571C16.3793 12.8571 16.5712 13.049 16.5712 13.2857V15.251L17.7313 16.4112C17.8987 16.5786 17.8987 16.8499 17.7313 17.0173C17.564 17.1847 17.2926 17.1847 17.1253 17.0173L15.8395 15.7316C15.7592 15.6512 15.714 15.5422 15.714 15.4285V13.2857C15.714 13.049 15.9059 12.8571 16.1426 12.8571Z" fill="#007AFF"/>
</svg>
