<svg width="15" height="13" viewBox="0 0 15 13" fill="none" xmlns="http://www.w3.org/2000/svg">
<path d="M7.06689 12.2378C7.28271 12.2378 7.46045 12.168 7.6001 12.0283C7.73975 11.8887 7.80957 11.7109 7.80957 11.4951V9.07031H7.99365C8.81462 9.07031 9.54036 9.15072 10.1709 9.31152C10.8014 9.47233 11.3579 9.74951 11.8403 10.1431C12.3228 10.5324 12.748 11.0741 13.1162 11.7681C13.2262 11.9712 13.349 12.1003 13.4844 12.1553C13.624 12.2103 13.7616 12.2378 13.897 12.2378C14.0662 12.2378 14.2165 12.1637 14.3477 12.0156C14.4831 11.8717 14.5508 11.6623 14.5508 11.3872C14.5508 10.215 14.4217 9.1613 14.1636 8.22607C13.9097 7.28662 13.5161 6.4847 12.9829 5.82031C12.4539 5.15592 11.7747 4.64811 10.9453 4.29688C10.1201 3.94564 9.13623 3.77002 7.99365 3.77002H7.80957V1.37061C7.80957 1.15902 7.73975 0.977051 7.6001 0.824707C7.46045 0.672363 7.27848 0.596191 7.0542 0.596191C6.89762 0.596191 6.75798 0.632161 6.63525 0.704102C6.51253 0.77181 6.36654 0.886068 6.19727 1.04688L1.18896 5.73145C1.06624 5.8457 0.981608 5.96208 0.935059 6.08057C0.888509 6.19906 0.865234 6.3112 0.865234 6.41699C0.865234 6.51855 0.888509 6.62858 0.935059 6.74707C0.981608 6.86556 1.06624 6.98193 1.18896 7.09619L6.19727 11.8252C6.34961 11.9691 6.49349 12.0728 6.62891 12.1362C6.76432 12.2039 6.91032 12.2378 7.06689 12.2378ZM6.70508 10.873C6.66699 10.873 6.63102 10.854 6.59717 10.8159L2.07129 6.5376C2.0459 6.51221 2.02686 6.49105 2.01416 6.47412C2.0057 6.45296 2.00146 6.43392 2.00146 6.41699C2.00146 6.37891 2.02474 6.3387 2.07129 6.29639L6.59082 1.96094C6.60775 1.94824 6.62467 1.93766 6.6416 1.9292C6.65853 1.9165 6.67757 1.91016 6.69873 1.91016C6.75798 1.91016 6.7876 1.93978 6.7876 1.99902V4.51904C6.7876 4.65869 6.85954 4.72852 7.00342 4.72852H7.854C8.72575 4.72852 9.48112 4.84066 10.1201 5.06494C10.7591 5.28499 11.2987 5.5918 11.7388 5.98535C12.1789 6.37467 12.5343 6.82536 12.8052 7.3374C13.076 7.84945 13.277 8.39746 13.4082 8.98145C13.5436 9.5612 13.624 10.1494 13.6494 10.7461C13.6494 10.7926 13.6325 10.8159 13.5986 10.8159C13.5859 10.8159 13.5754 10.8117 13.5669 10.8032C13.5584 10.7905 13.55 10.7736 13.5415 10.7524C13.2918 10.2235 12.9131 9.76009 12.4053 9.3623C11.8975 8.96452 11.2627 8.65771 10.501 8.44189C9.74349 8.22184 8.86117 8.11182 7.854 8.11182H7.00342C6.85954 8.11182 6.7876 8.18164 6.7876 8.32129V10.7778C6.7876 10.8413 6.76009 10.873 6.70508 10.873Z" fill="#007AFF"/>
</svg>
