<svg width="20" height="20" viewBox="0 0 20 20" fill="none" xmlns="http://www.w3.org/2000/svg">
    <path
        d="M16.681 13.5785L13.3514 16.8649C12.0006 18.1981 9.82916 18.1981 8.47841 16.8649L3.53891 11.9895C2.64564 11.1078 2.14282 9.90498 2.14282 8.64987V5.61126C2.14282 3.69569 3.69569 2.14282 5.61126 2.14282H8.75952C9.9934 2.14282 11.1776 2.62882 12.0558 3.49559L16.681 8.06076C18.2046 9.56468 18.2207 12.019 16.7167 13.5427C16.6989 13.5607 16.6989 13.5607 16.681 13.5785ZM15.6774 12.5618L15.7 12.5392C16.6497 11.577 16.6396 10.0272 15.6774 9.07749L11.0522 4.51232C10.4414 3.90943 9.61775 3.57139 8.75952 3.57139H5.61126C4.48467 3.57139 3.57139 4.48467 3.57139 5.61126V8.64987C3.57139 9.52287 3.92113 10.3595 4.54245 10.9727L9.48195 15.8482C10.2764 16.6323 11.5534 16.6323 12.3479 15.8482L15.6774 12.5618ZM7.14282 8.57139C6.35384 8.57139 5.71425 7.9318 5.71425 7.14282C5.71425 6.35384 6.35384 5.71425 7.14282 5.71425C7.9318 5.71425 8.57139 6.35384 8.57139 7.14282C8.57139 7.9318 7.9318 8.57139 7.14282 8.57139Z"
        fill="#007AFF" />
</svg>
