<svg width="23" height="24" viewBox="0 0 23 24" fill="none" xmlns="http://www.w3.org/2000/svg">
    <path
        d="M18.483 16.9286C18.9366 16.9286 19.3044 17.2963 19.3044 17.75C19.3044 18.2036 18.9366 18.5714 18.483 18.5714H4.51869C4.06503 18.5714 3.69727 18.2036 3.69727 17.75C3.69727 17.2963 4.06503 16.9286 4.51869 16.9286H18.483ZM18.483 11.1786C18.9366 11.1786 19.3044 11.5463 19.3044 12C19.3044 12.4536 18.9366 12.8214 18.483 12.8214H4.51869C4.06503 12.8214 3.69727 12.4536 3.69727 12C3.69727 11.5463 4.06503 11.1786 4.51869 11.1786H18.483ZM18.483 5.42856C18.9366 5.42856 19.3044 5.79632 19.3044 6.24999C19.3044 6.70365 18.9366 7.07142 18.483 7.07142H4.51869C4.06503 7.07142 3.69727 6.70365 3.69727 6.24999C3.69727 5.79632 4.06503 5.42856 4.51869 5.42856H18.483Z"
        fill="#007AFF" />
</svg>
