<svg width="28" height="28" viewBox="0 0 28 28" fill="none" xmlns="http://www.w3.org/2000/svg">
<path d="M9.77678 21H15.9592C16.243 21 16.4736 20.921 16.651 20.763C16.8284 20.6049 16.9171 20.3872 16.9171 20.1099C16.9171 19.839 16.83 19.6261 16.6558 19.4713C16.4817 19.3165 16.2527 19.2391 15.9689 19.2391H13.9855L16.2398 8.76088H18.2232C18.5006 8.76088 18.7279 8.68187 18.9053 8.52384C19.0827 8.36581 19.1714 8.14812 19.1714 7.87077C19.1714 7.59986 19.0843 7.38701 18.9102 7.2322C18.736 7.0774 18.5103 7 18.2329 7H12.0214C11.7441 7 11.5183 7.0774 11.3442 7.2322C11.17 7.38701 11.0829 7.59986 11.0829 7.87077C11.0829 8.14812 11.1716 8.36581 11.349 8.52384C11.5264 8.68187 11.7537 8.76088 12.0311 8.76088H14.0145L11.7602 19.2391H9.76711C9.48975 19.2391 9.264 19.3165 9.08984 19.4713C8.91569 19.6261 8.82861 19.839 8.82861 20.1099C8.82861 20.3872 8.9173 20.6049 9.09468 20.763C9.27206 20.921 9.49943 21 9.77678 21Z" fill="#99A2AD"/>
</svg>
