<svg width="20" height="20" viewBox="0 0 20 20" fill="none" xmlns="http://www.w3.org/2000/svg">
<path d="M9.99734 18.3327C9.89994 18.3327 9.80046 18.3309 9.70142 18.3274L9.67641 18.3265L9.669 18.326L9.64983 18.3255C9.63305 18.3248 9.61629 18.324 9.59953 18.3232C9.53678 18.3203 9.47481 18.3166 9.41304 18.3123C9.38561 18.3104 9.35785 18.3084 9.33012 18.3062C9.33011 18.3062 9.33039 18.3062 9.33066 18.3062C9.3145 18.3049 9.29811 18.3036 9.28173 18.3022C9.20626 18.2957 9.13129 18.2883 9.05662 18.2799C9.05075 18.2792 9.04494 18.2786 9.03914 18.2779C9.0338 18.2773 9.02851 18.2767 9.02323 18.2761C9.00256 18.2737 8.98184 18.2712 8.96114 18.2686C4.84918 17.7575 1.6665 14.2501 1.6665 9.99935C1.6665 5.74858 4.84918 2.24116 8.96156 1.73007C8.96171 1.73066 8.96142 1.73039 8.96114 1.73012L9.01072 1.72411C9.10055 1.71348 9.19082 1.70429 9.28151 1.69654L8.96114 1.73012C9.08059 1.71527 9.20081 1.70294 9.32177 1.6932C9.41467 1.68572 9.50826 1.67975 9.60225 1.67533C9.63094 1.67399 9.65903 1.67281 9.68716 1.67177C9.73463 1.67002 9.78297 1.66864 9.83141 1.66768L9.75843 1.66945C9.83807 1.66718 9.91799 1.66603 9.99818 1.66602L9.999 1.66602H9.99984C10.0944 1.66602 10.1886 1.66759 10.2824 1.67072L9.99984 1.66602C10.1159 1.66602 10.2315 1.66839 10.3464 1.67309L9.99984 1.66602C10.1344 1.66602 10.2682 1.6692 10.4011 1.67551C10.4442 1.67755 10.4867 1.67989 10.5291 1.68255C10.5583 1.68438 10.5874 1.68636 10.6165 1.68848C10.6472 1.69073 10.6768 1.69307 10.7065 1.69555C10.7287 1.69742 10.751 1.69938 10.7732 1.70143C10.8712 1.71044 10.9686 1.72115 11.0656 1.73352C11.0763 1.73489 11.0868 1.73626 11.0974 1.73765C11.202 1.75141 11.3063 1.76716 11.4099 1.78481C11.4193 1.78642 11.429 1.78808 11.4386 1.78976C15.3551 2.47123 18.3332 5.88751 18.3332 9.99935C18.3332 14.3767 14.9581 17.9658 10.6682 18.3063C10.6685 18.3057 10.6687 18.3059 10.669 18.3062L10.6171 18.3094C10.6169 18.3097 10.6167 18.3099 10.6165 18.3102L10.5283 18.3162C10.4867 18.3188 10.445 18.3211 10.4033 18.3231L10.3361 18.326L10.319 18.326L10.3096 18.327C10.2974 18.3275 10.2853 18.3279 10.2731 18.3283C10.1824 18.3312 10.0913 18.3327 9.99984 18.3327H9.99734ZM11.6766 13.3336L8.2252 13.3337C8.5318 14.7423 9.05379 16.0135 9.73233 17.0773C9.81536 17.0808 9.89827 17.0824 9.98151 17.0827C10.7281 16.0404 11.3149 14.7646 11.6766 13.3336ZM16.2513 13.3329L12.9612 13.3333C12.6607 14.6425 12.1878 15.8495 11.5785 16.9058C13.6027 16.4456 15.2978 15.1172 16.2513 13.3329ZM6.94942 13.3333L3.74836 13.3329C4.66035 15.0396 6.25082 16.3291 8.1595 16.8413C7.61547 15.7897 7.20185 14.606 6.94942 13.3333ZM6.87301 7.91599L3.22786 7.91594C3.02545 8.57465 2.9165 9.27428 2.9165 9.99935C2.9165 10.7247 3.02554 11.4246 3.22811 12.0836L6.75741 12.0835C6.69753 11.5394 6.6665 10.9826 6.6665 10.416C6.6665 9.55677 6.73786 8.72002 6.87301 7.91599ZM11.9281 7.91611L8.14139 7.91603C7.99483 8.71306 7.9165 9.55038 7.9165 10.416C7.9165 10.9852 7.95037 11.5421 8.01523 12.0834L11.928 12.0834C12.0295 11.4126 12.0832 10.7157 12.0832 9.99935C12.0832 9.28331 12.0296 8.58663 11.9281 7.91611ZM16.7718 7.91594L13.1906 7.91665C13.2842 8.59159 13.3332 9.28775 13.3332 9.99935C13.3332 10.7112 13.2842 11.4077 13.1905 12.0829L16.7716 12.0836C16.9741 11.4246 17.0832 10.7247 17.0832 9.99935C17.0832 9.27428 16.9742 8.57465 16.7718 7.91594ZM8.71152 3.03366L8.54716 3.06511C6.46658 3.49877 4.7209 4.84521 3.74792 6.66664L7.14066 6.66613C7.49332 5.31909 8.03062 4.08979 8.71152 3.03366ZM10.1485 3.15628L10.0484 3.28984C9.361 4.23887 8.80669 5.38421 8.43575 6.66602L11.6768 6.66597C11.3425 5.34296 10.8158 4.15254 10.1485 3.15628ZM11.5777 3.0924L11.5998 3.12996C12.199 4.17766 12.6644 5.37198 12.9614 6.66626L16.2518 6.66664C15.2984 4.88186 13.603 3.55315 11.5777 3.0924Z" fill="#007AFF"/>
</svg>
