<svg width="20" height="20" viewBox="0 0 20 20" fill="none" xmlns="http://www.w3.org/2000/svg">
    <path fill-rule="evenodd" clip-rule="evenodd"
        d="M1.42859 9.71429C1.42859 7.31407 1.42859 6.11395 1.8957 5.19719C2.30659 4.39078 2.96222 3.73515 3.76863 3.32426C4.68539 2.85715 5.88551 2.85715 8.28573 2.85715H11.7143C14.1145 2.85715 15.3146 2.85715 16.2314 3.32426C17.0378 3.73515 17.6934 4.39078 18.1043 5.19719C18.5714 6.11395 18.5714 7.31407 18.5714 9.71429V10.2857C18.5714 12.6859 18.5714 13.8861 18.1043 14.8028C17.6934 15.6092 17.0378 16.2649 16.2314 16.6757C15.3146 17.1429 14.1145 17.1429 11.7143 17.1429H8.28573C5.88551 17.1429 4.68539 17.1429 3.76863 16.6757C2.96222 16.2649 2.30659 15.6092 1.8957 14.8028C1.42859 13.8861 1.42859 12.6859 1.42859 10.2857V9.71429ZM8.28573 4.28572H11.7143C12.938 4.28572 13.7698 4.28683 14.4128 4.33936C15.0391 4.39053 15.3594 4.48329 15.5828 4.59713C15.6351 4.62377 15.6865 4.65196 15.7368 4.68163L11.9193 8.49913C11.4867 8.93177 11.1922 9.22548 10.9463 9.43424C10.7067 9.63758 10.5607 9.71803 10.4415 9.75677C10.1546 9.85 9.84548 9.85 9.55856 9.75677C9.43932 9.71803 9.29329 9.63758 9.05376 9.43424C8.80786 9.22548 8.51337 8.93177 8.08073 8.49913L4.26323 4.68163C4.31356 4.65196 4.3649 4.62377 4.41719 4.59713C4.64062 4.48329 4.96091 4.39053 5.58721 4.33936C6.2302 4.28683 7.06205 4.28572 8.28573 4.28572ZM3.25307 5.69178C3.2234 5.74212 3.19521 5.79346 3.16857 5.84575C3.05473 6.06917 2.96198 6.38947 2.91081 7.01577C2.85827 7.65876 2.85716 8.4906 2.85716 9.71429V10.2857C2.85716 11.5094 2.85827 12.3413 2.91081 12.9842C2.96198 13.6105 3.05473 13.9308 3.16857 14.1543C3.44249 14.6919 3.87958 15.129 4.41719 15.4029C4.64062 15.5167 4.96091 15.6095 5.58721 15.6606C6.2302 15.7132 7.06205 15.7143 8.28573 15.7143H11.7143C12.938 15.7143 13.7698 15.7132 14.4128 15.6606C15.0391 15.6095 15.3594 15.5167 15.5828 15.4029C16.1205 15.129 16.5575 14.6919 16.8315 14.1543C16.9453 13.9308 17.0381 13.6105 17.0892 12.9842C17.1418 12.3413 17.1429 11.5094 17.1429 10.2857V9.71429C17.1429 8.4906 17.1418 7.65876 17.0892 7.01577C17.0381 6.38947 16.9453 6.06917 16.8315 5.84575C16.8048 5.79346 16.7766 5.74212 16.747 5.69178L12.9086 9.53014C12.5021 9.9367 12.1665 10.2723 11.8708 10.5233C11.5637 10.784 11.253 10.9952 10.8829 11.1154C10.3091 11.3019 9.69095 11.3019 9.11711 11.1154C8.74708 10.9952 8.43632 10.784 8.12922 10.5233C7.83355 10.2723 7.498 9.93672 7.09143 9.53014L3.25307 5.69178Z"
        fill="#007AFF" />
</svg>
