<svg width="80" height="80" viewBox="0 0 80 80" fill="none" xmlns="http://www.w3.org/2000/svg">
<path d="M19.4644 8.5H60.5269C66.5847 8.50003 71.4956 13.4109 71.4956 19.4688V60.5312C71.4956 66.5891 66.5847 71.5 60.5269 71.5H19.4644C13.4065 71.5 8.49563 66.5891 8.49561 60.5312V19.4688C8.49564 13.4109 13.4065 8.50003 19.4644 8.5Z" stroke="#333333"/>
<path fill-rule="evenodd" clip-rule="evenodd" d="M42.5825 30.5874C42.7682 30.4012 42.9889 30.2535 43.2318 30.1527C43.4747 30.0519 43.7351 30 43.9981 30C44.2611 30 44.5215 30.0519 44.7644 30.1527C45.0073 30.2535 45.2279 30.4012 45.4137 30.5874L53.4112 38.585C53.5974 38.7707 53.7451 38.9913 53.8459 39.2342C53.9467 39.4771 53.9986 39.7375 53.9986 40.0005C53.9986 40.2635 53.9467 40.5239 53.8459 40.7668C53.7451 41.0097 53.5974 41.2304 53.4112 41.4161L45.4137 49.4137C45.0382 49.7891 44.529 50 43.9981 50C43.4671 50 42.958 49.7891 42.5825 49.4137C42.2071 49.0382 41.9962 48.529 41.9962 47.9981C41.9962 47.4671 42.2071 46.9579 42.5825 46.5825L49.1685 40.0005L42.5825 33.4185C42.3963 33.2328 42.2486 33.0122 42.1478 32.7693C42.047 32.5264 41.9951 32.266 41.9951 32.003C41.9951 31.74 42.047 31.4796 42.1478 31.2367C42.2486 30.9938 42.3963 30.7731 42.5825 30.5874ZM37.4161 30.5874C37.2304 30.4012 37.0097 30.2535 36.7668 30.1527C36.5239 30.0519 36.2635 30 36.0005 30C35.7375 30 35.4771 30.0519 35.2342 30.1527C34.9913 30.2535 34.7707 30.4012 34.585 30.5874L26.5874 38.585C26.4012 38.7707 26.2535 38.9913 26.1527 39.2342C26.0519 39.4771 26 39.7375 26 40.0005C26 40.2635 26.0519 40.5239 26.1527 40.7668C26.2535 41.0097 26.4012 41.2304 26.5874 41.4161L34.585 49.4137C34.9604 49.7891 35.4696 50 36.0005 50C36.5315 50 37.0407 49.7891 37.4161 49.4137C37.7915 49.0382 38.0024 48.529 38.0024 47.9981C38.0024 47.4671 37.7915 46.9579 37.4161 46.5825L30.8301 40.0005L37.4161 33.4185C37.6023 33.2328 37.75 33.0122 37.8508 32.7693C37.9516 32.5264 38.0035 32.266 38.0035 32.003C38.0035 31.74 37.9516 31.4796 37.8508 31.2367C37.75 30.9938 37.6023 30.7731 37.4161 30.5874Z" fill="#333333"/>
</svg>
