<svg width="18" height="18" viewBox="0 0 18 18" fill="none" xmlns="http://www.w3.org/2000/svg">
    <path
        d="M8.99999 1.28572C13.2605 1.28572 16.7143 4.73952 16.7143 9.00001C16.7143 13.2605 13.2605 16.7143 8.99999 16.7143C4.73951 16.7143 1.28571 13.2605 1.28571 9.00001C1.28571 4.73952 4.73951 1.28572 8.99999 1.28572ZM8.99999 13.1786C7.65903 13.1786 6.37716 13.5527 5.27349 14.2387C6.32453 14.9879 7.6108 15.4286 8.99999 15.4286C10.3889 15.4286 11.6749 14.9881 12.726 14.2393C11.6225 13.5526 10.3408 13.1786 8.99999 13.1786ZM8.99999 2.57144C5.44959 2.57144 2.57142 5.4496 2.57142 9.00001C2.57142 10.6815 3.21701 12.2122 4.27385 13.3578C5.64789 12.4124 7.28419 11.8929 8.99999 11.8929C10.716 11.8929 12.3524 12.4125 13.7267 13.3569C14.7832 12.2117 15.4286 10.6812 15.4286 9.00001C15.4286 5.4496 12.5504 2.57144 8.99999 2.57144ZM8.99999 4.82144C10.687 4.82144 12.0536 6.18805 12.0536 7.87501C12.0536 9.56197 10.687 10.9286 8.99999 10.9286C7.31303 10.9286 5.94642 9.56197 5.94642 7.87501C5.94642 6.18805 7.31303 4.82144 8.99999 4.82144ZM8.99999 6.10715C8.02311 6.10715 7.23213 6.89813 7.23213 7.87501C7.23213 8.85189 8.02311 9.64286 8.99999 9.64286C9.97687 9.64286 10.7678 8.85189 10.7678 7.87501C10.7678 6.89813 9.97687 6.10715 8.99999 6.10715Z"
        fill="#007AFF" />
</svg>
