<svg width="16" height="16" viewBox="0 0 16 16" fill="none" xmlns="http://www.w3.org/2000/svg">
    <path
        d="M8 1.14285C11.7871 1.14285 14.8571 4.2129 14.8571 8C14.8571 11.7871 11.7871 14.8571 8 14.8571C4.2129 14.8571 1.14286 11.7871 1.14286 8C1.14286 4.2129 4.2129 1.14285 8 1.14285ZM8 2.28571C4.84409 2.28571 2.28571 4.84408 2.28571 8C2.28571 11.1559 4.84409 13.7143 8 13.7143C11.1559 13.7143 13.7143 11.1559 13.7143 8C13.7143 4.84408 11.1559 2.28571 8 2.28571ZM10.4514 5.88C10.6746 5.65684 11.0397 5.65684 11.2629 5.88C11.486 6.10315 11.486 6.46827 11.2629 6.69142L7.2612 10.6898C7.03805 10.9129 6.67624 10.9129 6.45308 10.6898L4.45308 8.68977C4.22993 8.46661 4.22993 8.1048 4.45308 7.88165C4.67624 7.65849 5.03805 7.65849 5.2612 7.88165L6.85714 9.47759L10.4514 5.88Z"
        fill="#00BFA5" />
</svg>
