<svg width="36" height="36" viewBox="0 0 36 36" fill="none" xmlns="http://www.w3.org/2000/svg">
<path d="M5.98438 17.989C5.98438 18.133 6.01484 18.2729 6.07578 18.4086C6.13671 18.5443 6.22812 18.6676 6.34999 18.7784L11.7262 23.6228C11.9477 23.8277 12.1915 23.9261 12.4574 23.9177C12.7233 23.9094 12.9476 23.8028 13.1304 23.5978C13.3132 23.3873 13.395 23.1491 13.3756 22.8832C13.3562 22.6173 13.2385 22.3902 13.0224 22.2019L8.37748 17.989L13.0224 13.7762C13.2385 13.5823 13.3562 13.3524 13.3756 13.0865C13.395 12.8206 13.3132 12.5851 13.1304 12.3802C12.9476 12.1752 12.7233 12.0686 12.4574 12.0603C12.1915 12.052 11.9477 12.1503 11.7262 12.3552L6.34999 17.1996C6.22812 17.3104 6.13671 17.4337 6.07578 17.5694C6.01484 17.7051 5.98438 17.845 5.98438 17.989ZM15.6897 25.9577C15.9667 26.0353 16.2201 26.0062 16.45 25.8705C16.6799 25.7347 16.8364 25.5284 16.9195 25.2514L21.0077 11.2335C21.0908 10.9731 21.0714 10.728 20.9496 10.4981C20.8277 10.2682 20.6283 10.1173 20.3513 10.0452C20.0798 9.96769 19.8306 9.98984 19.6034 10.1117C19.3763 10.2336 19.2212 10.4469 19.1381 10.7515L15.0665 24.703C14.9834 24.991 14.9945 25.2528 15.0998 25.4882C15.205 25.7237 15.4017 25.8801 15.6897 25.9577ZM30.0151 17.989C30.0151 17.845 29.986 17.7051 29.9278 17.5694C29.8697 17.4337 29.7797 17.3104 29.6578 17.1996L24.2816 12.3552C24.06 12.1503 23.8177 12.052 23.5546 12.0603C23.2914 12.0686 23.0657 12.1752 22.8773 12.3802C22.689 12.5851 22.6045 12.8206 22.6239 13.0865C22.6433 13.3524 22.761 13.5823 22.9771 13.7762L27.6303 17.989L22.9771 22.2019C22.761 22.3902 22.6433 22.6173 22.6239 22.8832C22.6045 23.1491 22.689 23.3873 22.8773 23.5978C23.0657 23.8028 23.2914 23.9094 23.5546 23.9177C23.8177 23.9261 24.06 23.8277 24.2816 23.6228L29.6578 18.7784C29.7797 18.6676 29.8697 18.5443 29.9278 18.4086C29.986 18.2729 30.0151 18.133 30.0151 17.989Z" fill="#007AFF"/>
</svg>
