<svg width="24" height="24" viewBox="0 0 24 24" fill="none" xmlns="http://www.w3.org/2000/svg">
<path d="M20.4884 14.5382V5.49817C20.4884 4.39817 19.5884 3.49817 18.4884 3.49817H4.49844C3.39844 3.49817 2.49844 4.39817 2.49844 5.49817V15.4982C2.49844 16.5982 3.39844 17.4982 4.49844 17.4982H14.5484C14.8284 19.4182 16.6484 20.8482 18.7284 20.4282C20.0684 20.1582 21.1584 19.0582 21.4284 17.7182C21.6784 16.4782 21.2684 15.3282 20.4884 14.5382ZM18.4884 5.49817L11.4984 8.99817L4.49844 5.49817H18.4884ZM14.8484 15.4982H4.49844V7.49817L11.4984 10.9982L18.4984 7.49817V13.5482C18.3384 13.5282 18.1684 13.4982 17.9984 13.4982C16.6084 13.4982 15.4084 14.3182 14.8484 15.4982ZM19.9984 17.4982H15.9984V16.4982H19.9984V17.4982Z" fill="#0A84FF"/>
</svg>
