<svg width="29" height="28" viewBox="0 0 29 28" fill="none" xmlns="http://www.w3.org/2000/svg">
<path d="M11.5845 9.95035H22.2461C22.4833 9.95035 22.6853 9.86817 22.8524 9.70381C23.0194 9.53945 23.103 9.33603 23.103 9.09353C23.103 8.85643 23.0194 8.65435 22.8524 8.4873C22.6853 8.32025 22.4833 8.23672 22.2461 8.23672H11.5845C11.342 8.23672 11.1386 8.32025 10.9742 8.4873C10.8099 8.65435 10.7277 8.85643 10.7277 9.09353C10.7277 9.33603 10.8099 9.53945 10.9742 9.70381C11.1386 9.86817 11.342 9.95035 11.5845 9.95035ZM11.5845 14.97H22.2461C22.4833 14.97 22.6853 14.8878 22.8524 14.7234C23.0194 14.5591 23.103 14.3557 23.103 14.1132C23.103 13.8761 23.0194 13.6753 22.8524 13.511C22.6853 13.3466 22.4833 13.2644 22.2461 13.2644H11.5845C11.342 13.2644 11.1386 13.3466 10.9742 13.511C10.8099 13.6753 10.7277 13.8761 10.7277 14.1132C10.7277 14.3503 10.8099 14.5523 10.9742 14.7194C11.1386 14.8865 11.342 14.97 11.5845 14.97ZM11.5845 19.9896H22.2461C22.4833 19.9896 22.6853 19.9074 22.8524 19.7431C23.0194 19.5787 23.103 19.3753 23.103 19.1328C23.103 18.8957 23.0194 18.6936 22.8524 18.5266C22.6853 18.3595 22.4833 18.276 22.2461 18.276H11.5845C11.342 18.276 11.1386 18.3595 10.9742 18.5266C10.8099 18.6936 10.7277 18.8957 10.7277 19.1328C10.7277 19.3753 10.8099 19.5787 10.9742 19.7431C11.1386 19.9074 11.342 19.9896 11.5845 19.9896ZM7.98749 10.8557C8.15993 10.8557 8.29869 10.8072 8.40377 10.7102C8.50885 10.6132 8.56139 10.4623 8.56139 10.2575V7.61432C8.56139 7.42571 8.50077 7.27617 8.37952 7.1657C8.25827 7.05523 8.10065 7 7.90666 7C7.75577 7 7.62644 7.0229 7.51867 7.06871C7.41089 7.11451 7.29773 7.17513 7.17917 7.25058L6.60527 7.64665C6.43283 7.75982 6.34661 7.89992 6.34661 8.06697C6.34661 8.18553 6.38298 8.27983 6.45573 8.34988C6.52848 8.41994 6.61605 8.45497 6.71843 8.45497C6.77232 8.45497 6.81947 8.44823 6.85989 8.43476C6.9003 8.42129 6.95554 8.3903 7.02559 8.3418L7.38125 8.10739H7.39742V10.2575C7.39742 10.4623 7.45131 10.6132 7.55908 10.7102C7.66686 10.8072 7.80966 10.8557 7.98749 10.8557ZM6.64569 15.851H8.7958C8.91974 15.851 9.02348 15.8133 9.107 15.7379C9.19053 15.6624 9.23229 15.5574 9.23229 15.4226C9.23229 15.2933 9.19053 15.1896 9.107 15.1114C9.02348 15.0333 8.91974 14.9942 8.7958 14.9942H7.67224V14.97L8.3189 14.4527C8.59911 14.2263 8.80254 14.031 8.92917 13.8666C9.05581 13.7023 9.11913 13.4935 9.11913 13.2402C9.11913 12.9007 8.98441 12.6272 8.71497 12.4197C8.44553 12.2123 8.0791 12.1085 7.61566 12.1085C7.21151 12.1085 6.87875 12.1988 6.61739 12.3793C6.35604 12.5599 6.22536 12.7821 6.22536 13.0462C6.22536 13.3372 6.38703 13.4827 6.71035 13.4827C6.89357 13.4827 7.04715 13.3992 7.17109 13.2321C7.29503 13.0543 7.44861 12.9654 7.63183 12.9654C7.74499 12.9654 7.83795 12.9977 7.9107 13.0624C7.98345 13.127 8.01982 13.2132 8.01982 13.321C8.01982 13.4126 7.98479 13.5069 7.91474 13.6039C7.84469 13.7009 7.70458 13.8329 7.49442 14L6.41127 14.8811C6.24961 15.0158 6.16878 15.1828 6.16878 15.3822C6.16878 15.5169 6.21189 15.6288 6.29811 15.7177C6.38433 15.8066 6.50019 15.851 6.64569 15.851ZM7.63183 21C8.14915 21 8.54927 20.8963 8.83218 20.6888C9.11509 20.4813 9.25654 20.1998 9.25654 19.8441C9.25654 19.6178 9.1784 19.4292 9.02213 19.2783C8.86586 19.1274 8.64492 19.0412 8.35931 19.0196V18.9954C8.56408 18.9577 8.73922 18.8674 8.88472 18.7246C9.03021 18.5818 9.10296 18.3891 9.10296 18.1467C9.10296 17.8179 8.96151 17.5687 8.6786 17.399C8.39569 17.2292 8.04407 17.1443 7.62375 17.1443C7.4082 17.1443 7.19399 17.178 6.98114 17.2454C6.76828 17.3127 6.5918 17.4097 6.45169 17.5364C6.31158 17.663 6.24153 17.8233 6.24153 18.0173C6.24153 18.1359 6.28194 18.2356 6.36278 18.3164C6.44361 18.3972 6.55408 18.4376 6.69418 18.4376C6.78579 18.4376 6.85989 18.4215 6.91647 18.3891C6.97305 18.3568 7.03098 18.3083 7.09026 18.2436C7.18726 18.1467 7.27752 18.0793 7.36104 18.0416C7.44457 18.0038 7.53214 17.985 7.62375 17.985C7.7423 17.985 7.84199 18.0133 7.92282 18.0699C8.00365 18.1264 8.04407 18.2113 8.04407 18.3245C8.04407 18.4323 8.00096 18.5144 7.91474 18.571C7.82852 18.6276 7.70727 18.6559 7.551 18.6559H7.44592C7.19265 18.6559 7.06601 18.7825 7.06601 19.0358C7.06601 19.2891 7.19265 19.4157 7.44592 19.4157H7.55908C7.90935 19.4157 8.08449 19.5316 8.08449 19.7633C8.08987 19.8657 8.04811 19.9505 7.9592 20.0179C7.87028 20.0853 7.76116 20.1189 7.63183 20.1189C7.49172 20.1189 7.36913 20.0839 7.26405 20.0139C7.15897 19.9438 7.06601 19.8764 6.98518 19.8118C6.93668 19.7741 6.88683 19.739 6.83564 19.7067C6.78445 19.6744 6.71843 19.6582 6.6376 19.6582C6.49211 19.6582 6.37355 19.6986 6.28194 19.7794C6.19034 19.8603 6.14453 19.9707 6.14453 20.1109C6.14453 20.3911 6.30485 20.6093 6.62548 20.7656C6.94611 20.9219 7.28156 21 7.63183 21Z" fill="#99A2AD"/>
</svg>
