<svg width="29" height="28" viewBox="0 0 29 28" fill="none" xmlns="http://www.w3.org/2000/svg">
<path d="M18.0903 3C20.2733 3 21.323 3.20271 22.4137 3.78602C23.4028 4.31499 24.185 5.0972 24.714 6.08629C25.2973 7.17697 25.5 8.22671 25.5 10.4097V17.5903C25.5 19.7733 25.2973 20.823 24.714 21.9137C24.185 22.9028 23.4028 23.685 22.4137 24.214C21.323 24.7973 20.2733 25 18.0903 25H10.9097C8.72671 25 7.67697 24.7973 6.58629 24.214C5.5972 23.685 4.81499 22.9028 4.28602 21.9137C3.70271 20.823 3.5 19.7733 3.5 17.5903V10.4097C3.5 8.22671 3.70271 7.17697 4.28602 6.08629C4.81499 5.0972 5.5972 4.31499 6.58629 3.78602C7.67697 3.20271 8.72671 3 10.9097 3H18.0903ZM18.0903 5H10.9097C9.02864 5 8.29082 5.14248 7.52948 5.54964C6.88894 5.89221 6.39221 6.38894 6.04964 7.02948C5.64248 7.79082 5.5 8.52864 5.5 10.4097V17.5903C5.5 19.4714 5.64248 20.2092 6.04964 20.9705C6.39221 21.6111 6.88894 22.1078 7.52948 22.4504C8.29082 22.8575 9.02864 23 10.9097 23H18.0903C19.9714 23 20.7092 22.8575 21.4705 22.4504C22.1111 22.1078 22.6078 21.6111 22.9504 20.9705C23.3575 20.2092 23.5 19.4714 23.5 17.5903V10.4097C23.5 8.52864 23.3575 7.79082 22.9504 7.02948C22.6078 6.38894 22.1111 5.89221 21.4705 5.54964C20.7092 5.14248 19.9714 5 18.0903 5ZM13.5 17.5C14.0523 17.5 14.5 17.9477 14.5 18.5C14.5 19.0523 14.0523 19.5 13.5 19.5H9.5C8.94772 19.5 8.5 19.0523 8.5 18.5C8.5 17.9477 8.94772 17.5 9.5 17.5H13.5ZM19.5 13C20.0523 13 20.5 13.4477 20.5 14C20.5 14.5523 20.0523 15 19.5 15H9.5C8.94772 15 8.5 14.5523 8.5 14C8.5 13.4477 8.94772 13 9.5 13H19.5ZM19.5 8.5C20.0523 8.5 20.5 8.94772 20.5 9.5C20.5 10.0523 20.0523 10.5 19.5 10.5H9.5C8.94772 10.5 8.5 10.0523 8.5 9.5C8.5 8.94772 8.94772 8.5 9.5 8.5H19.5Z" fill="#0A84FF"/>
</svg>
