<svg width="64" height="64" viewBox="0 0 64 64" fill="none" xmlns="http://www.w3.org/2000/svg">
<rect width="64" height="64" rx="16" fill="#FFE9DB"/>
<path fill-rule="evenodd" clip-rule="evenodd" d="M30.2857 19C29.9674 19.0002 29.6555 19.0876 29.3848 19.2524C29.1141 19.4172 28.8954 19.6529 28.7531 19.9332L27.512 22.375H21.7143C21.2596 22.375 20.8236 22.5528 20.5021 22.8693C20.1806 23.1857 20 23.6149 20 24.0625C20 24.5101 20.1806 24.9393 20.5021 25.2557C20.8236 25.5722 21.2596 25.75 21.7143 25.75V42.625C21.7143 43.5201 22.0755 44.3785 22.7185 45.0115C23.3615 45.6444 24.2335 46 25.1429 46H38.8571C39.7665 46 40.6385 45.6444 41.2815 45.0115C41.9245 44.3785 42.2857 43.5201 42.2857 42.625V25.75C42.7404 25.75 43.1764 25.5722 43.4979 25.2557C43.8194 24.9393 44 24.5101 44 24.0625C44 23.6149 43.8194 23.1857 43.4979 22.8693C43.1764 22.5528 42.7404 22.375 42.2857 22.375H36.488L35.2469 19.9332C35.1046 19.6529 34.8859 19.4172 34.6152 19.2524C34.3445 19.0876 34.0326 19.0002 33.7143 19H30.2857ZM26.8571 29.125C26.8571 28.6774 27.0378 28.2482 27.3592 27.9318C27.6807 27.6153 28.1168 27.4375 28.5714 27.4375C29.0261 27.4375 29.4621 27.6153 29.7836 27.9318C30.1051 28.2482 30.2857 28.6774 30.2857 29.125V39.25C30.2857 39.6976 30.1051 40.1268 29.7836 40.4432C29.4621 40.7597 29.0261 40.9375 28.5714 40.9375C28.1168 40.9375 27.6807 40.7597 27.3592 40.4432C27.0378 40.1268 26.8571 39.6976 26.8571 39.25V29.125ZM35.4286 27.4375C34.9739 27.4375 34.5379 27.6153 34.2164 27.9318C33.8949 28.2482 33.7143 28.6774 33.7143 29.125V39.25C33.7143 39.6976 33.8949 40.1268 34.2164 40.4432C34.5379 40.7597 34.9739 40.9375 35.4286 40.9375C35.8832 40.9375 36.3193 40.7597 36.6408 40.4432C36.9622 40.1268 37.1429 39.6976 37.1429 39.25V29.125C37.1429 28.6774 36.9622 28.2482 36.6408 27.9318C36.3193 27.6153 35.8832 27.4375 35.4286 27.4375Z" fill="#E64646"/>
</svg>
