<svg width="16" height="16" viewBox="0 0 16 16" fill="none" xmlns="http://www.w3.org/2000/svg">
<path d="M10.8571 0.572266C11.1727 0.572266 11.4285 0.828103 11.4285 1.14369L11.4289 1.80645C11.9088 1.8828 12.2196 2.00614 12.5317 2.17306C13.0904 2.47188 13.5289 2.91037 13.8277 3.4691C14.0992 3.97671 14.2554 4.48059 14.2817 5.71459L14.2857 5.71512V9.89132L14.2826 10.2399C14.2593 11.5083 14.1026 12.0185 13.8277 12.5326C13.5289 13.0913 13.0904 13.5298 12.5317 13.8286C11.973 14.1274 11.4187 14.2866 9.89043 14.2866H6.10946L5.76087 14.2835C4.49245 14.2602 3.98224 14.1035 3.46821 13.8286C2.90948 13.5298 2.47099 13.0913 2.17218 12.5326C1.88532 11.9962 1.72719 11.464 1.715 10.0701L1.71423 6.11035V5.71512C1.74452 4.48059 1.9007 3.97671 2.17218 3.4691C2.47099 2.91037 2.90948 2.47188 3.46821 2.17306C3.78047 2.00607 4.09131 1.8827 4.57155 1.80635L4.57138 1.14369C4.57138 0.828103 4.82721 0.572266 5.1428 0.572266C5.4584 0.572266 5.71423 0.828103 5.71423 1.14369L5.7137 1.7191C5.83797 1.71645 5.96964 1.71512 6.10946 1.71512H9.89043C10.0305 1.71512 10.1623 1.71646 10.2868 1.71912L10.2857 1.14369C10.2857 0.828103 10.5415 0.572266 10.8571 0.572266ZM13.1422 6.85798H2.85709L2.85762 10.053L2.86267 10.3781C2.88489 11.2393 2.97589 11.612 3.17996 11.9936C3.37226 12.3532 3.64762 12.6285 4.00718 12.8208C4.43365 13.0489 4.84906 13.1357 5.94778 13.1432H10.0521L10.3772 13.1381C11.2384 13.1159 11.6111 13.0249 11.9927 12.8208C12.3523 12.6285 12.6276 12.3532 12.8199 11.9936C13.048 11.5671 13.1349 11.1517 13.1423 10.053L13.1422 6.85798ZM10.8834 9.71512C11.1307 9.71512 11.3254 9.76154 11.4884 9.84869C11.6513 9.93584 11.7792 10.0637 11.8664 10.2267C11.9535 10.3897 11.9999 10.5844 11.9999 10.8317V10.8843C11.9999 11.1316 11.9535 11.3263 11.8664 11.4893C11.7792 11.6522 11.6513 11.7801 11.4884 11.8673C11.3254 11.9544 11.1307 12.0008 10.8834 12.0008H10.8308C10.5835 12.0008 10.3888 11.9544 10.2258 11.8673C10.0628 11.7801 9.93495 11.6522 9.8478 11.4893C9.76065 11.3263 9.71423 11.1316 9.71423 10.8843V10.8317C9.71423 10.5844 9.76065 10.3897 9.8478 10.2267C9.93495 10.0637 10.0628 9.93584 10.2258 9.84869C10.3888 9.76154 10.5835 9.71512 10.8308 9.71512H10.8834ZM10.0521 2.85851H5.94778L5.71423 2.86141V3.42941C5.71423 3.745 5.4584 4.00084 5.1428 4.00084C4.82721 4.00084 4.57138 3.745 4.57138 3.42941L4.57095 2.96799C4.35341 3.01822 4.18122 3.08778 4.00718 3.18085C3.64762 3.37315 3.37226 3.64851 3.17996 4.00807C2.96886 4.40279 2.87875 4.78803 2.86062 5.71435L13.1388 5.71512L13.1372 5.62361C13.115 4.76237 13.024 4.38965 12.8199 4.00807C12.6276 3.64851 12.3523 3.37315 11.9927 3.18085C11.8187 3.0878 11.6466 3.01825 11.4291 2.96802L11.4285 3.42941C11.4285 3.745 11.1727 4.00084 10.8571 4.00084C10.5415 4.00084 10.2857 3.745 10.2857 3.42941L10.287 2.86152C10.2123 2.86006 10.1341 2.85906 10.0521 2.85851Z" fill="#007AFF"/>
</svg>
