<svg width="196" height="196" viewBox="0 0 196 196" fill="none" xmlns="http://www.w3.org/2000/svg">
<g clip-path="url(#clip0_56880_7731)">
<rect width="196.105" height="196.105" rx="64.7641" fill="white"/>
<rect width="196.105" height="196.105" rx="64.7641" fill="url(#paint0_linear_56880_7731)"/>
<g filter="url(#filter0_d_56880_7731)">
<path d="M98 41C133.899 41 163 66.1331 163 97.1364C163 128.14 133.899 153.273 98 153.273C90.6399 153.273 83.5656 152.216 76.9691 150.269C69.5981 156.002 58.1656 160.815 42.6755 164.701C41.9421 164.884 41.1662 164.782 40.5059 164.413C39.0738 163.614 38.5607 161.805 39.3599 160.373L40.4684 158.361C45.6126 148.896 48.8222 141.133 50.0971 135.073C39.4775 125.084 33 111.763 33 97.1364C33 66.1331 62.1015 41 98 41Z" fill="white"/>
</g>
</g>
<defs>
<filter id="filter0_d_56880_7731" x="23" y="33" width="150" height="143.79" filterUnits="userSpaceOnUse" color-interpolation-filters="sRGB">
<feFlood flood-opacity="0" result="BackgroundImageFix"/>
<feColorMatrix in="SourceAlpha" type="matrix" values="0 0 0 0 0 0 0 0 0 0 0 0 0 0 0 0 0 0 127 0" result="hardAlpha"/>
<feOffset dy="2"/>
<feGaussianBlur stdDeviation="5"/>
<feComposite in2="hardAlpha" operator="out"/>
<feColorMatrix type="matrix" values="0 0 0 0 0 0 0 0 0 0 0 0 0 0 0 0 0 0 0.1 0"/>
<feBlend mode="normal" in2="BackgroundImageFix" result="effect1_dropShadow_56880_7731"/>
<feBlend mode="normal" in="SourceGraphic" in2="effect1_dropShadow_56880_7731" result="shape"/>
</filter>
<linearGradient id="paint0_linear_56880_7731" x1="26.5" y1="180" x2="184" y2="-3.60733e-06" gradientUnits="userSpaceOnUse">
<stop stop-color="#8135FE"/>
<stop offset="1" stop-color="#E8A6FF"/>
</linearGradient>
<clipPath id="clip0_56880_7731">
<rect width="196" height="196" fill="white"/>
</clipPath>
</defs>
</svg>
