<svg width="28" height="28" viewBox="0 0 28 28" fill="none" xmlns="http://www.w3.org/2000/svg">
<path d="M14 18.5498C14.9451 18.5498 15.7657 18.3764 16.4617 18.0297C17.1577 17.683 17.6932 17.1989 18.0682 16.5773C18.4432 15.9558 18.6307 15.2341 18.6307 14.4122V7.87837C18.6307 7.60613 18.5498 7.39167 18.388 7.235C18.2262 7.07833 18.0066 7 17.7292 7C17.4621 7 17.2489 7.07833 17.0897 7.235C16.9304 7.39167 16.8508 7.60613 16.8508 7.87837V14.2504C16.8508 15.0723 16.6004 15.7323 16.0996 16.2306C15.5988 16.7289 14.8989 16.978 14 16.978C13.399 16.978 12.8853 16.865 12.459 16.639C12.0326 16.413 11.7077 16.0958 11.4843 15.6874C11.2608 15.279 11.1491 14.8 11.1491 14.2504V7.87837C11.1491 7.60613 11.0682 7.39167 10.9064 7.235C10.7446 7.07833 10.525 7 10.2476 7C9.98053 7 9.76735 7.07833 9.60812 7.235C9.44888 7.39167 9.36926 7.60613 9.36926 7.87837V14.4122C9.36926 15.2341 9.55804 15.9558 9.93558 16.5773C10.3131 17.1989 10.8473 17.683 11.5382 18.0297C12.2291 18.3764 13.0497 18.5498 14 18.5498ZM9.91632 21H18.0759C18.2352 21 18.3674 20.9486 18.4727 20.8459C18.578 20.7432 18.6307 20.6147 18.6307 20.4606C18.6307 20.3065 18.578 20.1781 18.4727 20.0754C18.3674 19.9727 18.2352 19.9213 18.0759 19.9213H9.91632C9.76222 19.9213 9.63252 19.9727 9.52722 20.0754C9.42191 20.1781 9.36926 20.3065 9.36926 20.4606C9.36926 20.6147 9.42191 20.7432 9.52722 20.8459C9.63252 20.9486 9.76222 21 9.91632 21Z" fill="#99A2AD"/>
</svg>
