<svg width="20" height="20" viewBox="0 0 20 20" fill="none" xmlns="http://www.w3.org/2000/svg">
<path fill-rule="evenodd" clip-rule="evenodd" d="M7.39821 2.14258L9.28592 2.14258C9.68041 2.14258 10.0002 2.46238 10.0002 2.85686C10.0002 3.25135 9.68041 3.57115 9.28592 3.57115H7.42878C6.61692 3.57115 6.05098 3.57171 5.61038 3.6077C5.17812 3.64302 4.92977 3.70886 4.74166 3.80471C4.33845 4.01015 4.01064 4.33797 3.8052 4.74117C3.70935 4.92928 3.64351 5.17763 3.60819 5.60989C3.57219 6.05049 3.57164 6.61643 3.57164 7.42829V12.5712C3.57164 13.383 3.57219 13.9489 3.60819 14.3895C3.64351 14.8218 3.70935 15.0702 3.8052 15.2583C4.01064 15.6615 4.33845 15.9893 4.74166 16.1947C4.92977 16.2906 5.17812 16.3564 5.61038 16.3917C6.05098 16.4277 6.61692 16.4283 7.42878 16.4283H9.28592C9.68041 16.4283 10.0002 16.7481 10.0002 17.1426C10.0002 17.5371 9.68041 17.8569 9.28592 17.8569H7.39819C6.62406 17.8569 5.99967 17.8569 5.49405 17.8156C4.97344 17.773 4.51617 17.6832 4.0931 17.4676C3.42109 17.1252 2.87473 16.5788 2.53233 15.9068C2.31677 15.4838 2.2269 15.0265 2.18437 14.5059C2.14305 14.0003 2.14306 13.3759 2.14307 12.6017V7.39772C2.14306 6.62358 2.14305 5.99919 2.18437 5.49356C2.2269 4.97295 2.31677 4.51568 2.53233 4.09261C2.87473 3.42061 3.42109 2.87425 4.0931 2.53184C4.51617 2.31628 4.97344 2.22641 5.49405 2.18388C5.99968 2.14257 6.62407 2.14257 7.39821 2.14258ZM13.7808 6.6375C14.0598 6.35856 14.5121 6.35856 14.791 6.6375L17.6481 9.49465C17.7821 9.6286 17.8574 9.81028 17.8574 9.99972C17.8574 10.1892 17.7821 10.3708 17.6481 10.5048L14.791 13.3619C14.5121 13.6409 14.0598 13.6409 13.7808 13.3619C13.5019 13.083 13.5019 12.6307 13.7808 12.3518L15.4186 10.714H8.57164C8.17715 10.714 7.85735 10.3942 7.85735 9.99972C7.85735 9.60523 8.17715 9.28544 8.57164 9.28544H15.4186L13.7808 7.64766C13.5019 7.36871 13.5019 6.91645 13.7808 6.6375Z" fill="#007AFF"/>
</svg>
