<svg width="80" height="80" viewBox="0 0 80 80" fill="none" xmlns="http://www.w3.org/2000/svg">
<path d="M24.1735 8.5H47.9664L68.4733 29.0068V59.2002C68.4732 65.9932 62.9665 71.5 56.1735 71.5H24.1735C17.3805 71.4999 11.8738 65.9931 11.8737 59.2002V20.7998C11.8738 14.113 17.2098 8.67235 23.8561 8.50391L24.1735 8.5Z" fill="#F2F8FF" stroke="#006BE0"/>
<rect x="23" y="41" width="14" height="3" rx="1.5" fill="#006BE0"/>
<rect x="23" y="51" width="30" height="3" rx="1.5" fill="#006BE0"/>
<rect x="23" y="59" width="30" height="3" rx="1.5" fill="#006BE0"/>
<path d="M68.9737 29.6L47.3737 8V19.1724C47.3737 24.9314 51.8866 29.6 57.4537 29.6H68.9737Z" fill="#006BE0"/>
<path fill-rule="evenodd" clip-rule="evenodd" d="M45.273 38.4286C45.273 39.2143 44.6304 39.8571 43.845 39.8571C43.0596 39.8571 42.4169 39.2143 42.4169 38.4286C42.4169 37.6429 43.0596 37 43.845 37C44.6304 37 45.273 37.6429 45.273 38.4286ZM45.7014 43.4643L48.1933 39.4714C48.4861 39.0071 49.1644 39.0286 49.4286 39.5071L52.9129 45.9428C53.17 46.4214 52.8273 47 52.2846 47H39.7108C39.5861 47.0007 39.4633 46.9683 39.3551 46.9062C39.2469 46.8441 39.157 46.7545 39.0947 46.6464C39.0323 46.5383 38.9996 46.4156 39 46.2907C39.0004 46.1659 39.0338 46.0434 39.0968 45.9357L41.2959 42.0214C41.3467 41.9308 41.4166 41.8523 41.5008 41.7914C41.585 41.7306 41.6814 41.6889 41.7834 41.6691C41.8854 41.6494 41.9904 41.6522 42.0912 41.6773C42.192 41.7023 42.2861 41.7491 42.367 41.8143L44.6518 43.6429C44.9803 43.9071 45.4729 43.8286 45.7014 43.4643Z" fill="#006BE0"/>
</svg>
