<svg width="20" height="20" viewBox="0 0 20 20" fill="none" xmlns="http://www.w3.org/2000/svg">
    <path
        d="M12.5645 2.14258C14.1238 2.14258 14.8736 2.28737 15.6527 2.70402C16.3592 3.08185 16.9179 3.64058 17.2957 4.34707C17.7124 5.12613 17.8572 5.87594 17.8572 7.43523V12.5642C17.8572 14.1235 17.7124 14.8733 17.2957 15.6524C16.9179 16.3589 16.3592 16.9176 15.6527 17.2954C14.8736 17.7121 14.1238 17.8569 12.5645 17.8569H7.43554C5.87625 17.8569 5.12644 17.7121 4.34737 17.2954C3.64089 16.9176 3.08216 16.3589 2.70433 15.6524C2.28768 14.8733 2.14288 14.1235 2.14288 12.5642V7.43523C2.14288 5.87594 2.28768 5.12613 2.70433 4.34707C3.08216 3.64058 3.64089 3.08185 4.34737 2.70402C5.12644 2.28737 5.87625 2.14258 7.43554 2.14258H12.5645ZM12.5645 3.57115H7.43554C6.09191 3.57115 5.5649 3.67292 5.02109 3.96375C4.56355 4.20844 4.20875 4.56325 3.96406 5.02078C3.67323 5.56459 3.57145 6.0916 3.57145 7.43523V12.5642C3.57145 13.9078 3.67323 14.4349 3.96406 14.9787C4.20875 15.4362 4.56355 15.791 5.02109 16.0357C5.5649 16.3265 6.09191 16.4283 7.43554 16.4283H12.5645C13.9081 16.4283 14.4352 16.3265 14.979 16.0357C15.4365 15.791 15.7913 15.4362 16.036 14.9787C16.3268 14.4349 16.4286 13.9078 16.4286 12.5642V7.43523C16.4286 6.0916 16.3268 5.56459 16.036 5.02078C15.7913 4.56325 15.4365 4.20844 14.979 3.96375C14.4352 3.67292 13.9081 3.57115 12.5645 3.57115ZM9.28574 12.4997C9.68023 12.4997 10 12.8195 10 13.214C10 13.6085 9.68023 13.9283 9.28574 13.9283H6.4286C6.03411 13.9283 5.71431 13.6085 5.71431 13.214C5.71431 12.8195 6.03411 12.4997 6.4286 12.4997H9.28574ZM13.5715 9.28544C13.9659 9.28544 14.2857 9.60523 14.2857 9.99972C14.2857 10.3942 13.9659 10.714 13.5715 10.714H6.4286C6.03411 10.714 5.71431 10.3942 5.71431 9.99972C5.71431 9.60523 6.03411 9.28544 6.4286 9.28544H13.5715ZM13.5715 6.07115C13.9659 6.07115 14.2857 6.39095 14.2857 6.78544C14.2857 7.17992 13.9659 7.49972 13.5715 7.49972H6.4286C6.03411 7.49972 5.71431 7.17992 5.71431 6.78544C5.71431 6.39095 6.03411 6.07115 6.4286 6.07115H13.5715Z"
        fill="#686E76" />
</svg>
