<svg width="80" height="80" viewBox="0 0 80 80" fill="none" xmlns="http://www.w3.org/2000/svg">
<path d="M23.9998 8.5H47.7927L68.2996 29.0068V59.2002C68.2995 65.9932 62.7928 71.5 55.9998 71.5H23.9998C17.2068 71.4999 11.7001 65.9931 11.7 59.2002V20.7998C11.7001 14.113 17.0361 8.67235 23.6824 8.50391L23.9998 8.5Z" fill="#F2F8FF" stroke="#006BE0"/>
<path d="M68.8 29.6L47.2 8V19.1724C47.2 24.9314 51.7129 29.6 57.28 29.6H68.8Z" fill="#006BE0"/>
<path d="M33.3257 41.6007H29.6L33.4943 59.1978H37.3149L39.8456 48.952L42.276 59.2001H45.8687L50.4 41.6001H44.1032V44.5308H46.2494L44.0724 52.9464L41.8228 41.6001H38.2225L35.4287 53.1088L33.3257 41.6007Z" fill="#006BE0"/>
</svg>
