<svg width="28" height="28" viewBox="0 0 28 28" fill="none" xmlns="http://www.w3.org/2000/svg">
    <path
        d="M14 5L14.0194 5.00019C14.0427 5.00063 14.066 5.00189 14.0893 5.00397L14 5C14.0527 5 14.1045 5.00388 14.155 5.01134C14.1665 5.01381 14.1786 5.01591 14.1906 5.01823C14.4454 5.06403 14.6655 5.20244 14.8116 5.39491L22.7071 13.2929C23.0976 13.6834 23.0976 14.3166 22.7071 14.7071C22.3466 15.0676 21.7794 15.0953 21.3871 14.7903L21.2929 14.7071L15 8.414V23.05C15 23.5747 14.5523 24 14 24C13.4872 24 13.0645 23.6333 13.0067 23.1608L13 23.05V8.414L6.70711 14.7071C6.34662 15.0676 5.77939 15.0953 5.3871 14.7903L5.29289 14.7071C4.93241 14.3466 4.90468 13.7794 5.2097 13.3871L5.29289 13.2929L13.1884 5.39491C13.3345 5.20244 13.5546 5.06403 13.8091 5.01729C13.8214 5.01591 13.8335 5.01381 13.8455 5.01193C13.8664 5.00817 13.8881 5.00565 13.91 5.0038C13.9343 5.00187 13.958 5.0006 13.9816 5.00017C13.9872 5.00006 13.9936 5 14 5Z"
        fill="white" />
</svg>
