<svg width="48" height="48" viewBox="0 0 48 48" fill="none" xmlns="http://www.w3.org/2000/svg">
<circle cx="24" cy="24" r="24" fill="#007AFF" fill-opacity="0.06"/>
<path d="M31.2096 21.5985H33.6071C33.6071 21.1851 33.6137 20.7746 33.5987 20.364C33.5987 20.3125 33.4852 20.2534 33.4112 20.2178C32.2279 19.6151 32.0422 18.032 33.0717 17.2091C33.6474 16.7488 34.2906 16.6645 34.9629 16.9766C35.6352 17.2887 35.9858 17.8417 35.9943 18.5757C36.0027 19.3096 35.6595 19.8654 35.0051 20.2028C34.9347 20.2292 34.8755 20.2788 34.8371 20.3434C34.7987 20.4079 34.7836 20.4837 34.7941 20.5581C34.8044 21.0811 34.8007 21.6041 34.7941 22.1281C34.7941 22.5836 34.5729 22.802 34.1153 22.8048C33.2405 22.8048 32.3657 22.8048 31.49 22.8048H31.22V25.21H31.4787C32.346 25.21 33.2124 25.21 34.0797 25.21C34.5822 25.21 34.7932 25.4208 34.7951 25.9214C34.7951 26.4528 34.7951 26.9843 34.7951 27.5148C34.786 27.5711 34.7966 27.6288 34.8251 27.6781C34.8536 27.7275 34.8983 27.7655 34.9516 27.7857C35.7167 28.1522 36.1209 28.9376 35.968 29.7287C35.8977 30.1285 35.6941 30.4927 35.3904 30.7621C35.0867 31.0315 34.7007 31.1903 34.2953 31.2125C33.4862 31.2762 32.7014 30.7092 32.4679 29.8937C32.353 29.4961 32.3813 29.0709 32.5479 28.692C32.7144 28.3131 33.0086 28.0047 33.3793 27.8204C33.5565 27.7323 33.6137 27.6385 33.6062 27.452C33.5921 27.1164 33.6062 26.7809 33.6062 26.421H31.2228C31.2181 26.5006 31.2096 26.5831 31.2096 26.6656C31.2096 27.5017 31.2096 28.3375 31.2096 29.1729C31.2096 29.8112 31.0221 30.0024 30.3911 30.0024H26.4184V33.6026C26.8225 33.6026 27.2257 33.6101 27.628 33.5942C27.687 33.5942 27.7583 33.4808 27.7958 33.4067C28.1286 32.7506 28.8375 32.3382 29.5388 32.401C29.944 32.4291 30.3278 32.5934 30.6279 32.867C30.9279 33.1406 31.1267 33.5076 31.1918 33.9084C31.257 34.3092 31.1847 34.7202 30.9868 35.0748C30.7888 35.4294 30.4768 35.7066 30.1014 35.8616C29.6825 36.0371 29.2125 36.046 28.7872 35.8866C28.362 35.7272 28.0137 35.4115 27.8136 35.0039C27.7367 34.8483 27.6561 34.7893 27.4808 34.794C26.9576 34.8062 26.4344 34.8015 25.9102 34.794C25.4264 34.794 25.2127 34.5756 25.2117 34.0891C25.2117 32.8156 25.2117 31.5424 25.2117 30.2696V30.009H22.803V30.2827C22.803 31.5324 22.803 32.7822 22.803 34.0319C22.803 34.5943 22.607 34.794 22.0435 34.7949C21.5278 34.7949 21.0122 34.8005 20.4965 34.7949C20.4362 34.7879 20.3753 34.8019 20.324 34.8345C20.2728 34.8671 20.2344 34.9163 20.2152 34.9739C20.0407 35.3405 19.7473 35.6372 19.3827 35.8159C19.0181 35.9946 18.6038 36.0448 18.2071 35.9583C17.8104 35.8718 17.4546 35.6537 17.1976 35.3394C16.9405 35.0252 16.7974 34.6333 16.7915 34.2274C16.7855 33.8215 16.917 33.4255 17.1647 33.1039C17.4123 32.7822 17.7616 32.5537 18.1556 32.4556C18.5496 32.3574 18.9652 32.3954 19.3349 32.5634C19.7045 32.7313 20.0065 33.0193 20.1917 33.3805C20.2789 33.5577 20.3718 33.6167 20.5593 33.6083C20.895 33.5942 21.2306 33.6083 21.5907 33.6083V30.0081H17.5402C17.0339 30.0081 16.807 29.7868 16.8051 29.2835C16.8051 28.4165 16.8051 27.5495 16.8051 26.6825V26.4191H14.4039C14.4039 26.8324 14.3964 27.2439 14.4123 27.6535C14.4123 27.7051 14.5267 27.7632 14.5998 27.7988C15.2562 28.1269 15.6696 28.843 15.6049 29.5403C15.5759 29.9449 15.4112 30.3278 15.1375 30.6271C14.8638 30.9264 14.497 31.1247 14.0965 31.1897C13.6961 31.2548 13.2854 31.1829 12.9309 30.9856C12.5764 30.7883 12.2989 30.4773 12.1433 30.1027C11.969 29.6921 11.9566 29.2307 12.1086 28.8113C12.2606 28.392 12.5658 28.0456 12.9628 27.8419C13.1662 27.7388 13.2197 27.6254 13.2131 27.4136C13.199 26.9065 13.2056 26.3985 13.2131 25.8914C13.2131 25.4368 13.4372 25.2184 13.8938 25.2165C14.7686 25.2165 15.6434 25.2165 16.5191 25.2165H16.7891V22.8057H16.5229C15.664 22.8057 14.8042 22.8057 13.9444 22.8057C13.4109 22.8057 13.2084 22.6014 13.2075 22.0681C13.2075 21.5685 13.2 21.0689 13.2075 20.5684C13.2075 20.3875 13.169 20.2872 12.9862 20.1935C12.6469 20.023 12.3706 19.749 12.1973 19.4112C12.0239 19.0734 11.9626 18.6893 12.0221 18.3143C12.0816 17.9393 12.2589 17.593 12.5283 17.3254C12.7976 17.0578 13.1452 16.8828 13.5206 16.8257C13.9427 16.7574 14.3754 16.8421 14.7406 17.0645C15.1057 17.287 15.3794 17.6325 15.5122 18.0388C15.645 18.4452 15.6282 18.8856 15.4649 19.2806C15.3016 19.6757 15.0024 19.9994 14.6214 20.1935C14.4414 20.2816 14.3879 20.3809 14.3945 20.5618C14.4076 20.8964 14.3945 21.2329 14.3945 21.5929H16.7807C16.7807 21.5132 16.7929 21.4307 16.7938 21.3482C16.7938 20.8636 16.7938 20.38 16.7938 19.8954C16.7995 19.4427 17.0236 19.2187 17.4736 19.2149C17.9659 19.2149 18.4581 19.2055 18.9503 19.2149C19.1379 19.2149 19.2063 19.169 19.2035 18.9693C19.1913 18.2663 19.1951 17.5634 19.2035 16.8604C19.2194 14.443 20.8031 12.5403 23.179 12.0801C25.7424 11.5842 28.3809 13.4504 28.7278 16.0337C28.8093 16.641 28.7822 17.2644 28.7962 17.8802C28.8056 18.2467 28.8093 18.615 28.7962 18.9815C28.7878 19.1737 28.8581 19.2177 29.0372 19.214C29.5294 19.2037 30.0217 19.2074 30.5139 19.214C30.9771 19.214 31.2003 19.4399 31.2049 19.9066C31.2096 20.3734 31.2049 20.8599 31.2049 21.336L31.2096 21.5985ZM27.6045 19.198C27.6045 18.3348 27.6355 17.4912 27.598 16.6514C27.5627 15.7438 27.1831 14.8837 26.5363 14.246C25.8894 13.6082 25.0239 13.2406 24.1157 13.218C22.2329 13.1608 20.6146 14.5302 20.4449 16.4095C20.3624 17.3159 20.4168 18.2345 20.4102 19.1474C20.4102 19.1596 20.4243 19.1727 20.4393 19.198H27.6045ZM23.4021 24.5932C23.4021 24.9841 23.3965 25.374 23.4021 25.7648C23.4078 26.1557 23.6581 26.4031 24.006 26.4013C24.3538 26.3994 24.6004 26.1445 24.6042 25.7583C24.6098 24.9934 24.6098 24.2283 24.6042 23.4628C24.6042 23.0813 24.3519 22.817 24.0116 22.8067C23.6712 22.7964 23.4068 23.0729 23.4012 23.4628C23.3956 23.8433 23.4021 24.2183 23.4021 24.5932Z" fill="#007AFF"/>
</svg>
