<svg width="20" height="20" viewBox="0 0 20 20" fill="none" xmlns="http://www.w3.org/2000/svg">
<path d="M15.3572 2.85742C16.7379 2.85742 17.8572 3.97671 17.8572 5.35742V6.78599C17.8572 7.37773 17.3775 7.85742 16.7857 7.85742H16.4286V14.286C16.4286 15.8639 15.1494 17.1431 13.5715 17.1431H6.4286C4.85064 17.1431 3.57145 15.8639 3.57145 14.286V7.85742H3.21431C2.62258 7.85742 2.14288 7.37773 2.14288 6.78599V5.35742C2.14288 3.97671 3.26217 2.85742 4.64288 2.85742H15.3572ZM15 7.85742H5.00003V14.286C5.00003 15.075 5.63962 15.7146 6.4286 15.7146H13.5715C14.3604 15.7146 15 15.075 15 14.286V7.85742ZM12.1429 9.64314C12.5374 9.64314 12.8572 9.96293 12.8572 10.3574C12.8572 10.7519 12.5374 11.0717 12.1429 11.0717H7.85717C7.46268 11.0717 7.14288 10.7519 7.14288 10.3574C7.14288 9.96293 7.46268 9.64314 7.85717 9.64314H12.1429ZM15.3572 4.28599H4.64288C4.05115 4.28599 3.57145 4.76569 3.57145 5.35742V6.42885H16.4286V5.35742C16.4286 4.76569 15.9489 4.28599 15.3572 4.28599Z" fill="#007AFF"/>
</svg>
