<svg width="64" height="64" viewBox="0 0 64 64" fill="none" xmlns="http://www.w3.org/2000/svg">
    <rect width="64" height="64" rx="16" fill="#F2F3F5" />
    <path fill-rule="evenodd" clip-rule="evenodd"
        d="M28.5083 26.8595C27.8781 26.8945 27.3956 27.4337 27.4306 28.064L28.002 38.3497C28.037 38.9799 28.5763 39.4624 29.2065 39.4274C29.8367 39.3924 30.3192 38.8531 30.2842 38.2229L29.7128 27.9372C29.6778 27.307 29.1385 26.8244 28.5083 26.8595Z"
        fill="#E64646" />
    <path fill-rule="evenodd" clip-rule="evenodd"
        d="M35.4922 26.8595C36.1225 26.8945 36.605 27.4337 36.5699 28.064L35.9985 38.3497C35.9635 38.9799 35.4242 39.4624 34.794 39.4274C34.1638 39.3924 33.6813 38.8531 33.7163 38.2229L34.2878 27.9372C34.3228 27.307 34.862 26.8244 35.4922 26.8595Z"
        fill="#E64646" />
    <path fill-rule="evenodd" clip-rule="evenodd"
        d="M20.0003 21.7148C19.3691 21.7148 18.8574 22.2265 18.8574 22.8577C18.8574 23.4889 19.3691 24.0006 20.0003 24.0006H21.2529L22.7358 38.655C22.8202 39.4889 22.8901 40.18 22.9917 40.7422C23.0977 41.3283 23.2517 41.8623 23.5501 42.3581C24.0155 43.1313 24.6994 43.7494 25.5155 44.1346C26.0388 44.3816 26.5856 44.4811 27.1794 44.5275C27.749 44.572 28.4436 44.572 29.2819 44.572H34.7187C35.5569 44.572 36.2515 44.572 36.8211 44.5275C37.4149 44.4811 37.9617 44.3816 38.485 44.1346C39.3012 43.7494 39.985 43.1313 40.4504 42.3581C40.7488 41.8623 40.9029 41.3283 41.0088 40.7422C41.1104 40.18 41.1803 39.4889 41.2647 38.655L42.7476 24.0006H44.0003C44.6315 24.0006 45.1431 23.4889 45.1431 22.8577C45.1431 22.2265 44.6315 21.7148 44.0003 21.7148H37.0157C36.496 19.4246 34.4478 17.7148 32.0003 17.7148C29.5527 17.7148 27.5045 19.4246 26.9849 21.7148H20.0003ZM25.0055 38.3806C25.0954 39.2699 25.1572 39.8717 25.241 40.3357C25.3224 40.7857 25.4106 41.0167 25.5084 41.1793C25.7412 41.5659 26.0831 41.875 26.4912 42.0676C26.6628 42.1486 26.9015 42.2131 27.3574 42.2487C27.8275 42.2855 28.4324 42.2863 29.3263 42.2863H34.6743C35.5681 42.2863 36.1731 42.2855 36.6431 42.2487C37.0991 42.2131 37.3378 42.1486 37.5094 42.0676C37.9175 41.875 38.2594 41.5659 38.4921 41.1793C38.59 41.0167 38.6782 40.7857 38.7595 40.3357C38.8434 39.8717 38.9051 39.2699 38.9951 38.3806L40.4502 24.0006H23.5503L25.0055 38.3806ZM32.0003 20.0006C30.8287 20.0006 29.8218 20.7058 29.3809 21.7148H34.6197C34.1788 20.7058 33.1719 20.0006 32.0003 20.0006Z"
        fill="#E64646" />
</svg>