<svg width="24" height="24" viewBox="0 0 24 24" fill="none" xmlns="http://www.w3.org/2000/svg">
    <path fill-rule="evenodd" clip-rule="evenodd"
        d="M9.09999 3.59177C8.92708 3.55027 8.75138 3.55074 8.61184 3.55109L8.57435 3.55116H7.04586C6.45511 3.55116 5.96749 3.55116 5.5701 3.58363C5.15711 3.61737 4.77756 3.68979 4.42098 3.87147C3.86798 4.15324 3.4184 4.6028 3.1367 5.15577C2.955 5.51233 2.88253 5.89197 2.84881 6.30492C2.81635 6.70253 2.81635 7.19064 2.81635 7.78202V14.0142C2.81635 14.6056 2.81635 15.0937 2.84881 15.4913C2.88253 15.9043 2.955 16.2839 3.1367 16.6404C3.4184 17.1934 3.86798 17.643 4.42098 17.9247C4.77756 18.1064 5.15711 18.1788 5.5701 18.2126C5.96767 18.2451 6.45582 18.2451 7.0472 18.245H10.898C11.3037 18.245 11.6327 17.9161 11.6327 17.5103C11.6327 17.1046 11.3037 16.7757 10.898 16.7757H7.07761C6.44829 16.7757 6.02041 16.7751 5.68974 16.7481C5.36768 16.7218 5.20293 16.6741 5.08805 16.6155C4.81155 16.4746 4.5868 16.2498 4.44591 15.9734C4.38735 15.8584 4.33963 15.6937 4.31336 15.3716C4.28627 15.041 4.28573 14.6131 4.28573 13.9838V10.1634L18.9796 10.1635C18.9796 10.5692 19.3084 10.898 19.714 10.898C20.1199 10.898 20.4488 10.5692 20.4474 10.1634C20.4466 9.95985 20.4455 9.73725 20.4439 9.51582C20.4473 9.48725 20.449 9.4582 20.449 9.42871C20.449 9.39519 20.4467 9.36219 20.4424 9.32986C20.4377 8.79747 20.4299 8.30524 20.4165 8.14165C20.3828 7.7287 20.3103 7.34907 20.1286 6.99251C19.8469 6.43953 19.3974 5.98997 18.8444 5.7082C18.4878 5.52653 18.1082 5.45411 17.6952 5.42036C17.2979 5.3879 16.8102 5.3879 16.2195 5.3879H11.3849C11.2886 5.3879 11.2406 5.38772 11.2057 5.38613L11.2031 5.38601L11.2011 5.38424C11.1754 5.3607 11.1412 5.32684 11.0732 5.2588L9.92508 4.11066L9.89863 4.08409L9.89782 4.08335C9.79943 3.98454 9.67594 3.86035 9.52464 3.7677C9.39316 3.68712 9.24985 3.62775 9.09999 3.59177ZM18.973 8.69402C18.9689 8.53129 18.9625 8.38905 18.952 8.26131C18.9257 7.93921 18.878 7.77449 18.8194 7.6596C18.6785 7.3831 18.4538 7.15831 18.1773 7.01744C18.0624 6.9589 17.8977 6.91118 17.5756 6.88488C17.2449 6.85787 16.8171 6.85728 16.1877 6.85728H11.3849L11.3474 6.85735C11.2078 6.85773 11.0321 6.8582 10.8592 6.8167C10.7094 6.78069 10.5661 6.72132 10.4346 6.64076C10.2829 6.54785 10.1591 6.4233 10.0607 6.32436L8.886 5.14967C8.85291 5.11649 8.8278 5.09145 8.8078 5.07176C8.78672 5.05106 8.77129 5.03629 8.75811 5.02423L8.75614 5.02246L8.75354 5.02232C8.71865 5.02073 8.67058 5.02055 8.57435 5.02055H7.07761C6.44829 5.02055 6.02041 5.02113 5.68974 5.04815C5.36768 5.07445 5.20293 5.12216 5.08805 5.1807C4.81155 5.32158 4.5868 5.54637 4.44591 5.82287C4.38735 5.93775 4.33963 6.10248 4.31336 6.42458C4.28627 6.75527 4.28573 7.18306 4.28573 7.8124V8.69402H18.973Z"
        fill="#007AFF" />
    <path fill-rule="evenodd" clip-rule="evenodd"
        d="M16.7755 11.6327C19.2101 11.6327 21.1837 13.6063 21.1837 16.0408C21.1837 18.4754 19.2101 20.449 16.7755 20.449C14.341 20.449 12.3674 18.4754 12.3674 16.0408C12.3674 13.6063 14.341 11.6327 16.7755 11.6327ZM16.7755 13.102C16.3988 13.102 16.0882 13.3857 16.0458 13.7511L16.0408 13.8367V15.3061H14.5714C14.1657 15.3061 13.8368 15.6351 13.8368 16.0408C13.8368 16.4176 14.1203 16.7281 14.4858 16.7706L14.5714 16.7755H16.0408V18.2449C16.0408 18.6507 16.3698 18.9796 16.7755 18.9796C17.1523 18.9796 17.4629 18.696 17.5053 18.3306L17.5102 18.2449V16.7755H18.9796C19.3853 16.7755 19.7143 16.4466 19.7143 16.0408C19.7143 15.664 19.4307 15.3535 19.0653 15.3111L18.9796 15.3061H17.5102V13.8367C17.5102 13.431 17.1813 13.102 16.7755 13.102Z"
        fill="#007AFF" />
</svg>
