<svg width="29" height="28" viewBox="0 0 29 28" fill="none" xmlns="http://www.w3.org/2000/svg">
<path d="M21.5435 8.68817H6.95996C6.73926 8.68817 6.55273 8.60803 6.40039 8.44775C6.24805 8.28748 6.17188 8.09961 6.17188 7.88412C6.17188 7.66342 6.24805 7.47421 6.40039 7.31656C6.55273 7.15891 6.73926 7.08008 6.95996 7.08008L21.5435 7.08008C21.7588 7.08008 21.9438 7.15759 22.0991 7.31262C22.2539 7.46765 22.3315 7.65814 22.3315 7.88412C22.3315 8.00409 22.3086 8.11472 22.2632 8.21603C22.2246 8.30115 22.1699 8.3797 22.0991 8.45169C21.9438 8.60934 21.7588 8.68817 21.5435 8.68817Z" fill="#99A2AD"/>
<path d="M17.2236 12.8188H6.95996C6.77881 12.8188 6.62012 12.7647 6.48535 12.6564C6.45605 12.633 6.42773 12.607 6.40039 12.5784C6.24805 12.4181 6.17188 12.2302 6.17188 12.0148C6.17188 11.794 6.24805 11.6035 6.40039 11.4433C6.55273 11.283 6.73926 11.2028 6.95996 11.2028H17.2236C17.4443 11.2028 17.6318 11.2816 17.7871 11.4393C17.9419 11.597 18.0195 11.7888 18.0195 12.0148C18.0195 12.2355 17.9419 12.4247 17.7871 12.5823C17.6318 12.74 17.4443 12.8188 17.2236 12.8188Z" fill="#99A2AD"/>
<path d="M21.5435 16.7882H6.95996C6.73926 16.7882 6.55273 16.708 6.40039 16.5478C6.24805 16.3875 6.17188 16.1996 6.17188 15.9841C6.17188 15.7634 6.24805 15.5742 6.40039 15.4166C6.55273 15.2589 6.73926 15.1801 6.95996 15.1801H21.5435C21.7588 15.1801 21.9438 15.2576 22.0991 15.4126C22.2539 15.5677 22.3315 15.7581 22.3315 15.9841C22.3315 16.2049 22.2539 16.394 22.0991 16.5517C21.9438 16.7094 21.7588 16.7882 21.5435 16.7882Z" fill="#99A2AD"/>
<path d="M17.2236 20.9188H6.95996C6.73926 20.9188 6.55273 20.8387 6.40039 20.6784C6.30127 20.5743 6.23486 20.4586 6.2002 20.3312C6.18115 20.2625 6.17188 20.1903 6.17188 20.1148C6.17188 19.894 6.24805 19.7036 6.40039 19.5433C6.55273 19.383 6.73926 19.3028 6.95996 19.3028H17.2236C17.4443 19.3028 17.6318 19.3817 17.7871 19.5393C17.9419 19.697 18.0195 19.8888 18.0195 20.1148C18.0195 20.3355 17.9419 20.5247 17.7871 20.6823C17.7051 20.7657 17.6138 20.8271 17.5137 20.8664C17.4243 20.9013 17.3276 20.9188 17.2236 20.9188Z" fill="#99A2AD"/>
</svg>
