<svg width="20" height="20" viewBox="0 0 20 20" fill="none" xmlns="http://www.w3.org/2000/svg">
<path d="M10.8609 1.51491C11.1504 1.58161 11.4118 1.68992 11.6637 1.84741C11.9179 2.00639 12.1129 2.1734 12.5153 2.57579L15.9948 6.05524C16.3972 6.45763 16.5642 6.65269 16.7232 6.9069C16.8806 7.15872 16.989 7.42021 17.0557 7.70963C17.123 8.0018 17.1428 8.25782 17.1428 8.82689V13.7358C17.1428 15.1499 17.0104 15.8359 16.6291 16.5488C16.2824 17.1971 15.7693 17.7101 15.121 18.0569C14.4081 18.4381 13.7222 18.5706 12.308 18.5706H7.69193C6.27779 18.5706 5.59182 18.4381 4.8789 18.0569C4.23061 17.7101 3.71756 17.1971 3.37086 16.5488C2.98958 15.8359 2.85712 15.1499 2.85712 13.7358V5.76056C2.85712 4.8428 3.02261 4.10068 3.37086 3.44952C3.71756 2.80123 4.23061 2.28818 4.8789 1.94147C5.53006 1.59323 6.27218 1.42773 7.18994 1.42773H9.74368C10.3127 1.42773 10.5688 1.44757 10.8609 1.51491ZM9.87579 2.85669L7.18994 2.85631C6.49589 2.85631 5.98413 2.97043 5.55261 3.20121C5.15328 3.41477 4.84415 3.7239 4.63059 4.12323C4.39981 4.55474 4.28569 5.06651 4.28569 5.76056V13.7358C4.28569 14.9343 4.37513 15.3974 4.63059 15.8751C4.84415 16.2744 5.15328 16.5836 5.55261 16.7971C6.03028 17.0526 6.49345 17.142 7.69193 17.142H12.308C13.5065 17.142 13.9697 17.0526 14.4473 16.7971C14.8467 16.5836 15.1558 16.2744 15.3694 15.8751C15.6248 15.3974 15.7143 14.9343 15.7143 13.7358V8.82689C15.7143 8.72881 15.7137 8.64424 15.7125 8.57028L11.7857 8.57059C10.7995 8.57059 9.99997 7.7711 9.99997 6.78488L10.001 2.85806C9.96234 2.85743 9.92073 2.85698 9.87579 2.85669ZM11.5052 3.58594L11.4285 3.50988V6.78488C11.4285 6.96021 11.5549 7.10603 11.7215 7.13627L11.7857 7.14202L15.0624 7.14349C15.0379 7.1188 15.012 7.09282 14.9846 7.0654L11.5052 3.58594Z" fill="#007AFF"/>
</svg>
