<svg width="20" height="20" viewBox="0 0 20 20" fill="none" xmlns="http://www.w3.org/2000/svg">
<path d="M12.916 9.1665C13.6064 9.1665 14.166 8.60686 14.166 7.9165C14.166 7.22615 13.6064 6.6665 12.916 6.6665C12.2257 6.6665 11.666 7.22615 11.666 7.9165C11.666 8.60686 12.2257 9.1665 12.916 9.1665Z" fill="#424244" fill-opacity="0.72"/>
<path d="M7.08268 9.1665C7.77304 9.1665 8.33268 8.60686 8.33268 7.9165C8.33268 7.22615 7.77304 6.6665 7.08268 6.6665C6.39233 6.6665 5.83268 7.22615 5.83268 7.9165C5.83268 8.60686 6.39233 9.1665 7.08268 9.1665Z" fill="#424244" fill-opacity="0.72"/>
<path d="M9.99935 13.3332C8.76602 13.3332 7.70768 12.6582 7.12435 11.6665H5.73268C6.39935 13.3748 8.05768 14.5832 9.99935 14.5832C11.941 14.5832 13.5993 13.3748 14.266 11.6665H12.8743C12.291 12.6582 11.2327 13.3332 9.99935 13.3332ZM9.99102 1.6665C5.39102 1.6665 1.66602 5.39984 1.66602 9.99984C1.66602 14.5998 5.39102 18.3332 9.99102 18.3332C14.5993 18.3332 18.3327 14.5998 18.3327 9.99984C18.3327 5.39984 14.5993 1.6665 9.99102 1.6665ZM9.99935 16.6665C6.31602 16.6665 3.33268 13.6832 3.33268 9.99984C3.33268 6.3165 6.31602 3.33317 9.99935 3.33317C13.6827 3.33317 16.666 6.3165 16.666 9.99984C16.666 13.6832 13.6827 16.6665 9.99935 16.6665Z" fill="#424244" fill-opacity="0.72"/>
</svg>
