<svg width="20" height="20" viewBox="0 0 20 20" fill="none" xmlns="http://www.w3.org/2000/svg">
    <path
        d="M8.78067 0.923504C9.05962 0.644558 9.51188 0.644558 9.79082 0.923504L11.9337 3.06636C12.2126 3.34531 12.2126 3.79757 11.9337 4.07651L9.79082 6.21937C9.51188 6.49832 9.05962 6.49832 8.78067 6.21937C8.50173 5.94042 8.50173 5.48816 8.78067 5.20922L9.69533 4.29371C6.68108 4.45207 4.28575 6.94631 4.28575 10C4.28575 13.1559 6.84412 15.7143 10 15.7143C13.1559 15.7143 15.7143 13.1559 15.7143 10C15.7143 8.57513 15.1918 7.23343 14.2615 6.19291C13.9985 5.89882 14.0238 5.44727 14.3179 5.18433C14.6119 4.92139 15.0635 4.94665 15.3264 5.24073C16.4887 6.54067 17.1429 8.2204 17.1429 10C17.1429 13.9449 13.9449 17.1429 10 17.1429C6.05514 17.1429 2.85718 13.9449 2.85718 10C2.85718 6.15253 5.89916 3.01554 9.70921 2.86296L8.78067 1.93366C8.50173 1.65471 8.50173 1.20245 8.78067 0.923504Z"
        fill="#818C99" />
</svg>
