<svg width="20" height="20" viewBox="0 0 20 20" fill="none" xmlns="http://www.w3.org/2000/svg">
    <path
        d="M9.9999 1.42859C14.7338 1.42859 18.5713 5.26615 18.5713 10C18.5713 14.7339 14.7338 18.5714 9.9999 18.5714C5.26603 18.5714 1.42847 14.7339 1.42847 10C1.42847 5.26615 5.26603 1.42859 9.9999 1.42859ZM9.9999 2.85716C6.055 2.85716 2.85704 6.05513 2.85704 10C2.85704 13.9449 6.055 17.1429 9.9999 17.1429C13.9448 17.1429 17.1428 13.9449 17.1428 10C17.1428 6.05513 13.9448 2.85716 9.9999 2.85716ZM6.99482 6.99494C7.27377 6.716 7.72603 6.716 8.00497 6.99494L9.9999 8.9893L11.9948 6.99494C12.2523 6.73745 12.6575 6.71765 12.9377 6.93552L13.005 6.99494C13.2839 7.27389 13.2839 7.72615 13.005 8.00509L11.0106 10L13.005 11.9949C13.2625 12.2524 13.2823 12.6576 13.0644 12.9378L13.005 13.0051C12.726 13.284 12.2738 13.284 11.9948 13.0051L9.9999 11.0107L8.00497 13.0051C7.74748 13.2626 7.34232 13.2824 7.06211 13.0645L6.99482 13.0051C6.71587 12.7261 6.71587 12.2739 6.99482 11.9949L8.98918 10L6.99482 8.00509C6.73733 7.74761 6.71752 7.34244 6.9354 7.06223L6.99482 6.99494Z"
        fill="#AEB7C2" />
</svg>
