<svg width="20" height="20" viewBox="0 0 20 20" fill="none" xmlns="http://www.w3.org/2000/svg">
    <path fill-rule="evenodd" clip-rule="evenodd"
        d="M7.81745 6.78692C7.42357 6.8088 7.122 7.14584 7.14389 7.53973L7.50103 13.9683C7.52291 14.3622 7.85996 14.6637 8.25384 14.6419C8.64772 14.62 8.94928 14.2829 8.9274 13.8891L8.57026 7.46048C8.54838 7.0666 8.21133 6.76504 7.81745 6.78692Z"
        fill="#959DAD" />
    <path fill-rule="evenodd" clip-rule="evenodd"
        d="M12.1824 6.78692C12.5763 6.8088 12.8779 7.14584 12.856 7.53973L12.4988 13.9683C12.4769 14.3622 12.1399 14.6637 11.746 14.6419C11.3521 14.62 11.0506 14.2829 11.0725 13.8891L11.4296 7.46048C11.4515 7.0666 11.7885 6.76504 12.1824 6.78692Z"
        fill="#959DAD" />
    <path fill-rule="evenodd" clip-rule="evenodd"
        d="M2.49993 3.57153C2.10544 3.57153 1.78564 3.89133 1.78564 4.28582C1.78564 4.68031 2.10544 5.0001 2.49993 5.0001H3.28285L4.20965 14.1591C4.26238 14.6803 4.30608 15.1122 4.36959 15.4636C4.4358 15.8299 4.53207 16.1637 4.71858 16.4735C5.00947 16.9568 5.43688 17.3432 5.94697 17.5839C6.27403 17.7383 6.61579 17.8005 6.98689 17.8295C7.34291 17.8573 7.77703 17.8573 8.30092 17.8572H11.6989C12.2228 17.8573 12.657 17.8573 13.013 17.8295C13.3841 17.8005 13.7258 17.7383 14.0529 17.5839C14.563 17.3432 14.9904 16.9568 15.2813 16.4736C15.4678 16.1637 15.5641 15.8299 15.6303 15.4636C15.6938 15.1122 15.7375 14.6803 15.7902 14.1591L16.717 5.0001H17.4999C17.8944 5.0001 18.2142 4.68031 18.2142 4.28582C18.2142 3.89133 17.8944 3.57153 17.4999 3.57153H13.1346C12.8098 2.14011 11.5296 1.07153 9.99993 1.07153C8.47023 1.07153 7.1901 2.14011 6.86529 3.57153H2.49993ZM5.62817 13.9877C5.68441 14.5435 5.72298 14.9196 5.77539 15.2096C5.82623 15.4908 5.88136 15.6352 5.94254 15.7368C6.08798 15.9785 6.30168 16.1716 6.55673 16.292C6.66401 16.3426 6.81317 16.383 7.09815 16.4052C7.39194 16.4282 7.77002 16.4287 8.32866 16.4287H11.6712C12.2298 16.4287 12.6079 16.4282 12.9017 16.4052C13.1867 16.383 13.3359 16.3426 13.4431 16.292C13.6982 16.1716 13.9119 15.9785 14.0573 15.7368C14.1185 15.6352 14.1736 15.4908 14.2245 15.2096C14.2769 14.9196 14.3154 14.5435 14.3717 13.9877L15.2811 5.0001H4.71871L5.62817 13.9877ZM9.99993 2.5001C9.26767 2.5001 8.63836 2.94085 8.3628 3.57153H11.6371C11.3615 2.94085 10.7322 2.5001 9.99993 2.5001Z"
        fill="#959DAD" />
</svg>
