<svg width="13" height="22" viewBox="0 0 13 22" fill="none" xmlns="http://www.w3.org/2000/svg">
<path d="M1.7929 6.8808C1.40312 7.27058 0.769019 7.26846 0.381054 6.88049L0.293208 6.79265C-0.0967477 6.40269 -0.0993609 5.77306 0.295118 5.37858L5.37914 0.294558C5.77015 -0.096453 6.40064 -0.099921 6.79512 0.294558L11.8791 5.37858C12.2702 5.76959 12.269 6.40468 11.8811 6.79265L11.7932 6.88049C11.4033 7.27045 10.7744 7.2738 10.3814 6.8808L6.08713 2.58657L1.7929 6.8808Z" fill="#B8C1CC"/>
<path d="M10.3792 14.2935C10.769 13.9037 11.4031 13.9058 11.7911 14.2938L11.8789 14.3816C12.2689 14.7716 12.2715 15.4012 11.877 15.7957L6.79298 20.8797C6.40196 21.2707 5.77148 21.2742 5.377 20.8797L0.292975 15.7957C-0.0980349 15.4047 -0.0968991 14.7696 0.291066 14.3816L0.378911 14.2938C0.768867 13.9038 1.39776 13.9005 1.79076 14.2935L6.08499 18.5877L10.3792 14.2935Z" fill="#B8C1CC"/>
</svg>
