<svg width="20" height="20" viewBox="0 0 20 20" fill="none" xmlns="http://www.w3.org/2000/svg">
<path d="M9.90107 2.8618C8.94585 2.9297 8.19186 3.73184 8.19186 4.71139L8.191 6.53725L8.17351 6.54147C4.29331 7.35129 1.42847 10.815 1.42847 14.9015C1.42847 15.1984 1.44354 15.4943 1.47336 15.7878C1.54443 16.4874 2.42851 16.7388 2.85222 16.1799L3.01215 15.9759C4.26151 14.4352 6.04028 13.4245 8.00822 13.1598L8.191 13.1375L8.19186 15.2887C8.19186 15.7032 8.32986 16.106 8.58382 16.4324C9.21092 17.2384 10.3679 17.3797 11.168 16.7479L17.866 11.4594C17.9827 11.3673 18.0879 11.2613 18.1793 11.1438C18.8064 10.3378 18.6661 9.17229 17.866 8.54056L11.168 3.25199C10.844 2.99616 10.4442 2.85714 10.0325 2.85714L9.90107 2.8618ZM10.0325 4.40954C10.0995 4.40954 10.1646 4.43217 10.2174 4.47382L16.9154 9.76238C17.0457 9.86522 17.0685 10.055 16.9664 10.1862C16.9515 10.2053 16.9344 10.2225 16.9154 10.2375L10.2174 15.5261C10.0871 15.6289 9.89878 15.6059 9.79669 15.4747C9.75535 15.4216 9.73288 15.356 9.73288 15.2885L9.73203 12.3154C9.7319 11.8818 9.3792 11.5324 8.94885 11.5395L8.74924 11.5428L8.45626 11.5571C6.50935 11.6823 4.6921 12.4084 3.21802 13.5975L3.0688 13.7214L3.08918 13.6047C3.63951 10.659 6.02991 8.33913 9.05496 7.96751C9.44149 7.92002 9.7321 7.58949 9.7322 7.19723L9.73288 4.71161C9.73288 4.54468 9.86704 4.40954 10.0325 4.40954Z" fill="#007AFF"/>
</svg>
