<svg xmlns:dc="http://purl.org/dc/elements/1.1/" xmlns:cc="http://creativecommons.org/ns#" xmlns:rdf="http://www.w3.org/1999/02/22-rdf-syntax-ns#"
    xmlns="http://www.w3.org/2000/svg" id="svg7" style="fill-rule:evenodd;clip-rule:evenodd;stroke-linejoin:round;stroke-miterlimit:1.41421;"
    xml:space="preserve" version="1.1" viewBox="0 0 1067 1063" height="100%" width="100%"><metadata id="metadata13"><rdf:rdf><cc:work rdf:about=""><dc:format>image/svg+xml</dc:format><dc:type rdf:resource="http://purl.org/dc/dcmitype/StillImage"></dc:type></cc:work></rdf:rdf></metadata><defs id="defs11"></defs><rect style="fill:none;" height="1062.5" width="1062.5" y="0" x="3.095" id="Contacts"></rect><g transform="matrix(1.5063529,0,0,1.5063529,-271.41315,-267.12499)" id="g5"><rect style="fill:#ffc107" height="222.222" width="284.72198" y="321.116" x="570.80402" class="app-menu-icon-accent-color" id="account.-card.-lines"></rect><path style="fill:#2196f3;fill-rule:nonzero" d="m 239.206,265.625 h 590.278 c 30.907,0 59.028,28.121 59.028,59.028 v 413.194 c 0,30.907 -28.121,59.028 -59.028,59.028 H 239.206 c -30.907,0 -59.027,-28.121 -59.027,-59.028 V 324.653 c 0,-30.907 28.12,-59.028 59.027,-59.028 z m 354.167,88.542 v 29.514 h 236.111 v -29.514 z m 0,59.027 v 29.514 h 236.111 v -29.514 z m 0,59.028 v 29.514 H 799.97 V 472.222 Z M 416.29,587.509 c -59.028,0 -177.084,32.283 -177.084,91.31 v 29.514 h 354.167 v -29.514 c 0,-59.027 -118.056,-91.31 -177.083,-91.31 z m 0,-233.342 c -48.9,0 -88.542,39.641 -88.542,88.541 0,48.902 39.641,88.542 88.542,88.542 48.9,0 88.541,-39.64 88.541,-88.542 0,-48.9 -39.641,-88.541 -88.541,-88.541 z" class="app-menu-icon-primary-color" id="account.-card.-details"></path></g></svg>