<svg width="44" height="44" viewBox="0 0 44 44" fill="none" xmlns="http://www.w3.org/2000/svg">
<path fill-rule="evenodd" clip-rule="evenodd" d="M2.75 0H41.25C42.7688 0 44 1.2375 44 2.75V41.25C44 42.7688 42.7688 44 41.25 44H2.75C1.23118 44 0 42.7688 0 41.25V2.75C0 1.2375 1.2375 0 2.75 0Z" fill="#E7DEFF"/>
<path d="M31.898 18.4249C33.1135 18.4249 34.1 17.4602 34.1 16.2706C34.1 15.0812 33.1138 14.1162 31.898 14.1162C30.6825 14.1162 29.6964 15.0809 29.6964 16.2706C29.6964 17.4624 30.69 18.4249 31.9 18.4249H31.898ZM34.9863 28.4129L26.6923 21.2024C26.2556 20.7025 25.8612 20.8504 25.4017 21.3867L23.3785 23.5303C22.9625 24.0014 22.355 24.1504 22.0302 23.7662L17.7116 18.0627C17.2425 17.5906 16.6369 17.697 16.3647 18.2998L8.87422 28.6926C8.60197 29.2976 8.92922 29.9576 9.58922 29.9521L34.5471 29.943C35.2335 29.9474 35.42 28.9024 34.98 28.4129H34.9863Z" fill="#8400EC"/>
</svg>
