<svg width="44" height="44" viewBox="0 0 44 44" fill="none" xmlns="http://www.w3.org/2000/svg">
<path fill-rule="evenodd" clip-rule="evenodd" d="M34.0541 0H2.75C1.23118 0 0 1.2375 0 2.75V41.25C0 42.7625 1.2375 44 2.75 44H41.25C42.7688 44 44 42.7688 44 41.25V9.94592C41.0666 7.0125 35.475 1.43 34.045 0H34.0541Z" fill="#74B5E3"/>
<path fill-rule="evenodd" clip-rule="evenodd" d="M34.1 0L44 9.9H36.85C35.3312 9.9 34.1 8.66883 34.1 7.15V0ZM12.925 13.7506H16.176L18.0111 24.5448L20.449 13.75H23.5906L25.5535 24.3925L27.4532 16.4989H25.5805V13.75H31.075L27.121 30.2583H23.986L21.8652 20.6459L19.657 30.2561H16.3232L12.925 13.7506Z" fill="#3955B8"/>
</svg>
