<svg width="29" height="28" viewBox="0 0 29 28" fill="none" xmlns="http://www.w3.org/2000/svg">
<path d="M12.9008 8.60023H23.1958C23.4113 8.60023 23.5965 8.5214 23.7515 8.36374C23.9066 8.20608 23.9841 8.01689 23.9841 7.79617C23.9841 7.57545 23.9066 7.38758 23.7515 7.23255C23.5965 7.07752 23.4113 7 23.1958 7H12.9008C12.68 7 12.4935 7.07883 12.3411 7.23649C12.1887 7.39414 12.1125 7.58071 12.1125 7.79617C12.1125 8.01164 12.1887 8.19951 12.3411 8.3598C12.4935 8.52008 12.68 8.60023 12.9008 8.60023ZM12.9008 12.7387H23.1958C23.4113 12.7387 23.5965 12.6586 23.7515 12.4983C23.9066 12.338 23.9841 12.1475 23.9841 11.9268C23.9841 11.7061 23.9066 11.5182 23.7515 11.3632C23.5965 11.2081 23.4113 11.1306 23.1958 11.1306H12.9008C12.68 11.1306 12.4935 11.2081 12.3411 11.3632C12.1887 11.5182 12.1125 11.7061 12.1125 11.9268C12.1125 12.1423 12.1887 12.3315 12.3411 12.4944C12.4935 12.6573 12.68 12.7387 12.9008 12.7387ZM12.9008 16.8694H23.1958C23.4113 16.8694 23.5965 16.7905 23.7515 16.6329C23.9066 16.4752 23.9841 16.286 23.9841 16.0653C23.9841 15.8393 23.9066 15.6488 23.7515 15.4938C23.5965 15.3388 23.4113 15.2613 23.1958 15.2613H12.9008C12.68 15.2613 12.4935 15.3401 12.3411 15.4977C12.1887 15.6554 12.1125 15.8446 12.1125 16.0653C12.1125 16.2808 12.1887 16.4687 12.3411 16.6289C12.4935 16.7892 12.68 16.8694 12.9008 16.8694ZM12.9008 21H18.876C19.0967 21 19.2846 20.9212 19.4396 20.7635C19.5946 20.6059 19.6722 20.4167 19.6722 20.1959C19.6722 19.97 19.5946 19.7782 19.4396 19.6205C19.2846 19.4628 19.0967 19.384 18.876 19.384H12.9008C12.68 19.384 12.4935 19.4642 12.3411 19.6244C12.1887 19.7847 12.1125 19.9752 12.1125 20.1959C12.1125 20.4114 12.1887 20.5993 12.3411 20.7596C12.4935 20.9199 12.68 21 12.9008 21ZM6.10572 16.6881L8.92779 14.8041C9.09595 14.6884 9.20632 14.5413 9.25887 14.3626C9.31142 14.1839 9.30879 14.0066 9.25099 13.8305C9.19318 13.6545 9.08544 13.5086 8.92779 13.393L6.10572 11.4775C5.88499 11.3251 5.67216 11.2502 5.4672 11.2528C5.26225 11.2554 5.09408 11.3251 4.9627 11.4617C4.83132 11.5983 4.76562 11.798 4.76562 12.0608V16.1126C4.76562 16.3649 4.83263 16.5567 4.96664 16.6881C5.10065 16.8194 5.27144 16.8864 5.47903 16.8891C5.68661 16.8917 5.8955 16.8247 6.10572 16.6881Z" fill="#99A2AD"/>
</svg>
