<svg width="80" height="80" viewBox="0 0 80 80" fill="none" xmlns="http://www.w3.org/2000/svg">
<path d="M24.174 8.5H47.9669L68.4738 29.0068V59.2002C68.4736 65.9932 62.967 71.5 56.174 71.5H24.174C17.381 71.4999 11.8743 65.9931 11.8741 59.2002V20.7998C11.8742 14.113 17.2103 8.67235 23.8566 8.50391L24.174 8.5Z" fill="#F5FDF7" stroke="#26A44D"/>
<path d="M68.9741 29.6L47.3741 8V19.1724C47.3741 24.9314 51.8871 29.6 57.4541 29.6H68.9741Z" fill="#26A44D"/>
<rect width="12" height="7" transform="translate(23 34)" fill="#26A44D"/>
<rect width="7" height="7" transform="translate(37 34)" fill="#26A44D"/>
<rect width="7" height="7" transform="translate(46 34)" fill="#26A44D"/>
<rect width="7" height="7" transform="translate(46 43)" fill="#26A44D"/>
<rect width="7" height="7" transform="translate(37 43)" fill="#26A44D"/>
<rect width="7" height="7" transform="translate(37 52)" fill="#26A44D"/>
<rect width="7" height="7" transform="translate(46 52)" fill="#26A44D"/>
<rect width="12" height="7" transform="translate(23 43)" fill="#26A44D"/>
<rect width="12" height="7" transform="translate(23 52)" fill="#26A44D"/>
</svg>
