<svg width="20" height="20" viewBox="0 0 20 20" fill="none" xmlns="http://www.w3.org/2000/svg">
    <path fill-rule="evenodd" clip-rule="evenodd"
        d="M13.5429 2.33367C13.3101 2.20916 13.0792 2.14286 12.4424 2.14286L7.53365 2.14286C6.89685 2.14286 6.66593 2.20916 6.43313 2.33367C6.20032 2.45817 6.01762 2.64088 5.89311 2.87368C5.79932 3.04906 5.73856 3.22336 5.71429 3.57091L14.2617 3.57091C14.2375 3.22336 14.1767 3.04906 14.0829 2.87368C13.9584 2.64088 13.7757 2.45817 13.5429 2.33367ZM13.6975 5.00127L6.51984 5C5.25084 5 4.62871 5.12014 3.98194 5.46604C3.39185 5.78162 2.92448 6.24899 2.60889 6.83908C2.28334 7.44781 2.15777 8.0347 2.14413 9.15962L2.14286 12.7659C2.14286 14.0349 2.263 14.657 2.60889 15.3038C2.92448 15.8939 3.39185 16.3612 3.98194 16.6768C4.62871 17.0227 5.25084 17.1429 6.51984 17.1429H13.4802C14.7492 17.1429 15.3713 17.0227 16.0181 16.6768C16.6082 16.3612 17.0755 15.8939 17.3911 15.3038C17.737 14.657 17.8571 14.0349 17.8571 12.7659V9.37698C17.8571 8.10798 17.737 7.48585 17.3911 6.83908C17.0755 6.24899 16.6082 5.78162 16.0181 5.46604C15.4093 5.14049 14.8224 5.01492 13.6975 5.00127ZM12.0203 11.847L16.2051 7.66287C16.369 8.03057 16.4286 8.45114 16.4286 9.37698V12.7659L16.4253 13.1116C16.4084 13.9133 16.3256 14.267 16.1314 14.6301C15.9489 14.9712 15.6855 15.2346 15.3444 15.4171C14.9328 15.6372 14.5335 15.7143 13.4802 15.7143L6.51984 15.7143L6.17414 15.711C5.37237 15.6942 5.01876 15.6113 4.65565 15.4171C4.31452 15.2346 4.05107 14.9712 3.86863 14.6301C3.64854 14.2185 3.57143 13.8192 3.57143 12.7659L3.57143 9.37698C3.57143 8.45114 3.631 8.03057 3.79488 7.66287L7.97969 11.847L8.09353 11.9548C9.21531 12.9615 10.9417 12.9256 12.0203 11.847ZM6.51984 6.42857L13.4802 6.42857C14.406 6.42857 14.8266 6.48815 15.1943 6.65202L11.0102 10.8368L10.9193 10.9203C10.358 11.3932 9.51838 11.3654 8.98985 10.8368L4.80573 6.65202C5.17342 6.48815 5.594 6.42857 6.51984 6.42857Z"
        fill="#55687D" />
</svg>
