<svg width="29" height="28" viewBox="0 0 29 28" fill="none" xmlns="http://www.w3.org/2000/svg">
<path d="M10.4013 21H16.5837C16.8675 21 17.0981 20.921 17.2755 20.763C17.4529 20.6049 17.5416 20.3872 17.5416 20.1099C17.5416 19.839 17.4545 19.6261 17.2804 19.4713C17.1062 19.3165 16.8772 19.2391 16.5934 19.2391H14.61L16.8643 8.76088H18.8477C19.1251 8.76088 19.3525 8.68187 19.5298 8.52384C19.7072 8.36581 19.7959 8.14812 19.7959 7.87077C19.7959 7.59986 19.7088 7.38701 19.5347 7.2322C19.3605 7.0774 19.1348 7 18.8574 7H12.6459C12.3686 7 12.1428 7.0774 11.9687 7.2322C11.7945 7.38701 11.7074 7.59986 11.7074 7.87077C11.7074 8.14812 11.7961 8.36581 11.9735 8.52384C12.1509 8.68187 12.3783 8.76088 12.6556 8.76088H14.639L12.3847 19.2391H10.3916C10.1143 19.2391 9.88851 19.3165 9.71436 19.4713C9.5402 19.6261 9.45312 19.839 9.45312 20.1099C9.45312 20.3872 9.54181 20.6049 9.71919 20.763C9.89657 20.921 10.1239 21 10.4013 21Z" fill="#99A2AD"/>
</svg>
