<svg width="20" height="20" viewBox="0 0 20 20" fill="none" xmlns="http://www.w3.org/2000/svg">
<path fill-rule="evenodd" clip-rule="evenodd" d="M9.99967 5.91679C10.4139 5.91679 10.7497 6.25258 10.7497 6.66679V9.7728L12.6133 11.6365C12.9062 11.9294 12.9062 12.4042 12.6133 12.6971C12.3204 12.99 11.8456 12.99 11.5527 12.6971L9.46934 10.6138C9.32869 10.4731 9.24967 10.2824 9.24967 10.0835V6.66679C9.24967 6.25258 9.58546 5.91679 9.99967 5.91679Z" fill="#007AFF"/>
<path d="M15.8333 4.16649C14.3411 2.67432 12.2776 1.75012 9.99967 1.75012C7.6792 1.75012 5.58129 2.7091 4.08301 4.25072V2.50012C4.08301 2.08591 3.74722 1.75012 3.33301 1.75012C2.91879 1.75012 2.58301 2.08591 2.58301 2.50012V5.83348C2.58301 6.24769 2.91879 6.58348 3.33301 6.58348H6.66634C7.08055 6.58348 7.41634 6.24769 7.41634 5.83348C7.41634 5.41926 7.08055 5.08348 6.66634 5.08348H5.37481C6.58356 3.94593 8.20972 3.25012 9.99967 3.25012C11.8638 3.25012 13.5503 4.00479 14.7726 5.22715C15.995 6.44951 16.7497 8.13599 16.7497 10.0001C16.7497 11.8643 15.995 13.5507 14.7726 14.7731C13.5503 15.9955 11.8638 16.7501 9.99967 16.7501C8.34842 16.7501 6.83734 16.1582 5.66422 15.174C5.34688 14.9077 4.87382 14.9492 4.6076 15.2665C4.34138 15.5838 4.38281 16.0569 4.70014 16.3231C6.13332 17.5255 7.98287 18.2501 9.99967 18.2501C12.2776 18.2501 14.3411 17.3259 15.8333 15.8338C17.3255 14.3416 18.2497 12.278 18.2497 10.0001C18.2497 7.7222 17.3255 5.65866 15.8333 4.16649Z" fill="#007AFF"/>
</svg>
