<svg width="20" height="20" viewBox="0 0 20 20" fill="none" xmlns="http://www.w3.org/2000/svg">
<path d="M12.8029 2.14285C14.2016 2.15763 14.9134 2.30835 15.6515 2.70307C16.3579 3.08091 16.9167 3.63963 17.2945 4.34612C17.6892 5.08418 17.84 5.79598 17.8547 7.19468V12.8029C17.84 14.2016 17.6892 14.9134 17.2945 15.6514C16.9167 16.3579 16.3579 16.9166 15.6515 17.2945C14.9134 17.6892 14.2016 17.8399 12.8029 17.8547H7.19471C5.79602 17.8399 5.08421 17.6892 4.34615 17.2945C3.63966 16.9166 3.08094 16.3579 2.7031 15.6514C2.30839 14.9134 2.15766 14.2016 2.14288 12.8029V7.19468C2.15766 5.79598 2.30839 5.08418 2.7031 4.34612C3.08094 3.63963 3.63966 3.08091 4.34615 2.70307C5.08421 2.30835 5.79602 2.15763 7.19471 2.14285H12.8029ZM12.5633 3.5702H7.43431L7.03618 3.57369C5.97955 3.59372 5.50643 3.70259 5.01986 3.96281C4.56233 4.2075 4.20753 4.5623 3.96284 5.01983C3.70262 5.5064 3.59375 5.97952 3.57372 7.03615L3.57023 7.43428V12.5633L3.57372 12.9614C3.59375 14.018 3.70262 14.4911 3.96284 14.9777C4.20753 15.4352 4.56233 15.7901 5.01986 16.0347C5.50643 16.295 5.97955 16.4038 7.03618 16.4239L7.43431 16.4273H12.5633L12.9614 16.4239C14.0181 16.4038 14.4912 16.295 14.9777 16.0347C15.4353 15.7901 15.7901 15.4352 16.0348 14.9777C16.295 14.4911 16.4039 14.018 16.4239 12.9614L16.4274 12.5633V7.43428L16.4239 7.03615C16.4039 5.97952 16.295 5.5064 16.0348 5.01983C15.7901 4.5623 15.4353 4.2075 14.9777 3.96281C14.4912 3.70259 14.0181 3.59372 12.9614 3.57369L12.5633 3.5702Z" fill="#007AFF"/>
</svg>
