<svg width="24" height="24" viewBox="0 0 24 24" fill="none" xmlns="http://www.w3.org/2000/svg">
    <path fill-rule="evenodd" clip-rule="evenodd"
        d="M11.143 3.42859C6.88251 3.42859 3.42871 6.88239 3.42871 11.1429C3.42871 15.4034 6.88251 18.8572 11.143 18.8572C12.9644 18.8572 14.6384 18.2259 15.9582 17.1702L19.9655 21.1775C20.3002 21.5123 20.8429 21.5123 21.1777 21.1775C21.5124 20.8428 21.5124 20.3001 21.1777 19.9654L17.1703 15.958C18.226 14.6383 18.8573 12.9643 18.8573 11.1429C18.8573 6.88239 15.4035 3.42859 11.143 3.42859ZM11.143 5.14287C7.82929 5.14287 5.143 7.82917 5.143 11.1429C5.143 14.4566 7.82929 17.1429 11.143 17.1429C14.4567 17.1429 17.143 14.4566 17.143 11.1429C17.143 7.82917 14.4567 5.14287 11.143 5.14287Z"
        fill="#007AFF" />
</svg>
