<svg width="20" height="21" viewBox="0 0 20 21" fill="none" xmlns="http://www.w3.org/2000/svg">
<path d="M15.8012 3.56318L16.9339 4.69588C17.7707 5.53272 17.7707 6.8895 16.9339 7.72634L15.0002 9.65999L7.24764 17.4126C6.64485 18.0153 5.82731 18.354 4.97486 18.354H3.60735C2.79865 18.354 2.14307 17.6984 2.14307 16.8897V15.5222C2.14307 14.6697 2.48174 13.8521 3.08457 13.2493L10.8374 5.49698L10.837 5.49682L12.7707 3.56318C13.6075 2.72634 14.9643 2.72634 15.8012 3.56318ZM11.7859 6.56872L4.0947 14.2595C3.75979 14.5944 3.57164 15.0486 3.57164 15.5222V16.8897C3.57164 16.9094 3.58763 16.9254 3.60735 16.9254H4.97486C5.44844 16.9254 5.90263 16.7373 6.23751 16.4024L13.9288 8.71158L11.7859 6.56872ZM13.7808 4.57333L12.8574 5.49682L15.0002 7.63968L15.9237 6.71619C16.2027 6.43724 16.2027 5.98498 15.9237 5.70603L14.791 4.57333C14.5121 4.29438 14.0598 4.29438 13.7808 4.57333Z" fill="black"/>
</svg>
