<svg width="24" height="24" viewBox="0 0 24 24" fill="none" xmlns="http://www.w3.org/2000/svg">
    <path
        d="M6.60606 4.10798L11.1703 8.67227L11.1732 8.67155L15.3282 12.8265L15.3275 12.8294L20.3203 17.8223C20.6551 18.157 20.6551 18.6997 20.3203 19.0345C19.9856 19.3692 19.4429 19.3692 19.1082 19.0345L17.5008 17.4285C15.8405 18.3422 13.9548 18.8569 12 18.8569C7.0129 18.8569 2.14282 15.1232 2.14282 11.9998C2.14282 10.1766 4.01586 7.91178 6.5941 6.52047L5.39387 5.32017C5.05914 4.98543 5.05914 4.44272 5.39387 4.10798C5.72861 3.77325 6.27132 3.77325 6.60606 4.10798ZM3.85711 11.9998C3.85711 14.0621 7.87523 17.1426 12 17.1426C13.485 17.1426 14.9274 16.7908 16.2291 16.1573L14.4608 14.3871C13.8377 15.0293 12.9654 15.4284 12 15.4284C10.1064 15.4284 8.57139 13.8933 8.57139 11.9998C8.57139 11.0343 8.97046 10.162 9.61264 9.53894L7.86843 7.79612C5.55454 8.89439 3.85711 10.8289 3.85711 11.9998ZM12 5.14265C16.987 5.14265 21.8571 8.87638 21.8571 11.9998C21.8571 12.8095 21.4858 13.7126 20.8314 14.5998C20.5504 14.9808 20.0138 15.0619 19.6328 14.7809C19.2519 14.4999 19.1708 13.9633 19.4518 13.5823C19.9073 12.9646 20.1428 12.3918 20.1428 11.9998C20.1428 9.93749 16.1247 6.85693 12 6.85693C11.5266 6.85693 11.1428 6.47318 11.1428 5.99979C11.1428 5.5264 11.5266 5.14265 12 5.14265ZM10.8251 10.7514C10.493 11.064 10.2857 11.5077 10.2857 11.9998C10.2857 12.9466 11.0532 13.7141 12 13.7141C12.4921 13.7141 12.9357 13.5067 13.2484 13.1747L10.8251 10.7514Z"
        fill="#007AFF" />
</svg>
