<svg width="65" height="64" viewBox="0 0 65 64" fill="none" xmlns="http://www.w3.org/2000/svg">
<rect x="0.5" width="64" height="64" rx="16" fill="#F3F4F5"/>
<path fill-rule="evenodd" clip-rule="evenodd" d="M38.3098 21.1618L35.1866 18.7942C34.2474 18.0651 33.4648 17.6 32.4996 17.6C31.5344 17.6 30.7518 18.0651 29.8127 18.7942L19.73 26.4374C18.4909 27.3802 18.0996 28.1847 18.0996 29.9949V42.503C18.0996 45.1052 19.4692 46.4 22.1953 46.4H42.804C45.53 46.4 46.8996 45.0926 46.8996 42.503V29.9949C46.8996 28.1847 46.5083 27.3802 45.2692 26.4374L41.3667 23.4791L40.0158 24.83L43.8735 27.7322L36.0866 35.149L35.2387 34.3445C34.3257 33.4645 33.4387 33.1125 32.5257 33.1125C31.5996 33.1125 30.7257 33.4645 29.8127 34.3445L28.9648 35.149L21.1518 27.707L30.9344 20.353L30.9378 20.3505C31.5748 19.8744 31.9267 19.6113 32.4996 19.6113C33.0605 19.6113 33.4257 19.8753 34.0648 20.353L36.9488 22.5226L38.3098 21.1618ZM20.0953 29.6555V42.503C20.0953 42.8424 20.1474 43.1441 20.2387 43.3955L27.5953 36.4438L20.1083 29.3161C20.0953 29.4167 20.0953 29.5298 20.0953 29.6555ZM44.904 42.503V29.6555C44.904 29.5424 44.904 29.4418 44.8909 29.3538L37.4561 36.4438L44.7605 43.3704C44.8518 43.119 44.904 42.8299 44.904 42.503ZM21.8561 44.4641C21.9344 44.4766 22.0257 44.4766 22.117 44.4766H42.8822C42.9866 44.4766 43.0909 44.4766 43.1822 44.4641L34.104 35.8278C33.5431 35.2873 33.0344 35.0485 32.5257 35.0485C32.004 35.0485 31.4953 35.2873 30.9474 35.8278L21.8561 44.4641Z" fill="#007AFF"/>
<path d="M40.047 20.6658C40.4456 20.2673 41.0918 20.2673 41.4904 20.6658C41.8585 21.034 41.8865 21.6127 41.5749 22.0135L41.5669 22.0238L41.4996 22.1L33.0434 30.7459C32.6752 31.1141 32.0965 31.1421 31.6958 30.8305L31.6854 30.8224L31.6092 30.7552L29.1985 28.3445C28.8 27.9459 28.8 27.2997 29.1985 26.9011C29.5667 26.533 30.1454 26.505 30.5462 26.8165L30.5565 26.8246L30.6327 26.8919L32.3217 28.5804L40.047 20.6658Z" fill="#007AFF"/>
<path fill-rule="evenodd" clip-rule="evenodd" d="M38.3098 21.1618L35.1866 18.7942C34.2474 18.0651 33.4648 17.6 32.4996 17.6C31.5344 17.6 30.7518 18.0651 29.8127 18.7942L19.73 26.4374C18.4909 27.3802 18.0996 28.1847 18.0996 29.9949V42.503C18.0996 45.1052 19.4692 46.4 22.1953 46.4H42.804C45.53 46.4 46.8996 45.0926 46.8996 42.503V29.9949C46.8996 28.1847 46.5083 27.3802 45.2692 26.4374L41.3667 23.4791L40.0158 24.83L43.8735 27.7322L36.0866 35.149L35.2387 34.3445C34.3257 33.4645 33.4387 33.1125 32.5257 33.1125C31.5996 33.1125 30.7257 33.4645 29.8127 34.3445L28.9648 35.149L21.1518 27.707L30.9344 20.353L30.9378 20.3505C31.5748 19.8744 31.9267 19.6113 32.4996 19.6113C33.0605 19.6113 33.4257 19.8753 34.0648 20.353L36.9488 22.5226L38.3098 21.1618ZM20.0953 29.6555V42.503C20.0953 42.8424 20.1474 43.1441 20.2387 43.3955L27.5953 36.4438L20.1083 29.3161C20.0953 29.4167 20.0953 29.5298 20.0953 29.6555ZM44.904 42.503V29.6555C44.904 29.5424 44.904 29.4418 44.8909 29.3538L37.4561 36.4438L44.7605 43.3704C44.8518 43.119 44.904 42.8299 44.904 42.503ZM21.8561 44.4641C21.9344 44.4766 22.0257 44.4766 22.117 44.4766H42.8822C42.9866 44.4766 43.0909 44.4766 43.1822 44.4641L34.104 35.8278C33.5431 35.2873 33.0344 35.0485 32.5257 35.0485C32.004 35.0485 31.4953 35.2873 30.9474 35.8278L21.8561 44.4641Z" stroke="#007AFF" stroke-width="0.36"/>
<path d="M40.047 20.6658C40.4456 20.2673 41.0918 20.2673 41.4904 20.6658C41.8585 21.034 41.8865 21.6127 41.5749 22.0135L41.5669 22.0238L41.4996 22.1L33.0434 30.7459C32.6752 31.1141 32.0965 31.1421 31.6958 30.8305L31.6854 30.8224L31.6092 30.7552L29.1985 28.3445C28.8 27.9459 28.8 27.2997 29.1985 26.9011C29.5667 26.533 30.1454 26.505 30.5462 26.8165L30.5565 26.8246L30.6327 26.8919L32.3217 28.5804L40.047 20.6658Z" stroke="#007AFF" stroke-width="0.36"/>
</svg>
