<svg width="24" height="24" viewBox="0 0 24 24" fill="none" xmlns="http://www.w3.org/2000/svg">
<path d="M2.03387 19.2608C1.89875 19.6415 1.53859 19.8958 1.13469 19.8958C0.471266 19.8958 0.0103278 19.2355 0.238999 18.6127L5.32361 4.7653C5.53162 4.1988 6.07099 3.82227 6.67447 3.82227C7.27795 3.82227 7.81733 4.1988 8.02534 4.7653L13.1099 18.6127C13.3386 19.2355 12.8777 19.8958 12.2143 19.8958C11.8104 19.8958 11.4502 19.6415 11.3151 19.2608L6.73726 6.36515H6.61169L2.03387 19.2608ZM2.56191 13.6171H10.787V15.3437H2.56191V13.6171Z" fill="black"/>
<path d="M18.2911 20.1783C17.5272 20.1783 16.8339 20.0344 16.2113 19.7467C15.5887 19.4537 15.0942 19.0325 14.728 18.4831C14.3617 17.9285 14.1786 17.2587 14.1786 16.4739C14.1786 15.7832 14.3146 15.2234 14.5867 14.7943C14.8588 14.3601 15.2224 14.02 15.6776 13.774C16.1328 13.5281 16.6351 13.345 17.1845 13.2246C17.7391 13.0991 18.2964 12.9997 18.8562 12.9264C19.5887 12.8322 20.1826 12.7616 20.6378 12.7145C21.0982 12.6622 21.4331 12.5758 21.6424 12.4555C21.8569 12.3352 21.9642 12.1259 21.9642 11.8276V11.7648C21.9642 10.9905 21.7523 10.3888 21.3285 9.95971C20.9099 9.53067 20.2742 9.31615 19.4213 9.31615C18.5371 9.31615 17.8438 9.50974 17.3415 9.89693C17.1194 10.0681 16.9266 10.2443 16.7628 10.4257C16.4356 10.7881 15.9301 11.0113 15.4703 10.8471C14.9574 10.6639 14.6947 10.0763 15.0046 9.62839C15.2307 9.3016 15.489 9.02485 15.7796 8.79815C16.3081 8.3848 16.8837 8.09703 17.5063 7.93483C18.1342 7.7674 18.7516 7.68368 19.3585 7.68368C19.7457 7.68368 20.1904 7.73077 20.6927 7.82495C21.2003 7.9139 21.6895 8.09964 22.1604 8.38219C22.6365 8.66473 23.0316 9.09116 23.3455 9.66148C23.6594 10.2318 23.8164 10.9957 23.8164 11.9532V18.9697C23.8164 19.4812 23.4018 19.8958 22.8903 19.8958C22.3788 19.8958 21.9642 19.4812 21.9642 18.9697V18.2633H21.87C21.7444 18.5249 21.5351 18.8049 21.2421 19.1031C20.9491 19.4013 20.5593 19.6551 20.0727 19.8644C19.5861 20.0737 18.9923 20.1783 18.2911 20.1783ZM18.5737 18.5145C19.3062 18.5145 19.9236 18.3706 20.4259 18.0828C20.9334 17.795 21.3154 17.4235 21.5718 16.9683C21.8334 16.5131 21.9642 16.0344 21.9642 15.5321V13.8368C21.8857 13.931 21.713 14.0173 21.4462 14.0958C21.1846 14.1691 20.8811 14.2345 20.5358 14.292C20.1957 14.3444 19.8634 14.3914 19.539 14.4333C19.2199 14.4699 18.9609 14.5013 18.762 14.5275C18.2807 14.5903 17.8307 14.6923 17.4121 14.8336C16.9988 14.9696 16.6639 15.1763 16.4075 15.4536C16.1564 15.7257 16.0308 16.0972 16.0308 16.5681C16.0308 17.2116 16.2689 17.6982 16.745 18.0279C17.2264 18.3523 17.8359 18.5145 18.5737 18.5145Z" fill="black"/>
</svg>
