<svg width="24" height="24" viewBox="0 0 24 24" fill="none" xmlns="http://www.w3.org/2000/svg">
<rect width="24" height="24" rx="12" fill="#F4F5F6"/>
<path fill-rule="evenodd" clip-rule="evenodd" d="M14.9077 6.15032L6.48058 15.0925L6.27224 17.6609C6.25457 17.8791 6.44335 18.0568 6.65978 18.0259L9.21119 17.6659L17.6381 8.72309C17.7674 8.58623 17.7611 8.37043 17.6239 8.24119L15.3898 6.13573C15.2528 6.00644 15.0368 6.01281 14.9077 6.15032ZM7.37828 16.6816L7.47139 15.5332L13.4303 9.21002L14.6715 10.3796L8.71252 16.7028L7.57213 16.8641C7.46382 16.8792 7.36942 16.79 7.37828 16.6816ZM15.3732 9.63489L16.3087 8.64205C16.3732 8.5733 16.3702 8.46572 16.3015 8.40078L15.3087 7.46552C15.24 7.40058 15.1321 7.40374 15.0675 7.47249L14.1321 8.46533L15.3732 9.63489Z" fill="#99A2AD"/>
</svg>
