<svg width="97" height="44" viewBox="0 0 97 44" fill="none" xmlns="http://www.w3.org/2000/svg">
<path d="M92.9091 24.3394H30.1455V43.6H92.8667C93.7454 43.5968 94.5867 43.2442 95.2052 42.62C95.8237 41.9959 96.1685 41.1514 96.1637 40.2727V27.6363C96.1734 26.7663 95.835 25.9285 95.2238 25.3093C94.6125 24.6901 93.7792 24.3409 92.9091 24.3394Z" fill="#A52243"/>
<path fill-rule="evenodd" clip-rule="evenodd" d="M29.8363 43.9334H92.8666C94.8678 43.9301 96.4902 42.3104 96.4969 40.3092V27.6668C96.5041 26.7011 96.1269 25.7722 95.4484 25.085C94.79 24.3854 93.8697 23.9922 92.909 24.0001H29.8363V43.9334ZM92.8666 43.2607H30.4424V24.6789H92.8666C93.6525 24.674 94.4076 24.9841 94.9633 25.5398C95.519 26.0955 95.8291 26.8506 95.8242 27.6365V40.2728C95.821 41.9099 94.5035 43.2408 92.8666 43.2607Z" fill="#A52243"/>
<path d="M3.73937 24.3395C1.90073 24.3227 0.395714 25.7979 0.375732 27.6365V40.2728C0.392182 42.1036 1.87226 43.5837 3.70301 43.6001H30.1454V24.3395H3.73937Z" fill="white"/>
<path fill-rule="evenodd" clip-rule="evenodd" d="M0 40.2304C0.0293013 42.2633 1.67016 43.9042 3.70303 43.9335H30.4424V24.0001H3.70303C2.73546 23.9823 1.80069 24.3509 1.10568 25.0243C0.410664 25.6977 0.012739 26.6204 0 27.588V40.2304ZM1.60418 25.5207C2.17374 24.9636 2.94286 24.6582 3.73939 24.6729H29.8121V43.2607H3.70303C2.06005 43.2412 0.731978 41.9158 0.709091 40.2729V27.6365C0.712202 26.8398 1.03462 26.0777 1.60418 25.5207Z" fill="#A52243"/>
<path d="M7.0303 27.7031H4V39.5213H11.5212V36.6789H7.0303V27.7031Z" fill="#A52243"/>
<rect x="12.7152" y="27.7031" width="3.0303" height="11.8182" fill="#A52243"/>
<path d="M25.3212 27.7031V35.4062L20.6485 27.7759L20.6061 27.7031H16.9818V39.5213H19.8606V31.6304L24.7212 39.5213H28.2V27.7031H25.3212Z" fill="#A52243"/>
<path fill-rule="evenodd" clip-rule="evenodd" d="M35.9031 27.7759H38.7515L38.8364 27.8547L43.6849 39.5213H40.3576L39.4606 37.2001H35.0849L34.2243 39.5213H30.9697L35.9031 27.7759ZM35.9455 34.6971H38.6L37.2909 31.0607L35.9455 34.6971Z" fill="white"/>
<path d="M49.933 34.9561H52.2481V36.7743C51.5051 37.1459 50.6849 37.3369 49.8542 37.3318C48.8848 37.3633 47.9463 36.9886 47.2651 36.2982C46.5839 35.6078 46.2219 34.6643 46.2663 33.6955C46.2101 32.7361 46.5582 31.797 47.2261 31.1061C47.894 30.4151 48.8207 30.0354 49.7815 30.0591C50.8196 29.9939 51.8335 30.391 52.5512 31.1439L52.6239 31.2167L54.5451 29.047L54.4724 28.9743C53.3875 27.9621 51.8542 27.4409 49.7572 27.4409C45.9451 27.4409 43.3633 29.9439 43.3633 33.647C43.3633 37.35 45.9027 39.8591 49.7209 39.8591C51.4215 39.9031 53.1058 39.5175 54.6178 38.7379L54.6542 38.6955V32.4833H49.8057V34.9864L49.933 34.9561Z" fill="white"/>
<path fill-rule="evenodd" clip-rule="evenodd" d="M74.4667 27.7759C77.4607 27.7799 78.9576 28.9779 78.9576 31.3698C79.0846 32.94 78.0081 34.3535 76.4607 34.6486L79.4546 39.5456H76.1637L73.7395 34.9092H72.7273V39.5213H69.9395V27.7759H74.4667ZM74.1879 29.9819H72.7273V32.6789H74.0364C74.9334 32.6789 76.097 32.5698 76.097 31.3698C76.097 30.1698 74.897 29.9819 74.1879 29.9819Z" fill="white"/>
<path fill-rule="evenodd" clip-rule="evenodd" d="M87.6728 27.7759L87.7092 27.8547L92.6243 39.5213H89.2971L88.4001 37.2001H84.0243L83.1637 39.5213H79.9092L84.8486 27.7759H87.6728ZM84.8486 34.6971H87.5213L86.194 31.0607L84.8486 34.6971Z" fill="white"/>
<path d="M62.297 27.3214C59.1148 27.362 56.4239 29.6874 55.9225 32.8301C55.4212 35.9728 57.2551 39.0201 60.2667 40.0487L61.1273 37.3396C59.4048 36.7779 58.3462 35.0473 58.6306 33.258C58.9149 31.4686 60.4579 30.1515 62.2697 30.1515C64.0815 30.1515 65.6245 31.4686 65.9089 33.258C66.1933 35.0473 65.1347 36.7779 63.4122 37.3396L64.2788 40.0426C67.349 39.0636 69.2484 35.9939 68.7542 32.8095C68.2599 29.625 65.5195 27.2754 62.297 27.2729V27.3214Z" fill="white"/>
<path d="M1.33232 17.15V6.8H2.38232V7.85C2.55232 7.62 2.75732 7.42 2.99732 7.25C3.53732 6.85 4.15732 6.65 4.85732 6.65C5.84732 6.65 6.68232 7.005 7.36232 7.715C8.04232 8.425 8.38232 9.32 8.38232 10.4C8.38232 11.48 8.04232 12.375 7.36232 13.085C6.68232 13.795 5.84732 14.15 4.85732 14.15C4.15732 14.15 3.53732 13.95 2.99732 13.55C2.75732 13.38 2.55232 13.18 2.38232 12.95V17.15H1.33232ZM4.85732 13.175C5.54732 13.175 6.13232 12.915 6.61232 12.395C7.09232 11.875 7.33232 11.21 7.33232 10.4C7.33232 9.59 7.09232 8.925 6.61232 8.405C6.13232 7.885 5.54732 7.625 4.85732 7.625C4.20732 7.625 3.63232 7.895 3.13232 8.435C2.63232 8.975 2.38232 9.63 2.38232 10.4C2.38232 11.17 2.63232 11.825 3.13232 12.365C3.63232 12.905 4.20732 13.175 4.85732 13.175ZM15.9982 13.07C15.2882 13.79 14.4232 14.15 13.4032 14.15C12.3832 14.15 11.5132 13.79 10.7932 13.07C10.0832 12.34 9.72822 11.45 9.72822 10.4C9.72822 9.35 10.0832 8.465 10.7932 7.745C11.5132 7.015 12.3832 6.65 13.4032 6.65C14.4232 6.65 15.2882 7.015 15.9982 7.745C16.7182 8.465 17.0782 9.35 17.0782 10.4C17.0782 11.45 16.7182 12.34 15.9982 13.07ZM11.5432 12.365C12.0632 12.905 12.6832 13.175 13.4032 13.175C14.1232 13.175 14.7382 12.91 15.2482 12.38C15.7682 11.84 16.0282 11.18 16.0282 10.4C16.0282 9.62 15.7682 8.965 15.2482 8.435C14.7382 7.895 14.1232 7.625 13.4032 7.625C12.6832 7.625 12.0632 7.895 11.5432 8.435C11.0332 8.965 10.7782 9.62 10.7782 10.4C10.7782 11.17 11.0332 11.825 11.5432 12.365ZM20.4544 14L17.9794 6.8H19.1044L20.9794 12.35L22.7794 6.8H23.6794L25.4794 12.35L27.3544 6.8H28.4794L26.0044 14H25.0294L23.2294 8.525L21.4294 14H20.4544ZM35.3114 11.975L35.9864 12.65C35.7964 12.91 35.5414 13.16 35.2214 13.4C34.5214 13.9 33.7764 14.15 32.9864 14.15C31.9964 14.15 31.1464 13.785 30.4364 13.055C29.7364 12.325 29.3864 11.44 29.3864 10.4C29.3864 9.36 29.7364 8.475 30.4364 7.745C31.1364 7.015 31.9614 6.65 32.9114 6.65C33.9014 6.65 34.7214 6.99 35.3714 7.67C36.0314 8.35 36.3614 9.21 36.3614 10.25C36.3614 10.3 36.3464 10.43 36.3164 10.64L36.2864 10.79L30.4364 10.775C30.4764 11.425 30.7414 11.99 31.2314 12.47C31.7314 12.94 32.3164 13.175 32.9864 13.175C33.5964 13.175 34.1714 12.975 34.7114 12.575C34.9714 12.365 35.1714 12.165 35.3114 11.975ZM30.4364 9.875H35.3114C35.2314 9.225 34.9664 8.69 34.5164 8.27C34.0764 7.84 33.5414 7.625 32.9114 7.625C32.2814 7.625 31.7314 7.845 31.2614 8.285C30.7914 8.725 30.5164 9.255 30.4364 9.875ZM38.2317 14V6.8H39.2817V7.775C39.4717 7.555 39.6667 7.37 39.8667 7.22C40.4067 6.84 41.0117 6.65 41.6817 6.65H41.9817V7.7H41.5317C40.9117 7.7 40.3817 7.915 39.9417 8.345C39.5017 8.775 39.2817 9.335 39.2817 10.025V14H38.2317ZM48.6562 11.975L49.3312 12.65C49.1412 12.91 48.8862 13.16 48.5662 13.4C47.8662 13.9 47.1212 14.15 46.3312 14.15C45.3412 14.15 44.4912 13.785 43.7812 13.055C43.0812 12.325 42.7312 11.44 42.7312 10.4C42.7312 9.36 43.0812 8.475 43.7812 7.745C44.4812 7.015 45.3062 6.65 46.2562 6.65C47.2462 6.65 48.0662 6.99 48.7162 7.67C49.3762 8.35 49.7062 9.21 49.7062 10.25C49.7062 10.3 49.6912 10.43 49.6612 10.64L49.6312 10.79L43.7812 10.775C43.8212 11.425 44.0862 11.99 44.5762 12.47C45.0762 12.94 45.6612 13.175 46.3312 13.175C46.9412 13.175 47.5162 12.975 48.0562 12.575C48.3162 12.365 48.5162 12.165 48.6562 11.975ZM43.7812 9.875H48.6562C48.5762 9.225 48.3112 8.69 47.8612 8.27C47.4212 7.84 46.8862 7.625 46.2562 7.625C45.6262 7.625 45.0762 7.845 44.6062 8.285C44.1362 8.725 43.8612 9.255 43.7812 9.875ZM57.0515 14V12.95C56.9015 13.16 56.6965 13.36 56.4365 13.55C55.8765 13.95 55.2565 14.15 54.5765 14.15C53.5865 14.15 52.7515 13.795 52.0715 13.085C51.3915 12.375 51.0515 11.48 51.0515 10.4C51.0515 9.32 51.3915 8.425 52.0715 7.715C52.7515 7.005 53.5865 6.65 54.5765 6.65C55.2565 6.65 55.8765 6.85 56.4365 7.25C56.6965 7.44 56.9015 7.64 57.0515 7.85V3.5H58.1015V14H57.0515ZM54.5765 13.175C55.2265 13.175 55.8015 12.905 56.3015 12.365C56.8015 11.825 57.0515 11.17 57.0515 10.4C57.0515 9.63 56.8015 8.975 56.3015 8.435C55.8015 7.895 55.2265 7.625 54.5765 7.625C53.8865 7.625 53.3015 7.885 52.8215 8.405C52.3415 8.925 52.1015 9.59 52.1015 10.4C52.1015 11.21 52.3415 11.875 52.8215 12.395C53.3015 12.915 53.8865 13.175 54.5765 13.175ZM63.795 14V3.5H64.845V7.85C65.015 7.62 65.22 7.42 65.46 7.25C66 6.85 66.62 6.65 67.32 6.65C68.31 6.65 69.145 7.005 69.825 7.715C70.505 8.425 70.845 9.32 70.845 10.4C70.845 11.48 70.505 12.375 69.825 13.085C69.145 13.795 68.31 14.15 67.32 14.15C66.62 14.15 66 13.95 65.46 13.55C65.22 13.38 65.015 13.18 64.845 12.95V14H63.795ZM67.32 13.175C68.01 13.175 68.595 12.915 69.075 12.395C69.555 11.875 69.795 11.21 69.795 10.4C69.795 9.59 69.555 8.925 69.075 8.405C68.595 7.885 68.01 7.625 67.32 7.625C66.67 7.625 66.095 7.895 65.595 8.435C65.095 8.975 64.845 9.63 64.845 10.4C64.845 11.17 65.095 11.825 65.595 12.365C66.095 12.905 66.67 13.175 67.32 13.175ZM72.1892 17V16.025C72.2792 16.065 72.3592 16.09 72.4292 16.1C72.5992 16.15 72.7692 16.175 72.9392 16.175C73.5592 16.175 74.0092 15.8 74.2892 15.05L74.6642 14L71.7392 6.8H72.8642L75.1892 12.65L77.5142 6.8H78.6392L75.3392 15.05C75.0392 15.81 74.7142 16.35 74.3642 16.67C74.0242 16.99 73.5992 17.15 73.0892 17.15C72.8592 17.15 72.6442 17.125 72.4442 17.075C72.3742 17.065 72.2892 17.04 72.1892 17Z" fill="#A1A1A1"/>
</svg>
