<svg width="56" height="56" viewBox="0 0 32 32" fill="none" xmlns="http://www.w3.org/2000/svg"><rect width="32" height="32" rx="8.72727" fill="#004dff"></rect><path d="M15.9187 7.27915C15.9064 7.28266 15.8719 7.29319 15.8407 7.30254C15.8106 7.31307 14.9824 7.80303 14.0025 8.39239C12.6147 9.22732 12.2056 9.47874 12.1566 9.52551C12.0841 9.59568 12.0206 9.71027 12.0017 9.80733C11.9838 9.89503 11.9838 13.5131 12.0017 13.6008C12.0396 13.7867 12.1756 13.9446 12.3539 14.0065C12.4498 14.0405 12.5835 14.0393 12.6805 14.0042C12.724 13.989 13.3493 13.6195 14.2411 13.0827C15.0593 12.5904 15.7504 12.1753 15.776 12.1613C15.8942 12.0993 16.048 12.0888 16.174 12.1355C16.2052 12.1472 16.9208 12.5659 17.7635 13.0675C18.6063 13.568 19.3263 13.9902 19.3631 14.0065C19.4512 14.044 19.6084 14.0486 19.7065 14.0147C19.8491 13.9656 19.9818 13.8346 20.0398 13.6838L20.0654 13.616L20.0687 11.745C20.0699 10.4727 20.0676 9.85528 20.0598 9.81435C20.0253 9.64011 19.9305 9.52201 19.7254 9.39922C18.3722 8.59236 16.2375 7.33061 16.1885 7.30956C16.126 7.28266 15.9711 7.26512 15.9187 7.27915Z" fill="white"></path><path d="M11.3559 14.8425C11.3292 14.8484 11.2812 14.8659 11.25 14.8811C11.1653 14.9221 8.25929 16.6855 8.19687 16.7322C8.13667 16.779 8.06756 16.8819 8.02966 16.9801L8.00402 17.0468L8.00068 19.2101C7.99845 20.7093 8.00179 21.3969 8.0096 21.4495C8.02743 21.5606 8.07982 21.6646 8.15897 21.7477C8.21916 21.8085 8.4421 21.95 9.9135 22.8586C10.842 23.4316 11.6346 23.9157 11.6747 23.9367C11.8007 24.001 11.9289 24.0104 12.0615 23.9671C12.115 23.9496 15.1916 22.1815 15.2852 22.1149C15.4357 22.0061 15.5216 21.7851 15.4903 21.5863C15.4714 21.4635 15.4246 21.3676 15.3421 21.2823C15.2774 21.2156 15.1526 21.1396 13.7458 20.3152C12.5866 19.6358 12.2042 19.4066 12.1596 19.3633C12.0961 19.3025 12.0582 19.2429 12.0192 19.1423L11.9946 19.0815L11.9891 17.1696L11.9835 15.2577L11.9579 15.1898C11.901 15.0425 11.7762 14.9162 11.6357 14.8636C11.5621 14.8367 11.4273 14.8262 11.3559 14.8425Z" fill="white"></path><path d="M20.4956 14.8449C20.2939 14.8894 20.1244 15.0659 20.0832 15.2752C20.0743 15.3185 20.0709 15.8775 20.0709 17.1696C20.0709 19.1891 20.0754 19.0652 20.0018 19.209C19.9461 19.3189 19.8681 19.3832 19.5794 19.5563C19.4356 19.6428 18.7723 20.0416 18.1035 20.4439C17.4358 20.845 16.855 21.1969 16.8138 21.2262C16.6042 21.3735 16.5284 21.6717 16.6377 21.9173C16.6934 22.0412 16.7759 22.1149 17.0334 22.2693C17.156 22.3429 17.8204 22.7452 18.5104 23.1627C19.2004 23.5813 19.7967 23.9391 19.8369 23.959C19.8982 23.9894 19.926 23.9952 20.0163 23.9987C20.0944 24.0023 20.1412 23.9987 20.1891 23.9835C20.2348 23.9707 20.8044 23.6339 22.0484 22.8867C23.5756 21.9687 23.852 21.7992 23.9033 21.7454C23.9746 21.6717 24.0348 21.5489 24.0504 21.4448C24.0571 21.4016 24.0616 20.5737 24.0616 19.2534C24.0616 16.9217 24.0649 17.0422 23.9936 16.9018C23.9211 16.7592 23.9445 16.7756 22.3171 15.7898C21.49 15.2893 20.7877 14.8718 20.7565 14.8613C20.6863 14.8391 20.5592 14.8309 20.4956 14.8449Z" fill="white"></path></svg>