<svg width="20" height="20" viewBox="0 0 20 20" fill="none" xmlns="http://www.w3.org/2000/svg">
<path d="M10.7257 12.5587L8.60898 10.467L8.63398 10.442C10.084 8.82533 11.1173 6.96699 11.7257 5.00033H14.1673V3.33366L8.33398 3.33366V1.66699L6.66732 1.66699V3.33366L0.833984 3.33366L0.833984 4.99199L10.1423 4.99199C9.58398 6.60033 8.70065 8.12533 7.50065 9.45866C6.72565 8.60033 6.08398 7.65866 5.57565 6.66699L3.90898 6.66699C4.51732 8.02533 5.35065 9.30866 6.39232 10.467L2.15065 14.6503L3.33398 15.8337L7.50065 11.667L10.0923 14.2587L10.7257 12.5587ZM15.4173 8.33366H13.7507L10.0007 18.3337H11.6673L12.6007 15.8337H16.559L17.5007 18.3337H19.1673L15.4173 8.33366ZM13.234 14.167L14.584 10.5587L15.934 14.167H13.234Z" fill="#424244" fill-opacity="0.72"/>
</svg>
