<svg width="24" height="24" viewBox="0 0 24 24" fill="none" xmlns="http://www.w3.org/2000/svg">
    <path fill-rule="evenodd" clip-rule="evenodd"
        d="M9.38099 8.14411C8.90833 8.17037 8.54646 8.57482 8.57271 9.04748L9.00129 16.7618C9.02754 17.2344 9.432 17.5963 9.90466 17.57C10.3773 17.5438 10.7392 17.1393 10.7129 16.6667L10.2844 8.95238C10.2581 8.47973 9.85365 8.11785 9.38099 8.14411Z"
        fill="#E64646" />
    <path fill-rule="evenodd" clip-rule="evenodd"
        d="M14.6189 8.14411C15.0916 8.17037 15.4535 8.57482 15.4272 9.04748L14.9986 16.7618C14.9724 17.2344 14.5679 17.5963 14.0953 17.57C13.6226 17.5438 13.2607 17.1393 13.287 16.6667L13.7156 8.95238C13.7418 8.47973 14.1463 8.11785 14.6189 8.14411Z"
        fill="#E64646" />
    <path fill-rule="evenodd" clip-rule="evenodd"
        d="M2.99997 4.28564C2.52658 4.28564 2.14282 4.6694 2.14282 5.14279C2.14282 5.61617 2.52658 5.99993 2.99997 5.99993H3.93947L5.05163 16.9907C5.11491 17.6162 5.16735 18.1345 5.24356 18.5562C5.32301 18.9957 5.43854 19.3962 5.66235 19.7681C6.01141 20.348 6.52431 20.8116 7.13641 21.1005C7.52889 21.2857 7.93899 21.3604 8.38432 21.3951C8.81154 21.4285 9.33248 21.4285 9.96115 21.4285H14.0388C14.6675 21.4285 15.1884 21.4285 15.6156 21.3951C16.0609 21.3604 16.471 21.2857 16.8635 21.1005C17.4756 20.8116 17.9885 20.348 18.3376 19.7681C18.5614 19.3962 18.6769 18.9957 18.7564 18.5562C18.8326 18.1345 18.885 17.6162 18.9483 16.9908L20.0605 5.99993H21C21.4734 5.99993 21.8571 5.61617 21.8571 5.14279C21.8571 4.6694 21.4734 4.28564 21 4.28564H15.7615C15.3718 2.56794 13.8356 1.28564 12 1.28564C10.1643 1.28564 8.62817 2.56794 8.2384 4.28564H2.99997ZM6.75385 16.785C6.82134 17.452 6.86762 17.9033 6.93052 18.2513C6.99152 18.5888 7.05768 18.762 7.13109 18.884C7.30562 19.174 7.56207 19.4058 7.86812 19.5502C7.99686 19.611 8.17586 19.6594 8.51783 19.6861C8.87037 19.7136 9.32407 19.7142 9.99445 19.7142H14.0055C14.6759 19.7142 15.1296 19.7136 15.4821 19.6861C15.8241 19.6594 16.0031 19.611 16.1318 19.5502C16.4379 19.4058 16.6943 19.174 16.8688 18.884C16.9423 18.762 17.0084 18.5888 17.0694 18.2513C17.1323 17.9033 17.1786 17.452 17.2461 16.785L18.3374 5.99993H5.66251L6.75385 16.785ZM12 2.99993C11.1213 2.99993 10.3661 3.52883 10.0354 4.28564H13.9645C13.6339 3.52883 12.8787 2.99993 12 2.99993Z"
        fill="#E64646" />
</svg>
