<svg width="25" height="24" viewBox="0 0 25 24" fill="none" xmlns="http://www.w3.org/2000/svg">
<path fill-rule="evenodd" clip-rule="evenodd" d="M9.68657 4.10055L13.225 4.10055C13.722 4.10055 14.125 4.50349 14.125 5.00055C14.125 5.4976 13.722 5.90055 13.225 5.90055H9.72497C8.73003 5.90055 8.03795 5.90125 7.49947 5.94524C6.9715 5.98838 6.67093 6.06861 6.4446 6.18393C5.95538 6.4332 5.55763 6.83095 5.30836 7.32017C5.19304 7.5465 5.11281 7.84707 5.06967 8.37504C5.02568 8.91353 5.02498 9.60561 5.02498 10.6005V14.4005C5.02498 15.3955 5.02568 16.0876 5.06967 16.6261C5.11281 17.154 5.19304 17.4546 5.30836 17.6809C5.55763 18.1701 5.95538 18.5679 6.4446 18.8172C6.67093 18.9325 6.9715 19.0127 7.49947 19.0559C8.03795 19.0998 8.73003 19.1005 9.72498 19.1005H13.525C14.5199 19.1005 15.212 19.0998 15.7505 19.0559C16.2785 19.0127 16.579 18.9325 16.8054 18.8172C17.2946 18.5679 17.6923 18.1701 17.9416 17.6809C18.0569 17.4546 18.1371 17.154 18.1803 16.6261C18.2243 16.0876 18.225 15.3955 18.225 14.4005V10.9005C18.225 10.4035 18.6279 10.0005 19.125 10.0005C19.622 10.0005 20.025 10.4035 20.025 10.9005V14.439C20.025 15.3865 20.025 16.1522 19.9743 16.7726C19.9221 17.4119 19.8116 17.9757 19.5454 18.4981C19.1236 19.326 18.4504 19.9991 17.6225 20.421C17.1002 20.6871 16.5363 20.7976 15.8971 20.8499C15.2766 20.9006 14.5109 20.9006 13.5634 20.9005H9.68657C8.73907 20.9006 7.97332 20.9006 7.35289 20.8499C6.71361 20.7976 6.14978 20.6871 5.62742 20.421C4.7995 19.9991 4.12639 19.326 3.70455 18.4981C3.43839 17.9757 3.32788 17.4119 3.27565 16.7726C3.22496 16.1522 3.22497 15.3865 3.22498 14.439V10.5621C3.22497 9.61464 3.22496 8.84889 3.27565 8.22847C3.32788 7.58918 3.43839 7.02536 3.70455 6.50299C4.12639 5.67508 4.7995 5.00196 5.62742 4.58012C6.14978 4.31396 6.7136 4.20345 7.35289 4.15122C7.97331 4.10053 8.73907 4.10054 9.68657 4.10055Z" fill="#007AFF"/>
<path fill-rule="evenodd" clip-rule="evenodd" d="M19.2496 3.32609C19.6792 2.89651 20.3757 2.89651 20.8053 3.32609C21.2348 3.75567 21.2348 4.45215 20.8053 4.88172L20.4517 5.23528C20.2955 5.39149 20.0422 5.39149 19.886 5.23528L18.8961 4.24533C18.7399 4.08912 18.7399 3.83585 18.8961 3.67964L19.2496 3.32609ZM18.649 5.90077L18.2247 5.4765C17.7879 5.03963 17.5048 5.0651 17.0934 5.4765C15.3845 7.18534 13.6757 8.89419 11.9668 10.603C10.0142 12.5556 8.77954 14.4868 9.20912 14.9164C9.6387 15.346 11.5698 14.1113 13.5225 12.1587C15.2313 10.4498 16.9401 8.74093 18.649 7.03214C19.0859 6.59526 19.0604 6.31217 18.649 5.90077Z" fill="#007AFF"/>
</svg>
