<svg width="20" height="20" viewBox="0 0 20 20" fill="none" xmlns="http://www.w3.org/2000/svg">
    <path
        d="M10 2.85693C10.3945 2.85693 10.7143 3.17673 10.7143 3.57122V9.28551L16.4286 9.28551C16.8231 9.28551 17.1429 9.6053 17.1429 9.99979C17.1429 10.3943 16.8231 10.7141 16.4286 10.7141L10.7143 10.7141L10.7143 16.4284C10.7143 16.8229 10.3945 17.1426 10 17.1426C9.60555 17.1426 9.28575 16.8229 9.28575 16.4284L9.28575 10.7141H3.57146C3.17697 10.7141 2.85718 10.3943 2.85718 9.99979C2.85718 9.6053 3.17697 9.28551 3.57146 9.28551H9.28575V3.57122C9.28575 3.17673 9.60555 2.85693 10 2.85693Z"
        fill="#55687D" />
</svg>
