<svg width="24" height="24" viewBox="0 0 24 24" fill="none" xmlns="http://www.w3.org/2000/svg">
<path d="M17.3558 14.1982C17.7077 13.8471 18.2776 13.8478 18.6286 14.1997C18.9797 14.5516 18.979 15.1214 18.6271 15.4725L14.0643 20.0245C11.5536 22.5293 7.48776 22.5245 4.98298 20.0138C4.95572 19.9864 4.95572 19.9864 4.92868 19.9587C2.34868 17.3095 2.35833 13.0843 4.95042 10.447L11.7862 3.49176C13.588 1.65854 16.5347 1.63302 18.3679 3.43477C18.407 3.47324 18.4455 3.5124 18.4833 3.55223L18.5148 3.58555C20.3243 5.49435 20.304 8.49121 18.4689 10.3754L11.5768 17.4519C10.5166 18.5405 8.79579 18.626 7.63278 17.648L7.55711 17.5843C6.39786 16.6094 6.24841 14.8793 7.22332 13.7201C7.25904 13.6776 7.29605 13.6362 7.33428 13.596L11.9727 8.71523C12.3151 8.35493 12.8847 8.34042 13.245 8.68284C13.6053 9.02525 13.6198 9.59491 13.2774 9.95522L8.63906 14.836C8.62592 14.8498 8.6132 14.864 8.60092 14.8786C8.26586 15.277 8.31722 15.8717 8.71565 16.2067L8.79132 16.2704C9.23246 16.6413 9.88516 16.6089 10.2873 16.196L17.1795 9.11949C18.3404 7.92747 18.3532 6.03149 17.2085 4.82389L17.1769 4.79057C17.1538 4.76614 17.1302 4.74213 17.1062 4.71854C15.982 3.61362 14.1749 3.62927 13.07 4.75348L6.23418 11.7087C4.32817 13.648 4.32107 16.7549 6.2182 18.7029C6.23766 18.7228 6.23766 18.7228 6.25728 18.7425C8.05994 20.5494 10.9861 20.5529 12.793 18.7502L17.3558 14.1982Z" fill="#99A2AD"/>
</svg>
