<svg width="24" height="24" viewBox="0 0 24 24" fill="none" xmlns="http://www.w3.org/2000/svg">
<mask id="mask0_322_20932" style="mask-type:alpha" maskUnits="userSpaceOnUse" x="3" y="1" width="19" height="23">
<path fill-rule="evenodd" clip-rule="evenodd" d="M16.2857 23.1424C19.1261 23.1424 21.4286 20.8399 21.4286 17.9996C21.4286 15.1593 19.1261 12.8567 16.2857 12.8567C13.4454 12.8567 11.1429 15.1593 11.1429 17.9996C11.1429 20.8399 13.4454 23.1424 16.2857 23.1424ZM17.1429 15.4282C17.1429 14.9548 16.7591 14.571 16.2857 14.571C15.8123 14.571 15.4286 14.9548 15.4286 15.4282V17.1424H13.7143C13.2409 17.1424 12.8572 17.5262 12.8572 17.9996C12.8572 18.473 13.2409 18.8567 13.7143 18.8567H15.4286V20.571C15.4286 21.0444 15.8123 21.4282 16.2857 21.4282C16.7591 21.4282 17.1429 21.0444 17.1429 20.571V18.8567H18.8572C19.3305 18.8567 19.7143 18.473 19.7143 17.9996C19.7143 17.5262 19.3305 17.1424 18.8572 17.1424H17.1429V15.4282Z" fill="#007AFF"/>
<path d="M6.85716 7.71387C6.85716 7.24048 7.24092 6.85672 7.7143 6.85672H10.2857C10.7591 6.85672 11.1429 7.24048 11.1429 7.71387C11.1429 8.18725 10.7591 8.57101 10.2857 8.57101H7.7143C7.24092 8.57101 6.85716 8.18725 6.85716 7.71387Z" fill="#007AFF"/>
<path d="M6.85716 10.2853C6.85716 9.81191 7.24092 9.42815 7.7143 9.42815H10.2857C10.7591 9.42815 11.1429 9.81191 11.1429 10.2853C11.1429 10.7587 10.7591 11.1424 10.2857 11.1424H7.7143C7.24092 11.1424 6.85716 10.7587 6.85716 10.2853Z" fill="#007AFF"/>
<path fill-rule="evenodd" clip-rule="evenodd" d="M13.9964 2.21748C13.6943 2.02849 13.3805 1.89852 13.0332 1.81847C12.6826 1.73767 12.3753 1.71387 11.6925 1.71387H8.62798C7.52667 1.71387 6.63612 1.91246 5.85473 2.33035C5.07679 2.7464 4.46113 3.36206 4.04508 4.14001C3.62718 4.9214 3.42859 5.81195 3.42859 6.91325V16.4835C3.42859 18.1805 3.58755 19.0037 4.04508 19.8592C4.46113 20.6371 5.07679 21.2528 5.85473 21.6688C6.71023 22.1263 7.53339 22.2853 9.23037 22.2853H9.42859C9.90198 22.2853 10.2857 21.9015 10.2857 21.4282C10.2857 20.9548 9.90198 20.571 9.42859 20.571H9.23037C7.79219 20.571 7.23638 20.4637 6.66319 20.1571C6.18399 19.9009 5.81303 19.5299 5.55676 19.0507C5.25021 18.4775 5.14287 17.9217 5.14287 16.4835V6.91325C5.14287 6.0804 5.27982 5.46628 5.55676 4.94846C5.81303 4.46927 6.18399 4.09831 6.66319 3.84203C7.181 3.5651 7.79512 3.42815 8.62798 3.42815L11.851 3.42862C11.9049 3.42896 11.9549 3.4295 12.0013 3.43025L12 8.14244C12 9.32591 12.9594 10.2853 14.1429 10.2853L18.8551 10.2849C18.8565 10.3737 18.8572 10.4752 18.8572 10.5929V11.1424C18.8572 11.6158 19.2409 11.9996 19.7143 11.9996C20.1877 11.9996 20.5714 11.6158 20.5714 11.1424V10.5929C20.5714 9.90998 20.5476 9.60275 20.4668 9.25215C20.3868 8.90484 20.2568 8.59105 20.0678 8.28887C19.8771 7.98382 19.6766 7.74975 19.1938 7.26688L15.0184 3.09153C14.5356 2.60866 14.3015 2.40825 13.9964 2.21748ZM13.7143 4.21244L13.8063 4.30371L17.9816 8.47906C18.0145 8.51197 18.0455 8.54315 18.0749 8.57277L14.1429 8.57101L14.0658 8.56411C13.8659 8.52782 13.7143 8.35283 13.7143 8.14244V4.21244Z" fill="#007AFF"/>
<path d="M8.57145 12.8567H11.1429C11.6163 12.8567 12 13.2405 12 13.7139C12 14.1873 11.6163 14.571 11.1429 14.571H8.57145V17.1424H9.42859C9.90198 17.1424 10.2857 17.5262 10.2857 17.9996C10.2857 18.473 9.90198 18.8567 9.42859 18.8567H8.57145C7.62467 18.8567 6.85716 18.0892 6.85716 17.1424V14.571C6.85716 13.6242 7.62467 12.8567 8.57145 12.8567Z" fill="#007AFF"/>
</mask>
<g mask="url(#mask0_322_20932)">
<rect width="24" height="24" fill="#007AFF"/>
</g>
</svg>
