<svg width="80" height="80" viewBox="0 0 80 80" fill="none" xmlns="http://www.w3.org/2000/svg">
<path d="M19.4642 8.5H60.5267C66.5846 8.50003 71.4955 13.4109 71.4955 19.4688V60.5312C71.4955 66.5891 66.5846 71.5 60.5267 71.5H19.4642C13.4064 71.5 8.49551 66.5891 8.49548 60.5312V19.4688C8.49551 13.4109 13.4064 8.50003 19.4642 8.5Z" fill="#FFFDF4" stroke="#F4D221"/>
<path d="M49.5352 28.0847C50.4498 27.8027 51.9881 28.2397 51.9992 29.1715V45.2739C51.9997 45.2963 52 45.3187 52 45.3411C52 47.1799 50.2091 48.6706 48 48.6706C45.7909 48.6706 44 47.1799 44 45.3411C44 43.5023 45.7909 42.0117 48 42.0117C48.5106 42.0117 48.9988 42.0913 49.4478 42.2365L49.5065 32.7308L36 36.2452V48.6706C36 50.5094 34.2091 52 32 52C29.7909 52 28 50.5094 28 48.6706C28 46.8318 29.7909 45.3411 32 45.3411C32.5033 45.3411 32.9849 45.4185 33.4286 45.5597V33.4106H33.4336C33.399 32.7704 33.8276 32.1719 34.4909 31.9993L49.5352 28.0847Z" fill="#F7D107"/>
</svg>
