<svg width="197" height="196" viewBox="0 0 197 196" fill="none" xmlns="http://www.w3.org/2000/svg">
<rect x="0.265625" width="196" height="196" rx="64.7295" fill="white"/>
<rect x="0.265625" width="196" height="196" rx="64.7295" fill="url(#paint0_linear_56449_2948)"/>
<rect x="0.265625" width="196" height="196" rx="64.7295" fill="url(#paint1_linear_56449_2948)"/>
<rect x="0.265625" width="196" height="196" rx="64.7295" fill="url(#paint2_linear_56449_2948)"/>
<path fill-rule="evenodd" clip-rule="evenodd" d="M32.7604 68.2245C28.1112 71.7701 25.3828 77.2821 25.3828 83.129V146.492C25.3828 158.915 35.4532 168.985 47.8757 168.985H148.428C160.85 168.985 170.921 158.915 170.921 146.492V83.129C170.921 77.2821 168.192 71.7701 163.543 68.2245L109.518 27.0241C102.805 21.9047 93.4984 21.9047 86.7854 27.0241L32.7604 68.2245ZM41.5537 81.7787V145.632C41.5537 149.772 44.9105 153.129 49.0513 153.129H147.252C151.393 153.129 154.75 149.772 154.75 145.632V81.7787L106.754 115.393C101.59 119.01 94.7141 119.01 89.5496 115.393L41.5537 81.7787Z" fill="white"/>
<defs>
<linearGradient id="paint0_linear_56449_2948" x1="196.266" y1="114.333" x2="143.2" y2="80.4541" gradientUnits="userSpaceOnUse">
<stop offset="0.12998" stop-color="#A033FF"/>
<stop offset="0.610381" stop-color="#0094FF"/>
<stop offset="1" stop-color="#1D90FF"/>
</linearGradient>
<linearGradient id="paint1_linear_56449_2948" x1="90.099" y1="61.25" x2="28.8489" y2="183.75" gradientUnits="userSpaceOnUse">
<stop stop-color="#FFD600" stop-opacity="0"/>
<stop offset="0.563347" stop-color="#FFC700"/>
</linearGradient>
<linearGradient id="paint2_linear_56449_2948" x1="106.432" y1="114.333" x2="175.849" y2="187.833" gradientUnits="userSpaceOnUse">
<stop offset="0.0297327" stop-color="#FF3B30" stop-opacity="0"/>
<stop offset="0.842824" stop-color="#E73B2D"/>
</linearGradient>
</defs>
</svg>
