<svg width="28" height="28" viewBox="0 0 28 28" fill="none" xmlns="http://www.w3.org/2000/svg">
<mask id="mask0_3622_51069" style="mask-type:alpha" maskUnits="userSpaceOnUse" x="3" y="4" width="24" height="19">
<path d="M6.58301 22.1587H21.7443C22.6466 22.1587 23.3453 21.8986 23.8403 21.3785C24.3416 20.8647 24.5923 20.1065 24.5923 19.1039V11.5468C24.3228 11.6595 24.0409 11.741 23.7463 11.7911C23.4581 11.8413 23.1636 11.8601 22.8628 11.8475V19.0475C22.8628 19.4987 22.7437 19.8402 22.5056 20.072C22.2738 20.2976 21.9416 20.4104 21.5093 20.4104H6.58301C6.14437 20.4104 5.80912 20.2976 5.57727 20.072C5.34542 19.8402 5.22949 19.4955 5.22949 19.0381V8.77393C5.22949 8.32275 5.34542 7.98437 5.57727 7.75879C5.80912 7.52694 6.14437 7.41101 6.58301 7.41101H18.4075C18.3824 7.11023 18.3949 6.81258 18.4451 6.51807C18.4952 6.21729 18.5735 5.93217 18.6801 5.66272H6.34802C5.44568 5.66272 4.74386 5.92277 4.24255 6.44287C3.74752 6.95671 3.5 7.71179 3.5 8.70813V19.1039C3.5 20.1065 3.76005 20.8647 4.28015 21.3785C4.80025 21.8986 5.56787 22.1587 6.58301 22.1587ZM14.0649 16.472C14.4159 16.472 14.7574 16.3969 15.0895 16.2465C15.4216 16.0898 15.7568 15.8454 16.0952 15.5133L20.5223 11.1614C20.2968 11.0173 20.0837 10.8543 19.8832 10.6726C19.6889 10.4909 19.5135 10.2935 19.3568 10.0804L15.1365 14.2444C14.936 14.4386 14.748 14.5796 14.5725 14.6674C14.4033 14.7551 14.2341 14.7989 14.0649 14.7989C13.8832 14.7989 13.7046 14.7551 13.5292 14.6674C13.36 14.5796 13.1783 14.4386 12.984 14.2444L5.56787 6.91284L4.44934 8.05957L12.0253 15.5133C12.3574 15.8454 12.6926 16.0898 13.031 16.2465C13.3694 16.3969 13.714 16.472 14.0649 16.472ZM22.5244 20.8616L23.6617 19.7242L17.1198 13.248L15.9918 14.3854L22.5244 20.8616ZM5.70886 20.7488L11.9595 14.5452L10.8315 13.4172L4.57153 19.6208L5.70886 20.7488ZM22.9662 10.541C23.5489 10.541 24.0847 10.3938 24.5735 10.0992C25.0685 9.80473 25.4633 9.40995 25.7578 8.91492C26.0523 8.41988 26.1996 7.87785 26.1996 7.28882C26.1996 6.69352 26.0523 6.15149 25.7578 5.66272C25.4633 5.16768 25.0685 4.77291 24.5735 4.47839C24.0847 4.18388 23.5489 4.03662 22.9662 4.03662C22.3646 4.03662 21.8195 4.18388 21.3307 4.47839C20.8419 4.77291 20.4503 5.16768 20.1558 5.66272C19.8612 6.15149 19.714 6.69352 19.714 7.28882C19.714 7.87785 19.8612 8.41988 20.1558 8.91492C20.4503 9.40995 20.8419 9.80473 21.3307 10.0992C21.8195 10.3938 22.3646 10.541 22.9662 10.541Z" fill="#007AFF"/>
</mask>
<g mask="url(#mask0_3622_51069)">
<rect width="28" height="28" fill="#007AFF"/>
</g>
</svg>
