<svg width="28" height="28" viewBox="0 0 28 28" fill="none" xmlns="http://www.w3.org/2000/svg">
<g clip-path="url(#clip0_3622_51097)">
<path d="M22.59 25.21C22.34 25.21 22.08 25.12 21.89 24.92L2.3 5.71C1.91 5.32 1.9 4.69 2.29 4.3C2.68 3.91 3.31 3.9 3.7 4.29L23.29 23.5C23.68 23.89 23.69 24.52 23.3 24.91C23.1 25.11 22.84 25.21 22.59 25.21Z" fill="#007AFF"/>
<path d="M20.62 11.15C20.39 11.01 20.18 10.84 19.98 10.66C19.79 10.48 19.61 10.28 19.45 10.07L15.96 13.52L17.12 14.66L17.85 13.87L20.61 11.15H20.62Z" fill="#046FE3"/>
<path d="M23.14 11.84C23.08 11.84 23.02 11.84 22.96 11.84V17.14L22.98 20.41L23.95 21.36C24.44 20.85 24.69 20.09 24.69 19.1V11.54C24.42 11.65 24.14 11.73 23.84 11.78C23.61 11.82 23.38 11.84 23.14 11.84Z" fill="#046FE3"/>
<path d="M6.68 20.4C6.5 20.4 6.34 20.38 6.2 20.35L11.6 14.99L12.12 15.5C12.45 15.83 12.79 16.08 13.13 16.23C13.47 16.38 13.81 16.46 14.16 16.46C14.51 16.46 14.85 16.38 15.18 16.23C15.32 16.16 15.46 16.07 15.61 15.97L14.37 14.75C14.3 14.76 14.23 14.78 14.16 14.78C13.98 14.78 13.8 14.74 13.62 14.65C13.45 14.56 13.27 14.42 13.08 14.23L6.22 7.45C6.36 7.42 6.51 7.4 6.68 7.4H6.87L5.28 5.84C4.92 5.97 4.6 6.17 4.34 6.43C3.85 6.94 3.6 7.7 3.6 8.69V19.09C3.6 20.09 3.86 20.85 4.38 21.36C4.9 21.88 5.67 22.14 6.68 22.14H21.84C21.84 22.14 21.88 22.14 21.9 22.14L20.12 20.4H6.68ZM5.33 8.82L10.47 13.87L5.33 18.96V8.82Z" fill="#007AFF"/>
<path d="M25.86 5.65C25.57 5.15 25.17 4.76 24.68 4.47C24.19 4.18 23.66 4.03 23.07 4.03C22.48 4.03 21.92 4.18 21.44 4.47C20.95 4.76 20.56 5.16 20.27 5.65C19.98 6.14 19.83 6.68 19.83 7.28C19.83 7.88 19.98 8.41 20.27 8.91C20.56 9.41 20.96 9.8 21.44 10.09C21.93 10.38 22.47 10.53 23.07 10.53C23.67 10.53 24.19 10.38 24.68 10.09C25.18 9.8 25.57 9.4 25.86 8.91C26.15 8.42 26.3 7.87 26.3 7.28C26.3 6.69 26.15 6.14 25.86 5.65Z" fill="#046FE3"/>
<path d="M18.51 7.4C18.49 7.1 18.5 6.8 18.55 6.51C18.6 6.21 18.68 5.92 18.78 5.65H7.94L9.72 7.4H18.5H18.51Z" fill="#046FE3"/>
</g>
<defs>
<clipPath id="clip0_3622_51097">
<rect width="24.3" height="21.21" fill="white" transform="translate(2 4)"/>
</clipPath>
</defs>
</svg>
