<svg width="29" height="28" viewBox="0 0 29 28" fill="none" xmlns="http://www.w3.org/2000/svg">
<path d="M7.45654 8.68817H14.7483H22.04C22.2607 8.68817 22.4473 8.60803 22.5996 8.44775C22.752 8.28748 22.8281 8.09961 22.8281 7.88412C22.8281 7.66342 22.752 7.47421 22.5996 7.31656C22.4473 7.15891 22.2607 7.08008 22.04 7.08008L7.45654 7.08008C7.24121 7.08008 7.05615 7.15759 6.90088 7.31262C6.74609 7.46765 6.66846 7.65814 6.66846 7.88412C6.66846 8.00409 6.69141 8.11472 6.73682 8.21603C6.77539 8.30115 6.83008 8.3797 6.90088 8.45169C7.05615 8.60934 7.24121 8.68817 7.45654 8.68817Z" fill="#99A2AD"/>
<path d="M9.54395 12.8191H19.8076C19.9888 12.8191 20.1475 12.765 20.2822 12.6567C20.3115 12.6332 20.3398 12.6072 20.3672 12.5787C20.5195 12.4184 20.5957 12.2305 20.5957 12.015C20.5957 11.7943 20.5195 11.6038 20.3672 11.4435C20.2148 11.2832 20.0283 11.2031 19.8076 11.2031H9.54395C9.32324 11.2031 9.13574 11.2819 8.98047 11.4396C8.82568 11.5973 8.74805 11.7891 8.74805 12.015C8.74805 12.2357 8.82568 12.425 8.98047 12.5826C9.13574 12.7403 9.32324 12.8191 9.54395 12.8191Z" fill="#99A2AD"/>
<path d="M7.45654 16.7882H22.04C22.2607 16.7882 22.4473 16.708 22.5996 16.5478C22.752 16.3875 22.8281 16.1996 22.8281 15.9841C22.8281 15.7634 22.752 15.5742 22.5996 15.4166C22.4473 15.2589 22.2607 15.1801 22.04 15.1801H7.45654C7.24121 15.1801 7.05615 15.2576 6.90088 15.4126C6.74609 15.5677 6.66846 15.7581 6.66846 15.9841C6.66846 16.2049 6.74609 16.394 6.90088 16.5517C7.05615 16.7094 7.24121 16.7882 7.45654 16.7882Z" fill="#99A2AD"/>
<path d="M9.54395 20.9191H19.8076C20.0283 20.9191 20.2148 20.839 20.3672 20.6787C20.4663 20.5746 20.5327 20.4588 20.5674 20.3315C20.5864 20.2627 20.5957 20.1906 20.5957 20.1151C20.5957 19.8943 20.5195 19.7038 20.3672 19.5435C20.2148 19.3832 20.0283 19.3031 19.8076 19.3031H9.54395C9.32324 19.3031 9.13574 19.3819 8.98047 19.5396C8.82568 19.6973 8.74805 19.8891 8.74805 20.1151C8.74805 20.3358 8.82568 20.525 8.98047 20.6826C9.0625 20.766 9.15381 20.8274 9.25391 20.8667C9.34326 20.9016 9.43994 20.9191 9.54395 20.9191Z" fill="#99A2AD"/>
</svg>
