<svg width="32" height="32" viewBox="0 0 32 32" fill="none" xmlns="http://www.w3.org/2000/svg">
<path d="M16 7.99998C19.4933 7.99998 22.5067 10.48 23.1867 13.9066L23.5867 15.9066L25.6267 16.0533C27.7067 16.1866 29.3333 17.9333 29.3333 20C29.3333 22.2 27.5333 24 25.3333 24H8C5.05333 24 2.66667 21.6133 2.66667 18.6666C2.66667 15.9333 4.70667 13.6533 7.41333 13.3733L8.84 13.2266L9.50667 11.96C10.7733 9.51998 13.2533 7.99998 16 7.99998ZM16 5.33331C12.1467 5.33331 8.8 7.51998 7.13333 10.72C3.12 11.1466 0 14.5466 0 18.6666C0 23.08 3.58667 26.6666 8 26.6666H25.3333C29.0133 26.6666 32 23.68 32 20C32 16.48 29.2667 13.6266 25.8 13.3866C24.8933 8.78665 20.8533 5.33331 16 5.33331Z" fill="white"/>
<path d="M16 7.99998C19.4933 7.99998 22.5067 10.48 23.1867 13.9066L23.5867 15.9066L25.6267 16.0533C27.7067 16.1866 29.3333 17.9333 29.3333 20C29.3333 22.2 27.5333 24 25.3333 24H8C5.05333 24 2.66667 21.6133 2.66667 18.6666C2.66667 15.9333 4.70667 13.6533 7.41333 13.3733L8.84 13.2266L9.50667 11.96C10.7733 9.51998 13.2533 7.99998 16 7.99998ZM16 5.33331C12.1467 5.33331 8.8 7.51998 7.13333 10.72C3.12 11.1466 0 14.5466 0 18.6666C0 23.08 3.58667 26.6666 8 26.6666H25.3333C29.0133 26.6666 32 23.68 32 20C32 16.48 29.2667 13.6266 25.8 13.3866C24.8933 8.78665 20.8533 5.33331 16 5.33331Z" fill="url(#paint0_linear_6662_1277)"/>
<path d="M16 7.99998C19.4933 7.99998 22.5067 10.48 23.1867 13.9066L23.5867 15.9066L25.6267 16.0533C27.7067 16.1866 29.3333 17.9333 29.3333 20C29.3333 22.2 27.5333 24 25.3333 24H8C5.05333 24 2.66667 21.6133 2.66667 18.6666C2.66667 15.9333 4.70667 13.6533 7.41333 13.3733L8.84 13.2266L9.50667 11.96C10.7733 9.51998 13.2533 7.99998 16 7.99998ZM16 5.33331C12.1467 5.33331 8.8 7.51998 7.13333 10.72C3.12 11.1466 0 14.5466 0 18.6666C0 23.08 3.58667 26.6666 8 26.6666H25.3333C29.0133 26.6666 32 23.68 32 20C32 16.48 29.2667 13.6266 25.8 13.3866C24.8933 8.78665 20.8533 5.33331 16 5.33331Z" fill="url(#paint1_linear_6662_1277)"/>
<path d="M16 7.99998C19.4933 7.99998 22.5067 10.48 23.1867 13.9066L23.5867 15.9066L25.6267 16.0533C27.7067 16.1866 29.3333 17.9333 29.3333 20C29.3333 22.2 27.5333 24 25.3333 24H8C5.05333 24 2.66667 21.6133 2.66667 18.6666C2.66667 15.9333 4.70667 13.6533 7.41333 13.3733L8.84 13.2266L9.50667 11.96C10.7733 9.51998 13.2533 7.99998 16 7.99998ZM16 5.33331C12.1467 5.33331 8.8 7.51998 7.13333 10.72C3.12 11.1466 0 14.5466 0 18.6666C0 23.08 3.58667 26.6666 8 26.6666H25.3333C29.0133 26.6666 32 23.68 32 20C32 16.48 29.2667 13.6266 25.8 13.3866C24.8933 8.78665 20.8533 5.33331 16 5.33331Z" fill="url(#paint2_linear_6662_1277)"/>
<defs>
<linearGradient id="paint0_linear_6662_1277" x1="32" y1="17.7778" x2="-8.23842e-07" y2="17.7778" gradientUnits="userSpaceOnUse">
<stop offset="0.12998" stop-color="#A033FF"/>
<stop offset="0.610381" stop-color="#0094FF"/>
<stop offset="1" stop-color="#4FB500"/>
</linearGradient>
<linearGradient id="paint1_linear_6662_1277" x1="14.6667" y1="12" x2="9.66666" y2="27" gradientUnits="userSpaceOnUse">
<stop stop-color="#FFD600" stop-opacity="0"/>
<stop offset="0.563347" stop-color="#FFC700"/>
</linearGradient>
<linearGradient id="paint2_linear_6662_1277" x1="17.3333" y1="17.7778" x2="24.1578" y2="28.6167" gradientUnits="userSpaceOnUse">
<stop offset="0.0297327" stop-color="#FF3B30" stop-opacity="0"/>
<stop offset="0.842824" stop-color="#E73B2D"/>
</linearGradient>
</defs>
</svg>
