<svg width="24" height="24" viewBox="0 0 24 24" fill="none" xmlns="http://www.w3.org/2000/svg">
<path fill-rule="evenodd" clip-rule="evenodd" d="M5.00001 13.9C5.00001 13.4029 5.40295 13 5.90001 13H10.1C10.5971 13 11 13.4029 11 13.9V18.1C11 18.5971 10.5971 19 10.1 19C9.60294 19 9.2 18.5971 9.2 18.1V16.0728L5.5364 19.7364C5.18492 20.0879 4.61508 20.0879 4.2636 19.7364C3.91213 19.3849 3.91213 18.8151 4.2636 18.4636L7.92721 14.8H5.90001C5.40295 14.8 5.00001 14.3971 5.00001 13.9Z" fill="#99A2AD"/>
<path fill-rule="evenodd" clip-rule="evenodd" d="M19.7364 4.2636C20.0879 4.61508 20.0879 5.18492 19.7364 5.5364L16.0728 9.2H18.0982C18.5952 9.2 18.9982 9.60294 18.9982 10.1C18.9982 10.5971 18.5952 11 18.0982 11H13.9C13.4029 11 13 10.5971 13 10.1V5.90001C13 5.40295 13.4029 5.00001 13.9 5.00001C14.3971 5.00001 14.8 5.40295 14.8 5.90001V7.92721L18.4636 4.2636C18.8151 3.91213 19.3849 3.91213 19.7364 4.2636Z" fill="#99A2AD"/>
</svg>
