<svg width="20" height="20" viewBox="0 0 20 20" fill="none" xmlns="http://www.w3.org/2000/svg">
<path d="M13.3622 5.9235C13.6197 6.18098 13.6395 6.58615 13.4217 6.86636L13.3622 6.93365L6.21939 14.0765C5.9619 14.334 5.55673 14.3538 5.27653 14.1359L5.20924 14.0765L2.35209 11.2194C2.07315 10.9404 2.07315 10.4882 2.35209 10.2092C2.60958 9.95172 3.01475 9.93192 3.29495 10.1498L3.36225 10.2092L5.71431 12.5607L12.3521 5.9235C12.631 5.64455 13.0833 5.64455 13.3622 5.9235ZM17.648 5.9235C17.9054 6.18098 17.9253 6.58615 17.7074 6.86636L17.648 6.93365L10.5051 14.0765C10.2262 14.3555 9.7739 14.3555 9.49495 14.0765C9.23746 13.819 9.21765 13.4139 9.43553 13.1336L9.49495 13.0664L16.6378 5.9235C16.9168 5.64455 17.369 5.64455 17.648 5.9235Z" fill="#007AFF"/>
</svg>
