<svg width="27" height="27" viewBox="0 0 27 27" fill="none" xmlns="http://www.w3.org/2000/svg">
<path d="M6.47998 14.2174C6.81437 13.8824 7.35719 13.8827 7.69189 14.2174L7.69287 14.2184C8.02678 14.5535 8.02609 15.0964 7.69189 15.4313L6.47021 16.653C5.45879 17.6558 5.45879 19.2849 6.47021 20.2877C7.47297 21.2988 9.1012 21.2987 10.104 20.2877L13.6958 16.6959L14.9087 17.9088L11.313 21.5045C9.64164 23.1759 6.92487 23.1757 5.25342 21.5045C3.58199 19.8331 3.58199 17.1164 5.25342 15.4449L6.47998 14.2174ZM12.4058 15.4059C12.3675 15.5521 12.2897 15.6907 12.1704 15.8043C11.8361 16.1386 11.2869 16.1386 10.9526 15.8043C10.0984 14.9499 9.68155 13.8223 9.70068 12.7008L12.4058 15.4059ZM14.5874 10.9528C14.9216 10.6188 15.47 10.6188 15.8042 10.9528C17.1789 12.3275 17.4213 14.4089 16.5347 16.0348L15.2329 14.733C15.5004 13.8553 15.2864 12.8638 14.5874 12.1705C14.236 11.8362 14.236 11.287 14.5874 10.9528ZM15.4448 5.25354C17.1163 3.58211 19.833 3.58211 21.5044 5.25354C23.1756 6.92499 23.1757 9.64176 21.5044 11.3131L20.2739 12.5436C19.94 12.8775 19.3985 12.8779 19.064 12.5446C18.7297 12.2113 18.7281 11.6701 19.061 11.3356L20.2876 10.1041C21.2986 9.10132 21.2987 7.47309 20.2876 6.47034C19.2847 5.45891 17.6557 5.45891 16.6528 6.47034L12.1704 10.9528C12.0471 11.075 11.9384 11.2068 11.8452 11.3453L10.6196 10.1198C10.7222 9.99002 10.8329 9.86451 10.9526 9.74475L15.4448 5.25354Z" fill="#007AFF"/>
<path d="M5.99902 6L20.999 21" stroke="#007AFF" stroke-width="1.8" stroke-miterlimit="10" stroke-linecap="round" stroke-linejoin="round"/>
</svg>
