<svg width="20" height="20" viewBox="0 0 20 20" fill="none" xmlns="http://www.w3.org/2000/svg">
    <path
        d="M17.1395 13.6987C17.0223 15.9353 13.8222 17.5 10 17.5C6.10573 17.5 2.85715 15.8757 2.85715 13.5714V6.42857L2.86047 6.30126C2.97769 4.06469 6.17784 2.5 10 2.5C13.8943 2.5 17.1429 4.12429 17.1429 6.42857V13.5714L17.1395 13.6987ZM15.7151 8.8325C14.4033 9.78273 12.3158 10.3571 10 10.3571C7.6846 10.3571 5.59746 9.78294 4.28566 8.83302L4.28572 10C4.28572 11.2461 6.79348 12.5 10 12.5C13.2065 12.5 15.7143 11.2461 15.7143 10L15.7151 8.8325ZM10 3.92857C6.79348 3.92857 4.28572 5.18245 4.28572 6.42857C4.28572 7.67469 6.79348 8.92857 10 8.92857C13.2065 8.92857 15.7143 7.67469 15.7143 6.42857C15.7143 5.18245 13.2065 3.92857 10 3.92857ZM15.7151 12.4039C14.4033 13.3542 12.3158 13.9286 10 13.9286C7.6846 13.9286 5.59746 13.3544 4.28566 12.4045L4.28572 13.5714L4.28941 13.6545C4.39752 14.8727 6.86473 16.0714 10 16.0714C13.2065 16.0714 15.7143 14.8175 15.7143 13.5714L15.7151 12.4039Z"
        fill="#007AFF" />
</svg>
