<svg width="24" height="24" viewBox="0 0 24 24" fill="none" xmlns="http://www.w3.org/2000/svg">
    <mask id="path-1-inside-1_6043_5751" fill="white">
        <path
            d="M15.5996 3C20.239 3 24 6.76099 24 11.4004C24 16.0394 20.2395 19.7993 15.6006 19.7998V19.8008H6C5.90198 19.8008 5.80397 19.7987 5.70605 19.7939C5.60798 19.7892 5.50984 19.7811 5.41211 19.7715C5.31447 19.7619 5.21716 19.7498 5.12012 19.7354C5.02308 19.721 4.92629 19.7047 4.83008 19.6855C4.73376 19.6664 4.63724 19.6449 4.54199 19.6211C4.44688 19.5973 4.35261 19.5704 4.25879 19.542C4.16482 19.5134 4.07098 19.4833 3.97852 19.4502C3.88617 19.4171 3.79471 19.3812 3.7041 19.3438C3.61344 19.3062 3.52329 19.2666 3.43457 19.2246C3.34592 19.1827 3.25837 19.138 3.17188 19.0918C3.08547 19.0456 3.00006 18.9976 2.91602 18.9473C2.83179 18.8969 2.74864 18.8436 2.66699 18.7891C2.58538 18.7345 2.50463 18.6786 2.42578 18.6201C2.34699 18.5617 2.27018 18.5007 2.19434 18.4385C2.11843 18.3762 2.04347 18.312 1.9707 18.2461C1.89804 18.1802 1.82717 18.1124 1.75781 18.043C1.68843 17.9736 1.62058 17.9028 1.55469 17.8301C1.48883 17.7574 1.42452 17.6832 1.3623 17.6074C1.30001 17.5315 1.23916 17.4539 1.18066 17.375C1.12217 17.2961 1.06626 17.2155 1.01172 17.1338C0.957162 17.0522 0.903997 16.969 0.853516 16.8848C0.803138 16.8008 0.755187 16.7153 0.708984 16.6289C0.662735 16.5423 0.618129 16.4549 0.576172 16.3662C0.534188 16.2774 0.49461 16.1873 0.457031 16.0967C0.419481 16.006 0.383647 15.9147 0.350586 15.8223C0.31751 15.7299 0.287294 15.636 0.258789 15.542C0.23033 15.4482 0.203524 15.3539 0.179688 15.2588C0.155828 15.1635 0.134392 15.067 0.115234 14.9707C0.0961148 14.8745 0.079812 14.7776 0.0654297 14.6807C0.0510346 14.5836 0.0389161 14.4863 0.0292969 14.3887C0.0196688 14.2909 0.0126307 14.1928 0.0078125 14.0947C0.00300563 13.9968 4.62087e-06 13.8988 0 13.8008C0 13.7026 0.00299432 13.604 0.0078125 13.5059C0.0126234 13.408 0.0197001 13.3103 0.0292969 13.2129C0.038925 13.1151 0.0510164 13.017 0.0654297 12.9199C0.0798271 12.8229 0.0960924 12.7261 0.115234 12.6299C0.134374 12.5336 0.155853 12.438 0.179688 12.3428C0.203556 12.2475 0.230284 12.1526 0.258789 12.0586C0.287244 11.9648 0.317577 11.8716 0.350586 11.7793C0.38367 11.6869 0.419451 11.5946 0.457031 11.5039C0.494522 11.4134 0.534298 11.3239 0.576172 11.2354C0.618158 11.1466 0.6627 11.0583 0.708984 10.9717C0.75518 10.8852 0.803147 10.7999 0.853516 10.7158C0.903999 10.6316 0.957159 10.5485 1.01172 10.4668C1.06613 10.3853 1.12232 10.3052 1.18066 10.2266C1.23916 10.1477 1.30001 10.07 1.3623 9.99414C1.42455 9.91822 1.4888 9.84411 1.55469 9.77148C1.62063 9.69872 1.68837 9.62708 1.75781 9.55762C1.8272 9.48829 1.89801 9.42036 1.9707 9.35449C2.04347 9.28857 2.11843 9.2244 2.19434 9.16211C2.27002 9.10001 2.34715 9.03977 2.42578 8.98145C2.50466 8.92295 2.58534 8.86606 2.66699 8.81152C2.7486 8.75693 2.83183 8.70476 2.91602 8.6543C3.0002 8.60383 3.08531 8.55505 3.17188 8.50879C3.25843 8.46245 3.34585 8.41787 3.43457 8.37598C3.52334 8.33398 3.61338 8.29446 3.7041 8.25684C3.79466 8.21937 3.88623 8.1844 3.97852 8.15137C4.07098 8.11828 4.16482 8.08706 4.25879 8.05859C4.35252 8.03012 4.44697 8.00426 4.54199 7.98047C4.63724 7.95654 4.73376 7.93524 4.83008 7.91602C4.92632 7.89689 5.02304 7.87966 5.12012 7.86523C5.21716 7.85089 5.31448 7.83875 5.41211 7.8291C5.50984 7.81953 5.60798 7.8124 5.70605 7.80762C5.80398 7.80276 5.90198 7.80079 6 7.80078C6.09818 7.80078 6.19683 7.80275 6.29492 7.80762C6.3929 7.8124 6.49113 7.81953 6.58887 7.8291C6.68644 7.83875 6.78386 7.85089 6.88086 7.86523C6.97802 7.87967 7.07465 7.89688 7.1709 7.91602C7.26718 7.93522 7.36288 7.95657 7.45801 7.98047C7.55329 8.00431 7.64822 8.03005 7.74219 8.05859C7.78584 8.07182 7.82875 8.08734 7.87207 8.10156C9.15416 5.10204 12.1313 3.00002 15.5996 3Z" />
    </mask>
    <path
        d="M15.5996 3V1.05H15.5996L15.5996 3ZM24 11.4004L25.95 11.4004V11.4004H24ZM15.6006 19.7998L15.6004 17.8498L13.6506 17.85V19.7998H15.6006ZM15.6006 19.8008V21.7508H17.5506V19.8008H15.6006ZM6 19.8008L5.99988 21.7508H6V19.8008ZM5.70605 19.7939L5.61103 21.7416L5.61107 21.7416L5.70605 19.7939ZM5.41211 19.7715L5.60377 17.8309L5.60222 17.8308L5.41211 19.7715ZM5.12012 19.7354L5.4068 17.8065L5.4052 17.8063L5.12012 19.7354ZM4.83008 19.6855L4.44998 21.5981L4.45005 21.5982L4.83008 19.6855ZM4.54199 19.6211L4.06838 21.5127L4.06847 21.5127L4.54199 19.6211ZM4.25879 19.542L3.692 21.4078L3.69348 21.4083L4.25879 19.542ZM3.97852 19.4502L3.32146 21.2862L3.32157 21.2862L3.97852 19.4502ZM3.7041 19.3438L2.95707 21.145L2.95853 21.1456L3.7041 19.3438ZM3.43457 19.2246L2.60055 20.9873L2.60072 20.9873L3.43457 19.2246ZM3.17188 19.0918L2.25268 20.8116L2.25275 20.8116L3.17188 19.0918ZM2.91602 18.9473L3.91851 17.2747L3.91743 17.274L2.91602 18.9473ZM2.66699 18.7891L1.5828 20.4099L1.58389 20.4106L2.66699 18.7891ZM2.42578 18.6201L1.26416 20.1864L1.26427 20.1864L2.42578 18.6201ZM2.19434 18.4385L0.957293 19.9459L0.957423 19.946L2.19434 18.4385ZM1.9707 18.2461L0.66038 19.6902L0.661522 19.6913L1.9707 18.2461ZM1.75781 18.043L3.137 16.6644L3.13611 16.6636L1.75781 18.043ZM1.55469 17.8301L0.109753 19.1395L0.109788 19.1396L1.55469 17.8301ZM1.3623 17.6074L-0.145005 18.8446L-0.144921 18.8447L1.3623 17.6074ZM1.18066 17.375L2.74693 16.2134L2.74687 16.2133L1.18066 17.375ZM1.01172 17.1338L2.63331 16.0508L2.63273 16.0499L1.01172 17.1338ZM0.853516 16.8848L2.52613 15.8823L2.52579 15.8818L0.853516 16.8848ZM0.708984 16.6289L-1.01092 17.5478L-1.01048 17.5487L0.708984 16.6289ZM0.576172 16.3662L-1.18661 17.1999L-1.18658 17.2L0.576172 16.3662ZM0.457031 16.0967L-1.34461 16.8427L-1.34437 16.8433L0.457031 16.0967ZM0.350586 15.8223L2.18662 15.1654L2.18651 15.1651L0.350586 15.8223ZM0.258789 15.542L-1.60727 16.108L-1.60725 16.108L0.258789 15.542ZM0.179688 15.2588L-1.71192 15.7324L-1.71176 15.733L0.179688 15.2588ZM0.115234 14.9707L-1.79737 15.3508L-1.79728 15.3512L0.115234 14.9707ZM0.0654297 14.6807L-1.86349 14.9666L-1.86346 14.9668L0.0654297 14.6807ZM0.0292969 14.3887L-1.91132 14.5798L-1.9113 14.58L0.0292969 14.3887ZM0.0078125 14.0947L-1.93984 14.1903L-1.93984 14.1904L0.0078125 14.0947ZM0 13.8008H-1.95V13.8009L0 13.8008ZM0.0078125 13.5059L-1.93984 13.4101L-1.93984 13.4102L0.0078125 13.5059ZM0.0292969 13.2129L1.96991 13.404L1.96991 13.404L0.0292969 13.2129ZM0.0654297 12.9199L1.9943 13.2062L1.99431 13.2061L0.0654297 12.9199ZM0.115234 12.6299L2.02774 13.0104L2.0278 13.0101L0.115234 12.6299ZM0.179688 12.3428L-1.71188 11.869L-1.71194 11.8692L0.179688 12.3428ZM0.258789 12.0586L-1.60723 11.4925L-1.60725 11.4926L0.258789 12.0586ZM0.350586 11.7793L-1.48529 11.122L-1.48556 11.1227L0.350586 11.7793ZM0.457031 11.5039L2.25843 12.2505L2.25862 12.2501L0.457031 11.5039ZM0.576172 11.2354L-1.18661 10.4016L-1.18665 10.4017L0.576172 11.2354ZM0.708984 10.9717L-1.01078 10.0525L-1.01092 10.0528L0.708984 10.9717ZM0.853516 10.7158L-0.819101 9.7134L-0.81913 9.71345L0.853516 10.7158ZM1.01172 10.4668L2.63323 11.5499L2.63325 11.5499L1.01172 10.4668ZM1.18066 10.2266L-0.385605 9.06497L-0.385612 9.06498L1.18066 10.2266ZM1.3623 9.99414L2.86961 11.2313L2.87027 11.2305L1.3623 9.99414ZM1.55469 9.77148L2.99893 11.0817L2.99962 11.0809L1.55469 9.77148ZM1.75781 9.55762L0.379495 8.17822L0.378709 8.179L1.75781 9.55762ZM1.9707 9.35449L0.661522 7.90931L0.661357 7.90946L1.9707 9.35449ZM2.19434 9.16211L0.957488 7.65456L0.957293 7.65472L2.19434 9.16211ZM2.42578 8.98145L1.26427 7.41512L1.26408 7.41526L2.42578 8.98145ZM2.66699 8.81152L3.75002 10.4331L3.75119 10.4323L2.66699 8.81152ZM2.91602 8.6543L1.91344 6.98177L1.9134 6.9818L2.91602 8.6543ZM3.17188 8.50879L4.091 10.2286L4.09227 10.2279L3.17188 8.50879ZM3.43457 8.37598L4.26719 10.1393L4.26842 10.1387L3.43457 8.37598ZM3.7041 8.25684L2.95853 6.455L2.95713 6.45558L3.7041 8.25684ZM3.97852 8.15137L3.32157 6.31536L3.3214 6.31542L3.97852 8.15137ZM4.25879 8.05859L4.82408 9.92486L4.82556 9.92441L4.25879 8.05859ZM4.54199 7.98047L5.01564 9.87207L5.01706 9.87172L4.54199 7.98047ZM4.83008 7.91602L4.45001 6.00341L4.44841 6.00373L4.83008 7.91602ZM5.12012 7.86523L4.83506 5.93618L4.83343 5.93642L5.12012 7.86523ZM5.41211 7.8291L5.22207 5.88838L5.22039 5.88855L5.41211 7.8291ZM5.70605 7.80762L5.80108 9.7553L5.80268 9.75522L5.70605 7.80762ZM6 7.80078V5.85078H5.99988L6 7.80078ZM6.29492 7.80762L6.19828 9.75522L6.1998 9.7553L6.29492 7.80762ZM6.58887 7.8291L6.78073 5.88856L6.77885 5.88838L6.58887 7.8291ZM6.88086 7.86523L7.16743 5.93641L7.16604 5.9362L6.88086 7.86523ZM7.1709 7.91602L7.5524 6.0037L7.55112 6.00344L7.1709 7.91602ZM7.45801 7.98047L6.98281 9.87168L6.98468 9.87215L7.45801 7.98047ZM7.74219 8.05859L7.17541 9.92441L7.1769 9.92486L7.74219 8.05859ZM7.87207 8.10156L7.26384 9.95428L8.96247 10.5119L9.66514 8.86798L7.87207 8.10156ZM15.5996 3V4.95C19.1621 4.95 22.05 7.83795 22.05 11.4004H24H25.95C25.95 5.68404 21.316 1.05 15.5996 1.05V3ZM24 11.4004L22.05 11.4004C22.05 14.9623 19.1627 17.8494 15.6004 17.8498L15.6006 19.7998L15.6008 21.7498C21.3163 21.7492 25.9499 17.1166 25.95 11.4004L24 11.4004ZM15.6006 19.7998H13.6506V19.8008H15.6006H17.5506V19.7998H15.6006ZM15.6006 19.8008V17.8508H6V19.8008V21.7508H15.6006V19.8008ZM6 19.8008L6.00012 17.8508C5.92911 17.8508 5.86305 17.8493 5.80104 17.8463L5.70605 19.7939L5.61107 21.7416C5.74489 21.7482 5.87486 21.7508 5.99988 21.7508L6 19.8008ZM5.70605 19.7939L5.80108 17.8463C5.74481 17.8435 5.68053 17.8385 5.60377 17.8309L5.41211 19.7715L5.22045 21.712C5.33916 21.7238 5.47114 21.7348 5.61103 21.7416L5.70605 19.7939ZM5.41211 19.7715L5.60222 17.8308C5.53886 17.8246 5.47379 17.8165 5.4068 17.8065L5.12012 19.7354L4.83344 21.6642C4.96053 21.6831 5.09009 21.6993 5.22199 21.7122L5.41211 19.7715ZM5.12012 19.7354L5.4052 17.8063C5.33442 17.7958 5.26977 17.7848 5.21011 17.7729L4.83008 19.6855L4.45005 21.5982C4.5828 21.6245 4.71174 21.6462 4.83504 21.6644L5.12012 19.7354ZM4.83008 19.6855L5.21017 17.7729C5.14273 17.7595 5.07748 17.745 5.01551 17.7295L4.54199 19.6211L4.06847 21.5127C4.19701 21.5449 4.3248 21.5733 4.44998 21.5981L4.83008 19.6855ZM4.54199 19.6211L5.0156 17.7295C4.96045 17.7157 4.89822 17.6982 4.8241 17.6757L4.25879 19.542L3.69348 21.4083C3.80699 21.4426 3.93332 21.4789 4.06838 21.5127L4.54199 19.6211ZM4.25879 19.542L4.82558 17.6762C4.75076 17.6535 4.68887 17.6333 4.63546 17.6142L3.97852 19.4502L3.32157 21.2862C3.45308 21.3333 3.57887 21.3734 3.692 21.4078L4.25879 19.542ZM3.97852 19.4502L4.63557 17.6142C4.57998 17.5943 4.51883 17.5705 4.44968 17.5419L3.7041 19.3438L2.95853 21.1456C3.0706 21.192 3.19235 21.24 3.32146 21.2862L3.97852 19.4502ZM3.7041 19.3438L4.45113 17.5425C4.38488 17.515 4.32414 17.4882 4.26842 17.4619L3.43457 19.2246L2.60072 20.9873C2.72243 21.0449 2.842 21.0973 2.95707 21.145L3.7041 19.3438ZM3.43457 19.2246L4.26859 17.462C4.21438 17.4363 4.15569 17.4066 4.091 17.372L3.17188 19.0918L2.25275 20.8116C2.36105 20.8695 2.47746 20.929 2.60055 20.9873L3.43457 19.2246ZM3.17188 19.0918L4.09107 17.372C4.0285 17.3386 3.97128 17.3063 3.91851 17.2747L2.91602 18.9473L1.91352 20.6198C2.02883 20.689 2.14243 20.7526 2.25268 20.8116L3.17188 19.0918ZM2.91602 18.9473L3.91743 17.274C3.86675 17.2437 3.81133 17.2084 3.75009 17.1675L2.66699 18.7891L1.58389 20.4106C1.68594 20.4788 1.79683 20.55 1.91461 20.6205L2.91602 18.9473ZM2.66699 18.7891L3.75119 17.1683C3.68585 17.1245 3.63275 17.0875 3.5873 17.0538L2.42578 18.6201L1.26427 20.1864C1.3765 20.2697 1.48491 20.3444 1.5828 20.4099L2.66699 18.7891ZM2.42578 18.6201L3.5874 17.0539C3.54215 17.0203 3.49157 16.9805 3.43125 16.931L2.19434 18.4385L0.957423 19.946C1.04878 20.0209 1.15182 20.1031 1.26416 20.1864L2.42578 18.6201ZM2.19434 18.4385L3.43138 16.9311C3.37623 16.8858 3.32574 16.8425 3.27988 16.8009L1.9707 18.2461L0.661522 19.6913C0.7612 19.7816 0.860633 19.8665 0.957293 19.9459L2.19434 18.4385ZM1.9707 18.2461L3.28103 16.8019C3.23378 16.7591 3.18586 16.7133 3.137 16.6644L1.75781 18.043L0.378627 19.4215C0.468471 19.5114 0.562296 19.6012 0.66038 19.6902L1.9707 18.2461ZM1.75781 18.043L3.13611 16.6636C3.08698 16.6145 3.04159 16.5669 2.99959 16.5206L1.55469 17.8301L0.109788 19.1396C0.199572 19.2386 0.289875 19.3328 0.379511 19.4224L1.75781 18.043ZM1.55469 17.8301L2.99962 16.5206C2.953 16.4692 2.90967 16.4191 2.86953 16.3702L1.3623 17.6074L-0.144921 18.8447C-0.0606232 18.9474 0.0246709 19.0456 0.109753 19.1395L1.55469 17.8301ZM1.3623 17.6074L2.86961 16.3703C2.8259 16.317 2.78488 16.2646 2.74693 16.2134L1.18066 17.375L-0.385605 18.5366C-0.30656 18.6432 -0.225887 18.746 -0.145005 18.8446L1.3623 17.6074ZM1.18066 17.375L2.74687 16.2133C2.71288 16.1675 2.6759 16.1145 2.63331 16.0508L1.01172 17.1338L-0.609871 18.2168C-0.543379 18.3164 -0.468529 18.4248 -0.385538 18.5367L1.18066 17.375ZM1.01172 17.1338L2.63273 16.0499C2.59306 15.9906 2.55754 15.9347 2.52613 15.8823L0.853516 16.8848L-0.819101 17.8872C-0.749546 18.0032 -0.678736 18.1138 -0.609293 18.2177L1.01172 17.1338ZM0.853516 16.8848L2.52579 15.8818C2.49472 15.83 2.46253 15.7729 2.42845 15.7092L0.708984 16.6289L-1.01048 17.5487C-0.952152 17.6577 -0.888447 17.7716 -0.818759 17.8878L0.853516 16.8848ZM0.708984 16.6289L2.42889 15.71C2.39404 15.6448 2.3644 15.5863 2.33893 15.5324L0.576172 16.3662L-1.18658 17.2C-1.12814 17.3235 -1.06857 17.4399 -1.01092 17.5478L0.708984 16.6289ZM0.576172 16.3662L2.33896 15.5325C2.31239 15.4763 2.28562 15.4156 2.25843 15.3501L0.457031 16.0967L-1.34437 16.8433C-1.2964 16.959 -1.24402 17.0786 -1.18661 17.1999L0.576172 16.3662ZM0.457031 16.0967L2.25867 15.3506C2.23023 15.282 2.20654 15.2211 2.18662 15.1654L0.350586 15.8223L-1.48545 16.4791C-1.43925 16.6083 -1.39127 16.73 -1.34461 16.8427L0.457031 16.0967ZM0.350586 15.8223L2.18651 15.1651C2.16738 15.1116 2.14723 15.0498 2.12483 14.976L0.258789 15.542L-1.60725 16.108C-1.57264 16.2221 -1.53236 16.3481 -1.48534 16.4794L0.350586 15.8223ZM0.258789 15.542L2.12485 14.976C2.10282 14.9034 2.08524 14.8408 2.07114 14.7845L0.179688 15.2588L-1.71176 15.733C-1.67819 15.8669 -1.64216 15.9929 -1.60727 16.108L0.258789 15.542ZM0.179688 15.2588L2.07129 14.7852C2.05587 14.7236 2.0413 14.6583 2.02774 14.5902L0.115234 14.9707L-1.79728 15.3512C-1.77251 15.4757 -1.74422 15.6034 -1.71192 15.7324L0.179688 15.2588ZM0.115234 14.9707L2.02784 14.5906C2.01611 14.5316 2.00504 14.4668 1.99432 14.3945L0.0654297 14.6807L-1.86346 14.9668C-1.84542 15.0885 -1.82388 15.2174 -1.79737 15.3508L0.115234 14.9707ZM0.0654297 14.6807L1.99435 14.3947C1.98439 14.3275 1.97624 14.2618 1.96989 14.1974L0.0292969 14.3887L-1.9113 14.58C-1.89841 14.7107 -1.88232 14.8396 -1.86349 14.9666L0.0654297 14.6807ZM0.0292969 14.3887L1.96991 14.1976C1.96366 14.1341 1.95885 14.0679 1.95546 13.9991L0.0078125 14.0947L-1.93984 14.1904C-1.93359 14.3177 -1.92432 14.4477 -1.91132 14.5798L0.0292969 14.3887ZM0.0078125 14.0947L1.95547 13.9991C1.95181 13.9246 1.95 13.8594 1.95 13.8007L0 13.8008L-1.95 13.8009C-1.94999 13.9381 -1.9458 14.069 -1.93984 14.1903L0.0078125 14.0947ZM0 13.8008H1.95C1.95 13.7416 1.95182 13.6758 1.95546 13.6015L0.0078125 13.5059L-1.93984 13.4102C-1.94583 13.5321 -1.95 13.6636 -1.95 13.8008H0ZM0.0078125 13.5059L1.95546 13.6016C1.95879 13.5339 1.9636 13.468 1.96991 13.404L0.0292969 13.2129L-1.91131 13.0218C-1.9242 13.1526 -1.93354 13.2822 -1.93984 13.4101L0.0078125 13.5059ZM0.0292969 13.2129L1.96991 13.404C1.97642 13.3379 1.9846 13.2715 1.9943 13.2062L0.0654297 12.9199L-1.86344 12.6336C-1.88257 12.7625 -1.89857 12.8924 -1.91132 13.0218L0.0292969 13.2129ZM0.0654297 12.9199L1.99431 13.2061C2.00511 13.1334 2.01612 13.0688 2.02774 13.0104L0.115234 12.6299L-1.79728 12.2493C-1.82394 12.3834 -1.84546 12.5124 -1.86345 12.6337L0.0654297 12.9199ZM0.115234 12.6299L2.0278 13.0101C2.04069 12.9453 2.05517 12.8808 2.07131 12.8163L0.179688 12.3428L-1.71194 11.8692C-1.74346 11.9951 -1.77194 12.1219 -1.79734 12.2497L0.115234 12.6299ZM0.179688 12.3428L2.07125 12.8166C2.086 12.7577 2.1038 12.694 2.12483 12.6246L0.258789 12.0586L-1.60725 11.4926C-1.64323 11.6112 -1.67889 11.7373 -1.71188 11.869L0.179688 12.3428ZM0.258789 12.0586L2.1248 12.6247C2.14574 12.5557 2.16621 12.4932 2.18673 12.4359L0.350586 11.7793L-1.48556 11.1227C-1.53106 11.25 -1.57125 11.3739 -1.60723 11.4925L0.258789 12.0586ZM0.350586 11.7793L2.18646 12.4366C2.20818 12.376 2.23236 12.3134 2.25843 12.2505L0.457031 11.5039L-1.34437 10.7573C-1.39346 10.8757 -1.44084 10.9978 -1.48529 11.122L0.350586 11.7793ZM0.457031 11.5039L2.25862 12.2501C2.28339 12.1903 2.31017 12.1299 2.339 12.069L0.576172 11.2354L-1.18665 10.4017C-1.24157 10.5179 -1.29435 10.6365 -1.34455 10.7577L0.457031 11.5039ZM0.576172 11.2354L2.33896 12.0691C2.36674 12.0103 2.39691 11.9505 2.42889 11.8906L0.708984 10.9717L-1.01092 10.0528C-1.07151 10.1662 -1.13043 10.2828 -1.18661 10.4016L0.576172 11.2354ZM0.708984 10.9717L2.42875 11.8909C2.46215 11.8284 2.49444 11.7711 2.52616 11.7182L0.853516 10.7158L-0.81913 9.71345C-0.888144 9.82861 -0.951788 9.94212 -1.01078 10.0525L0.708984 10.9717ZM0.853516 10.7158L2.52613 11.7182C2.55728 11.6663 2.59284 11.6104 2.63323 11.5499L1.01172 10.4668L-0.609796 9.38366C-0.678522 9.48654 -0.74928 9.5969 -0.819101 9.7134L0.853516 10.7158ZM1.01172 10.4668L2.63325 11.5499C2.67122 11.4931 2.70903 11.4393 2.74694 11.3881L1.18066 10.2266L-0.385612 9.06498C-0.464386 9.1712 -0.538956 9.2776 -0.609811 9.38368L1.01172 10.4668ZM1.18066 10.2266L2.74693 11.3882C2.78488 11.337 2.8259 11.2845 2.86961 11.2313L1.3623 9.99414L-0.145005 8.757C-0.225887 8.85554 -0.30656 8.95838 -0.385605 9.06497L1.18066 10.2266ZM1.3623 9.99414L2.87027 11.2305C2.9099 11.1821 2.95267 11.1327 2.99893 11.0817L1.55469 9.77148L0.110448 8.46127C0.0249281 8.55553 -0.0607891 8.65428 -0.145656 8.75779L1.3623 9.99414ZM1.55469 9.77148L2.99962 11.0809C3.04715 11.0285 3.09289 10.9803 3.13692 10.9362L1.75781 9.55762L0.378709 8.179C0.283849 8.2739 0.194116 8.36894 0.109753 8.46203L1.55469 9.77148ZM1.75781 9.55762L3.13613 10.937C3.1869 10.8863 3.23458 10.8407 3.28005 10.7995L1.9707 9.35449L0.661357 7.90946C0.561433 8 0.46749 8.09029 0.379495 8.17822L1.75781 9.55762ZM1.9707 9.35449L3.27988 10.7997C3.32574 10.7581 3.37623 10.7148 3.43138 10.6695L2.19434 9.16211L0.957293 7.65472C0.860633 7.73404 0.7612 7.81901 0.661522 7.90931L1.9707 9.35449ZM2.19434 9.16211L3.43118 10.6697C3.48278 10.6273 3.53487 10.5867 3.58749 10.5476L2.42578 8.98145L1.26408 7.41526C1.15943 7.49288 1.05727 7.5727 0.957488 7.65456L2.19434 9.16211ZM2.42578 8.98145L3.5873 10.5478C3.64126 10.5078 3.69578 10.4693 3.75002 10.4331L2.66699 8.81152L1.58397 7.18993C1.47489 7.26278 1.36806 7.33815 1.26427 7.41512L2.42578 8.98145ZM2.66699 8.81152L3.75119 10.4323C3.80101 10.399 3.85634 10.3641 3.91863 10.3268L2.91602 8.6543L1.9134 6.9818C1.80731 7.04539 1.69619 7.11487 1.5828 7.19071L2.66699 8.81152ZM2.91602 8.6543L3.91859 10.3268C3.98125 10.2893 4.03811 10.2569 4.091 10.2286L3.17188 8.50879L2.25275 6.78899C2.13251 6.85325 2.01916 6.9184 1.91344 6.98177L2.91602 8.6543ZM3.17188 8.50879L4.09227 10.2279C4.15624 10.1937 4.21392 10.1644 4.26719 10.1393L3.43457 8.37598L2.60195 6.61267C2.47779 6.6713 2.36063 6.73123 2.25148 6.78967L3.17188 8.50879ZM3.43457 8.37598L4.26842 10.1387C4.32423 10.1123 4.38484 10.0856 4.45108 10.0581L3.7041 8.25684L2.95713 6.45558C2.84192 6.50335 2.72246 6.55567 2.60072 6.61325L3.43457 8.37598ZM3.7041 8.25684L4.44968 10.0587C4.50724 10.0349 4.56898 10.0112 4.63563 9.98731L3.97852 8.15137L3.3214 6.31542C3.20347 6.35763 3.08207 6.40388 2.95853 6.455L3.7041 8.25684ZM3.97852 8.15137L4.63546 9.98737C4.7006 9.96407 4.76379 9.94312 4.82408 9.92486L4.25879 8.05859L3.6935 6.19233C3.56585 6.23099 3.44135 6.2725 3.32157 6.31536L3.97852 8.15137ZM4.25879 8.05859L4.82556 9.92441C4.88499 9.90636 4.94812 9.88898 5.01564 9.87207L4.54199 7.98047L4.06835 6.08887C3.94581 6.11955 3.82006 6.15388 3.69202 6.19278L4.25879 8.05859ZM4.54199 7.98047L5.01706 9.87172C5.07613 9.85688 5.14097 9.84243 5.21175 9.8283L4.83008 7.91602L4.44841 6.00373C4.32656 6.02805 4.19835 6.05621 4.06693 6.08922L4.54199 7.98047ZM4.83008 7.91602L5.21014 9.82862C5.28128 9.81448 5.3464 9.80302 5.4068 9.79405L5.12012 7.86523L4.83343 5.93642C4.69968 5.9563 4.57136 5.9793 4.45001 6.00341L4.83008 7.91602ZM5.12012 7.86523L5.40518 9.79429C5.47327 9.78422 5.53941 9.77602 5.60383 9.76965L5.41211 7.8291L5.22039 5.88855C5.08954 5.90148 4.96105 5.91756 4.83506 5.93618L5.12012 7.86523ZM5.41211 7.8291L5.60215 9.76982C5.66742 9.76343 5.73386 9.75858 5.80108 9.7553L5.70605 7.80762L5.61103 5.85993C5.48209 5.86622 5.35226 5.87563 5.22207 5.88838L5.41211 7.8291ZM5.70605 7.80762L5.80268 9.75522C5.86265 9.75225 5.92788 9.75079 6.00012 9.75078L6 7.80078L5.99988 5.85078C5.87607 5.85079 5.74531 5.85327 5.60943 5.86001L5.70605 7.80762ZM6 7.80078V9.75078C6.07256 9.75078 6.13836 9.75225 6.19828 9.75522L6.29492 7.80762L6.39156 5.86001C6.25529 5.85325 6.1238 5.85078 6 5.85078V7.80078ZM6.29492 7.80762L6.1998 9.7553C6.26703 9.75858 6.33361 9.76344 6.39889 9.76983L6.58887 7.8291L6.77885 5.88838C6.64865 5.87563 6.51878 5.86623 6.39004 5.85994L6.29492 7.80762ZM6.58887 7.8291L6.397 9.76964C6.46163 9.77603 6.52789 9.78425 6.59568 9.79427L6.88086 7.86523L7.16604 5.9362C7.03982 5.91754 6.91126 5.90147 6.78073 5.88856L6.58887 7.8291ZM6.88086 7.86523L6.59429 9.79406C6.65471 9.80304 6.71966 9.81447 6.79068 9.82859L7.1709 7.91602L7.55112 6.00344C7.42964 5.97929 7.30132 5.9563 7.16743 5.93641L6.88086 7.86523ZM7.1709 7.91602L6.7894 9.82833C6.85704 9.84183 6.92136 9.85624 6.98281 9.87168L7.45801 7.98047L7.9332 6.08925C7.8044 6.05689 7.67732 6.02862 7.5524 6.0037L7.1709 7.91602ZM7.45801 7.98047L6.98468 9.87215C7.05562 9.8899 7.11859 9.90715 7.17541 9.92441L7.74219 8.05859L8.30897 6.19278C8.17785 6.15295 8.05097 6.11872 7.93134 6.08879L7.45801 7.98047ZM7.74219 8.05859L7.1769 9.92486C7.1678 9.9221 7.16546 9.92114 7.182 9.92674C7.18578 9.92802 7.18988 9.92942 7.19526 9.93125C7.20021 9.93293 7.20674 9.93516 7.2133 9.93738C7.2265 9.94186 7.24418 9.94782 7.26384 9.95428L7.87207 8.10156L8.48031 6.24885C8.46992 6.24544 8.46843 6.24482 8.43251 6.23267C8.40585 6.22364 8.36023 6.20831 8.30747 6.19233L7.74219 8.05859ZM7.87207 8.10156L9.66514 8.86798C10.6513 6.56071 12.9396 4.95001 15.5996 4.95L15.5996 3L15.5996 1.05C11.3231 1.05002 7.65698 3.64337 6.079 7.33515L7.87207 8.10156Z"
        fill="#55687D" mask="url(#path-1-inside-1_6043_5751)" />
    <path d="M13 9.5V15.5M10 12.5H16" stroke="#55687D" stroke-width="1.95" />
</svg>

