<svg width="28" height="28" viewBox="0 0 28 28" fill="none" xmlns="http://www.w3.org/2000/svg">
    <path
        d="M14 6C19.9941 6 25.5 10.5566 25.5 14C25.5 17.4434 19.9941 22 14 22C8.00594 22 2.5 17.4434 2.5 14C2.5 10.5566 8.00594 6 14 6ZM14 8C9.03573 8 4.5 11.7537 4.5 14C4.5 16.2463 9.03573 20 14 20C18.9643 20 23.5 16.2463 23.5 14C23.5 11.7537 18.9643 8 14 8ZM14 10C16.2091 10 18 11.7909 18 14C18 16.2091 16.2091 18 14 18C11.7909 18 10 16.2091 10 14C10 11.7909 11.7909 10 14 10ZM14 12C12.8954 12 12 12.8954 12 14C12 15.1046 12.8954 16 14 16C15.1046 16 16 15.1046 16 14C16 12.8954 15.1046 12 14 12Z"
        fill="#007AFF" />
</svg>
