<svg width="20" height="20" viewBox="0 0 20 20" fill="none" xmlns="http://www.w3.org/2000/svg">
    <path
        d="M8.3618 2.35228C8.08285 2.07333 7.63059 2.07333 7.35165 2.35228L3.78022 5.9237C3.50127 6.20265 3.50127 6.65491 3.78022 6.93386L7.35165 10.5053C7.63059 10.7842 8.08285 10.7842 8.3618 10.5053C8.64075 10.2263 8.64075 9.77408 8.3618 9.49513L6.00958 7.14235L10.3567 7.14307C12.5264 7.14307 14.2853 8.90195 14.2853 11.0716C14.2853 13.2413 12.5264 15.0002 10.3567 15.0002H7.14244C6.74795 15.0002 6.42815 15.32 6.42815 15.7145C6.42815 16.109 6.74795 16.4288 7.14244 16.4288H10.3567C13.3154 16.4288 15.7139 14.0303 15.7139 11.0716C15.7139 8.11297 13.3154 5.7145 10.3567 5.7145L6.01101 5.71378L8.3618 3.36243C8.61929 3.10494 8.6391 2.69977 8.42122 2.41957L8.3618 2.35228Z"
        fill="white" />
</svg>
