<svg width="212" height="212" viewBox="0 0 212 212" fill="none" xmlns="http://www.w3.org/2000/svg">
    <defs>
        <linearGradient id="paint0_linear_5128_231333" x1="138.5" y1="128.5" x2="138.5" y2="-13"
            gradientUnits="userSpaceOnUse">
            <stop stop-color="#B4BDC9" />
            <stop offset="1" stop-color="#DEE6F0" />
        </linearGradient>
        <linearGradient id="paint1_linear_5128_231333" x1="73.8434" y1="55.5" x2="73.8434"
            y2="140.921" gradientUnits="userSpaceOnUse">
            <stop offset="0.00718201" stop-color="#818C99" />
            <stop offset="1" stop-color="#818C99" stop-opacity="0" />
        </linearGradient>
        <linearGradient id="paint2_linear_5128_231333" x1="75" y1="157.702" x2="75" y2="203"
            gradientUnits="userSpaceOnUse">
            <stop offset="0.00718201" stop-color="#D7E0EA" />
            <stop offset="1" stop-color="#9DA0A4" />
        </linearGradient>
        <linearGradient id="paint3_linear_5128_231333" x1="39.5" y1="158.097" x2="54" y2="197"
            gradientUnits="userSpaceOnUse">
            <stop offset="0.00718201" stop-color="#D7E0EA" />
            <stop offset="1" stop-color="#9DA0A4" />
        </linearGradient>
        <linearGradient id="paint4_linear_5128_231333" x1="103" y1="179.139" x2="103" y2="215"
            gradientUnits="userSpaceOnUse">
            <stop offset="0.00718201" stop-color="#D7E0EA" />
            <stop offset="1" stop-color="#9DA0A4" />
        </linearGradient>
    </defs>
    <path
        d="M195.991 106.095C195.991 118.72 193.419 130.725 188.702 141.635C188.464 142.254 188.178 142.826 187.893 143.445C178.841 163.311 162.834 179.319 142.92 188.275C142.348 188.513 141.777 188.799 141.205 189.037C141.157 189.037 141.11 189.085 141.062 189.085C137.632 190.514 134.107 191.8 130.486 192.801C127.818 193.563 125.15 194.182 122.435 194.706C121.672 194.849 120.91 194.992 120.1 195.088C119.433 195.183 118.719 195.278 118.052 195.373H118.004C117.242 195.469 116.48 195.564 115.717 195.659C115.384 195.707 115.098 195.707 114.764 195.755C113.955 195.85 113.145 195.897 112.335 195.945C111.954 195.993 111.573 195.993 111.191 196.04C110.239 196.088 109.238 196.136 108.285 196.183C107.476 196.183 106.666 196.231 105.856 196.231C67.4099 196.231 34.6333 172.173 21.6751 138.3C21.3416 137.347 20.9604 136.442 20.6746 135.489C17.4827 126.295 15.7676 116.386 15.7676 106.143C15.8153 56.311 56.1667 16.0071 105.903 16.0071C155.64 16.0071 195.991 56.311 195.991 106.095Z"
        fill="#F2F3F5" />
    <path
        d="M142.968 136.299V188.275C142.396 188.513 141.824 188.799 141.253 189.037C141.205 189.037 141.157 189.085 141.11 189.085C137.68 190.514 134.154 191.8 130.534 192.801V136.299H142.968Z"
        fill="#818C99" />
    <path
        d="M180.271 145.685C178.985 146.351 177.603 147.114 176.222 147.876C175.555 148.257 174.888 148.638 174.173 149.067C167.932 149.782 163.74 148.733 160.643 145.685H157.832C153.926 148.114 150.258 149.972 147.209 147.352C147.352 146.78 147.495 146.209 147.637 145.685H146.304C146.208 146.113 146.065 146.59 145.97 147.114C143.302 148.305 141.254 148.781 139.396 148.591C139.396 147.542 139.396 146.59 139.396 145.732H138.157C138.109 155.117 138.205 173.888 139.348 184.511C139.348 184.607 139.348 184.702 139.3 184.797H139.348C139.539 186.56 139.777 188.085 140.015 189.323L141.111 189.085L141.301 189.037C141.301 189.037 141.301 189.037 141.301 188.99C141.063 187.799 140.825 186.274 140.634 184.464C140.825 183.035 141.015 181.701 141.206 180.367L141.301 180.414C141.492 179.747 141.73 179.08 142.016 178.414L142.064 178.461C154.259 162.311 171.458 151.687 183.225 145.732H180.271V145.685ZM146.923 148.734C149.924 150.973 153.307 149.782 156.737 147.876C155.498 149.782 154.117 151.925 152.735 154.165C150.162 155.117 148.066 154.593 146.065 152.497C146.351 151.163 146.637 149.877 146.923 148.734ZM151.735 155.784C150.401 158.023 149.019 160.358 147.733 162.787C146.161 162.93 145.017 162.549 144.207 161.501C144.731 158.738 145.255 156.213 145.732 153.974C147.542 155.641 149.543 156.213 151.735 155.784ZM139.443 149.877C141.254 150.02 143.207 149.639 145.637 148.686C145.351 149.829 145.065 151.116 144.779 152.449C143.207 154.784 141.444 156.022 139.491 156.165C139.443 153.926 139.443 151.782 139.443 149.877ZM139.491 157.452C141.206 157.309 142.778 156.547 144.16 155.165C143.731 157.118 143.35 159.214 142.921 161.501C142.445 163.026 141.873 163.883 141.158 164.217C140.73 164.407 140.206 164.407 139.634 164.217C139.539 161.882 139.491 159.643 139.491 157.452ZM140.11 178.461C139.872 174.507 139.729 169.981 139.586 165.551C140.348 165.741 141.015 165.694 141.635 165.408C141.825 165.312 142.064 165.217 142.254 165.027C141.539 169.028 140.825 173.507 140.11 178.461ZM141.968 174.698C142.635 170.458 143.255 166.551 143.921 163.073C144.779 163.74 145.779 164.121 147.018 164.121C145.16 167.599 143.445 171.22 141.968 174.698ZM143.445 174.507C144.827 171.22 146.494 167.837 148.209 164.55C148.971 165.265 150.115 165.646 151.639 165.789C148.828 168.457 146.065 171.363 143.445 174.507ZM152.973 164.55C150.925 164.55 149.591 164.169 148.876 163.359C150.305 160.691 151.83 158.119 153.307 155.689C155.165 157.118 157.451 158.071 160.215 158.5C157.832 160.358 155.355 162.406 152.973 164.55ZM161.691 157.404C158.499 157.071 155.927 156.165 153.974 154.593C155.879 151.497 157.737 148.638 159.262 146.351C159.309 146.351 159.357 146.304 159.357 146.256C162.597 149.734 166.694 150.639 170.505 150.639C170.886 150.639 171.267 150.639 171.601 150.591C168.552 152.545 165.169 154.784 161.691 157.404Z"
        fill="#818C99" />
    <path
        d="M130.534 136.299V192.801C127.866 193.563 125.198 194.182 122.483 194.706C121.721 194.849 120.958 194.992 120.148 195.087C119.481 195.183 118.767 195.278 118.1 195.373V136.299H130.534Z"
        fill="#B4BDC9" />
    <path opacity="0.12" d="M142.968 139.634H130.534V154.593H142.968V139.634Z" fill="black" />
    <path opacity="0.06" d="M130.487 139.634H118.053V154.593H130.487V139.634Z" fill="black" />
    <path
        d="M198.232 88.4207V145.732H10.4807C9.81369 145.732 9.242 145.446 8.81324 145.018C8.38448 144.589 8.09863 143.969 8.09863 143.35C8.09863 142.016 9.14672 140.968 10.4807 140.968H30.442V88.4207C30.442 64.8387 49.6411 45.6396 73.2231 45.6396H155.451C179.033 45.6396 198.232 64.8387 198.232 88.4207Z"
        fill="url(#paint0_linear_5128_231333)" />
    <path opacity="0.06"
        d="M190.372 63.7431H103.38C101.237 61.2181 98.7117 58.9314 95.9485 57.0734H184.512C186.704 59.0743 188.657 61.3134 190.372 63.7431Z"
        fill="white" />
    <path opacity="0.06"
        d="M181.748 54.6912H91.9934C90.85 54.1195 89.7066 53.5478 88.468 53.0714H179.509C180.271 53.5954 181.033 54.1195 181.748 54.6912Z"
        fill="white" />
    <path opacity="0.2"
        d="M139.633 106.333C144.921 106.333 149.208 102.046 149.208 96.7577C149.208 91.4692 144.921 87.182 139.633 87.182C134.344 87.182 130.057 91.4692 130.057 96.7577C130.057 102.046 134.344 106.333 139.633 106.333Z"
        fill="black" />
    <path
        d="M141.206 104.714C146.495 104.714 150.782 100.427 150.782 95.138C150.782 89.8495 146.495 85.5623 141.206 85.5623C135.918 85.5623 131.631 89.8495 131.631 95.138C131.631 100.427 135.918 104.714 141.206 104.714Z"
        fill="#B4BDC9" />
    <path
        d="M168.362 50.6895L159.93 40.9233L168.362 31.157H144.065H138.587H138.396V91.9462C137.491 92.7084 136.919 93.8518 136.919 95.1381C136.919 97.5201 138.825 99.4257 141.207 99.4257C143.589 99.4257 145.494 97.5201 145.494 95.1381C145.494 93.8518 144.923 92.7084 144.018 91.9462V50.6895H168.362Z"
        fill="#818C99" />
    <path
        d="M117.243 88.4207V140.968H30.4423V88.4207C30.4423 64.8387 49.6414 45.6396 73.2234 45.6396H74.4621C98.0441 45.6396 117.243 64.8387 117.243 88.4207Z"
        fill="#D2D8DF" />
    <path
        d="M112.48 140.921H35.207V88.4208C35.207 67.4114 52.2146 50.4038 73.224 50.4038H74.4627C95.4721 50.4038 112.48 67.4114 112.48 88.4208V140.921Z"
        fill="url(#paint1_linear_5128_231333)" />
    <mask id="mask0_5128_231333" style="mask-type:alpha" x="15" y="16"
        width="181" height="181">
        <path
            d="M195.991 106.095C195.991 118.72 193.419 130.725 188.702 141.635C188.464 142.254 188.178 142.826 187.893 143.445C178.841 163.311 162.834 179.319 142.92 188.275C142.348 188.513 141.777 188.799 141.205 189.037C141.157 189.037 141.11 189.085 141.062 189.085C137.632 190.514 134.107 191.8 130.486 192.801C127.818 193.563 125.15 194.182 122.435 194.706C121.672 194.849 120.91 194.992 120.1 195.088C119.433 195.183 118.719 195.278 118.052 195.373H118.004C117.242 195.469 116.48 195.564 115.717 195.659C115.384 195.707 115.098 195.707 114.764 195.755C113.955 195.85 113.145 195.897 112.335 195.945C111.954 195.993 111.573 195.993 111.191 196.04C110.239 196.088 109.238 196.136 108.285 196.183C107.476 196.183 106.666 196.231 105.856 196.231C67.4099 196.231 34.6333 172.173 21.6751 138.3C21.3416 137.347 20.9604 136.442 20.6746 135.489C17.4827 126.295 15.7676 116.386 15.7676 106.143C15.8153 56.311 56.1667 16.0071 105.903 16.0071C155.64 16.0071 195.991 56.311 195.991 106.095Z"
            fill="#F2F3F5" />
    </mask>
    <g mask="url(#mask0_5128_231333)">
        <circle cx="75" cy="179" r="24" fill="url(#paint2_linear_5128_231333)" />
        <circle cx="39.5" cy="182.5" r="27.5" fill="url(#paint3_linear_5128_231333)" />
        <circle cx="103" cy="196" r="19" fill="url(#paint4_linear_5128_231333)" />
    </g>
    <path
        d="M49 41C50.1046 41 51 40.1046 51 39V18C51 16.8954 50.1046 16 49 16C47.8954 16 47 16.8954 47 18V39C47 40.1046 47.8954 41 49 41Z"
        fill="#AAB5C8" />
    <path
        d="M32.0294 48.0294C32.8104 47.2484 32.8104 45.9821 32.0294 45.201L17.1801 30.3518C16.3991 29.5707 15.1328 29.5707 14.3517 30.3518C13.5707 31.1328 13.5707 32.3992 14.3517 33.1802L29.201 48.0294C29.982 48.8105 31.2483 48.8105 32.0294 48.0294Z"
        fill="#AAB5C8" />
    <path
        d="M25 65C25 63.8954 24.1046 63 23 63H2C0.895432 63 0 63.8954 0 65C0 66.1046 0.895432 67 2 67H23C24.1046 67 25 66.1046 25 65Z"
        fill="#AAB5C8" />
</svg>
