<svg width="44" height="44" viewBox="0 0 44 44" fill="none" xmlns="http://www.w3.org/2000/svg">
<rect width="44" height="44" rx="12" fill="white"/>
<rect width="44" height="44" rx="12" fill="url(#paint0_linear_54754_26390)"/>
<rect width="44" height="44" rx="12" fill="url(#paint1_linear_54754_26390)"/>
<rect width="44" height="44" rx="12" fill="url(#paint2_linear_54754_26390)"/>
<path fill-rule="evenodd" clip-rule="evenodd" d="M14.0242 7.56946C13.7361 7.41539 13.3951 7.33334 12.9384 7.33334H12.7938C12.337 7.33334 11.9961 7.41539 11.708 7.56946C11.4199 7.72354 11.1938 7.94964 11.0397 8.23773C10.8856 8.52583 10.8036 8.86681 10.8036 9.32353L10.8051 9.99225C10.1298 10.1485 9.62458 10.3638 9.11758 10.635C7.9652 11.2513 7.06081 12.1557 6.44451 13.3081C5.8282 14.4604 5.5 15.6035 5.5 18.7556V28.911C5.5 32.0632 5.8282 33.2062 6.44451 34.3586C7.06081 35.511 7.9652 36.4154 9.11758 37.0317C10.27 37.648 11.413 37.9762 14.5652 37.9762H29.4348C32.587 37.9762 33.73 37.648 34.8824 37.0317C36.0348 36.4154 36.9392 35.511 37.5555 34.3586C38.1718 33.2062 38.5 32.0632 38.5 28.911V18.7556C38.5 15.6035 38.1718 14.4604 37.5555 13.3081C36.9392 12.1557 36.0348 11.2513 34.8824 10.635C34.376 10.3641 33.8714 10.1489 33.1972 9.99278L33.1964 9.32353C33.1964 8.86681 33.1144 8.52583 32.9603 8.23773C32.8062 7.94964 32.5801 7.72354 32.292 7.56946C32.0039 7.41539 31.663 7.33334 31.2062 7.33334H31.0616C30.6049 7.33334 30.2639 7.41539 29.9758 7.56946C29.6877 7.72354 29.4616 7.94964 29.3076 8.23773C29.1535 8.52583 29.0714 8.86681 29.0714 9.32353V9.69048L14.9286 9.68812V9.32353C14.9286 8.86681 14.8465 8.52583 14.6924 8.23773C14.5384 7.94964 14.3123 7.72354 14.0242 7.56946ZM11.5891 18.5298H32.4109C33.0938 18.5298 33.3415 18.6009 33.5912 18.7344C33.8409 18.8679 34.0368 19.0639 34.1704 19.3136C34.3039 19.5633 34.375 19.8109 34.375 20.4939V31.1345L34.3591 31.4299C34.2119 32.788 33.0612 33.8452 31.6583 33.8452L13.0934 33.8045L12.7186 33.7991C11.7894 33.7724 11.4002 33.6492 11.0084 33.4389C10.5675 33.2023 10.2217 32.8557 9.98604 32.4143C9.75041 31.9729 9.625 31.5353 9.625 30.3285V20.4939L9.62933 20.2266C9.64659 19.7401 9.71519 19.5276 9.82964 19.3136C9.96317 19.0639 10.1591 18.8679 10.4088 18.7344C10.6585 18.6009 10.9062 18.5298 11.5891 18.5298ZM29.1623 21.4762H27.802C27.014 21.4762 26.7282 21.5582 26.4401 21.7123C26.152 21.8664 25.9259 22.0925 25.7718 22.3806C25.6178 22.6687 25.5357 22.9544 25.5357 23.7425V25.1028C25.5357 25.8908 25.6178 26.1766 25.7718 26.4647C25.9259 26.7527 26.152 26.9788 26.4401 27.1329C26.7282 27.287 27.014 27.3691 27.802 27.3691H29.1623C29.9503 27.3691 30.2361 27.287 30.5242 27.1329C30.8123 26.9788 31.0384 26.7527 31.1924 26.4647C31.3465 26.1766 31.4286 25.8908 31.4286 25.1028V23.7425C31.4286 22.9544 31.3465 22.6687 31.1924 22.3806C31.0384 22.0925 30.8123 21.8664 30.5242 21.7123C30.2361 21.5582 29.9503 21.4762 29.1623 21.4762Z" fill="white"/>
<defs>
<linearGradient id="paint0_linear_54754_26390" x1="44" y1="25.6667" x2="-1.13278e-06" y2="25.6667" gradientUnits="userSpaceOnUse">
<stop offset="0.12998" stop-color="#A033FF"/>
<stop offset="0.610381" stop-color="#0094FF"/>
<stop offset="1" stop-color="#4FB500"/>
</linearGradient>
<linearGradient id="paint1_linear_54754_26390" x1="20.1667" y1="13.75" x2="6.41666" y2="41.25" gradientUnits="userSpaceOnUse">
<stop stop-color="#FFD600" stop-opacity="0"/>
<stop offset="0.563347" stop-color="#FFC700"/>
</linearGradient>
<linearGradient id="paint2_linear_54754_26390" x1="23.8333" y1="25.6667" x2="39.4167" y2="42.1667" gradientUnits="userSpaceOnUse">
<stop offset="0.0297327" stop-color="#FF3B30" stop-opacity="0"/>
<stop offset="0.842824" stop-color="#E73B2D"/>
</linearGradient>
</defs>
</svg>
