<svg xmlns:dc="http://purl.org/dc/elements/1.1/" xmlns:cc="http://creativecommons.org/ns#" xmlns:rdf="http://www.w3.org/1999/02/22-rdf-syntax-ns#"
    xmlns="http://www.w3.org/2000/svg" id="svg17" style="fill-rule:evenodd;clip-rule:evenodd;stroke-linejoin:round;stroke-miterlimit:1.41421;"
    xml:space="preserve" version="1.1" viewBox="0 0 255 255" height="100%" width="100%"><metadata id="metadata23"><rdf:rdf><cc:work rdf:about=""><dc:format>image/svg+xml</dc:format><dc:type rdf:resource="http://purl.org/dc/dcmitype/StillImage"></dc:type></cc:work></rdf:rdf></metadata><defs id="defs21"></defs><rect style="fill:none;" height="255" width="255" y="0" x="0" id="Unified-Inbox"></rect><clipPath id="_clip1"><rect height="255" width="255" y="0" x="0" id="Unified-Inbox1"></rect></clipPath><g transform="matrix(1.7,0,0,1.7564403,-89.25,-96.446136)" id="g15" clip-path="url(#_clip1)"><g id="g7"><path style="fill:#2196f3;fill-rule:nonzero" d="m 67.5,110.098 60,37.492 60,-37.492 v -0.008 l -60,-37.492 -60,37.492 z m 135,-0.008 v 75 c 0,8.284 -6.715,15 -15,15 h -120 c -8.284,0 -15,-6.716 -15,-15 v -75 c 0,-5.457 2.914,-10.233 7.271,-12.858 L 127.5,54.91 195.23,97.232 c 4.356,2.625 7.27,7.401 7.27,12.858 z" class="app-menu-icon-primary-color" id="email.-open"></path><path style="fill:#ffc107" d="m 172.721,71.25 v 48.529 L 127.5,147.566 81.544,119.044 V 71.25 Z" class="app-menu-icon-accent-color" id="email.paper"></path></g><rect id="rect9" style="fill:#ffffff" height="7.039" width="62.359001" y="84.457001" x="96.320999"></rect><rect id="rect11" style="fill:#ffffff" height="7.2399998" width="62.359001" y="98.501999" x="96.320999"></rect><rect id="rect13" style="fill:#ffffff" height="7.2399998" width="49.951" y="112.749" x="96.320999"></rect></g></svg>