<svg width="44" height="44" viewBox="0 0 44 44" fill="none" xmlns="http://www.w3.org/2000/svg">
<rect width="44" height="44" rx="12" fill="white"/>
<rect width="44" height="44" rx="12" fill="url(#paint0_linear_54753_25521)"/>
<rect width="44" height="44" rx="12" fill="url(#paint1_linear_54753_25521)"/>
<rect width="44" height="44" rx="12" fill="url(#paint2_linear_54753_25521)"/>
<path d="M22.0564 7.33334C22.0717 7.34453 22.0893 7.35215 22.108 7.35563C22.117 7.35563 22.1261 7.35981 22.1358 7.36051C22.2433 7.37165 22.3474 7.4046 22.4417 7.45736C22.471 7.47199 22.4988 7.48941 22.5274 7.50543L24.6211 8.68989L27.0694 10.075C27.6617 10.4094 28.2534 10.7443 28.8447 11.0797C28.8816 11.1006 28.9186 11.1201 28.9541 11.1424C29.1812 11.2812 29.34 11.5085 29.3924 11.7695C29.3983 11.797 29.4018 11.825 29.4028 11.8531C29.4028 11.9186 29.4077 11.9841 29.4077 12.0503V14.8776C29.4077 15.9325 29.4077 16.9873 29.4077 18.0422C29.4077 18.0986 29.4077 18.1551 29.4077 18.2108C29.4031 18.3617 29.3589 18.5088 29.2795 18.6372C29.1608 18.8369 28.9736 18.9868 28.7528 19.0587C28.6585 19.0879 28.5608 19.1041 28.4622 19.1068C28.42 19.1065 28.3778 19.103 28.3361 19.0964C28.224 19.084 28.1152 19.0504 28.0156 18.9974C27.9822 18.98 27.9494 18.9612 27.9174 18.9431L24.7709 17.1629L22.5413 15.9039L22.4312 15.8419C22.3431 15.7983 22.2493 15.7671 22.1525 15.7492C22.1295 15.745 22.1063 15.7424 22.0829 15.7416C22.0453 15.7416 22.0076 15.7416 21.97 15.7416C21.8242 15.7425 21.6808 15.7786 21.552 15.8468C21.5143 15.8663 21.4781 15.8879 21.4419 15.9088C20.6485 16.3631 19.8552 16.8176 19.0618 17.2723L16.2052 18.9089C16.1648 18.9326 16.1237 18.9556 16.0826 18.9786C15.9919 19.0278 15.8945 19.0632 15.7934 19.0838C15.775 19.0877 15.7564 19.0903 15.7377 19.0915L15.5983 19.0957C15.4663 19.096 15.336 19.0654 15.2179 19.0065C14.9617 18.8902 14.7712 18.6652 14.6988 18.3934C14.6764 18.3166 14.6647 18.2371 14.664 18.1572V12.051C14.664 12.0133 14.664 11.9757 14.664 11.9388C14.6665 11.8213 14.6901 11.7052 14.7337 11.596C14.807 11.4116 14.9364 11.2549 15.1036 11.148C15.135 11.1278 15.1684 11.1097 15.2005 11.0908L16.8845 10.1252L18.8862 8.97834L20.9103 7.82105L21.4112 7.534L21.5213 7.47199C21.5877 7.43573 21.6578 7.40654 21.7303 7.38489C21.7762 7.37361 21.8227 7.36547 21.8697 7.36051C21.8881 7.3577 21.9054 7.34946 21.9191 7.33682L22.0564 7.33334Z" fill="white"/>
<path d="M7.33331 24.5225C7.36143 24.5147 7.38173 24.4902 7.38417 24.4612C7.39143 24.4055 7.40213 24.3504 7.41622 24.296C7.47653 24.0818 7.60988 23.8955 7.79316 23.7693C7.83148 23.7428 7.87259 23.7191 7.913 23.6996L9.19221 22.9611L12.0426 21.3168L13.1511 20.6765C13.1915 20.6535 13.2326 20.6298 13.2744 20.6068C13.4001 20.5423 13.5393 20.5084 13.6806 20.5078C13.9323 20.5049 14.175 20.601 14.3564 20.7754C14.4701 20.8817 14.5548 21.0153 14.6024 21.1635C14.6317 21.2478 14.6476 21.3362 14.6498 21.4255C14.6498 21.477 14.6498 21.5286 14.6498 21.5801V27.5296C14.6498 27.5902 14.6498 27.6515 14.6498 27.7121C14.6556 28.0224 14.8114 28.3107 15.0678 28.4855C15.1096 28.5148 15.1556 28.5399 15.2002 28.5649L16.4153 29.2443L18.9194 30.644L20.4703 31.5094C20.5114 31.5324 20.5525 31.5547 20.5922 31.579C20.8063 31.7029 20.9616 31.9075 21.0235 32.1469C21.0582 32.2689 21.067 32.3968 21.0493 32.5224C21.0342 32.634 21.0008 32.7423 20.9504 32.8429C20.8723 32.9938 20.7545 33.1206 20.6097 33.2094C20.57 33.2345 20.5281 33.2561 20.487 33.2791L16.4334 35.5086L15.0532 36.266C15.0162 36.2862 14.9835 36.3078 14.9424 36.3266C14.8798 36.3589 14.814 36.3844 14.7459 36.4026C14.6505 36.4276 14.5518 36.4381 14.4533 36.4339C14.293 36.4261 14.1373 36.3782 14.0004 36.2946L13.5761 36.0451L7.93948 32.7314C7.90325 32.7105 7.8698 32.6896 7.83078 32.6666C7.61359 32.5321 7.45948 32.3159 7.40299 32.0668C7.39254 32.0256 7.38975 31.9831 7.38208 31.942C7.37843 31.9232 7.36523 31.9076 7.34725 31.9009C7.34294 31.8992 7.33852 31.8978 7.33401 31.8968L7.33331 24.5225Z" fill="white"/>
<path d="M29.2915 36.4798C29.2812 36.4707 29.2697 36.4629 29.2574 36.4568C29.222 36.4444 29.1859 36.4339 29.1494 36.4255C29.0623 36.4058 28.9785 36.3736 28.9006 36.33C28.8554 36.3049 28.8115 36.2785 28.7669 36.2527L26.6843 35.0508L23.6019 33.2734C23.5692 33.2546 23.5365 33.2365 23.5051 33.2163C23.2919 33.0833 23.1413 32.8701 23.0871 32.6248C23.0718 32.5609 23.064 32.4954 23.0641 32.4297C23.0527 32.1087 23.2068 31.8043 23.4724 31.6236C23.511 31.5982 23.551 31.575 23.5922 31.5539L25.3494 30.5464L27.7183 29.1898L28.8289 28.5537C28.8777 28.5259 28.9271 28.4987 28.9745 28.4687C29.1555 28.3566 29.2938 28.1871 29.3675 27.9873C29.393 27.9217 29.4101 27.8531 29.4183 27.7831C29.4267 27.7086 29.4309 27.6337 29.4309 27.5588C29.4309 27.2912 29.4309 27.0244 29.4309 26.7568C29.4309 25.0503 29.4309 23.344 29.4309 21.6379C29.4309 21.5905 29.4309 21.5438 29.4309 21.4986C29.4309 21.4533 29.4309 21.4233 29.435 21.3864C29.447 21.1631 29.541 20.9522 29.6991 20.7941C29.818 20.6728 29.9675 20.5859 30.1318 20.5426C30.2039 20.5217 30.2783 20.5098 30.3533 20.507C30.5088 20.5045 30.6625 20.5396 30.8014 20.6095C30.839 20.6283 30.8759 20.6492 30.9121 20.6708L32.3251 21.4853L34.8104 22.9199L36.1133 23.6717C36.1544 23.6954 36.1948 23.7184 36.2352 23.7414C36.4006 23.842 36.531 23.9911 36.6087 24.1685C36.6234 24.198 36.633 24.2298 36.6372 24.2625C36.6426 24.2851 36.6528 24.3063 36.6672 24.3245V32.0911C36.6513 32.1014 36.6408 32.1182 36.6386 32.1371C36.6334 32.1744 36.6221 32.2106 36.6052 32.2444C36.5294 32.412 36.4061 32.5537 36.2505 32.6519C36.2115 32.6777 36.1704 32.7007 36.13 32.7216L34.2147 33.8197L29.9451 36.2687C29.9088 36.2896 29.8754 36.3112 29.835 36.3307C29.7574 36.3745 29.6738 36.4067 29.5869 36.4262C29.5548 36.4334 29.5231 36.4427 29.4922 36.454C29.479 36.4587 29.468 36.4678 29.4608 36.4798H29.2915Z" fill="white"/>
<defs>
<linearGradient id="paint0_linear_54753_25521" x1="44" y1="25.6667" x2="-1.13278e-06" y2="25.6667" gradientUnits="userSpaceOnUse">
<stop offset="0.12998" stop-color="#A033FF"/>
<stop offset="0.610381" stop-color="#0094FF"/>
<stop offset="1" stop-color="#4FB500"/>
</linearGradient>
<linearGradient id="paint1_linear_54753_25521" x1="20.1667" y1="13.75" x2="6.41666" y2="41.25" gradientUnits="userSpaceOnUse">
<stop stop-color="#FFD600" stop-opacity="0"/>
<stop offset="0.563347" stop-color="#FFC700"/>
</linearGradient>
<linearGradient id="paint2_linear_54753_25521" x1="23.8333" y1="25.6667" x2="39.4167" y2="42.1667" gradientUnits="userSpaceOnUse">
<stop offset="0.0297327" stop-color="#FF3B30" stop-opacity="0"/>
<stop offset="0.842824" stop-color="#E73B2D"/>
</linearGradient>
</defs>
</svg>
