<svg width="24" height="24" viewBox="0 0 24 24" fill="none" xmlns="http://www.w3.org/2000/svg">
<path d="M8.0056 6.82733C7.68016 6.50189 7.15252 6.50189 6.82709 6.82733C6.50165 7.15277 6.50165 7.6804 6.82709 8.00584L10.8212 11.9999L6.82709 15.994C6.50165 16.3194 6.50165 16.8471 6.82709 17.1725C7.15252 17.4979 7.68016 17.4979 8.0056 17.1725L11.9997 13.1784L15.9938 17.1725C16.3192 17.4979 16.8468 17.4979 17.1723 17.1725C17.4977 16.8471 17.4977 16.3194 17.1723 15.994L13.1782 11.9999L17.1723 8.00584C17.4977 7.6804 17.4977 7.15277 17.1723 6.82733C16.8468 6.50189 16.3192 6.50189 15.9938 6.82733L11.9997 10.8214L8.0056 6.82733Z" fill="#99A2AD"/>
</svg>
