<svg width="28" height="28" viewBox="0 0 28 28" fill="none" xmlns="http://www.w3.org/2000/svg">
<path d="M22.5875 25.2075C22.3375 25.2075 22.0775 25.1175 21.8875 24.9175L2.29755 5.70755C1.90755 5.31755 1.89755 4.68755 2.28755 4.29755C2.67755 3.90755 3.30755 3.89755 3.69755 4.28755L23.2875 23.4975C23.6775 23.8875 23.6875 24.5175 23.2975 24.9075C23.0975 25.1075 22.8375 25.2075 22.5875 25.2075Z" fill="#007AFF"/>
<path d="M20.6175 11.1475C20.3875 11.0075 20.1775 10.8375 19.9775 10.6575C19.7875 10.4775 19.6075 10.2775 19.4475 10.0675L15.9575 13.5175L17.1175 14.6575L17.8475 13.8675L20.6075 11.1475H20.6175Z" fill="#007AFF"/>
<path d="M23.1375 11.8375C23.0775 11.8375 23.0175 11.8375 22.9575 11.8375V17.1375L22.9775 20.4075L23.9475 21.3575C24.4375 20.8475 24.6875 20.0875 24.6875 19.0975V11.5375C24.4175 11.6475 24.1375 11.7275 23.8375 11.7775C23.6075 11.8175 23.3775 11.8375 23.1375 11.8375Z" fill="#007AFF"/>
<path d="M6.67755 20.3975C6.49755 20.3975 6.33755 20.3775 6.19755 20.3475L11.5975 14.9875L12.1175 15.4975C12.4475 15.8275 12.7875 16.0775 13.1275 16.2275C13.4675 16.3775 13.8075 16.4575 14.1575 16.4575C14.5075 16.4575 14.8475 16.3775 15.1775 16.2275C15.3175 16.1575 15.4575 16.0675 15.6075 15.9675L14.3675 14.7475C14.2975 14.7575 14.2275 14.7775 14.1575 14.7775C13.9775 14.7775 13.7975 14.7375 13.6175 14.6475C13.4475 14.5575 13.2675 14.4175 13.0775 14.2275L6.21755 7.44755C6.35755 7.41755 6.50755 7.39755 6.67755 7.39755H6.86755L5.27755 5.83755C4.91755 5.96755 4.59755 6.16755 4.33755 6.42755C3.84755 6.93755 3.59755 7.69755 3.59755 8.68755V19.0875C3.59755 20.0875 3.85755 20.8475 4.37755 21.3575C4.89755 21.8775 5.66755 22.1375 6.67755 22.1375H21.8375C21.8375 22.1375 21.8775 22.1375 21.8975 22.1375L20.1175 20.3975H6.67755ZM5.32755 8.81755L10.4675 13.8675L5.32755 18.9575V8.81755Z" fill="#007AFF"/>
<path d="M25.8575 5.64755C25.5675 5.14755 25.1675 4.75755 24.6775 4.46755C24.1875 4.17755 23.6575 4.02755 23.0675 4.02755C22.4775 4.02755 21.9175 4.17755 21.4375 4.46755C20.9475 4.75755 20.5575 5.15755 20.2675 5.64755C19.9775 6.13755 19.8275 6.67755 19.8275 7.27755C19.8275 7.87755 19.9775 8.40755 20.2675 8.90755C20.5575 9.40755 20.9575 9.79755 21.4375 10.0875C21.9275 10.3775 22.4675 10.5275 23.0675 10.5275C23.6675 10.5275 24.1875 10.3775 24.6775 10.0875C25.1775 9.79755 25.5675 9.39755 25.8575 8.90755C26.1475 8.41755 26.2975 7.86755 26.2975 7.27755C26.2975 6.68755 26.1475 6.13755 25.8575 5.64755Z" fill="#007AFF"/>
<path d="M18.5075 7.39755C18.4875 7.09755 18.4975 6.79755 18.5475 6.50755C18.5975 6.20755 18.6775 5.91755 18.7775 5.64755H7.93755L9.71755 7.39755H18.5075Z" fill="#007AFF"/>
</svg>
