<svg width="29" height="28" viewBox="0 0 29 28" fill="none" xmlns="http://www.w3.org/2000/svg">
<path fill-rule="evenodd" clip-rule="evenodd" d="M6.29974 11.363C5.64352 9.68427 5.18355 8.38614 4.97958 7.55641C4.72802 6.53304 4.30525 5.39996 4.72751 4.36814C4.9841 3.74113 5.52414 3.23562 6.24898 3.06256C7.19901 2.83573 8.09615 3.28478 8.91149 3.72161C10.6895 4.67424 19.9876 9.53757 22.2322 10.7184C23.543 11.4081 25.4293 12.1465 25.4986 13.8801C25.5657 15.5577 23.9425 16.3119 22.6828 16.9746C18.0796 19.396 13.5049 21.8725 8.88786 24.2674C8.04853 24.7028 7.12418 25.1768 6.15223 24.931C5.35673 24.7299 4.8245 24.1393 4.61358 23.4819C4.42674 22.8995 4.5065 22.3002 4.64584 21.7192C5.06003 19.9923 5.63835 18.304 6.28013 16.6498C6.70966 15.5427 7.4723 14.6277 8.43094 13.995C7.48297 13.3652 6.72808 12.4587 6.29974 11.363ZM12.7168 13.2526C13.7414 13.459 14.2586 13.5703 14.3671 13.7486C14.4649 13.9092 14.4642 14.1116 14.3654 14.2715C14.2503 14.4578 13.6864 14.5673 12.5585 14.7863C11.7809 14.9373 11.1426 15.0605 10.9462 15.0967C9.66349 15.3327 8.60158 16.1956 8.14471 17.3732C7.59831 18.7816 7.11365 20.1892 6.7285 21.6491C6.33953 23.1235 6.27452 23.3699 7.96696 22.492C12.6407 20.0677 17.2741 17.5653 21.9315 15.1097C22.9677 14.5632 23.4977 14.2702 23.5004 13.9724C23.5031 13.6774 22.9883 13.3777 21.936 12.8223C17.2847 10.3672 12.603 7.96841 7.96696 5.48453C6.30148 4.5922 6.37877 4.90178 6.82039 6.67074C7.15914 8.02761 7.65367 9.33323 8.16247 10.6348C8.62094 11.8076 9.67999 12.6666 10.9585 12.9026C11.5462 13.0111 12.131 13.1345 12.7168 13.2526Z" fill="white"/>
</svg>
