<svg width="60" height="60" viewBox="0 0 60 60" fill="none" xmlns="http://www.w3.org/2000/svg">
    <rect width="60" height="60" rx="30" fill="#F2F3F5" />
    <path
        d="M38.5 26C38.5 24.0662 36.9338 22.5 35 22.5C33.0662 22.5 31.5 24.0662 31.5 26C31.5 27.9338 33.0662 29.5 35 29.5C36.9338 29.5 38.5 27.9338 38.5 26ZM35 31C37.4706 31 42 31.8571 42 35.2857C42 36.7857 41.5882 37 40.7647 37L33.7546 37.0011C33.9174 36.5134 34 35.9402 34 35.2857C34 33.5963 33.3723 32.2767 32.3292 31.2922C33.2862 31.081 34.2404 31 35 31ZM25 31C27.4706 31 32 31.8571 32 35.2857C32 36.7857 31.5882 37 30.7647 37H19.2353C18.4118 37 18 36.7857 18 35.2857C18 31.8571 22.5294 31 25 31ZM25 22.5C26.9338 22.5 28.5 24.0662 28.5 26C28.5 27.9338 26.9338 29.5 25 29.5C23.0662 29.5 21.5 27.9338 21.5 26C21.5 24.0662 23.0662 22.5 25 22.5Z"
        fill="#AEB7C2" />
</svg>
