<svg width="20" height="20" viewBox="0 0 20 20" fill="none" xmlns="http://www.w3.org/2000/svg">
<path fill-rule="evenodd" clip-rule="evenodd" d="M4.8246 7.21358C5.16498 8.25721 6.14611 9.01133 7.30337 9.01133C8.46063 9.01133 9.44176 8.25721 9.78214 7.21358C12.2518 7.21358 14.7214 7.21358 17.191 7.21358C17.6378 7.21358 18 6.85139 18 6.40459C18 5.9578 17.6378 5.5956 17.191 5.5956C14.7214 5.5956 12.2518 5.5956 9.78214 5.5956C9.77341 5.56831 9.7851 5.60468 9.78214 5.5956C9.44176 4.55197 8.46063 3.79785 7.30337 3.79785C6.14611 3.79785 5.16498 4.55197 4.8246 5.5956C4.15273 5.5956 3.48086 5.5956 2.80899 5.5956C2.3622 5.5956 2 5.9578 2 6.40459C2 6.85139 2.3622 7.21358 2.80899 7.21358C3.48086 7.21358 4.15273 7.21358 4.8246 7.21358ZM7.30337 5.41583C6.75729 5.41583 6.31461 5.85851 6.31461 6.40459C6.31461 6.95067 6.75729 7.39336 7.30337 7.39336C7.84945 7.39336 8.29214 6.95067 8.29214 6.40459C8.29214 5.85851 7.84945 5.41583 7.30337 5.41583Z" fill="#686E76"/>
<path fill-rule="evenodd" clip-rule="evenodd" d="M2 13.5956C2 13.1488 2.3622 12.7866 2.80899 12.7866C5.27861 12.7866 7.74823 12.7866 10.2179 12.7866C10.5582 11.743 11.5394 10.9889 12.6966 10.9889C13.8539 10.9889 14.835 11.743 15.1754 12.7866C15.1754 12.7866 16.7223 12.7866 17.191 12.7866C17.6378 12.7866 18 13.1488 18 13.5956C18 14.0424 17.6378 14.4046 17.191 14.4046C16.9912 14.4046 15.1754 14.4046 15.1754 14.4046C14.835 15.4482 13.8539 16.2023 12.6966 16.2023C11.5394 16.2023 10.5582 15.4482 10.2179 14.4046C7.74823 14.4046 5.27861 14.4046 2.80899 14.4046C2.3622 14.4046 2 14.0424 2 13.5956ZM11.7079 13.5956C11.7079 13.0495 12.1506 12.6068 12.6966 12.6068C13.2427 12.6068 13.6854 13.0495 13.6854 13.5956C13.6854 14.1417 13.2427 14.5844 12.6966 14.5844C12.1506 14.5844 11.7079 14.1417 11.7079 13.5956Z" fill="#686E76"/>
</svg>
