<svg width="45" height="44" viewBox="0 0 45 44" fill="none" xmlns="http://www.w3.org/2000/svg">
<path d="M22.5 0C34.6503 0 44.5 9.84974 44.5 22C44.5 34.1503 34.6503 44 22.5 44C10.3497 44 0.5 34.1503 0.5 22C0.5 9.84974 10.3497 0 22.5 0ZM7.95108 9.39432C5.02236 12.7716 3.25 17.1788 3.25 22C3.25 32.6315 11.8685 41.25 22.5 41.25C27.3212 41.25 31.7284 39.4776 35.1057 36.5489L7.95108 9.39432ZM22.5 2.75C17.6788 2.75 13.2716 4.52236 9.89432 7.45108L37.0489 34.6057C39.9776 31.2284 41.75 26.8212 41.75 22C41.75 11.3685 33.1315 2.75 22.5 2.75Z" fill="#818C99"/>
</svg>
