<svg width="21" height="20" viewBox="0 0 21 20" fill="none" xmlns="http://www.w3.org/2000/svg">
<path fill-rule="evenodd" clip-rule="evenodd" d="M9.5 2C9.31434 2.0001 9.13237 2.05188 8.97447 2.14955C8.81658 2.24722 8.68899 2.38692 8.606 2.553L7.882 4H4.5C4.23478 4 3.98043 4.10536 3.79289 4.29289C3.60536 4.48043 3.5 4.73478 3.5 5C3.5 5.26522 3.60536 5.51957 3.79289 5.70711C3.98043 5.89464 4.23478 6 4.5 6V16C4.5 16.5304 4.71071 17.0391 5.08579 17.4142C5.46086 17.7893 5.96957 18 6.5 18H14.5C15.0304 18 15.5391 17.7893 15.9142 17.4142C16.2893 17.0391 16.5 16.5304 16.5 16V6C16.7652 6 17.0196 5.89464 17.2071 5.70711C17.3946 5.51957 17.5 5.26522 17.5 5C17.5 4.73478 17.3946 4.48043 17.2071 4.29289C17.0196 4.10536 16.7652 4 16.5 4H13.118L12.394 2.553C12.311 2.38692 12.1834 2.24722 12.0255 2.14955C11.8676 2.05188 11.6857 2.0001 11.5 2H9.5ZM7.5 8C7.5 7.73478 7.60536 7.48043 7.79289 7.29289C7.98043 7.10536 8.23478 7 8.5 7C8.76522 7 9.01957 7.10536 9.20711 7.29289C9.39464 7.48043 9.5 7.73478 9.5 8V14C9.5 14.2652 9.39464 14.5196 9.20711 14.7071C9.01957 14.8946 8.76522 15 8.5 15C8.23478 15 7.98043 14.8946 7.79289 14.7071C7.60536 14.5196 7.5 14.2652 7.5 14V8ZM12.5 7C12.2348 7 11.9804 7.10536 11.7929 7.29289C11.6054 7.48043 11.5 7.73478 11.5 8V14C11.5 14.2652 11.6054 14.5196 11.7929 14.7071C11.9804 14.8946 12.2348 15 12.5 15C12.7652 15 13.0196 14.8946 13.2071 14.7071C13.3946 14.5196 13.5 14.2652 13.5 14V8C13.5 7.73478 13.3946 7.48043 13.2071 7.29289C13.0196 7.10536 12.7652 7 12.5 7Z" fill="#007AFF"/>
</svg>
