<svg width="16" height="16" viewBox="0 0 16 16" fill="none" xmlns="http://www.w3.org/2000/svg">
<path fill-rule="evenodd" clip-rule="evenodd" d="M2.8246 5.21346C3.16498 6.25709 4.14611 7.01121 5.30337 7.01121C6.46063 7.01121 7.44176 6.25709 7.78214 5.21346C10.2518 5.21346 12.7214 5.21346 15.191 5.21346C15.6378 5.21346 16 4.85126 16 4.40447C16 3.95768 15.6378 3.59548 15.191 3.59548C12.7214 3.59548 10.2518 3.59548 7.78214 3.59548C7.77341 3.56819 7.7851 3.60456 7.78214 3.59548C7.44176 2.55185 6.46063 1.79773 5.30337 1.79773C4.14611 1.79773 3.16498 2.55185 2.8246 3.59548C2.15273 3.59548 1.48086 3.59548 0.808989 3.59548C0.362197 3.59548 0 3.95768 0 4.40447C0 4.85126 0.362197 5.21346 0.808989 5.21346C1.48086 5.21346 2.15273 5.21346 2.8246 5.21346ZM5.30337 3.41571C4.75729 3.41571 4.31461 3.85839 4.31461 4.40447C4.31461 4.95055 4.75729 5.39324 5.30337 5.39324C5.84945 5.39324 6.29214 4.95055 6.29214 4.40447C6.29214 3.85839 5.84945 3.41571 5.30337 3.41571Z" fill="#007AFF"/>
<path fill-rule="evenodd" clip-rule="evenodd" d="M0 11.5955C0 11.1487 0.362197 10.7865 0.808989 10.7865C3.27861 10.7865 5.74824 10.7865 8.21786 10.7865C8.55824 9.74286 9.53937 8.98874 10.6966 8.98874C11.8539 8.98874 12.835 9.74286 13.1754 10.7865C13.1754 10.7865 14.7223 10.7865 15.191 10.7865C15.6378 10.7865 16 11.1487 16 11.5955C16 12.0423 15.6378 12.4045 15.191 12.4045C14.9912 12.4045 13.1754 12.4045 13.1754 12.4045C12.835 13.4481 11.8539 14.2022 10.6966 14.2022C9.53937 14.2022 8.55824 13.4481 8.21786 12.4045C5.74824 12.4045 3.27861 12.4045 0.808989 12.4045C0.362197 12.4045 0 12.0423 0 11.5955ZM9.70787 11.5955C9.70787 11.0494 10.1506 10.6067 10.6966 10.6067C11.2427 10.6067 11.6854 11.0494 11.6854 11.5955C11.6854 12.1416 11.2427 12.5842 10.6966 12.5842C10.1506 12.5842 9.70787 12.1416 9.70787 11.5955Z" fill="#007AFF"/>
</svg>
