<svg width="13" height="12" viewBox="0 0 13 12" fill="none" xmlns="http://www.w3.org/2000/svg">
<path opacity="0.24" d="M6.66699 12C9.9807 12 12.667 9.31371 12.667 6C12.667 2.68629 9.9807 0 6.66699 0C3.35328 0 0.666992 2.68629 0.666992 6C0.666992 9.31371 3.35328 12 6.66699 12Z" fill="black"/>
<path d="M9.0352 3.6318C9.21093 3.80754 9.21093 4.09246 9.0352 4.2682L7.30349 6L9.0352 7.73181C9.19629 7.8929 9.20971 8.14574 9.07547 8.32212L9.0352 8.3682C8.85946 8.54394 8.57454 8.54394 8.3988 8.3682L6.66699 6.6365L4.93519 8.3682C4.75945 8.54394 4.47453 8.54394 4.29879 8.3682C4.12306 8.19247 4.12306 7.90754 4.29879 7.73181L6.03049 6L4.29879 4.2682C4.1377 4.10711 4.12428 3.85427 4.25852 3.67788L4.29879 3.6318C4.47453 3.45607 4.75945 3.45607 4.93519 3.6318L6.66699 5.3635L8.3988 3.6318C8.57454 3.45607 8.85946 3.45607 9.0352 3.6318Z" fill="white"/>
</svg>
