<svg width="28" height="29" viewBox="0 0 28 29" fill="none" xmlns="http://www.w3.org/2000/svg">
<path fill-rule="evenodd" clip-rule="evenodd" d="M4.73223 7.73223C4.26339 8.20107 4 8.83696 4 9.5V19.5C4 20.163 4.26339 20.7989 4.73223 21.2678C5.20107 21.7366 5.83696 22 6.5 22H21.5C22.163 22 22.7989 21.7366 23.2678 21.2678C23.7366 20.7989 24 20.163 24 19.5V12C24 11.337 23.7366 10.7011 23.2678 10.2322C22.7989 9.76339 22.163 9.5 21.5 9.5H15.25L12.75 7H6.5C5.83696 7 5.20107 7.26339 4.73223 7.73223ZM17.2118 15.8104H12.0842L13.8553 17.5815C14.1029 17.8292 14.1029 18.2307 13.8553 18.4783C13.6076 18.726 13.2061 18.726 12.9585 18.4783L10.1048 15.6247C9.85715 15.377 9.85715 14.9755 10.1048 14.7278L12.9585 11.8742C13.2061 11.6265 13.6076 11.6265 13.8553 11.8742C14.1029 12.1218 14.1029 12.5233 13.8553 12.771L12.0842 14.5421H17.2118C17.562 14.5421 17.8459 14.826 17.8459 15.1762C17.8459 15.5265 17.562 15.8104 17.2118 15.8104Z" fill="#007AFF"/>
</svg>
