<svg width="24" height="24" viewBox="0 0 24 24" fill="none" xmlns="http://www.w3.org/2000/svg">
<path d="M24 12C24 18.6274 18.6274 24 12 24C5.37258 24 0 18.6274 0 12C0 5.37258 5.37258 0 12 0C18.6274 0 24 5.37258 24 12Z" fill="#007AFF"/>
<path d="M8.15912 14.1694C7.70202 15.406 7.41479 16.2748 7.29741 16.7759C6.92851 18.3507 6.66028 18.7054 8.03519 17.957C9.41011 17.2086 16.0663 13.5012 17.5513 12.6773C19.4871 11.6033 19.513 11.6872 17.4474 10.5469C15.8743 9.6784 9.29614 6.06777 8.03519 5.35883C6.77425 4.64989 6.92851 4.96514 7.29741 6.53991C7.41631 7.04748 7.70771 7.92406 8.17163 9.16964C8.4961 10.0408 9.25082 10.6801 10.1635 10.8569L14.0065 11.6013C14.0426 11.6085 14.066 11.6436 14.0588 11.6797C14.0535 11.7061 14.0329 11.7268 14.0065 11.732L10.1548 12.4757C9.2392 12.6525 8.48245 13.2947 8.15912 14.1694Z" fill="white"/>
</svg>
