<svg width="45" height="44" viewBox="0 0 45 44" fill="none" xmlns="http://www.w3.org/2000/svg">
<path d="M17.2387 25.7541C16.553 27.609 16.1222 28.9122 15.9461 29.6638C15.3928 32.026 14.9904 32.5581 17.0528 31.4355C19.1152 30.3129 29.0994 24.7519 31.3269 23.516C34.2306 21.905 34.2694 22.0309 31.1711 20.3204C28.8114 19.0176 18.9442 13.6017 17.0528 12.5382C15.1614 11.4748 15.3928 11.9477 15.9461 14.3099C16.1245 15.0712 16.5616 16.3861 17.2574 18.2545C17.7441 19.5612 18.8762 20.5202 20.2452 20.7854L26.0097 21.9019C26.0639 21.9128 26.099 21.9655 26.0882 22.0196C26.0802 22.0592 26.0493 22.0901 26.0097 22.0981L20.2322 23.2136C18.8588 23.4788 17.7237 24.4421 17.2387 25.7541Z" fill="#007AFF"/>
<path d="M22.5 0C34.6503 0 44.5 9.84974 44.5 22C44.5 34.1503 34.6503 44 22.5 44C10.3497 44 0.5 34.1503 0.5 22C0.5 9.84974 10.3497 0 22.5 0ZM7.95108 9.39432C5.02236 12.7716 3.25 17.1788 3.25 22C3.25 32.6315 11.8685 41.25 22.5 41.25C27.3212 41.25 31.7284 39.4776 35.1057 36.5489L7.95108 9.39432ZM22.5 2.75C17.6788 2.75 13.2716 4.52236 9.89432 7.45108L37.0489 34.6057C39.9776 31.2284 41.75 26.8212 41.75 22C41.75 11.3685 33.1315 2.75 22.5 2.75Z" fill="#818C99"/>
</svg>
