<svg width="20" height="20" viewBox="0 0 20 20" fill="none" xmlns="http://www.w3.org/2000/svg">
<path fill-rule="evenodd" clip-rule="evenodd" d="M14.6113 12.9832V14.6008C14.6113 14.8561 14.8491 15.063 15.1424 15.063C15.4357 15.063 15.6734 14.8561 15.6734 14.6008V12.9832L16.7162 11.6219C16.9514 11.3148 16.6984 10.9034 16.2743 10.9034H14.0104C13.5863 10.9034 13.3333 11.3148 13.5686 11.6219L14.6113 12.9832ZM15.1424 12.3084L15.5814 11.7353H14.7034L15.1424 12.3084Z" fill="#007AFF"/>
<path fill-rule="evenodd" clip-rule="evenodd" d="M3.20283 14.5496H11.2877C11.9064 16.0706 13.3992 17.1429 15.1424 17.1429C17.4397 17.1429 19.302 15.2805 19.302 12.9832C19.302 10.8934 17.761 9.16359 15.7533 8.86808V5.17732C15.7533 4.46671 15.567 3.92726 15.1944 3.55895C14.8217 3.18632 14.2736 3 13.55 3H3.05985C2.4099 3 1.90294 3.18632 1.53897 3.55895C1.17933 3.92726 0.999512 4.46671 0.999512 5.17732V12.3657C0.999512 13.0807 1.18583 13.6223 1.55847 13.9906C1.93544 14.3632 2.48356 14.5496 3.20283 14.5496ZM14.4079 8.88816V5.38826L11.0094 8.73147L12.2671 9.97724C12.8463 9.42313 13.5852 9.03472 14.4079 8.88816ZM11.5177 10.941L10.1474 9.57945L9.8323 9.88944C9.59398 10.1278 9.35567 10.3011 9.11736 10.4094C8.87904 10.5134 8.63423 10.5654 8.38292 10.5654C8.1316 10.5654 7.88679 10.5134 7.64847 10.4094C7.41016 10.3011 7.17185 10.1278 6.93353 9.88944L6.62154 9.5825L3.00722 13.1683C3.07597 13.1792 3.14984 13.1847 3.22883 13.1847H10.9875C10.9843 13.1179 10.9827 13.0507 10.9827 12.9832C10.9827 12.241 11.1771 11.5443 11.5177 10.941ZM5.75644 8.73143L2.3449 12.1106V5.37519L5.75644 8.73143ZM3.22883 4.36489C3.16832 4.36489 3.11082 4.36819 3.05633 4.37478L7.67447 8.93402C7.80879 9.05968 7.93228 9.155 8.04494 9.22C8.1576 9.28066 8.27026 9.31099 8.38292 9.31099C8.49991 9.31099 8.61473 9.28066 8.72739 9.22C8.84004 9.15934 8.96354 9.06401 9.09786 8.93402L13.7091 4.37587C13.6528 4.36855 13.5933 4.36489 13.5305 4.36489H3.22883ZM15.1424 16.0613C16.8424 16.0613 18.2205 14.6832 18.2205 12.9832C18.2205 11.2832 16.8424 9.90504 15.1424 9.90504C13.4424 9.90504 12.0642 11.2832 12.0642 12.9832C12.0642 14.6832 13.4424 16.0613 15.1424 16.0613Z" fill="#007AFF"/>
</svg>
