<svg width="20" height="20" viewBox="0 0 20 20" fill="none" xmlns="http://www.w3.org/2000/svg">
    <path
        d="M16.8125 10.9584L13.875 15.1251C13.7222 15.3473 13.5243 15.5209 13.2813 15.6459C13.0382 15.7709 12.7778 15.8334 12.5 15.8334H4.16667C3.70833 15.8334 3.31597 15.6702 2.98958 15.3438C2.66319 15.0174 2.5 14.6251 2.5 14.1667V5.83341C2.5 5.37508 2.66319 4.98272 2.98958 4.65633C3.31597 4.32994 3.70833 4.16675 4.16667 4.16675H12.5C12.7778 4.16675 13.0382 4.22925 13.2813 4.35425C13.5243 4.47925 13.7222 4.65286 13.875 4.87508L16.8125 9.04175C17.0208 9.33341 17.125 9.65286 17.125 10.0001C17.125 10.3473 17.0208 10.6667 16.8125 10.9584Z"
        fill="#ED768D" />
</svg>
