<svg width="80" height="80" viewBox="0 0 80 80" fill="none" xmlns="http://www.w3.org/2000/svg">
<path d="M19.4642 8.5H60.5267C66.5846 8.50003 71.4955 13.4109 71.4955 19.4688V60.5312C71.4955 66.5891 66.5846 71.5 60.5267 71.5H19.4642C13.4064 71.5 8.49551 66.5891 8.49548 60.5312V19.4688C8.49551 13.4109 13.4064 8.50003 19.4642 8.5Z" fill="#FFF2F8" stroke="#FD2882"/>
<path d="M40.9085 30.2778C42.7659 30.2778 43.4394 30.4712 44.1184 30.8344C44.7974 31.1975 45.3303 31.7304 45.6934 32.4094C46.0566 33.0884 46.25 33.7619 46.25 35.6193V44.3808C46.25 46.2382 46.0566 46.9117 45.6934 47.5907C45.3303 48.2697 44.7974 48.8026 44.1184 49.1658C43.4394 49.5289 42.7659 49.7223 40.9085 49.7223H30.7581C28.9007 49.7223 28.2272 49.5289 27.5482 49.1658C26.8692 48.8026 26.3363 48.2697 25.9732 47.5907C25.61 46.9117 25.4166 46.2382 25.4166 44.3808V35.6193C25.4166 33.7619 25.61 33.0884 25.9732 32.4094C26.3363 31.7304 26.8692 31.1975 27.5482 30.8344C28.2272 30.4712 28.9007 30.2778 30.7581 30.2778H40.9085ZM54.3049 34.3013C54.4856 34.5419 54.5833 34.8346 54.5833 35.1354V44.8648C54.5833 45.6318 53.9615 46.2537 53.1944 46.2537C52.8936 46.2537 52.6008 46.156 52.3603 45.9753L49.3051 43.6806C49.1305 43.5495 49.0277 43.3438 49.0277 43.1254V36.8748C49.0277 36.6563 49.1305 36.4507 49.3051 36.3195L52.3603 34.0249C52.9736 33.5642 53.8443 33.688 54.3049 34.3013Z" fill="#FD2882"/>
</svg>
