<svg width="20" height="20" viewBox="0 0 20 20" fill="none" xmlns="http://www.w3.org/2000/svg">
    <path
        d="M10.0001 1.42969C14.7329 1.42969 18.5716 5.26705 18.5716 10.0011C18.5716 14.7352 14.7329 18.5725 10.0001 18.5725C5.26607 18.5725 1.42871 14.7352 1.42871 10.0011C1.42871 5.26705 5.26607 1.42969 10.0001 1.42969ZM10.0001 2.85826C6.05505 2.85826 2.85728 6.05603 2.85728 10.0011C2.85728 13.9462 6.05505 17.144 10.0001 17.144C13.9444 17.144 17.143 13.9457 17.143 10.0011C17.143 6.05652 13.9444 2.85826 10.0001 2.85826ZM9.643 5.71546C10.0375 5.71546 10.3573 6.03526 10.3573 6.42975V10.0752L13.8391 11.4817C14.2049 11.6295 14.3816 12.0458 14.2339 12.4116C14.0861 12.7774 13.6698 12.9541 13.304 12.8063L9.37545 11.2193C9.10546 11.1102 8.92871 10.8482 8.92871 10.557V6.42975C8.92871 6.03526 9.24851 5.71546 9.643 5.71546Z"
        fill="#007AFF" />
</svg>
