<svg width="28" height="28" viewBox="0 0 28 28" fill="none" xmlns="http://www.w3.org/2000/svg">
<path d="M21.2915 8.68866H6.70801C6.4873 8.68866 6.30078 8.60852 6.14844 8.44824C5.99609 8.28796 5.91992 8.1001 5.91992 7.88461C5.91992 7.66391 5.99609 7.4747 6.14844 7.31705C6.30078 7.15939 6.4873 7.08057 6.70801 7.08057L21.2915 7.08057C21.5068 7.08057 21.6919 7.15808 21.8472 7.31311C22.002 7.46814 22.0796 7.65863 22.0796 7.88461C22.0796 8.00458 22.0566 8.1152 22.0112 8.21652C21.9727 8.30164 21.918 8.38019 21.8472 8.45218C21.6919 8.60983 21.5068 8.68866 21.2915 8.68866Z" fill="#99A2AD"/>
<path d="M16.9717 12.8193H6.70801C6.52686 12.8193 6.36816 12.7652 6.2334 12.6569C6.2041 12.6335 6.17578 12.6075 6.14844 12.5789C5.99609 12.4186 5.91992 12.2307 5.91992 12.0153C5.91992 11.7945 5.99609 11.604 6.14844 11.4438C6.30078 11.2834 6.4873 11.2033 6.70801 11.2033H16.9717C17.1924 11.2033 17.3799 11.2821 17.5352 11.4398C17.6899 11.5975 17.7676 11.7893 17.7676 12.0153C17.7676 12.236 17.6899 12.4252 17.5352 12.5828C17.3799 12.7405 17.1924 12.8193 16.9717 12.8193Z" fill="#99A2AD"/>
<path d="M21.2915 16.7887H6.70801C6.4873 16.7887 6.30078 16.7085 6.14844 16.5482C5.99609 16.388 5.91992 16.2001 5.91992 15.9846C5.91992 15.7639 5.99609 15.5747 6.14844 15.4171C6.30078 15.2594 6.4873 15.1806 6.70801 15.1806H21.2915C21.5068 15.1806 21.6919 15.2581 21.8472 15.4131C22.002 15.5681 22.0796 15.7586 22.0796 15.9846C22.0796 16.2054 22.002 16.3945 21.8472 16.5522C21.6919 16.7098 21.5068 16.7887 21.2915 16.7887Z" fill="#99A2AD"/>
<path d="M16.9717 20.9193H6.70801C6.4873 20.9193 6.30078 20.8392 6.14844 20.6789C6.04932 20.5748 5.98291 20.459 5.94824 20.3317C5.9292 20.2629 5.91992 20.1908 5.91992 20.1153C5.91992 19.8945 5.99609 19.704 6.14844 19.5438C6.30078 19.3835 6.4873 19.3033 6.70801 19.3033H16.9717C17.1924 19.3033 17.3799 19.3821 17.5352 19.5398C17.6899 19.6975 17.7676 19.8893 17.7676 20.1153C17.7676 20.336 17.6899 20.5252 17.5352 20.6828C17.4531 20.7662 17.3618 20.8276 17.2617 20.8669C17.1724 20.9018 17.0757 20.9193 16.9717 20.9193Z" fill="#99A2AD"/>
</svg>
