<svg width="64" height="64" viewBox="0 0 64 64" fill="none" xmlns="http://www.w3.org/2000/svg">
<rect width="64" height="64" rx="16" fill="#F2F3F5"/>
<path d="M44.8002 41.0001L42.8668 39.1335C43.2446 38.8224 43.5279 38.4612 43.7168 38.0501C43.9057 37.639 44.0002 37.1779 44.0002 36.6668C44.0002 35.7335 43.6779 34.9446 43.0335 34.3001C42.389 33.6557 41.6002 33.3335 40.6668 33.3335H38.6668V30.6668C38.6668 28.8224 38.0168 27.2501 36.7168 25.9501C35.4168 24.6501 33.8446 24.0001 32.0002 24.0001C31.4002 24.0001 30.8224 24.0724 30.2668 24.2168C29.7113 24.3612 29.1779 24.589 28.6668 24.9001L26.7335 22.9668C27.5113 22.4335 28.3391 22.0279 29.2168 21.7501C30.0946 21.4724 31.0224 21.3335 32.0002 21.3335C34.6002 21.3335 36.8057 22.239 38.6168 24.0501C40.4279 25.8612 41.3335 28.0668 41.3335 30.6668C42.8668 30.8446 44.139 31.5057 45.1502 32.6501C46.1613 33.7946 46.6668 35.1335 46.6668 36.6668C46.6668 37.5335 46.5002 38.339 46.1668 39.0835C45.8335 39.8279 45.3779 40.4668 44.8002 41.0001ZM41.4668 45.2001L38.8668 42.6668H24.6668C22.6224 42.6668 20.8891 41.9557 19.4668 40.5335C18.0446 39.1112 17.3335 37.3779 17.3335 35.3335C17.3335 33.6224 17.8613 32.1001 18.9168 30.7668C19.9724 29.4335 21.3335 28.5779 23.0002 28.2001C23.0668 28.0224 23.1335 27.8501 23.2002 27.6835C23.2668 27.5168 23.3335 27.3335 23.4002 27.1335L18.8002 22.5335C18.5557 22.289 18.4335 21.9779 18.4335 21.6001C18.4335 21.2224 18.5557 20.9112 18.8002 20.6668C19.0446 20.4224 19.3557 20.3001 19.7335 20.3001C20.1113 20.3001 20.4224 20.4224 20.6668 20.6668L43.3335 43.3335C43.5779 43.5779 43.7002 43.889 43.7002 44.2668C43.7002 44.6446 43.5779 44.9557 43.3335 45.2001C43.089 45.4446 42.7835 45.5668 42.4168 45.5668C42.0502 45.5668 41.7335 45.4446 41.4668 45.2001ZM24.6668 40.0001H36.2002L25.4668 29.2668C25.4224 29.5112 25.3891 29.7446 25.3668 29.9668C25.3446 30.189 25.3335 30.4224 25.3335 30.6668H24.6668C23.3779 30.6668 22.2779 31.1224 21.3668 32.0335C20.4557 32.9446 20.0002 34.0446 20.0002 35.3335C20.0002 36.6224 20.4557 37.7224 21.3668 38.6335C22.2779 39.5446 23.3779 40.0001 24.6668 40.0001Z" fill="#939393"/>
</svg>
